<svg width="128" height="113" viewBox="0 0 128 113" fill="none" xmlns="http://www.w3.org/2000/svg">
<path d="M127.905 62.7327L121.998 74.1653L107.199 102.805H103.802L103.875 99.7049L86.0293 74.1653L83.3909 70.3895L86.3049 74.1653L103.851 96.8999L103.924 97.6917L104.475 74.1653L104.625 67.7278L86.9309 37.3363L104.676 62.4653L104.49 0.387291V0.18092L104.497 0.385186L105.672 49.3101L121.795 29.4352L105.723 53.5239L105.994 74.1653L106.075 80.327L109.571 74.1653L120.915 54.1683L111.092 74.1653L106.131 84.267L106.325 99.17L121.135 74.1653L127.905 62.7327Z" fill="#E6E6E6"/>
<path d="M118.826 102.403C118.826 105.05 93.9564 113 63.2787 113C32.601 113 7.73181 105.05 7.73181 102.403C7.73181 99.7552 32.601 103.412 63.2787 103.412C93.9564 103.412 118.826 99.7552 118.826 102.403Z" fill="#3F3D56"/>
<path d="M118.826 102.403C118.826 105.05 93.9564 113 63.2787 113C32.601 113 7.73181 105.05 7.73181 102.403C7.73181 99.7552 32.601 103.412 63.2787 103.412C93.9564 103.412 118.826 99.7552 118.826 102.403Z" fill="#003D21"/>
<path d="M63.2787 107.197C93.9564 107.197 118.826 105.05 118.826 102.403C118.826 99.7552 93.9564 97.6089 63.2787 97.6089C32.601 97.6089 7.73181 99.7552 7.73181 102.403C7.73181 105.05 32.601 107.197 63.2787 107.197Z" fill="#29885C"/>
<path d="M62.8514 104.989C75.4765 104.989 85.7111 104.046 85.7111 102.883C85.7111 101.72 75.4765 100.777 62.8514 100.777C50.2263 100.777 39.9917 101.72 39.9917 102.883C39.9917 104.046 50.2263 104.989 62.8514 104.989Z" fill="#003D21"/>
<path d="M107.37 54.5031H82.3997V54.659H22.6868V63.1877C22.6868 85.1106 40.7169 102.883 62.9582 102.883H62.9583C69.9972 102.885 76.9138 101.069 83.0179 97.6139C89.1221 94.159 94.2004 89.1867 97.7461 83.1931H107.37C111.23 83.1931 114.932 81.6818 117.661 78.9916C120.39 76.3014 121.923 72.6526 121.923 68.8481C121.923 65.0436 120.39 61.3949 117.661 58.7047C114.932 56.0145 111.23 54.5031 107.37 54.5031ZM107.37 78.7709H100.006C102.14 73.8451 103.236 68.5436 103.23 63.1877V58.9254H107.37C110.04 58.9254 112.601 59.9708 114.488 61.8317C116.376 63.6926 117.437 66.2164 117.437 68.8481C117.437 71.4798 116.376 74.0037 114.488 75.8646C112.601 77.7254 110.04 78.7709 107.37 78.7709V78.7709Z" fill="#003D21"/>
<path d="M26.4255 58.3442V63.1877C26.4255 83.0436 42.8141 99.1974 62.9583 99.1974C83.1026 99.1974 99.4911 83.0436 99.4911 63.1877V58.3442H26.4255Z" fill="#00703C"/>
<path d="M53.406 92.5995L45.0423 84.1033C44.1982 83.2458 43.7343 82.093 43.7526 80.8985C43.7709 79.7039 44.2698 78.5654 45.1397 77.7334L57.7894 65.6351C58.0909 65.3467 58.4467 65.1193 58.8368 64.9657L61.5845 63.8835C62.1771 63.6501 62.8268 63.5955 63.4509 63.7267C64.0751 63.858 64.6456 64.1691 65.0901 64.6206L73.824 73.493C74.2548 73.9307 74.5486 74.4814 74.6702 75.0793C74.7918 75.6772 74.7361 76.297 74.5097 76.8645L73.5854 79.1814C73.4175 79.6022 73.1603 79.9828 72.8311 80.2977L59.8683 92.6955C58.9984 93.5275 57.8289 93.9848 56.6169 93.9668C55.405 93.9488 54.25 93.457 53.406 92.5995Z" fill="#E6E6E6"/>
<path d="M70.3624 72.0411L66.2993 67.9136L65.6712 68.5143L69.7343 72.6418L70.3624 72.0411Z" fill="#3F3D56"/>
<path d="M68.4134 70.4953C69.1531 68.7659 71.3569 68.3933 72.9959 68.0504C74.7384 67.686 76.7231 67.0518 77.447 65.2656C77.6032 64.8999 77.6636 64.5014 77.6227 64.1067C77.5818 63.712 77.4409 63.3338 77.213 63.0068C76.787 62.4046 76.0698 61.9146 75.2944 61.983C73.6717 62.1263 73.3827 64.0154 74.0026 65.2075C74.8394 66.8167 76.9883 66.9569 78.5964 66.9966C80.1499 67.035 81.817 66.9762 83.2366 66.2844C83.9053 65.9636 84.4642 65.457 84.8444 64.827C85.2245 64.1969 85.4094 63.471 85.3761 62.7387C85.3262 61.1936 84.6345 59.7521 84.2215 58.2837C83.8247 56.8725 83.6998 55.3076 84.7565 54.134C85.7803 52.9967 87.3941 52.5476 88.8656 52.3182C89.2434 52.2593 89.6237 52.2192 90.0049 52.1889C90.4132 52.1566 90.4168 51.5245 90.0049 51.5572C87.2767 51.7735 83.7013 52.7 83.3094 55.8756C83.1303 57.3272 83.6868 58.7593 84.1357 60.1145C84.553 61.3741 85.0412 62.825 84.5073 64.1242C83.9468 65.4881 82.4956 66.043 81.1208 66.2512C80.3796 66.352 79.6313 66.3919 78.8834 66.3706C78.0169 66.3928 77.151 66.3071 76.3063 66.1153C75.5826 65.9197 74.885 65.5451 74.5419 64.8607C74.2897 64.3577 74.2092 63.6792 74.4918 63.1713C74.5658 63.0414 74.6658 62.9279 74.7859 62.8375C74.906 62.7471 75.0435 62.6819 75.19 62.6458C75.3366 62.6097 75.4891 62.6035 75.6382 62.6276C75.7872 62.6517 75.9297 62.7055 76.0569 62.7858C76.3666 62.9562 76.6194 63.2114 76.7849 63.5206C76.9504 63.8298 77.0213 64.1796 76.9892 64.5277C76.7549 66.3174 74.6791 67.0361 73.1597 67.3699C71.4859 67.7376 69.5974 68.0071 68.4019 69.3572C68.1479 69.6461 67.943 69.9738 67.7954 70.3273C67.7733 70.4081 67.7845 70.4942 67.8264 70.5669C67.8683 70.6396 67.9375 70.6932 68.0192 70.7159C68.1011 70.7361 68.1877 70.7245 68.2611 70.6834C68.3345 70.6423 68.389 70.5749 68.4134 70.4953V70.4953Z" fill="#3F3D56"/>
<path d="M42.5555 67.9258C43.8534 67.9258 44.9056 66.8887 44.9056 65.6094C44.9056 64.3301 43.8534 63.293 42.5555 63.293C41.2576 63.293 40.2054 64.3301 40.2054 65.6094C40.2054 66.8887 41.2576 67.9258 42.5555 67.9258Z" fill="#E6E6E6"/>
<path d="M85.7112 76.5597C87.0091 76.5597 88.0613 75.5227 88.0613 74.2433C88.0613 72.964 87.0091 71.9269 85.7112 71.9269C84.4133 71.9269 83.3611 72.964 83.3611 74.2433C83.3611 75.5227 84.4133 76.5597 85.7112 76.5597Z" fill="#E6E6E6"/>
<path d="M73.9609 88.1419C74.9049 88.1419 75.6701 87.3876 75.6701 86.4572C75.6701 85.5268 74.9049 84.7725 73.9609 84.7725C73.017 84.7725 72.2518 85.5268 72.2518 86.4572C72.2518 87.3876 73.017 88.1419 73.9609 88.1419Z" fill="#E6E6E6"/>
<path d="M13.0343 101.669C20.0135 103.203 27.7158 102.069 27.7158 102.069C27.7158 102.069 24.1026 98.4473 17.1233 96.9127C10.1441 95.378 2.44177 96.5119 2.44177 96.5119C2.44177 96.5119 6.05504 100.134 13.0343 101.669Z" fill="#078770"/>
<path d="M13.7227 104.256C21.3211 104.473 27.7688 102.059 27.7688 102.059C23.5082 100.241 18.9386 99.2299 14.2985 99.0786C6.70009 98.8625 0.252441 101.276 0.252441 101.276C4.51297 103.094 9.08264 104.105 13.7227 104.256V104.256Z" fill="#00703C"/>
<path d="M14.2624 99.0874C19.6907 101.785 27.685 102.122 27.685 102.122C27.685 102.122 26.8782 98.0859 21.4499 95.3883C16.0216 92.6908 8.02734 92.3536 8.02734 92.3536C8.02734 92.3536 8.8341 96.3898 14.2624 99.0874Z" fill="#00BD65"/>
<path opacity="0.3" d="M26.3186 58.4496V63.293C26.3186 83.149 42.7072 99.3028 62.8514 99.3028C82.9957 99.3028 99.3842 83.149 99.3842 63.293V58.4496H26.3186Z" fill="#00703C"/>
<path d="M7.80495 67.4296C6.56423 69.3275 5.18351 69.3882 4.01473 68.6459C3.98758 68.6286 3.9608 68.6111 3.93439 68.5933C3.88113 68.5575 3.82944 68.5205 3.77934 68.4823C2.78261 67.7234 2.41839 66.5062 3.57226 64.7412C4.76637 62.9146 8.23392 61.8548 8.49238 61.7778H8.49274L8.50756 61.7734C8.50756 61.7734 9.04557 65.5319 7.80495 67.4296Z" fill="#39BD7F" fill-opacity="0.3"/>
<path d="M93.9028 18.7479C92.662 20.6458 91.2813 20.7065 90.1125 19.9641C90.0854 19.9469 90.0586 19.9294 90.0322 19.9116C89.9789 19.8758 89.9272 19.8388 89.8771 19.8006C88.8804 19.0417 88.5162 17.8245 89.67 16.0594C90.8641 14.2329 94.3317 13.173 94.5902 13.096H94.5906L94.6054 13.0916C94.6054 13.0916 95.1434 16.8502 93.9028 18.7479Z" fill="#39BD7F" fill-opacity="0.3"/>
<path d="M44.7724 4.66285C46.324 6.32373 46.0365 7.65623 45.0137 8.58461C44.9899 8.60618 44.966 8.62732 44.9419 8.64805C44.8933 8.68986 44.844 8.72986 44.7939 8.76807C43.7981 9.52814 42.5113 9.56957 41.0683 8.02497C39.575 6.4265 39.4062 2.85192 39.3955 2.58597L39.3956 2.58563L39.395 2.5704C39.395 2.5704 43.2209 3.00213 44.7724 4.66285Z" fill="#39BD7F" fill-opacity="0.3"/>
<path d="M95.621 58.1077L91.9401 59.9379C91.5882 60.1285 91.174 60.1737 90.7883 60.0636C90.4027 59.9536 90.077 59.6973 89.8828 59.351L87.3498 54.4015C87.2893 54.2829 87.2546 54.1532 87.248 54.0207L87.1996 53.0807C87.1938 52.8703 87.2497 52.6626 87.3608 52.4827C87.4718 52.3028 87.6332 52.1583 87.8256 52.0667L91.6694 50.1555C91.853 50.0606 92.0599 50.0182 92.2667 50.033C92.4734 50.0478 92.6719 50.1193 92.8397 50.2393L93.49 50.7263C93.6073 50.8138 93.7028 50.9265 93.7692 51.0559L96.3649 56.128C96.532 56.4878 96.5476 56.8983 96.4081 57.2694C96.2687 57.6405 95.9856 57.942 95.621 58.1077V58.1077Z" fill="#E6E6E6"/>
<path d="M90.8161 51.0934L89.028 51.9825L89.1537 52.2283L90.9419 51.3392L90.8161 51.0934Z" fill="#3F3D56"/>
<path d="M92.689 51.9878L88.7222 53.9379L89.2943 55.0686L93.2611 53.1185L92.689 51.9878Z" fill="#078770"/>
<path d="M93.5434 53.462L89.5767 55.412L90.1487 56.5427L94.1155 54.5926L93.5434 53.462Z" fill="#078770"/>
<path d="M94.3981 55.1466L90.4313 57.0966L91.0034 58.2273L94.9702 56.2772L94.3981 55.1466Z" fill="#078770"/>
</svg>
