<svg xmlns="http://www.w3.org/2000/svg" xmlns:xlink="http://www.w3.org/1999/xlink" width="128" height="113" fill="none" xmlns:v="https://vecta.io/nano"><path d="M127.905 62.733l-5.907 11.433-14.799 28.64h-3.397l.073-3.1-17.846-25.54-2.638-3.776 2.914 3.776L103.851 96.9l.073.792.551-23.526.15-6.437-17.694-30.391 17.745 25.129L104.49.387V.181l.007.204 1.175 48.925 16.123-19.875-16.072 24.089.271 20.641.081 6.162 3.496-6.162 11.344-19.997-9.823 19.997-4.961 10.102.194 14.903 14.81-25.005 6.77-11.433z" fill="#e6e6e6"/><use xlink:href="#B" fill="#3f3d56"/><use xlink:href="#B" fill="#003d21"/><path d="M63.279 107.197c30.678 0 55.547-2.147 55.547-4.794s-24.87-4.794-55.547-4.794-55.547 2.146-55.547 4.794 24.869 4.794 55.547 4.794z" fill="#29885c"/><g fill="#003d21"><path d="M62.851 104.989c12.625 0 22.86-.943 22.86-2.106s-10.235-2.106-22.86-2.106-22.86.943-22.86 2.106 10.235 2.106 22.86 2.106z"/><path d="M107.37 54.503H82.4v.156H22.687v8.529c0 21.923 18.03 39.695 40.271 39.695h0a40.71 40.71 0 0 0 20.06-5.269c6.104-3.455 11.183-8.427 14.728-14.421h9.624c3.86 0 7.562-1.511 10.291-4.201s4.262-6.339 4.262-10.144-1.533-7.453-4.262-10.143-6.431-4.202-10.291-4.202zm0 24.268h-7.364a39.08 39.08 0 0 0 3.224-15.583v-4.262h4.14a10.14 10.14 0 0 1 7.118 2.906 9.85 9.85 0 0 1 2.949 7.016c0 2.632-1.061 5.156-2.949 7.016a10.14 10.14 0 0 1-7.118 2.906h0z"/></g><path d="M26.426 58.344v4.843c0 19.856 16.389 36.01 36.533 36.01s36.533-16.154 36.533-36.01v-4.843H26.426z" fill="#00703c"/><path d="M53.406 92.6l-8.364-8.496a4.47 4.47 0 0 1-1.29-3.205c.018-1.195.517-2.333 1.387-3.165l12.65-12.098c.301-.288.657-.516 1.047-.669l2.748-1.082c.593-.233 1.242-.288 1.866-.157s1.195.442 1.639.894l8.734 8.872a3.16 3.16 0 0 1 .846 1.586 3.13 3.13 0 0 1-.16 1.785l-.924 2.317a3.17 3.17 0 0 1-.754 1.116L59.868 92.696c-.87.832-2.039 1.289-3.251 1.271a4.6 4.6 0 0 1-3.211-1.367z" fill="#e6e6e6"/><g fill="#3f3d56"><path d="M70.362 72.041l-4.063-4.127-.628.601 4.063 4.127.628-.601z"/><path d="M68.413 70.495c.74-1.729 2.944-2.102 4.583-2.445 1.742-.364 3.727-.999 4.451-2.785.156-.366.217-.764.176-1.159s-.182-.773-.41-1.1c-.426-.602-1.143-1.092-1.919-1.024-1.623.143-1.912 2.032-1.292 3.224.837 1.609 2.986 1.749 4.594 1.789 1.553.038 3.221-.02 4.64-.712a3.79 3.79 0 0 0 1.608-1.457c.38-.63.565-1.356.532-2.088-.05-1.545-.742-2.987-1.155-4.455-.397-1.411-.522-2.976.535-4.15 1.024-1.137 2.638-1.586 4.109-1.816l1.139-.129c.408-.032.412-.664 0-.632-2.728.216-6.304 1.143-6.696 4.318-.179 1.452.377 2.884.826 4.239.417 1.26.906 2.711.372 4.01-.561 1.364-2.012 1.919-3.386 2.127a13.71 13.71 0 0 1-2.237.119c-.866.022-1.732-.063-2.577-.255-.724-.196-1.421-.57-1.764-1.255-.252-.503-.333-1.181-.05-1.689a1.1 1.1 0 0 1 .294-.334c.12-.09.258-.156.404-.192s.299-.042.448-.018a1.12 1.12 0 0 1 .419.158 1.82 1.82 0 0 1 .728.735c.166.309.236.659.204 1.007-.234 1.79-2.31 2.508-3.829 2.842-1.674.368-3.562.637-4.758 1.987a3.53 3.53 0 0 0-.606.97c-.022.081-.011.167.031.24s.111.126.193.149.169.009.242-.032.128-.109.152-.188h0z"/></g><g fill="#e6e6e6"><use xlink:href="#C"/><use xlink:href="#C" x="43.155" y="8.634"/><path d="M73.961 88.142c.944 0 1.709-.754 1.709-1.685s-.765-1.685-1.709-1.685-1.709.754-1.709 1.685.765 1.685 1.709 1.685z"/></g><path d="M13.034 101.669c6.979 1.534 14.682.4 14.682.4s-3.613-3.622-10.593-5.156-14.682-.401-14.682-.401 3.613 3.622 10.593 5.157z" fill="#078770"/><path d="M13.723 104.256c7.598.217 14.046-2.197 14.046-2.197-4.261-1.818-8.83-2.829-13.47-2.98C6.7 98.863.252 101.276.252 101.276a37.43 37.43 0 0 0 13.47 2.98h0z" fill="#00703c"/><path d="M14.262 99.087c5.428 2.698 13.423 3.035 13.423 3.035s-.807-4.036-6.235-6.734-13.423-3.035-13.423-3.035.807 4.036 6.235 6.734z" fill="#00bd65"/><path opacity=".3" d="M26.319 58.45v4.843c0 19.856 16.389 36.01 36.533 36.01s36.533-16.154 36.533-36.01V58.45H26.319z" fill="#00703c"/><path d="M7.805 67.43c-1.241 1.898-2.621 1.959-3.79 1.216l-.08-.053-.155-.111c-.997-.759-1.361-1.976-.207-3.741 1.194-1.827 4.662-2.886 4.92-2.963h0l.015-.004s.538 3.758-.703 5.656zm86.098-48.682c-1.241 1.898-2.621 1.959-3.79 1.216l-.08-.052-.155-.111c-.997-.759-1.361-1.976-.207-3.741 1.194-1.826 4.662-2.886 4.92-2.963h0l.015-.004s.538 3.759-.703 5.656zM44.772 4.663c1.552 1.661 1.264 2.993.241 3.922l-.072.063-.148.12c-.996.76-2.283.802-3.726-.743-1.493-1.598-1.662-5.173-1.673-5.439h0l-.001-.015s3.826.432 5.377 2.092z" fill-opacity=".3" fill="#39bd7f"/><path d="M95.621 58.108l-3.681 1.83c-.352.191-.766.236-1.152.126s-.711-.366-.906-.713l-2.533-4.949a.94.94 0 0 1-.102-.381l-.048-.94a1.08 1.08 0 0 1 .161-.598c.111-.18.272-.324.465-.416l3.844-1.911c.184-.095.391-.137.597-.123s.405.086.573.206l.65.487c.117.087.213.2.279.33l2.596 5.072c.167.36.183.77.043 1.141s-.422.673-.787.838h0z" fill="#e6e6e6"/><path d="M90.816 51.093l-1.788.889.126.246 1.788-.889-.126-.246z" fill="#3f3d56"/><path d="M92.689 51.988l-3.967 1.95.572 1.131 3.967-1.95-.572-1.131zm.854 1.474l-3.967 1.95.572 1.131 3.967-1.95-.572-1.131zm.855 1.685l-3.967 1.95.572 1.131 3.967-1.95-.572-1.131z" fill="#078770"/><defs ><path id="B" d="M118.826 102.403c0 2.647-24.87 10.597-55.547 10.597s-55.547-7.95-55.547-10.597 24.869 1.009 55.547 1.009 55.547-3.657 55.547-1.009z"/><path id="C" d="M42.556 67.926c1.298 0 2.35-1.037 2.35-2.316s-1.052-2.316-2.35-2.316-2.35 1.037-2.35 2.316 1.052 2.316 2.35 2.316z"/></defs></svg>