<svg width="128" height="87" viewBox="0 0 128 87" fill="none" xmlns="http://www.w3.org/2000/svg">
<g clip-path="url(#clip0)">
<path d="M8.61409 65.5593C8.00628 65.5593 7.39723 65.5845 6.80244 65.6353L6.71588 65.6427C2.77062 65.9932 -0.115152 68.0267 0.00353136 70.3731L0.0264756 70.7973C0.0416063 71.0655 0.0577274 71.3539 0.0709968 71.6737C0.0781837 71.8315 0.292371 71.9526 0.558885 71.9526H97.6026C104.445 71.9108 111.262 71.8583 117.864 71.7964C119.102 71.799 120.34 71.7345 121.571 71.6033C123.406 71.3851 124.679 70.9525 125.464 70.2808H125.464C126.441 69.4479 126.472 68.399 126.413 67.2139C126.292 64.8211 126.173 62.3073 126.054 59.8012C125.949 57.5924 125.844 55.3896 125.74 53.2806C125.675 52.0291 125.531 50.9244 124.422 50.08C123.22 49.1669 121.028 48.7041 117.906 48.7041C117.869 48.7041 117.831 48.7041 117.793 48.7042C108.01 48.7392 98.3174 52.1199 93.6735 57.1167C93.1387 57.6921 92.6404 58.308 92.1585 58.9039C91.4464 59.784 90.7102 60.694 89.8317 61.5078C89.356 61.9544 88.8416 62.3574 88.2946 62.712C88.2569 62.7382 88.2137 62.7662 88.1681 62.7929C88.0636 62.8613 87.9545 62.9272 87.8481 62.9859C87.2251 63.3476 86.5686 63.6475 85.8879 63.8816L85.8192 63.9048C85.7675 63.9234 85.7114 63.942 85.6553 63.9589C85.2622 64.0858 84.8538 64.1955 84.4447 64.2841C82.6744 64.6763 80.6615 64.7703 78.4621 64.5633C76.4422 64.3681 74.4483 63.9598 72.5135 63.345C70.4768 62.698 68.5704 61.8914 66.7267 61.1115C65.9169 60.7687 65.0793 60.4144 64.2428 60.0787C64.0855 60.0155 63.9309 59.9538 63.7739 59.892C62.7522 59.4918 61.8259 59.1613 60.9422 58.8816C58.7527 58.1858 56.4863 57.7639 54.1941 57.6254C51.7611 57.4915 49.6171 57.744 47.8231 58.3741C47.3285 58.5472 46.8469 58.7558 46.382 58.9982C44.2571 60.1072 42.9471 61.744 41.6803 63.327C40.1046 65.2959 38.4751 67.332 35.2576 68.3875C31.5449 69.6065 26.1255 69.1001 22.2914 68.2193C21.0859 67.9424 19.882 67.6238 18.7176 67.3156C18.2473 67.1911 17.7767 67.0674 17.3058 66.9446C16.3803 66.7045 15.623 66.5205 14.9223 66.3652L14.7006 66.3156C14.5774 66.2887 14.454 66.2618 14.3283 66.2362C13.4961 66.0606 12.7211 65.9224 11.9579 65.8137L11.7773 65.7872C11.4153 65.7392 11.0768 65.6994 10.7447 65.6658L10.6121 65.6526C9.96167 65.5904 9.2885 65.5593 8.61409 65.5593Z" fill="#F2F2F2"/>
<path d="M108.963 68.178C111.694 65.7049 115.755 64.4614 119.162 65.8481C115.667 67.7982 112.972 70.9278 111.552 74.6833C111.009 76.1336 110.556 77.8034 109.222 78.5799C108.392 79.063 107.359 79.0867 106.429 78.8534C105.498 78.6202 104.645 78.1526 103.803 77.6897L103.564 77.6843C104.639 74.1514 106.232 70.6511 108.963 68.178Z" fill="#E6E6E6"/>
<path d="M119.143 65.9232C116.126 66.3151 113.308 67.6526 111.09 69.7457C110.604 70.1878 110.191 70.704 109.866 71.2754C109.567 71.8422 109.424 72.4793 109.453 73.1203C109.467 73.7186 109.551 74.3288 109.421 74.9202C109.35 75.222 109.216 75.5052 109.029 75.7513C108.841 75.9975 108.604 76.201 108.332 76.3485C107.665 76.7336 106.901 76.8551 106.149 76.9477C105.314 77.0506 104.445 77.1441 103.723 77.6147C103.635 77.6717 103.552 77.5318 103.639 77.4749C104.897 76.6561 106.488 76.954 107.84 76.4076C108.471 76.1526 109.029 75.7049 109.226 75.0282C109.399 74.4364 109.313 73.8071 109.293 73.2014C109.256 72.5765 109.372 71.9519 109.63 71.3823C109.926 70.7962 110.318 70.2648 110.791 69.811C111.839 68.7724 113.044 67.9058 114.36 67.2431C115.858 66.4785 117.475 65.977 119.142 65.7604C119.245 65.747 119.246 65.91 119.143 65.9232H119.143Z" fill="white"/>
<path d="M111.765 69.0295C111.466 68.6079 111.326 68.0931 111.369 67.5773C111.413 67.0614 111.638 66.578 112.004 66.2134C112.078 66.1399 112.195 66.2524 112.121 66.326C111.78 66.6649 111.57 67.1152 111.531 67.5957C111.491 68.0761 111.623 68.5551 111.904 68.9461C111.965 69.0311 111.825 69.1141 111.765 69.0296V69.0295Z" fill="white"/>
<path d="M109.405 72.818C110.442 73.0026 111.51 72.7877 112.396 72.216C112.484 72.1593 112.567 72.2992 112.48 72.3558C111.556 72.949 110.444 73.1704 109.366 72.9759C109.263 72.9572 109.303 72.7995 109.405 72.818V72.818Z" fill="white"/>
<path d="M115.871 66.694C115.953 66.8814 116.08 67.0454 116.24 67.1713C116.401 67.2972 116.59 67.3811 116.791 67.4155C116.894 67.4327 116.853 67.5905 116.751 67.5733C116.529 67.5344 116.321 67.4415 116.143 67.3027C115.965 67.164 115.824 66.9836 115.732 66.7775C115.722 66.7588 115.719 66.7368 115.724 66.7161C115.729 66.6953 115.742 66.6774 115.76 66.6658C115.779 66.6549 115.801 66.6517 115.821 66.657C115.842 66.6622 115.86 66.6755 115.871 66.694V66.694Z" fill="white"/>
<path d="M122.914 77.7745C122.849 77.7655 122.784 77.7565 122.719 77.7486C121.85 77.6326 120.973 77.5878 120.096 77.6147C120.028 77.6157 119.96 77.6177 119.892 77.6206C117.781 77.7079 115.705 78.1882 113.768 79.0373C112.998 79.3759 112.255 79.7728 111.544 80.2248C110.564 80.849 109.549 81.6042 108.453 81.8588C108.339 81.8866 108.223 81.9073 108.106 81.9208L103.576 77.9782C103.57 77.964 103.563 77.9509 103.558 77.9367L103.37 77.7876C103.405 77.7617 103.441 77.7356 103.476 77.7097C103.497 77.6946 103.518 77.6804 103.538 77.6653C103.552 77.6555 103.566 77.6458 103.578 77.6362C103.582 77.6329 103.587 77.6297 103.591 77.6274C103.603 77.6178 103.615 77.6101 103.626 77.6015C103.831 77.4552 104.038 77.31 104.247 77.166C104.248 77.1649 104.248 77.1649 104.25 77.1648C105.827 76.0524 107.531 75.132 109.325 74.423C109.378 74.4026 109.433 74.381 109.489 74.3624C110.297 74.0606 111.128 73.8256 111.973 73.6598C112.437 73.5705 112.905 73.5048 113.375 73.4631C114.589 73.3575 115.813 73.4447 117.001 73.7213C119.369 74.2731 121.534 75.5798 122.817 77.6178C122.85 77.6699 122.882 77.7213 122.914 77.7745Z" fill="#E6E6E6"/>
<path d="M122.854 77.8234C120.21 76.3105 117.159 75.6733 114.134 76.0024C113.481 76.0616 112.842 76.2238 112.24 76.4831C111.662 76.7546 111.166 77.1769 110.805 77.7061C110.458 78.1927 110.16 78.7307 109.702 79.1242C109.464 79.3221 109.188 79.4673 108.89 79.5502C108.593 79.6332 108.282 79.6521 107.977 79.6056C107.213 79.5097 106.53 79.1439 105.874 78.7629C105.146 78.3398 104.396 77.8888 103.537 77.8273C103.433 77.8198 103.451 77.658 103.555 77.6654C105.049 77.7725 106.141 78.9731 107.548 79.3548C108.204 79.5329 108.918 79.5133 109.481 79.0925C109.974 78.7246 110.282 78.17 110.629 77.6742C110.974 77.1528 111.44 76.7242 111.988 76.4258C112.575 76.1366 113.207 75.9499 113.856 75.8738C115.315 75.6788 116.796 75.7157 118.244 75.9831C119.898 76.279 121.49 76.8571 122.95 77.6925C123.04 77.7442 122.943 77.8748 122.854 77.8234V77.8234Z" fill="white"/>
<path d="M115.102 75.8388C115.116 75.3212 115.312 74.8255 115.656 74.4402C116 74.0548 116.469 73.8049 116.98 73.7351C117.083 73.7213 117.109 73.8821 117.006 73.8959C116.53 73.96 116.093 74.1928 115.774 74.5523C115.454 74.9118 115.273 75.3743 115.263 75.8563C115.26 75.9611 115.099 75.943 115.102 75.8388V75.8388Z" fill="white"/>
<path d="M110.948 77.4361C111.666 78.2109 112.647 78.6856 113.697 78.7654C113.801 78.7733 113.784 78.9351 113.68 78.9273C112.587 78.8422 111.567 78.3461 110.822 77.5381C110.751 77.4611 110.878 77.3594 110.948 77.4361H110.948Z" fill="white"/>
<path d="M119.78 76.459C119.733 76.6582 119.736 76.8659 119.788 77.0635C119.841 77.2612 119.942 77.4426 120.082 77.5915C120.153 77.6676 120.027 77.7692 119.955 77.6936C119.802 77.5284 119.691 77.3279 119.632 77.1096C119.573 76.8914 119.569 76.662 119.619 76.4415C119.622 76.4203 119.632 76.4011 119.649 76.3877C119.666 76.3743 119.687 76.3677 119.708 76.3693C119.729 76.3718 119.749 76.3825 119.762 76.3993C119.776 76.4161 119.782 76.4376 119.78 76.459V76.459Z" fill="white"/>
<path d="M37.4808 70.6376C39.7167 67.2291 43.7165 64.7635 47.7441 65.294C44.5461 68.3569 42.5292 72.4579 42.05 76.8714C41.8714 78.5742 41.8491 80.4868 40.6372 81.6903C39.8832 82.4391 38.7852 82.7531 37.7253 82.7639C36.6652 82.7747 35.6234 82.5131 34.5953 82.2533L34.3378 82.3144C34.5094 78.2354 35.2448 74.0461 37.4808 70.6376Z" fill="#E6E6E6"/>
<path d="M47.7447 65.3796C44.626 66.6425 41.9825 68.8608 40.1896 71.7196C39.7928 72.3281 39.4939 72.9957 39.3039 73.6978C39.1408 74.3878 39.1645 75.109 39.3726 75.7866C39.554 76.4223 39.8127 77.0515 39.8372 77.7205C39.8446 78.0631 39.78 78.4034 39.6474 78.7191C39.5148 79.0349 39.3173 79.3189 39.0678 79.5525C38.4613 80.1509 37.6771 80.4946 36.8986 80.8039C36.0341 81.1473 35.1308 81.4903 34.4882 82.1957C34.4103 82.2811 34.2829 82.1547 34.3607 82.0694C35.4788 80.8421 37.2628 80.7159 38.5575 79.7534C39.1617 79.3043 39.6348 78.6694 39.6588 77.8904C39.6797 77.2091 39.4134 76.5601 39.2243 75.918C39.0117 75.26 38.9626 74.5596 39.0814 73.8782C39.2352 73.1686 39.508 72.4905 39.8882 71.873C40.7219 70.469 41.7702 69.2054 42.9945 68.1286C44.385 66.8919 45.9758 65.9034 47.698 65.2059C47.8046 65.1628 47.8506 65.3368 47.7447 65.3796L47.7447 65.3796Z" fill="white"/>
<path d="M40.7129 70.7649C40.2765 70.3975 39.9843 69.8861 39.8884 69.3221C39.7925 68.7582 39.8992 68.1783 40.1895 67.686C40.2486 67.5867 40.405 67.6742 40.3459 67.7738C40.0747 68.2316 39.9754 68.7718 40.0658 69.2968C40.1561 69.8218 40.4302 70.297 40.8386 70.6368C40.9273 70.7107 40.8011 70.8384 40.7129 70.7649V70.7649Z" fill="white"/>
<path d="M39.2384 75.4765C40.3985 75.384 41.4813 74.8555 42.2709 73.9963C42.3491 73.9111 42.4765 74.0375 42.3984 74.1226C41.5751 75.0152 40.4471 75.5629 39.2397 75.6564C39.1246 75.6652 39.1239 75.4853 39.2384 75.4765H39.2384Z" fill="white"/>
<path d="M44.4588 67.1188C44.5982 67.2963 44.7792 67.4362 44.9857 67.5261C45.1922 67.6159 45.4177 67.6528 45.6418 67.6334C45.7568 67.6231 45.7573 67.8031 45.6432 67.8133C45.3954 67.8336 45.1464 67.7925 44.9181 67.6938C44.6897 67.5951 44.4889 67.4417 44.3331 67.2469C44.3169 67.2298 44.3078 67.2071 44.3076 67.1835C44.3074 67.1599 44.3162 67.137 44.3322 67.1197C44.3489 67.1028 44.3716 67.0932 44.3953 67.0931C44.419 67.0929 44.4418 67.1021 44.4588 67.1188H44.4588Z" fill="white"/>
<path d="M55.0579 77.0007C54.9863 77.0091 54.9148 77.0176 54.8424 77.0274C53.8807 77.1465 52.9302 77.3438 52.0002 77.6176C51.928 77.6376 51.8551 77.6589 51.7836 77.681C49.5501 78.3645 47.4624 79.4588 45.6264 80.9083C44.8963 81.4858 44.2111 82.1183 43.5765 82.8002C42.7002 83.7421 41.8246 84.8334 40.7223 85.4122C40.6079 85.4739 40.4899 85.5284 40.3689 85.5755L34.4321 82.6255C34.4219 82.612 34.4111 82.5998 34.4008 82.5862L34.1584 82.4793C34.1887 82.4419 34.2209 82.4037 34.2512 82.3662C34.2687 82.3444 34.2875 82.3232 34.305 82.3014C34.317 82.2871 34.3292 82.2728 34.3393 82.2592C34.3433 82.2544 34.3473 82.2496 34.3507 82.2462C34.3607 82.2326 34.3715 82.221 34.3809 82.2087C34.5604 81.9947 34.7417 81.7815 34.9248 81.5692C34.9254 81.5678 34.9254 81.5678 34.9274 81.5671C36.3265 79.9533 37.8719 78.4426 39.5963 77.2157C39.6482 77.1788 39.7007 77.1406 39.7553 77.105C40.5357 76.5563 41.3593 76.0726 42.2181 75.6588C42.689 75.4338 43.171 75.2328 43.6622 75.0567C44.9322 74.6042 46.2651 74.3552 47.612 74.3189C50.2971 74.2471 52.9753 75.0391 54.9114 76.8601C54.9609 76.9067 55.0091 76.9527 55.0579 77.0007Z" fill="#E6E6E6"/>
<path d="M55.0073 77.0697C51.7607 76.1909 48.3211 76.3625 45.1771 77.5602C44.4957 77.806 43.8571 78.1581 43.2848 78.6038C42.7413 79.056 42.3282 79.6462 42.0884 80.3131C41.8524 80.9305 41.6821 81.5894 41.3009 82.1383C41.1016 82.4164 40.8461 82.649 40.5511 82.8208C40.2561 82.9927 39.9283 83.0999 39.5891 83.1355C38.7464 83.2463 37.9144 83.0462 37.1075 82.822C36.2115 82.5732 35.2849 82.3004 34.3492 82.4748C34.2358 82.4959 34.2098 82.3178 34.323 82.2968C35.9509 81.9934 37.451 82.9722 39.0614 82.9871C39.8128 82.9941 40.5708 82.7735 41.0566 82.166C41.4815 81.6348 41.6577 80.9554 41.8912 80.3283C42.1157 79.6742 42.4961 79.0853 42.9991 78.6131C43.547 78.1396 44.171 77.7633 44.8445 77.5003C46.3513 76.8838 47.9452 76.5092 49.5678 76.3903C51.4189 76.2443 53.2812 76.4176 55.0741 76.9028C55.1851 76.9328 55.1175 77.0996 55.0073 77.0697V77.0697Z" fill="white"/>
<path d="M46.1669 77.1146C46.0385 76.5572 46.1116 75.972 46.3729 75.4637C46.6342 74.9554 47.0667 74.5569 47.5933 74.3395C47.7 74.2959 47.7725 74.4605 47.6657 74.5042C47.1749 74.7057 46.772 75.0769 46.5296 75.5508C46.2873 76.0246 46.2214 76.57 46.344 77.0883C46.3705 77.201 46.1932 77.2266 46.1669 77.1146H46.1669Z" fill="white"/>
<path d="M42.1671 79.9843C43.1488 80.6125 44.33 80.8457 45.4751 80.6375C45.5886 80.6168 45.6146 80.7948 45.5013 80.8155C44.3092 81.03 43.0805 80.7847 42.0604 80.1287C41.9632 80.0661 42.0704 79.922 42.1671 79.9843V79.9843Z" fill="white"/>
<path d="M51.3419 76.47C51.3468 76.6961 51.4076 76.9174 51.5186 77.1141C51.6297 77.3107 51.7877 77.4766 51.9783 77.5967C52.0762 77.6581 51.9688 77.8021 51.8715 77.7412C51.6615 77.6075 51.4873 77.4241 51.3641 77.2071C51.2409 76.99 51.1725 76.746 51.1648 76.4963C51.1621 76.4728 51.1684 76.4492 51.1824 76.4302C51.1964 76.4112 51.2171 76.3983 51.2403 76.3941C51.2637 76.3908 51.2876 76.3969 51.3066 76.4111C51.3256 76.4253 51.3383 76.4465 51.3419 76.47V76.47Z" fill="white"/>
<path d="M50.9842 38.4285C51.0123 38.4285 51.035 38.4056 51.035 38.3774C51.035 38.3492 51.0123 38.3263 50.9842 38.3263C50.9561 38.3263 50.9333 38.3492 50.9333 38.3774C50.9333 38.4056 50.9561 38.4285 50.9842 38.4285Z" fill="white"/>
<path d="M107.147 84.9746L105.215 84.9744L104.296 77.4856L107.147 77.4858L107.147 84.9746Z" fill="#9E616A"/>
<path d="M98.0072 84.9746L96.0755 84.9744L95.1565 77.4856L98.0076 77.4858L98.0072 84.9746Z" fill="#9E616A"/>
<path d="M98.0753 87L92.1349 86.9998V86.9243C92.1349 86.308 92.3785 85.7169 92.8122 85.2811C93.2458 84.8453 93.8339 84.6005 94.4471 84.6004H94.4472L95.5323 83.7731L97.5568 84.6006L98.0754 84.6006L98.0753 87Z" fill="#2F2E41"/>
<path d="M107.462 87L101.522 86.9998V86.9243C101.522 86.308 101.766 85.7169 102.199 85.2811C102.633 84.8453 103.221 84.6005 103.834 84.6004H103.834L104.919 83.7731L106.944 84.6006L107.463 84.6006L107.462 87Z" fill="#2F2E41"/>
<path d="M96.1125 40.6531L93.1766 58.6204L93.9756 61.2978L92.9271 63.194L94.4668 79.8472L93.8418 81.2301L95.588 82.3125H99.1413L99.3299 67.2362L100.208 65.0227V63.8028L101.994 54.6096L102.323 67.4841L102.843 69.7011L102.406 71.2796L102.977 72.3854L104.492 82.641H108.477L108.168 80.2551C108.516 80.0785 108.794 79.791 108.961 79.4377C109.128 79.0845 109.173 78.6856 109.09 78.3037L108.861 77.258L109.381 74.1658L110.328 56.915L110.061 42.9959L105.4 39.4137L96.1125 40.6531Z" fill="#00170D"/>
<path d="M102.843 17.5811C104.887 17.5811 106.545 15.9153 106.545 13.8606C106.545 11.8058 104.887 10.1401 102.843 10.1401C100.798 10.1401 99.1411 11.8058 99.1411 13.8606C99.1411 15.9153 100.798 17.5811 102.843 17.5811Z" fill="#9E616A"/>
<path d="M94.755 47.7831C94.9161 47.6158 95.0387 47.415 95.1143 47.1949C95.1898 46.9749 95.2165 46.7408 95.1923 46.5093C95.1681 46.2777 95.0937 46.0543 94.9743 45.8548C94.8549 45.6553 94.6934 45.4845 94.5013 45.3545L95.9408 39.8834L93.1674 40.8209L92.2256 45.8727C92.0297 46.2116 91.9643 46.611 92.0418 46.9951C92.1193 47.3793 92.3343 47.7215 92.646 47.957C92.9578 48.1925 93.3447 48.3049 93.7334 48.2728C94.1221 48.2407 94.4856 48.0665 94.755 47.7831H94.755Z" fill="#9E616A"/>
<path d="M96.2698 21.515L95.6745 21.3908L95.1668 21.6734C95.1668 21.6734 93.7487 23.5738 93.7487 25.3158C93.7487 27.0578 92.0154 43.8447 92.0154 43.8447L95.1668 45.2701L97.688 32.1256L96.2698 21.515Z" fill="#F2F2F2"/>
<path d="M106.085 11.1327C106.085 11.1327 107.053 9.27249 104.923 9.10338C104.923 9.10338 103.107 7.4478 101.256 8.80071C101.256 8.80071 100.246 8.80071 99.6944 9.94895C99.6944 9.94895 98.9004 9.64628 98.7259 10.4563C98.7259 10.4563 98.1449 12.1474 98.7259 13.6695C99.3069 15.1915 99.4999 15.3606 99.4999 15.3606C99.4999 15.3606 98.5452 12.1696 100.869 12.0005C103.193 11.8314 105.793 10.3717 105.987 12.232C106.181 14.0922 106.472 14.5506 106.472 14.5506C106.472 14.5506 108.312 11.8938 106.085 11.1327Z" fill="#2F2E41"/>
<path d="M119.607 63.1941C119.328 63.1945 119.058 63.0911 118.85 62.9037L107.647 52.881C107.421 52.6785 107.285 52.3944 107.267 52.0908C107.25 51.7872 107.353 51.4891 107.554 51.2617L114.73 43.1588C114.932 42.9319 115.214 42.7945 115.516 42.7769C115.818 42.7592 116.115 42.8627 116.341 43.0647L127.544 53.0876C127.77 53.2898 127.907 53.574 127.925 53.8776C127.942 54.1812 127.839 54.4795 127.638 54.7066L120.461 62.8096C120.362 62.9224 120.241 63.0143 120.106 63.08C119.971 63.1457 119.825 63.1838 119.675 63.1921C119.652 63.1935 119.63 63.1941 119.607 63.1941Z" fill="white"/>
<path d="M119.607 63.2678C119.31 63.2682 119.023 63.1582 118.801 62.9589L107.599 52.9361C107.358 52.7206 107.213 52.4182 107.194 52.0951C107.176 51.772 107.285 51.4546 107.499 51.2126L114.676 43.1097C114.89 42.8683 115.191 42.7221 115.512 42.7034C115.834 42.6846 116.149 42.7947 116.39 43.0095L127.593 53.0324C127.834 53.2477 127.979 53.5502 127.998 53.8733C128.017 54.1965 127.907 54.5139 127.693 54.7557L120.516 62.8587C120.41 62.9788 120.282 63.0766 120.138 63.1464C119.995 63.2163 119.839 63.2569 119.679 63.2658C119.655 63.2671 119.631 63.2678 119.607 63.2678ZM115.583 42.9959C115.453 42.9956 115.325 43.0231 115.206 43.0765C115.087 43.1299 114.981 43.2081 114.895 43.3058L107.718 51.4087C107.556 51.5922 107.473 51.8329 107.487 52.078C107.501 52.323 107.611 52.5524 107.794 52.7159L118.996 62.7386C119.087 62.8195 119.192 62.8816 119.306 62.9216C119.421 62.9615 119.542 62.9784 119.662 62.9714C119.783 62.9643 119.901 62.9334 120.01 62.8804C120.119 62.8275 120.217 62.7534 120.297 62.6626L127.474 54.5597C127.636 54.3763 127.719 54.1355 127.705 53.8904C127.691 53.6453 127.581 53.4159 127.398 53.2527L116.195 43.2298C116.027 43.0788 115.809 42.9955 115.583 42.9959H115.583Z" fill="#3F3D56"/>
<path d="M110.258 48.1059C110.146 47.9026 110.079 47.6769 110.062 47.4447C110.045 47.2125 110.079 46.9794 110.162 46.7619C110.245 46.5445 110.374 46.3478 110.54 46.1859C110.707 46.024 110.906 45.9007 111.125 45.8247L111.135 40.1655L113.575 41.7887L113.192 46.9139C113.294 47.2921 113.255 47.6949 113.082 48.0461C112.909 48.3973 112.614 48.6724 112.252 48.8194C111.89 48.9663 111.488 48.9748 111.12 48.8433C110.753 48.7118 110.446 48.4495 110.258 48.1059H110.258Z" fill="#9E616A"/>
<path d="M110.484 23.0657L111.574 22.0097L112.375 22.5906C112.375 22.5906 113.163 23.5408 113.793 26.3914C114.423 29.242 113.793 44.9204 113.793 44.9204L110.326 44.4453L110.799 36.2102L109.381 29.242L110.484 23.0657Z" fill="#F2F2F2"/>
<path d="M112.094 22.2673L108.421 20.5042L105.928 18.1798L101.381 18.1456L99.9142 20.0619L96.0421 21.3839L96.6875 34.8032L96.2475 35.835C96.2475 35.835 96.554 36.1134 96.6941 36.269C96.8341 36.4247 96.5005 37.7279 96.5005 37.7279L96.3124 39.1457L96.8341 39.5204L96.1559 40.3255L95.9875 41.5947C95.9875 41.5947 107.826 38.6374 110.063 43.5365C110.181 43.7953 109.89 41.2656 109.89 41.2656L109.599 39.4137L109.888 37.7514L110.328 37.3092L109.59 36.5675L110.063 33.0482L112.094 22.2673Z" fill="#00703C"/>
<path d="M66.492 74.898H64.3126L63.2755 66.4494H66.492V74.898Z" fill="#FFB6B6"/>
<path d="M67.6422 78.6931H66.0793L65.8004 77.2101L65.0859 78.6931H60.9407C60.742 78.6931 60.5485 78.6293 60.3884 78.511C60.2284 78.3926 60.1101 78.2259 60.051 78.0353C59.9919 77.8446 59.9949 77.64 60.0597 77.4512C60.1245 77.2624 60.2477 77.0994 60.4112 76.9859L63.7214 74.6882V73.1889L67.2032 73.3978L67.6422 78.6931Z" fill="#2F2E41"/>
<path d="M79.4397 72.1337L77.6908 73.4408L71.8425 67.2832L74.4237 65.354L79.4397 72.1337Z" fill="#FFB6B6"/>
<path d="M82.6161 74.4893L81.3619 75.4266L80.2576 74.4039L80.5647 76.0224L77.2384 78.5085C77.0789 78.6276 76.8858 78.6925 76.6871 78.6935C76.4884 78.6945 76.2946 78.6317 76.1339 78.5141C75.9733 78.3966 75.8542 78.2306 75.7941 78.0402C75.734 77.8499 75.7361 77.6452 75.7999 77.4561L77.092 73.627L76.2019 72.4239L79.1199 70.5033L82.6161 74.4893Z" fill="#2F2E41"/>
<path d="M59.3542 36.0148L69.6997 34.3953L67.6424 28.1748H59.3542V36.0148Z" fill="#FFB6B6"/>
<path d="M69.0293 31.3077C69.0293 31.3077 73.1644 34.8983 71.2565 45.134L68.9273 55.1632L75.2733 66.2363L72.0465 68.0052L64.2263 57.0812L60.6478 48.6448L58.7549 33.8592L69.0293 31.3077Z" fill="#00170D"/>
<path d="M62.6202 51.049L62.3715 54.9202L63.0995 66.3837L66.7141 67.6345L67.3986 55.889L62.6202 51.049Z" fill="#00170D"/>
<path d="M58.394 3.21306C58.2152 4.17887 57.9219 5.11968 57.5204 6.01539C55.2216 10.9031 61.7682 9.30995 64.1078 9.30995C66.6657 9.30995 69.1132 10.6618 68.7394 4.65498C68.5797 2.08913 66.6657 1.14441e-05 64.1078 1.14441e-05C61.9229 1.14441e-05 58.8509 0.976067 58.394 3.21306Z" fill="#2F2E41"/>
<path d="M63.7243 9.30878C65.803 9.30878 67.488 7.61521 67.488 5.52609C67.488 3.43697 65.803 1.7434 63.7243 1.7434C61.6457 1.7434 59.9607 3.43697 59.9607 5.52609C59.9607 7.61521 61.6457 9.30878 63.7243 9.30878Z" fill="#FFB6B6"/>
<path d="M61.1686 1.6702C61.8281 1.2661 62.5835 1.04751 63.3559 1.03728C64.1282 1.02704 64.8891 1.22554 65.559 1.61202C66.2288 1.9985 66.7831 2.55876 67.1638 3.23423C67.5445 3.90969 67.7377 4.67555 67.7231 5.45172C65.8053 5.93565 63.7905 6.30599 61.7454 5.56747L61.2624 4.37943L60.9776 5.56835C60.3548 5.82421 59.7304 6.04069 59.1059 5.56588C59.0804 4.7919 59.2575 4.02475 59.6195 3.34111C59.9814 2.65748 60.5156 2.08131 61.1686 1.6702Z" fill="#2F2E41"/>
<path d="M72.9678 43.8672L71.5189 45.2997L71.5282 45.3088L68.0632 48.7344L68.5708 49.2362C69.8755 50.5261 71.9794 50.5374 73.27 49.2614L73.27 49.2614C73.6786 48.8578 73.9718 48.3541 74.1204 47.8007C74.269 47.2472 74.2677 46.6633 74.1168 46.1073L74.6753 45.5552C74.8992 45.3338 75.0241 45.0325 75.0223 44.7176C75.0206 44.4028 74.8924 44.1001 74.666 43.8763C74.4396 43.6524 74.1335 43.5257 73.815 43.524C73.4966 43.5223 73.1918 43.6457 72.9678 43.8672ZM74.4121 45.295L73.9848 45.7174C73.8154 45.3052 73.5636 44.9304 73.2444 44.6157L72.9908 44.3649L73.231 44.1274C73.3859 43.9742 73.5967 43.8888 73.817 43.89C74.0373 43.8912 74.2491 43.9788 74.4057 44.1337C74.5623 44.2885 74.651 44.4978 74.6522 44.7156C74.6534 44.9334 74.567 45.1418 74.4121 45.295V45.295Z" fill="#180F10"/>
<path d="M68.4994 48.7368L68.7876 49.0218C69.9693 50.19 71.8816 50.2003 73.0506 49.0447C74.2195 47.889 74.2091 45.9984 73.0274 44.8302L72.7392 44.5452L68.4994 48.7368Z" fill="white"/>
<path d="M53.394 45.0829C53.5424 44.9345 53.6566 44.7553 53.7286 44.5578C53.8005 44.3603 53.8285 44.1493 53.8106 43.9397C53.7927 43.7302 53.7293 43.5271 53.6248 43.3448C53.5204 43.1626 53.3774 43.0055 53.2061 42.8848L55.5428 31.5183L53.0217 32.3177L51.1417 43.3139C50.9589 43.6166 50.8931 43.9763 50.9565 44.3246C51.02 44.673 51.2084 44.9858 51.486 45.2039C51.7637 45.4219 52.1112 45.53 52.4629 45.5077C52.8146 45.4854 53.1459 45.3343 53.394 45.0829V45.0829Z" fill="#FFB6B6"/>
<path d="M58.7954 14.6998L57.2337 13.515C57.2337 13.515 55.856 13.417 55.612 15.914C55.368 18.411 53.8403 27.9944 53.8403 27.9944L51.4506 39.1186L54.7586 39.8483L57.3182 27.8434L59.8803 19.5612L58.7954 14.6998Z" fill="#F2F2F2"/>
<path d="M57.6056 35.2835L50.1144 29.4293C49.9977 29.3379 49.9219 29.2037 49.9035 29.0562C49.8851 28.9086 49.9257 28.7598 50.0164 28.6423L55.1134 22.054C55.2043 21.9368 55.3378 21.8606 55.4846 21.8421C55.6314 21.8236 55.7795 21.8644 55.8964 21.9556L63.3876 27.8098C63.5043 27.9012 63.5801 28.0354 63.5985 28.1829C63.6169 28.3305 63.5763 28.4793 63.4856 28.5968L58.3886 35.1851C58.2977 35.3023 58.1642 35.3785 58.0174 35.397C57.8706 35.4155 57.7225 35.3747 57.6056 35.2835V35.2835Z" fill="#3F3D56"/>
<path d="M57.5643 34.6777L50.7086 29.3201C50.605 29.2389 50.5376 29.1198 50.5213 28.9888C50.505 28.8578 50.541 28.7257 50.6216 28.6214L55.2422 22.6488C55.3229 22.5447 55.4415 22.477 55.5718 22.4606C55.7021 22.4442 55.8336 22.4804 55.9374 22.5613L62.7932 27.919C62.8968 28.0001 62.9641 28.1193 62.9804 28.2503C62.9967 28.3813 62.9607 28.5134 62.8802 28.6177L58.2595 34.5903C58.1788 34.6944 58.0603 34.7621 57.9299 34.7785C57.7996 34.7949 57.6681 34.7586 57.5643 34.6777V34.6777Z" fill="white"/>
<path d="M61.5089 10.5983L65.5079 10.7551L67.1017 13.4141L70.7379 14.1275L68.5672 25.1647L68.9664 31.4469L65.3456 31.4248C62.7362 31.4088 60.2128 32.3615 58.2594 34.1004V34.1004L58.3677 25.9455L56.8103 19.858L57.1603 13.4749L60.0855 13.1074L61.5089 10.5983Z" fill="#00703C"/>
<path d="M73.5685 44.1029C73.4209 43.9538 73.3076 43.774 73.2366 43.5761C73.1656 43.3782 73.1387 43.1671 73.1577 42.9577C73.1766 42.7482 73.2411 42.5454 73.3465 42.3637C73.4518 42.182 73.5956 42.0257 73.7676 41.9058L71.4883 30.5275L74.0053 31.3398L75.8297 42.3454C76.0109 42.6491 76.075 43.0091 76.0097 43.3571C75.9445 43.7051 75.7545 44.017 75.4758 44.2336C75.1971 44.4502 74.849 44.5566 74.4974 44.5325C74.1459 44.5084 73.8154 44.3556 73.5685 44.1029V44.1029Z" fill="#FFB6B6"/>
<path d="M69.1762 15.3123L70.7379 14.1275C70.7379 14.1275 72.1156 14.0294 72.3596 16.5264C72.6036 19.0234 74.1313 28.6069 74.1313 28.6069L76.521 39.731L73.213 40.4608L70.6534 28.4559L68.0912 20.1737L69.1762 15.3123Z" fill="#F2F2F2"/>
<path d="M27.5075 85.2052L29.3498 85.205L30.2264 78.063L27.5072 78.0632L27.5075 85.2052Z" fill="#FFB6B6"/>
<path d="M27.0375 84.6006L27.556 84.6005L29.5806 83.773L30.6657 84.6004H30.6658C31.2791 84.6004 31.8671 84.8453 32.3008 85.2811C32.7344 85.7169 32.978 86.3079 32.978 86.9242V86.9997L27.0376 87L27.0375 84.6006Z" fill="#2F2E41"/>
<path d="M34.6469 84.0382L36.444 84.4461L38.8643 77.6736L36.2118 77.0717L34.6469 84.0382Z" fill="#FFB6B6"/>
<path d="M34.3211 83.3445L34.8269 83.4593L36.9831 83.1004L37.8602 84.1476L37.8603 84.1477C38.4585 84.2835 38.9785 84.6525 39.3059 85.1736C39.6333 85.6946 39.7414 86.3251 39.6064 86.9263L39.5899 87L33.7953 85.685L34.3211 83.3445Z" fill="#2F2E41"/>
<path d="M24.1346 48.4677L25.8006 67.2273C25.8006 67.2273 25.1764 78.4898 27.1906 82.4529H30.1119L31.5582 66.1988L31.7398 55.289L38.0026 64.4932L34.0137 82.1872L37.609 82.5102L44.082 63.3081L36.9706 45.2819L24.1346 48.4677Z" fill="#00170D"/>
<path d="M25.8796 18.5934C28.2524 18.5934 30.176 16.6601 30.176 14.2752C30.176 11.8904 28.2524 9.95707 25.8796 9.95707C23.5067 9.95707 21.5831 11.8904 21.5831 14.2752C21.5831 16.6601 23.5067 18.5934 25.8796 18.5934Z" fill="#FFB8B8"/>
<path d="M33.4324 22.7083L29.9076 21.1883L28.1917 19.3591L23.9052 20.054L22.7679 22.0138L19.0863 25.4545L23.3998 45.0564L23.2692 49.3376C23.2692 49.3376 26.0299 50.5867 38.0027 47.7107C38.1463 47.6763 37.8457 47.5252 37.8457 47.5252L33.4324 22.7083Z" fill="#00703C"/>
<path d="M21.4118 16.7254C21.3819 16.6843 21.3523 16.6429 21.3229 16.6012C21.3111 16.6262 21.3017 16.6522 21.2882 16.6766L21.4118 16.7254Z" fill="#2F2E41"/>
<path d="M30.1534 11.1166C29.8662 10.4878 29.3542 9.99065 28.719 9.72388C28.0894 9.46866 27.3858 9.46928 26.7567 9.7256C26.1887 9.36493 25.5576 9.07899 24.893 9.04358C24.2283 9.00816 23.5256 9.25598 23.116 9.8015C23.0246 9.94551 22.9207 10.0811 22.8056 10.2069C22.4763 10.5133 21.976 10.4691 21.5384 10.4064C21.7347 10.5755 21.931 10.7446 22.1274 10.9137C21.8898 10.976 21.6521 11.0384 21.4145 11.1008C21.6918 11.2698 21.9691 11.4388 22.2463 11.6079C21.4414 12.0934 21.0755 13.1533 21.1722 14.1158C21.2636 15.0271 21.7013 15.8605 22.2247 16.6012C22.4334 16.1584 22.3884 15.6286 22.385 15.13C22.3814 14.6031 22.4741 14.0048 22.8942 13.7103C23.1776 13.5117 23.542 13.5028 23.8837 13.5047C25.6073 13.5142 27.3291 13.6222 29.0405 13.8282C29.2728 13.8383 29.4992 13.9043 29.7008 14.0207C30.0792 14.2802 30.153 14.8157 30.191 15.2856C30.391 14.5098 30.4888 13.711 30.4821 12.9097C30.4989 12.2955 30.3869 11.6845 30.1534 11.1166V11.1166Z" fill="#2F2E41"/>
<path d="M31.4911 61.6183C35.2258 61.6183 38.2534 58.5754 38.2534 54.8218C38.2534 51.0683 35.2258 48.0254 31.4911 48.0254C27.7563 48.0254 24.7288 51.0683 24.7288 54.8218C24.7288 58.5754 27.7563 61.6183 31.4911 61.6183Z" fill="white"/>
<path d="M31.491 47.8743C31.1434 47.8744 30.7962 47.9006 30.4525 47.9529C30.2767 47.9785 30.1055 48.0118 29.9356 48.0525C28.6881 48.3416 27.545 48.9733 26.6339 49.8772C25.7227 50.7811 25.0794 51.9216 24.7756 53.1716C24.4719 54.4216 24.5197 55.7318 24.9137 56.956C25.3076 58.1803 26.0323 59.2705 27.0068 60.1049C27.1225 60.2031 27.2397 60.2982 27.3614 60.3889C28.2387 61.0463 29.2588 61.4849 30.3378 61.6687C31.4167 61.8524 32.5236 61.776 33.5674 61.4458C34.6113 61.1156 35.5622 60.541 36.3418 59.7692C37.1215 58.9975 37.7077 58.0507 38.0522 57.0068C38.3967 55.9629 38.4896 54.8516 38.3232 53.7646C38.1569 52.6775 37.7361 51.6457 37.0955 50.754C36.4549 49.8624 35.6127 49.1363 34.6384 48.6357C33.664 48.135 32.5853 47.8741 31.491 47.8743V47.8743ZM31.491 61.4672C30.085 61.4688 28.7156 61.0172 27.5838 60.1789C27.4606 60.0883 27.3419 59.9947 27.2262 59.895C26.2768 59.09 25.5723 58.0324 25.1935 56.8434C24.8148 55.6544 24.7772 54.3822 25.085 53.1728C25.3928 51.9633 26.0336 50.8655 26.9338 50.0053C27.834 49.145 28.9572 48.5572 30.1746 48.3093C30.3428 48.2746 30.5112 48.2474 30.6825 48.2262C30.9507 48.1928 31.2207 48.1762 31.491 48.1764C33.2446 48.1764 34.9264 48.8765 36.1664 50.1228C37.4064 51.369 38.103 53.0593 38.103 54.8218C38.103 56.5843 37.4064 58.2746 36.1664 59.5208C34.9264 60.7671 33.2446 61.4672 31.491 61.4672V61.4672Z" fill="#3F3D56"/>
<path d="M28.8076 52.0168C28.8988 51.7842 28.9381 51.5344 28.9228 51.2849C28.9074 51.0354 28.8379 50.7923 28.719 50.5727C28.6 50.3532 28.4347 50.1625 28.2345 50.0141C28.0343 49.8657 27.8042 49.7633 27.5604 49.7139L26.7446 43.6931L24.3792 45.7712L25.5165 51.1701C25.4612 51.5873 25.5601 52.0104 25.7944 52.3592C26.0287 52.708 26.3822 52.9583 26.7879 53.0626C27.1936 53.167 27.6233 53.1182 27.9955 52.9254C28.3678 52.7327 28.6567 52.4094 28.8076 52.0168V52.0168Z" fill="#FFB8B8"/>
<path d="M19.5403 25.3443L18.8991 25.4678L18.5116 25.9581C18.5116 25.9581 17.8846 28.4297 18.5988 30.157C19.313 31.8842 24.4768 49.2464 24.4768 49.2464L28.1859 49.3545L25.2966 35.2775L19.5403 25.3443Z" fill="#F2F2F2"/>
<path d="M34.1622 51.1336C33.9913 50.9519 33.8622 50.7348 33.7838 50.4976C33.7055 50.2603 33.6799 50.0087 33.7088 49.7604C33.7376 49.5121 33.8203 49.2732 33.951 49.0605C34.0817 48.8479 34.2572 48.6666 34.4652 48.5294L32.9885 42.637L35.9543 43.6789L36.9019 49.1147C37.108 49.4811 37.1732 49.9107 37.0852 50.3221C36.9971 50.7336 36.762 51.0983 36.4243 51.3472C36.0866 51.596 35.6698 51.7117 35.2529 51.6724C34.8359 51.633 34.4479 51.4413 34.1622 51.1336V51.1336Z" fill="#FFB8B8"/>
<path d="M32.8665 22.9117L33.5072 22.7859L34.0487 23.0957C34.0487 23.0957 35.5474 25.1541 35.5254 27.0245C35.5035 28.8948 37.1531 46.94 37.1531 46.94L33.7517 48.4302L31.2103 34.2857L32.8665 22.9117Z" fill="#F2F2F2"/>
</g>
<defs>
<clipPath id="clip0">
<rect width="128" height="87" fill="white"/>
</clipPath>
</defs>
</svg>
