<svg xmlns="http://www.w3.org/2000/svg" width="128" height="87" fill="none" xmlns:v="https://vecta.io/nano"><style><![CDATA[.B{fill:#fff}.C{fill:#2f2e41}.D{fill:#ffb6b6}.E{fill:#f2f2f2}.F{fill:#e6e6e6}.G{fill:#9e616a}.H{fill:#00170d}.I{fill:#3f3d56}.J{fill:#00703c}.K{fill:#ffb8b8}]]></style><g clip-path="url(#A)"><path d="M8.614 65.559l-1.812.076-.087.007c-3.945.35-6.831 2.384-6.712 4.73l.023.424.045.876c.007.158.221.279.488.279h97.044l20.261-.156c1.238.003 2.476-.062 3.707-.193 1.835-.218 3.108-.651 3.893-1.323h0c.977-.833 1.008-1.882.949-3.067l-.359-7.413-.314-6.521c-.065-1.251-.209-2.356-1.318-3.201-1.202-.913-3.394-1.376-6.516-1.376h-.113c-9.783.035-19.476 3.416-24.12 8.413-.535.575-1.033 1.191-1.515 1.787-.712.88-1.448 1.79-2.327 2.604a10.94 10.94 0 0 1-1.537 1.204 1.96 1.96 0 0 1-.127.081c-.105.068-.214.134-.32.193a11.08 11.08 0 0 1-1.96.896l-.069.023c-.052.019-.108.037-.164.054a12.74 12.74 0 0 1-1.211.325c-1.77.392-3.783.486-5.983.279-2.02-.195-4.014-.603-5.949-1.218-2.037-.647-3.943-1.454-5.787-2.233l-2.484-1.033-.469-.187c-1.022-.4-1.948-.731-2.832-1.01a27.82 27.82 0 0 0-6.748-1.256c-2.433-.134-4.577.119-6.371.749a10.92 10.92 0 0 0-1.441.624c-2.125 1.109-3.435 2.746-4.702 4.329-1.576 1.969-3.205 4.005-6.423 5.061-3.713 1.219-9.132.713-12.966-.168-1.206-.277-2.409-.596-3.574-.904l-1.412-.371a68.09 68.09 0 0 0-2.384-.579l-.222-.05-.372-.079c-.832-.176-1.607-.314-2.37-.422l-.181-.026c-.362-.048-.7-.088-1.033-.121l-.133-.013c-.65-.062-1.324-.093-1.998-.093z" class="E"/><path d="M108.963 68.178c2.731-2.473 6.792-3.717 10.199-2.33-3.495 1.95-6.19 5.08-7.61 8.835-.543 1.45-.996 3.12-2.33 3.897-.83.483-1.863.507-2.793.273s-1.784-.701-2.626-1.164l-.239-.005c1.075-3.533 2.668-7.033 5.399-9.506z" class="F"/><g class="B"><path d="M119.143 65.923c-3.017.392-5.835 1.729-8.053 3.823-.486.442-.899.958-1.224 1.53-.299.567-.442 1.204-.413 1.845.014.598.098 1.209-.032 1.8a2.21 2.21 0 0 1-.392.831 2.19 2.19 0 0 1-.697.597c-.667.385-1.431.507-2.183.599-.835.103-1.704.196-2.426.667-.088.057-.171-.083-.084-.14 1.258-.819 2.849-.521 4.201-1.067.631-.255 1.189-.703 1.386-1.379.173-.592.087-1.221.067-1.827a3.86 3.86 0 0 1 .337-1.819 5.8 5.8 0 0 1 1.161-1.571c1.048-1.039 2.253-1.905 3.569-2.568 1.498-.765 3.115-1.266 4.782-1.483.103-.013.104.15.001.163h0z"/><path d="M111.765 69.03c-.299-.422-.439-.936-.396-1.452s.269-.999.635-1.364c.074-.073.191.039.117.113a2.02 2.02 0 0 0-.59 1.27c-.04.48.092.959.373 1.35.061.085-.079.168-.139.084h0zm-2.36 3.788a4.17 4.17 0 0 0 2.991-.602c.088-.057.171.083.084.14-.924.593-2.036.815-3.114.62-.103-.019-.063-.176.039-.158h0zm6.466-6.124a1.24 1.24 0 0 0 .369.477 1.23 1.23 0 0 0 .551.244c.103.017.062.175-.04.158a1.37 1.37 0 0 1-.608-.271 1.38 1.38 0 0 1-.411-.525c-.01-.019-.013-.041-.008-.061s.018-.039.036-.05.041-.014.061-.009.039.019.05.037h0z"/></g><path d="M122.914 77.775l-.195-.026c-.869-.116-1.746-.161-2.623-.134l-.204.006a17 17 0 0 0-6.124 1.417 16.6 16.6 0 0 0-2.224 1.188c-.98.624-1.995 1.379-3.091 1.634a2.84 2.84 0 0 1-.347.062l-4.53-3.943-.018-.041-.188-.149.106-.078.062-.044.04-.029.048-.035.621-.436c1.58-1.114 3.284-2.034 5.078-2.743l.164-.061c.808-.302 1.639-.537 2.484-.703.464-.089.932-.155 1.402-.197a11.57 11.57 0 0 1 3.626.258c2.368.552 4.533 1.859 5.816 3.897l.097.157z" class="F"/><g class="B"><path d="M122.854 77.823c-2.644-1.513-5.695-2.15-8.72-1.821a6.2 6.2 0 0 0-1.894.481 3.58 3.58 0 0 0-1.435 1.223c-.347.487-.645 1.025-1.103 1.418-.238.198-.514.343-.812.426s-.608.102-.913.055c-.764-.096-1.447-.462-2.103-.843-.728-.423-1.478-.874-2.337-.936-.104-.007-.086-.169.018-.162 1.494.107 2.586 1.308 3.993 1.689.656.178 1.37.159 1.933-.262.493-.368.801-.922 1.148-1.418a3.82 3.82 0 0 1 1.359-1.248 5.74 5.74 0 0 1 1.868-.552 13.97 13.97 0 0 1 4.388.109c1.654.296 3.246.874 4.706 1.709.09.052-.007.182-.096.131h0z"/><path d="M115.102 75.839a2.19 2.19 0 0 1 .554-1.399 2.17 2.17 0 0 1 1.324-.705c.103-.014.129.147.026.161-.476.064-.913.297-1.232.656a2.03 2.03 0 0 0-.511 1.304c-.003.105-.164.087-.161-.017h0zm-4.154 1.597a4.18 4.18 0 0 0 2.749 1.329c.104.008.087.17-.017.162-1.093-.085-2.113-.581-2.858-1.389-.071-.077.056-.179.126-.102h0zm8.832-.977a1.25 1.25 0 0 0 .008.605 1.24 1.24 0 0 0 .294.528c.071.076-.055.178-.127.102-.153-.165-.264-.366-.323-.584s-.063-.448-.013-.668c.003-.021.013-.04.03-.054a.08.08 0 0 1 .059-.018c.021.002.041.013.054.03s.02.038.018.06h0z"/></g><path d="M37.481 70.638c2.236-3.409 6.236-5.874 10.263-5.344-3.198 3.063-5.215 7.164-5.694 11.577-.179 1.703-.201 3.615-1.413 4.819-.754.749-1.852 1.063-2.912 1.074s-2.102-.251-3.13-.511l-.258.061c.172-4.079.907-8.268 3.143-11.677z" class="F"/><g class="B"><path d="M47.745 65.38c-3.119 1.263-5.762 3.481-7.555 6.34a6.94 6.94 0 0 0-.886 1.978 3.99 3.99 0 0 0 .069 2.089c.181.636.44 1.265.465 1.934.007.343-.057.683-.19.999a2.43 2.43 0 0 1-.58.833c-.606.598-1.391.942-2.169 1.251-.864.343-1.768.686-2.41 1.392-.078.085-.205-.041-.127-.126 1.118-1.227 2.902-1.353 4.197-2.316.604-.449 1.077-1.084 1.101-1.863.021-.681-.245-1.33-.434-1.972-.213-.658-.262-1.358-.143-2.04.154-.71.427-1.388.807-2.005a15.58 15.58 0 0 1 3.106-3.744c1.39-1.237 2.981-2.225 4.703-2.923.107-.043.153.131.047.174h0z"/><path d="M40.713 70.765c-.436-.367-.729-.879-.825-1.443a2.42 2.42 0 0 1 .301-1.636c.059-.099.215-.012.156.088a2.24 2.24 0 0 0-.28 1.523 2.23 2.23 0 0 0 .773 1.34c.089.074-.038.202-.126.128h0zm-1.475 4.712a4.62 4.62 0 0 0 3.032-1.48c.078-.085.206.041.128.126a4.8 4.8 0 0 1-3.159 1.534c-.115.009-.116-.171-.001-.18h0zm5.221-8.358a1.36 1.36 0 0 0 .527.407 1.34 1.34 0 0 0 .656.107c.115-.01.115.17.001.18-.248.02-.497-.021-.725-.12a1.53 1.53 0 0 1-.585-.447c-.016-.017-.025-.04-.026-.063s.009-.046.025-.064.039-.026.063-.027.047.009.063.026h0z"/></g><path d="M55.058 77.001l-.215.027c-.962.119-1.912.316-2.842.59l-.217.063a18.83 18.83 0 0 0-6.157 3.227 18.36 18.36 0 0 0-2.05 1.892c-.876.942-1.752 2.033-2.854 2.612-.114.062-.232.116-.353.163l-5.937-2.95-.031-.039-.242-.107.093-.113.054-.065.034-.042.042-.051.544-.639c1.402-1.616 2.947-3.127 4.672-4.353l.159-.111c.78-.549 1.604-1.032 2.463-1.446a15.42 15.42 0 0 1 1.444-.602c1.27-.453 2.603-.702 3.95-.738 2.685-.072 5.363.72 7.299 2.541l.146.141z" class="F"/><g class="B"><path d="M55.007 77.07a15.92 15.92 0 0 0-9.83.49 6.88 6.88 0 0 0-1.892 1.044 3.97 3.97 0 0 0-1.196 1.709c-.236.617-.406 1.276-.788 1.825-.199.278-.455.511-.75.683a2.41 2.41 0 0 1-.962.315c-.843.111-1.675-.089-2.482-.313-.896-.249-1.823-.522-2.758-.347-.113.021-.139-.157-.026-.178 1.628-.303 3.128.675 4.738.69.751.007 1.509-.214 1.995-.821.425-.531.601-1.211.835-1.838a4.24 4.24 0 0 1 1.108-1.715 6.36 6.36 0 0 1 1.845-1.113c1.507-.617 3.101-.991 4.723-1.11a16.2 16.2 0 0 1 5.506.513c.111.03.043.197-.067.167h0z"/><path d="M46.167 77.115c-.128-.557-.055-1.143.206-1.651s.694-.907 1.22-1.124c.107-.044.179.121.072.165-.491.201-.894.573-1.136 1.047a2.25 2.25 0 0 0-.186 1.538c.026.113-.151.138-.177.026h0zm-4 2.869a4.61 4.61 0 0 0 3.308.653c.114-.021.14.157.026.178a4.79 4.79 0 0 1-3.441-.687c-.097-.063.01-.207.107-.144h0zm9.175-3.514a1.37 1.37 0 0 0 .177.644c.111.197.269.363.46.483.098.061-.009.205-.107.145-.21-.134-.384-.317-.507-.534a1.53 1.53 0 0 1-.199-.711c-.003-.023.004-.047.018-.066s.035-.032.058-.036a.09.09 0 0 1 .066.017c.019.014.032.035.035.059h0zm-.358-38.041c.028 0 .051-.023.051-.051s-.023-.051-.051-.051-.051.023-.051.051.023.051.051.051z"/></g><g class="G"><path d="M107.147 84.975h-1.932l-.919-7.489h2.851v7.489zm-9.14 0h-1.932l-.919-7.489h2.851v7.489z"/></g><g class="C"><path d="M98.075 87h-5.94v-.075a2.33 2.33 0 0 1 .677-1.643c.434-.436 1.022-.681 1.635-.681h0l1.085-.827 2.024.828h.519V87zm9.387 0h-5.94v-.075a2.33 2.33 0 0 1 .677-1.643 2.31 2.31 0 0 1 1.635-.681h0l1.085-.827 2.025.828h.519L107.462 87z"/></g><path d="M96.113 40.653L93.177 58.62l.799 2.677-1.049 1.896 1.54 16.653-.625 1.383 1.746 1.082h3.553l.189-15.076.878-2.213v-1.22l1.786-9.193.329 12.874.52 2.217-.437 1.579.571 1.106 1.515 10.256h3.985l-.309-2.386c.348-.177.626-.464.793-.817s.212-.752.129-1.134l-.229-1.046.52-3.092.947-17.251-.267-13.919-4.661-3.582-9.288 1.239z" class="H"/><g class="G"><path d="M102.843 17.581c2.044 0 3.702-1.666 3.702-3.72s-1.658-3.72-3.702-3.72-3.702 1.666-3.702 3.72 1.657 3.72 3.702 3.72zm-8.088 30.202c.161-.167.284-.368.359-.588a1.6 1.6 0 0 0-.14-1.34 1.59 1.59 0 0 0-.473-.5l1.439-5.471-2.773.938-.942 5.052a1.61 1.61 0 0 0-.184 1.122 1.6 1.6 0 0 0 .604.962c.312.236.699.348 1.087.316a1.59 1.59 0 0 0 1.022-.49h0z"/></g><path d="M96.27 21.515l-.595-.124-.508.283s-1.418 1.9-1.418 3.642-1.733 18.529-1.733 18.529l3.151 1.425 2.521-13.144-1.418-10.611z" class="E"/><path d="M106.085 11.133s.968-1.86-1.162-2.029c0 0-1.816-1.656-3.667-.303 0 0-1.01 0-1.562 1.148 0 0-.794-.303-.969.507 0 0-.581 1.691 0 3.213s.774 1.691.774 1.691-.955-3.191 1.369-3.36 4.924-1.629 5.118.231.485 2.319.485 2.319 1.84-2.657-.387-3.418z" class="C"/><path d="M119.607 63.194a1.13 1.13 0 0 1-.757-.29l-11.203-10.023a1.15 1.15 0 0 1-.38-.79c-.017-.304.086-.602.287-.829l7.176-8.103a1.14 1.14 0 0 1 1.611-.094l11.203 10.023a1.15 1.15 0 0 1 .381.79c.017.304-.086.602-.287.829l-7.177 8.103a1.13 1.13 0 0 1-.355.27c-.135.066-.281.104-.431.112l-.068.002z" class="B"/><path d="M119.607 63.268c-.297 0-.584-.11-.806-.309l-11.202-10.023c-.241-.216-.386-.518-.405-.841a1.23 1.23 0 0 1 .305-.883l7.177-8.103a1.21 1.21 0 0 1 1.714-.1l11.203 10.023c.241.215.386.518.405.841s-.091.641-.305.882l-7.177 8.103c-.106.12-.234.218-.378.288s-.299.111-.459.119l-.072.002zm-4.024-20.272c-.13 0-.258.027-.377.081a.91.91 0 0 0-.311.229l-7.177 8.103a.93.93 0 0 0-.231.669c.014.245.124.474.307.638l11.202 10.023a.93.93 0 0 0 .31.183c.115.04.236.057.356.05a.92.92 0 0 0 .348-.091c.109-.053.207-.127.287-.218l7.177-8.103a.93.93 0 0 0 .231-.669c-.014-.245-.124-.474-.307-.638L116.195 43.23c-.168-.151-.386-.234-.612-.234h0z" class="I"/><path d="M110.258 48.106c-.112-.203-.179-.429-.196-.661a1.59 1.59 0 0 1 .1-.683c.083-.217.212-.414.378-.576a1.59 1.59 0 0 1 .585-.361l.01-5.659 2.44 1.623-.383 5.125c.102.378.063.781-.11 1.132s-.468.626-.83.773-.764.155-1.132.024a1.6 1.6 0 0 1-.862-.737h0z" class="G"/><path d="M110.484 23.066l1.09-1.056.801.581s.788.95 1.418 3.801 0 18.529 0 18.529l-3.467-.475.473-8.235-1.418-6.968 1.103-6.176z" class="E"/><path d="M112.094 22.267l-3.673-1.763-2.493-2.324-4.547-.034-1.467 1.916-3.872 1.322.645 13.419-.44 1.032.447.434c.14.156-.194 1.459-.194 1.459l-.188 1.418.522.375-.678.805-.168 1.269s11.838-2.957 14.076 1.942c.118.259-.173-2.271-.173-2.271l-.291-1.852.289-1.662.44-.442-.738-.742.473-3.519 2.031-10.781z" class="J"/><path d="M66.492 74.898h-2.179l-1.037-8.449h3.217v8.449z" class="D"/><path d="M67.642 78.693h-1.563L65.8 77.21l-.715 1.483h-4.145a.93.93 0 0 1-.552-.182c-.16-.118-.278-.285-.337-.476a.94.94 0 0 1 .009-.584c.065-.189.188-.352.352-.465l3.31-2.298v-1.499l3.482.209.439 5.295z" class="C"/><path d="M79.44 72.134l-1.749 1.307-5.848-6.158 2.581-1.929 5.016 6.78z" class="D"/><path d="M82.616 74.489l-1.254.937-1.104-1.023.307 1.619-3.326 2.486a.93.93 0 0 1-1.105.006c-.161-.117-.28-.284-.34-.474a.94.94 0 0 1 .006-.584l1.292-3.829-.89-1.203 2.918-1.921 3.496 3.986z" class="C"/><path d="M59.354 36.015l10.346-1.62-2.057-6.22h-8.288v7.84z" class="D"/><g class="H"><path d="M69.029 31.308s4.135 3.591 2.227 13.826l-2.329 10.029 6.346 11.073-3.227 1.769-7.82-10.924-3.578-8.436-1.893-14.786 10.274-2.552z"/><path d="M62.62 51.049l-.249 3.871.728 11.464 3.615 1.251.684-11.745-4.778-4.84z"/></g><path d="M58.394 3.213c-.179.966-.472 1.907-.874 2.802-2.299 4.888 4.248 3.295 6.587 3.295 2.558 0 5.005 1.352 4.632-4.655C68.58 2.089 66.666 0 64.108 0c-2.185 0-5.257.976-5.714 3.213z" class="C"/><path d="M63.724 9.309c2.079 0 3.764-1.694 3.764-3.783s-1.685-3.783-3.764-3.783-3.764 1.694-3.764 3.783 1.685 3.783 3.764 3.783z" class="D"/><path d="M61.169 1.67c.66-.404 1.415-.623 2.187-.633s1.533.188 2.203.575 1.224.947 1.605 1.622a4.35 4.35 0 0 1 .559 2.217c-1.918.484-3.933.854-5.978.116l-.483-1.188-.285 1.189c-.623.256-1.247.472-1.872-.002a4.44 4.44 0 0 1 .514-2.225c.362-.684.896-1.26 1.549-1.671z" class="C"/><path d="M72.968 43.867L71.519 45.3l.009.009-3.465 3.426.508.502c1.305 1.29 3.409 1.301 4.699.025h0a3.23 3.23 0 0 0 .85-1.461 3.25 3.25 0 0 0-.004-1.693l.558-.552c.224-.221.349-.523.347-.838s-.13-.617-.356-.841a1.22 1.22 0 0 0-.851-.352c-.318-.002-.623.122-.847.343zm1.444 1.428l-.427.422a3.32 3.32 0 0 0-.74-1.102l-.254-.251.24-.237c.155-.153.366-.239.586-.237s.432.089.589.244.245.364.246.582a.81.81 0 0 1-.24.579h0z" fill="#180f10"/><path d="M68.499 48.737l.288.285c1.182 1.168 3.094 1.178 4.263.023s1.159-3.046-.023-4.215l-.288-.285-4.24 4.192z" class="B"/><path d="M53.394 45.083a1.44 1.44 0 0 0 .335-.525c.072-.197.1-.409.082-.618s-.081-.413-.186-.595-.247-.339-.419-.46l2.337-11.366-2.521.799-1.88 10.996c-.183.303-.249.662-.185 1.011a1.45 1.45 0 0 0 .529.879c.278.218.625.326.977.304s.683-.173.931-.425h0z" class="D"/><path d="M58.795 14.7l-1.562-1.185s-1.378-.098-1.622 2.399-1.772 12.08-1.772 12.08l-2.39 11.124 3.308.73 2.56-12.005 2.562-8.282-1.085-4.861z" class="E"/><path d="M57.606 35.284l-7.491-5.854a.56.56 0 0 1-.211-.373c-.018-.148.022-.296.113-.414l5.097-6.588a.56.56 0 0 1 .371-.212c.147-.018.295.022.412.114l7.491 5.854a.56.56 0 0 1 .211.373c.018.148-.022.296-.113.414l-5.097 6.588a.56.56 0 0 1-.371.212c-.147.019-.295-.022-.412-.114h0z" class="I"/><path d="M57.564 34.678l-6.856-5.358a.5.5 0 0 1-.087-.699l4.621-5.973c.081-.104.199-.172.33-.188s.262.02.366.101l6.856 5.358a.5.5 0 0 1 .087.699L58.26 34.59c-.081.104-.199.172-.33.188s-.262-.02-.366-.101h0z" class="B"/><path d="M61.509 10.598l3.999.157 1.594 2.659 3.636.713-2.171 11.037.399 6.282-3.621-.022a10.56 10.56 0 0 0-7.086 2.676h0l.108-8.155-1.557-6.087.35-6.383 2.925-.367 1.423-2.509z" class="J"/><path d="M73.569 44.103a1.44 1.44 0 0 1-.332-.527c-.071-.198-.098-.409-.079-.618a1.44 1.44 0 0 1 .189-.594c.105-.182.249-.338.421-.458l-2.279-11.378 2.517.812 1.824 11.006a1.45 1.45 0 0 1 .18 1.012c-.065.348-.255.66-.534.877s-.627.323-.978.299-.682-.177-.929-.43h0z" class="D"/><path d="M69.176 15.312l1.562-1.185s1.378-.098 1.622 2.399 1.772 12.081 1.772 12.081l2.39 11.124-3.308.73-2.56-12.005-2.562-8.282 1.085-4.861z" class="E"/><path d="M27.508 85.205h1.842l.877-7.142h-2.719v7.142z" class="D"/><path d="M27.038 84.601h.518l2.025-.828 1.085.827h0c.613 0 1.201.245 1.635.681a2.33 2.33 0 0 1 .677 1.643V87h-5.94v-2.399z" class="C"/><path d="M34.647 84.038l1.797.408 2.42-6.773-2.653-.602-1.565 6.966z" class="D"/><path d="M34.321 83.345l.506.115 2.156-.359.877 1.047h0c.598.136 1.118.505 1.446 1.026s.435 1.152.3 1.753L39.59 87l-5.795-1.315.526-2.341z" class="C"/><path d="M24.135 48.468l1.666 18.76s-.624 11.263 1.39 15.226h2.921l1.446-16.254.182-10.91 6.263 9.204-3.989 17.694 3.595.323 6.473-19.202-7.111-18.026-12.836 3.186z" class="H"/><path d="M25.88 18.593c2.373 0 4.296-1.933 4.296-4.318s-1.924-4.318-4.296-4.318-4.296 1.933-4.296 4.318 1.924 4.318 4.296 4.318z" class="K"/><path d="M33.432 22.708l-3.525-1.52-1.716-1.829-4.286.695-1.137 1.96-3.682 3.441L23.4 45.056l-.131 4.281s2.761 1.249 14.733-1.627c.144-.034-.157-.186-.157-.186l-4.413-24.817z" class="J"/><g class="C"><path d="M21.412 16.725l-.089-.124-.035.075.124.049zm8.741-5.608c-.287-.629-.799-1.126-1.434-1.393a2.6 2.6 0 0 0-1.962.002c-.568-.361-1.199-.647-1.864-.682s-1.367.212-1.777.758a2.84 2.84 0 0 1-.31.405c-.329.306-.83.262-1.267.2l.589.507-.713.187.832.507c-.805.486-1.171 1.545-1.074 2.508.091.911.529 1.745 1.052 2.485.209-.443.164-.973.16-1.471-.004-.527.089-1.125.509-1.42.283-.199.648-.207.989-.206a45.24 45.24 0 0 1 5.157.324c.232.01.459.076.66.192.378.26.452.795.49 1.265a9.21 9.21 0 0 0 .291-2.376 4.4 4.4 0 0 0-.329-1.793h0z"/></g><path d="M31.491 61.618c3.735 0 6.762-3.043 6.762-6.796s-3.028-6.796-6.762-6.796-6.762 3.043-6.762 6.796 3.028 6.796 6.762 6.796z" class="B"/><path d="M31.491 47.874c-.348 0-.695.026-1.038.079l-.517.1a6.9 6.9 0 0 0-3.302 1.825c-.911.904-1.555 2.044-1.858 3.294a6.98 6.98 0 0 0 .138 3.784c.394 1.224 1.119 2.314 2.093 3.149l.355.284c.877.657 1.897 1.096 2.976 1.28a6.88 6.88 0 0 0 3.23-.223c1.044-.33 1.995-.905 2.774-1.677a6.95 6.95 0 0 0 1.71-2.762 6.98 6.98 0 0 0 .271-3.242c-.166-1.087-.587-2.119-1.228-3.011a6.92 6.92 0 0 0-2.457-2.118c-.974-.501-2.053-.762-3.147-.761h0zm0 13.593a6.55 6.55 0 0 1-3.907-1.288l-.358-.284c-.949-.805-1.654-1.863-2.033-3.052s-.416-2.461-.108-3.671a6.65 6.65 0 0 1 1.849-3.168c.9-.86 2.023-1.448 3.241-1.696l.508-.083c.268-.033.538-.05.808-.05 1.754 0 3.435.7 4.675 1.946s1.937 2.937 1.937 4.699-.697 3.453-1.937 4.699-2.922 1.946-4.675 1.946h0z" class="I"/><path d="M28.808 52.017c.091-.233.13-.482.115-.732a1.72 1.72 0 0 0-.204-.712 1.71 1.71 0 0 0-.485-.559 1.7 1.7 0 0 0-.674-.3l-.816-6.021-2.365 2.078 1.137 5.399c-.055.417.044.84.278 1.189a1.71 1.71 0 0 0 .994.703 1.7 1.7 0 0 0 1.208-.137c.372-.193.661-.516.812-.909h0z" class="K"/><path d="M19.54 25.344l-.641.123-.387.49s-.627 2.472.087 4.199 5.878 19.089 5.878 19.089l3.709.108-2.889-14.077-5.756-9.933z" class="E"/><path d="M34.162 51.134c-.171-.182-.3-.399-.378-.636a1.72 1.72 0 0 1-.075-.737c.029-.248.112-.487.242-.7s.306-.394.514-.531l-1.477-5.892 2.966 1.042.948 5.436c.206.366.271.796.183 1.207a1.72 1.72 0 0 1-.661 1.025c-.338.249-.755.364-1.171.325s-.805-.231-1.091-.539h0z" class="K"/><path d="M32.867 22.912l.641-.126.541.31s1.499 2.058 1.477 3.929 1.628 19.915 1.628 19.915l-3.401 1.49-2.541-14.144 1.656-11.374z" class="E"/></g><defs><clipPath id="A"><path d="M0 0h128v87H0z" class="B"/></clipPath></defs></svg>