<?xml version="1.0" standalone="no"?>
<!DOCTYPE svg PUBLIC "-//W3C//DTD SVG 1.1//EN" "http://www.w3.org/Graphics/SVG/1.1/DTD/svg11.dtd" >
<svg xmlns="http://www.w3.org/2000/svg" xmlns:xlink="http://www.w3.org/1999/xlink" version="1.1">
<metadata>
Created by FontForge 20170731 at Sat Sep 11 11:31:55 2021
 By Aleksey,,,
Copyright (c) 1989, 2001 Adobe Systems Incorporated.  All Rights Reserved. Vietnamese by VietLinh
</metadata>
<defs>
<font id="VLBauhausStdLight" horiz-adv-x="1138" >
  <font-face 
    font-family="VL Bauhaus Std Light"
    font-weight="300"
    font-stretch="normal"
    units-per-em="2048"
    panose-1="0 0 4 0 0 0 0 0 0 0"
    ascent="1434"
    descent="-614"
    x-height="971"
    cap-height="1434"
    bbox="-342 -600 2048 2216.2"
    underline-thickness="102"
    underline-position="-307"
    unicode-range="U+0020-FB02"
  />
<missing-glyph horiz-adv-x="1024" 
d="M0 0v1434h1024v-1434h-1024zM512 809l348 522h-696zM573 717l349 -522v1044zM164 102h696l-348 523zM102 1239v-1044l349 522z" />
    <glyph glyph-name="fi" unicode="fi" horiz-adv-x="1024" 
d="M639 971v-74h-401v-897h-78v1133q0 74 29.5 133.5t77.5 95t103.5 54t112.5 18.5h156v-74h-156q-97 0 -171 -63.5t-74 -184.5v-141h401zM844 0h-78v971h78v-971zM743 1245q0 26 18 44t44 18t43.5 -18t17.5 -44t-17.5 -43.5t-43.5 -17.5t-44 17.5t-18 43.5z" />
    <glyph glyph-name="fl" unicode="fl" horiz-adv-x="1024" 
d="M639 971v-74h-401v-897h-78v1133q0 74 29.5 133.5t77.5 95t103.5 54t112.5 18.5h156v-74h-156q-97 0 -171 -63.5t-74 -184.5v-141h401zM844 0h-78v1434h78v-1434z" />
    <glyph glyph-name=".notdef" horiz-adv-x="1024" 
d="M0 0v1434h1024v-1434h-1024zM512 809l348 522h-696zM573 717l349 -522v1044zM164 102h696l-348 523zM102 1239v-1044l349 522z" />
    <glyph glyph-name=".null" horiz-adv-x="0" 
 />
    <glyph glyph-name="nonmarkingreturn" horiz-adv-x="682" 
 />
    <glyph glyph-name="space" unicode=" " horiz-adv-x="569" 
 />
    <glyph glyph-name="exclam" unicode="!" horiz-adv-x="454" 
d="M256 283h-78v1175h78v-1175zM139 66q0 32 23 54.5t55 22.5t55 -22.5t23 -54.5t-23 -55t-55 -23t-55 23t-23 55z" />
    <glyph glyph-name="quotedbl" unicode="&#x22;" horiz-adv-x="681" 
d="M201 971v463h78v-463h-78zM406 971v463h77v-463h-77z" />
    <glyph glyph-name="numbersign" unicode="#" 
d="M1010 557l8 -82h-236l-65 -475h-86l65 475h-305l-65 -475h-86l65 475h-233l-9 82h254l45 332h-233l-8 82h252l65 463h86l-65 -463h305l65 463h86l-65 -463h217l8 -82h-235l-45 -332h215zM754 889h-305l-46 -332h306z" />
    <glyph glyph-name="dollar" unicode="$" 
d="M653 793v-514q150 2 231 59t81 168q0 53 -17.5 96t-44 71t-71 52t-83 37.5t-96.5 30.5zM575 895v465q-65 0 -111.5 -8t-87 -29.5t-61 -64.5t-20.5 -107q0 -45 15 -82t38.5 -62.5t62 -47t75.5 -35.5t89 -29zM653 1434h318v-74h-318v-488q43 -13 64 -19.5t61 -20.5
t61 -24.5t53.5 -28.5t50.5 -35t40 -41.5t32.5 -51.5t18.5 -61.5t8 -73.5q0 -153 -102 -232t-287 -79v-205h-78v205h-358v74h358v536q-45 12 -77 22t-72.5 26.5t-67.5 34t-56 43.5t-46 56t-28 71t-11 89q0 135 90 206t230 71h38v135h78v-135z" />
    <glyph glyph-name="percent" unicode="%" horiz-adv-x="1820" 
d="M678 1153q0 93 -65.5 160t-161.5 67t-162 -67t-66 -160t66 -160t162 -67t161.5 67t65.5 160zM442 -25h-75l946 1483h80zM1538 281q0 93 -65.5 160t-161.5 67t-162 -67t-66 -160t66 -160.5t162 -67.5t161.5 67.5t65.5 160.5zM451 1458q126 0 217.5 -89.5t91.5 -215.5
t-91.5 -215.5t-217.5 -89.5t-218 89.5t-92 215.5t92 215.5t218 89.5zM1311 586q126 0 217.5 -89.5t91.5 -215.5t-91.5 -216t-217.5 -90t-218 90t-92 216t92 215.5t218 89.5z" />
    <glyph glyph-name="ampersand" unicode="&#x26;" horiz-adv-x="1366" 
d="M1071 207l-670 768q-127 -66 -196.5 -173t-69.5 -247q0 -104 34.5 -195t98.5 -159.5t163 -108t220 -39.5q137 0 232.5 32.5t187.5 121.5zM471 1434h553v-74h-578q-74 0 -102.5 -25t-28.5 -84q0 -32 18.5 -68.5t41 -65t71.5 -83.5l678 -766q74 117 74 289q0 126 -44.5 212
t-135.5 161l51 51q112 -91 161.5 -195t49.5 -249q0 -91 -26 -179t-78 -153l165 -205h-100l-117 150q-101 -95 -212.5 -135t-264.5 -40q-83 0 -165.5 20t-160.5 64.5t-137 108t-95 158.5t-36 209q0 97 22 175t65 136.5t91 99.5t115 82q-69 85 -88.5 128.5t-19.5 100.5
q0 91 62.5 134t170.5 43z" />
    <glyph glyph-name="quotesingle" unicode="'" horiz-adv-x="454" 
d="M188 971v463h78v-463h-78z" />
    <glyph glyph-name="parenleft" unicode="(" horiz-adv-x="796" 
d="M682 1458l39 -47q-406 -363 -406 -872q0 -249 113.5 -483t308.5 -390l-39 -47q-214 151 -337 399.5t-123 520.5q0 282 118 518t326 401z" />
    <glyph glyph-name="parenright" unicode=")" horiz-adv-x="796" 
d="M76 1411l39 47q208 -165 326 -401t118 -518q0 -271 -123 -520t-338 -400l-39 47q195 156 308.5 390t113.5 483q0 510 -405 872z" />
    <glyph glyph-name="asterisk" unicode="*" horiz-adv-x="1024" 
d="M852 1245l-283 -168l283 -168l-37 -51l-272 162v-324h-62v324l-272 -162l-37 51l283 168l-283 168l37 49l272 -164v304h62v-304l272 164z" />
    <glyph glyph-name="plus" unicode="+" horiz-adv-x="1228" 
d="M575 526v445h82v-445h441v-82h-441v-444h-82v444h-444v82h444z" />
    <glyph glyph-name="comma" unicode="," horiz-adv-x="569" 
d="M160 -168l84 315h100l-102 -315h-82z" />
    <glyph glyph-name="hyphen" unicode="-" horiz-adv-x="681" 
d="M537 446h-390v78h390v-78z" />
    <glyph glyph-name="period" unicode="." horiz-adv-x="569" 
d="M197 66q0 32 22.5 54.5t54.5 22.5t55 -22.5t23 -54.5t-23 -55t-55 -23t-54.5 23t-22.5 55z" />
    <glyph glyph-name="slash" unicode="/" horiz-adv-x="569" 
d="M2 -25l483 1483h84l-483 -1483h-84z" />
    <glyph glyph-name="zero" unicode="0" 
d="M1040 946v-459q0 -232 -124 -372t-347 -140t-347 140t-124 372v459q0 232 124 372t347 140t347 -140t124 -372zM188 971v-508q0 -182 101.5 -294t279.5 -112t279.5 112t101.5 294v508q0 182 -101.5 293.5t-279.5 111.5t-279.5 -111.5t-101.5 -293.5z" />
    <glyph glyph-name="one" unicode="1" 
d="M299 1360l18 74h299v-1434h-77v1360h-240z" />
    <glyph glyph-name="two" unicode="2" 
d="M1028 82v-82h-835q-43 0 -67 28.5t-24 75.5q0 30 36 72.5t94 88t133 101.5t153 112t153 121.5t133 128t94 133t36 134.5q0 176 -96 278.5t-277 102.5q-180 0 -276.5 -101t-96.5 -271q0 -63 29 -126.5t77.5 -112t120 -73.5t148.5 -12l4 -6q-81 -60 -110 -60
q-37 0 -82.5 15.5t-94.5 48.5t-89.5 78t-66.5 111t-26 141q0 209 121 329.5t342 120.5q74 0 139.5 -15t126 -49.5t103.5 -86.5t68.5 -132t25.5 -180q0 -80 -46 -167.5t-119 -165t-161.5 -153t-177.5 -139.5t-162 -117t-119 -93t-46 -60q0 -6 7 -12t17 -6h811z" />
    <glyph glyph-name="three" unicode="3" 
d="M129 1360v74h653q63 0 87 -20t24 -56q0 -61 -51 -109l-434 -409h153q203 0 320.5 -116t117.5 -294q0 -208 -125.5 -319t-345.5 -111h-409v78h459q140 0 235.5 92.5t95.5 235.5q0 163 -97 257.5t-275 94.5h-256v55l485 467q37 34 37 59q0 21 -21 21h-653z" />
    <glyph glyph-name="four" unicode="4" 
d="M745 406h-595q-105 0 -105 83q0 27 14 55.5t66 114.5l487 799h93l-562 -919q-8 -16 -8 -33q0 -27 31 -27h577v877l74 98l4 4v-979h244v-73h-244v-406h-76v406z" />
    <glyph glyph-name="five" unicode="5" 
d="M262 844h291q105 0 190 -35.5t138 -95.5t81.5 -137.5t28.5 -163.5q0 -177 -125.5 -294.5t-357.5 -117.5h-373v82h402q92 0 164.5 29t115.5 77.5t64.5 108t19.5 125.5q-3 150 -95 245t-265 95h-361v672h711v-74h-629v-516z" />
    <glyph glyph-name="six" unicode="6" 
d="M592 1434h102l-372 -555q-98 -145 -128 -218.5t-30 -191.5q0 -122 58 -217.5t149.5 -145t197.5 -49.5t197.5 49.5t150 146.5t58.5 220q0 122 -58 218.5t-150.5 147t-197.5 50.5q-100 0 -174 -29l60 94q57 17 114 17q95 -2 183 -36t158.5 -95t112.5 -156.5t42 -210.5
q0 -111 -42.5 -206t-112 -158t-158.5 -98.5t-183 -35.5q-95 0 -183 33.5t-158 94t-112 156t-42 210.5q0 54 9 103.5t21.5 87t40.5 88.5t50 86.5t67 101.5z" />
    <glyph glyph-name="seven" unicode="7" 
d="M76 1360v74h858q129 0 129 -93q0 -23 -7 -49.5t-14 -44t-24 -53.5l-529 -1194h-94l555 1249q3 8 12.5 28t14 32.5t4.5 19.5q0 31 -41 31h-864z" />
    <glyph glyph-name="eight" unicode="8" 
d="M719 827v-4q139 -25 232 -136t93 -265q0 -109 -41.5 -196.5t-110 -141t-151.5 -81.5t-172 -28t-172 28t-151.5 81.5t-110 141t-41.5 196.5q0 154 93 265t233 136v4q-221 80 -221 299q0 149 100 240.5t270 91.5t270.5 -91.5t100.5 -240.5q0 -219 -221 -299zM569 778
q-70 0 -138 -24t-123.5 -67.5t-89.5 -112.5t-34 -152q0 -116 56 -204t142 -130.5t187 -42.5t187 42.5t142 130.5t56 204q0 83 -34 152t-89.5 112.5t-123.5 67.5t-138 24zM850 1126q0 123 -74.5 193t-206.5 70t-206 -70t-74 -193q0 -114 72 -196t208 -82t208.5 82t72.5 196z
" />
    <glyph glyph-name="nine" unicode="9" 
d="M547 0h-103l373 555q98 145 128 218.5t30 191.5q0 122 -58.5 217.5t-150 144.5t-197.5 49t-197.5 -49.5t-149.5 -146t-58 -219.5q0 -122 58 -218.5t150 -147t197 -50.5q103 0 174 28l-59 -94q-54 -16 -115 -16q-95 2 -183 36t-158 95t-112 156.5t-42 210.5q0 111 42 206
t111.5 157.5t158.5 98t183 35.5q95 0 183 -33t158.5 -94t112.5 -156t42 -210q0 -54 -9 -103.5t-21.5 -87t-40.5 -88.5t-50 -86.5t-67 -101.5z" />
    <glyph glyph-name="colon" unicode=":" horiz-adv-x="569" 
d="M197 66q0 32 22.5 54.5t54.5 22.5t55 -22.5t23 -54.5t-23 -55t-55 -23t-54.5 23t-22.5 55zM197 717q0 32 22.5 55t54.5 23t55 -23t23 -55t-23 -55t-55 -23t-54.5 23t-22.5 55z" />
    <glyph glyph-name="semicolon" unicode=";" horiz-adv-x="569" 
d="M160 -168l84 315h100l-102 -315h-82zM197 717q0 32 22.5 55t54.5 23t55 -23t23 -55t-23 -55t-55 -23t-54.5 23t-22.5 55z" />
    <glyph glyph-name="less" unicode="&#x3c;" horiz-adv-x="1228" 
d="M1098 985v-90l-885 -410l885 -409v-90l-967 448v103z" />
    <glyph glyph-name="equal" unicode="=" horiz-adv-x="1228" 
d="M1098 256h-967v82h967v-82zM1098 633h-967v82h967v-82z" />
    <glyph glyph-name="greater" unicode="&#x3e;" horiz-adv-x="1228" 
d="M131 895v90l967 -448v-103l-967 -448v90l885 409z" />
    <glyph glyph-name="question" unicode="?" horiz-adv-x="909" 
d="M127 1053h-82q0 173 113 289t297 116t296.5 -116t112.5 -289q0 -90 -25.5 -163t-66.5 -120t-95.5 -79.5t-108.5 -46t-109 -13.5v-369h-78v443q62 0 116 8.5t108 32.5t92 62t61.5 100.5t23.5 144.5q0 138 -91 232.5t-236 94.5t-236.5 -94.5t-91.5 -232.5zM342 66
q0 32 23 54.5t55 22.5t55 -22.5t23 -54.5t-23 -55t-55 -23t-55 23t-23 55z" />
    <glyph glyph-name="at" unicode="@" horiz-adv-x="1638" 
d="M678 336q74 0 145 55.5t119.5 138t78.5 175t30 167.5q0 78 -56.5 145.5t-122.5 67.5t-128 -34t-108 -90t-81.5 -124.5t-53.5 -140t-18 -135.5q0 -100 55.5 -162.5t139.5 -62.5zM1102 987l51 131h84l-197 -588q-12 -36 -17 -69t-2.5 -64.5t20.5 -50t51 -18.5
q91 0 174 82.5t129 204t43 239.5q-3 159 -86.5 281.5t-215 185.5t-284.5 63q-137 0 -258.5 -53.5t-207.5 -144.5t-135.5 -214.5t-49.5 -260.5q0 -178 88 -330.5t239 -242t328 -89.5q363 0 553 287h84q-92 -164 -265.5 -262.5t-367.5 -98.5q-154 0 -292 59.5t-236.5 160
t-155.5 238.5t-57 290q0 149 59 285.5t158 234.5t234.5 156.5t281.5 58.5q138 0 262 -46t213 -125t141 -189t52 -232q0 -124 -40 -238t-103 -193t-142.5 -126t-157.5 -47q-59 0 -97.5 39.5t-41.5 108.5l-4 -4q-136 -136 -264 -136q-122 0 -195.5 85.5t-73.5 211.5
q0 106 35.5 211.5t97 190.5t154 137.5t197.5 52.5q154 0 217 -172z" />
    <glyph glyph-name="A" unicode="A" horiz-adv-x="1251" 
d="M1118 965v-965h-86v700h-733v74h733v217q0 180 -111 284.5t-296 104.5t-296.5 -104.5t-111.5 -284.5v-991h-86v965q0 231 133.5 362t360.5 131q226 0 359.5 -131t133.5 -362z" />
    <glyph glyph-name="B" unicode="B" 
d="M299 0v74h291q199 0 294 85.5t95 229.5q0 152 -92.5 242t-263.5 90h-324v74h209q204 0 300.5 74.5t96.5 236.5q0 129 -87.5 203.5t-242.5 74.5q-161 0 -259.5 -91.5t-98.5 -264.5v-1028h-86v975q0 483 455 483q103 0 183 -29t128.5 -78.5t73 -111.5t24.5 -133
q0 -267 -215 -338v-4q47 -1 98 -29t93.5 -76t70 -120.5t27.5 -153.5q0 -166 -111 -275.5t-319 -109.5h-340z" />
    <glyph glyph-name="C" unicode="C" horiz-adv-x="1024" 
d="M973 74v-74h-182q-135 0 -261 48t-226.5 136t-161 226.5t-60.5 306.5t60.5 306.5t161 226.5t226.5 136t261 48h184v-74h-168q-92 0 -181.5 -24.5t-172 -76.5t-145 -126t-99.5 -181.5t-37 -234.5t37 -234.5t99.5 -181.5t145 -126t172 -76.5t181.5 -24.5h166z" />
    <glyph glyph-name="D" unicode="D" horiz-adv-x="1251" 
d="M217 0h-86v1434h311q142 0 274 -53t232.5 -145t160.5 -228t60 -291q0 -159 -53 -294.5t-143.5 -227.5t-214 -143.5t-262.5 -51.5h-207v78h198q136 0 249.5 53t187 142t114.5 204t41 240q0 132 -50.5 250t-138 203.5t-212.5 135.5t-268 50h-193v-1356z" />
    <glyph glyph-name="E" unicode="E" horiz-adv-x="1024" 
d="M926 774v-74h-787q0 -122 40.5 -226.5t107 -176.5t152 -123.5t176.5 -75.5t180 -24h131v-74h-164q-135 0 -261 48t-226.5 136t-161 226.5t-60.5 306.5t60.5 306.5t161 226.5t226.5 136t261 48h164v-74h-160q-132 0 -251 -52.5t-200 -136t-128.5 -188.5t-47.5 -209h787z
" />
    <glyph glyph-name="F" unicode="F" horiz-adv-x="909" 
d="M217 680v-680h-86v1012q0 101 32.5 183t86 133t118 78.5t132.5 27.5h311v-74h-283q-139 0 -225 -99.5t-86 -252.5v-254h594v-74h-594z" />
    <glyph glyph-name="G" unicode="G" horiz-adv-x="1593" 
d="M1352 1223l-60 -62q-87 105 -217.5 162t-279.5 57q-134 0 -253 -53.5t-203 -143.5t-132.5 -211.5t-48.5 -254.5t48.5 -254.5t132.5 -212t203 -144t253 -53.5q172 0 314 85t223 230t85 320h-622v74h712q4 -143 -31.5 -268.5t-102 -219.5t-156.5 -162t-198 -102.5
t-224 -34.5q-200 0 -367.5 100.5t-263.5 271t-96 370.5t96 370.5t263.5 270.5t367.5 100q165 0 311.5 -61t245.5 -174z" />
    <glyph glyph-name="H" unicode="H" horiz-adv-x="1251" 
d="M229 0h-86v1434h86v-648h793v648h86v-1434h-86v713h-793v-713z" />
    <glyph glyph-name="I" unicode="I" horiz-adv-x="454" 
d="M270 0h-86v1434h86v-1434z" />
    <glyph glyph-name="J" unicode="J" horiz-adv-x="681" 
d="M-31 0v78h154q61 0 116.5 18t105 56t79 106.5t29.5 159.5v1016h86v-1045q0 -75 -22.5 -139t-61 -109.5t-90.5 -77.5t-111.5 -47.5t-122.5 -15.5h-162z" />
    <glyph glyph-name="K" unicode="K" 
d="M217 0h-86v1434h86v-648h229q83 0 138 15t100.5 57t80 100.5t79.5 161.5l137 314h96l-205 -447q-85 -189 -202 -213v-4q76 -5 142 -34t120 -82.5t85.5 -142.5t31.5 -204v-307h-86v307q0 204 -101.5 305t-320.5 101h-324v-713z" />
    <glyph glyph-name="L" unicode="L" horiz-adv-x="796" 
d="M131 1434h86v-1008q0 -153 86 -252.5t225 -99.5h273v-74h-301q-68 0 -132.5 27.5t-118 78.5t-86 133t-32.5 183v1012z" />
    <glyph glyph-name="M" unicode="M" horiz-adv-x="1705" 
d="M143 0h-86l179 1311q10 75 32 111t74 36q32 0 48.5 -4.5t33 -23.5t28 -50.5t29.5 -93.5l344 -1165q15 -47 29 -47q10 0 25 47l344 1165q18 62 29.5 93.5t28 50.5t33 23.5t48.5 4.5q52 0 74 -36t32 -111l179 -1311h-86l-179 1317q-6 59 -28 59q-21 0 -37 -59l-344 -1176
q-30 -104 -50 -130.5t-71 -26.5t-71 26.5t-50 130.5l-344 1176q-16 59 -37 59q-22 0 -28 -59z" />
    <glyph glyph-name="N" unicode="N" horiz-adv-x="1251" 
d="M225 0h-86v1343q0 47 25.5 81t81.5 34q45 0 71.5 -17t51.5 -69l600 -1282q15 -29 35 -29q22 0 22 39v1358h86v-1380q0 -53 -25 -78t-79 -25q-88 0 -131 99l-570 1226q-22 47 -33.5 63.5t-23.5 16.5q-25 0 -25 -37v-1343z" />
    <glyph glyph-name="O" unicode="O" horiz-adv-x="1593" 
d="M795 -25q-200 0 -367.5 100.5t-263.5 271t-96 370.5t96 370.5t263.5 270.5t367.5 100t368.5 -100t265.5 -270.5t97 -370.5q0 -150 -57.5 -287t-154.5 -237t-233 -159t-286 -59zM795 53q177 0 325 91t232 243.5t84 329.5t-84 329.5t-232 243t-325 90.5q-134 0 -253 -53.5
t-203 -143.5t-132.5 -211.5t-48.5 -254.5t48.5 -254.5t132.5 -212t203 -144t253 -53.5z" />
    <glyph glyph-name="P" unicode="P" horiz-adv-x="1024" 
d="M209 0h-86v1036q0 85 29 161t83.5 134.5t139 92.5t188.5 34q192 0 316.5 -117.5t124.5 -322.5t-124.5 -322.5t-316.5 -117.5h-278v77h278q155 0 252.5 98t97.5 265t-97.5 264.5t-252.5 97.5q-153 0 -253.5 -98t-100.5 -238v-1044z" />
    <glyph glyph-name="Q" unicode="Q" horiz-adv-x="1593" 
d="M868 393v-336q160 19 290.5 112.5t204 238t73.5 309.5q0 177 -84 329.5t-232 243t-325 90.5q-134 0 -253 -53.5t-203 -143.5t-132.5 -211.5t-48.5 -254.5q0 -250 154.5 -436t383.5 -220v-77q-123 11 -238 73.5t-201 159.5t-137.5 228.5t-51.5 271.5q0 200 96 370.5
t263.5 270.5t367.5 100t368.5 -100t265.5 -270.5t97 -370.5q0 -188 -86 -350t-237 -265t-335 -122v-291h-77v704h77z" />
    <glyph glyph-name="R" unicode="R" 
d="M217 0h-86v1008q0 205 116 327.5t310 122.5q195 0 316.5 -104.5t121.5 -268.5q0 -277 -235 -358v-4q122 -21 193 -106.5t71 -223.5v-393h-90v406q0 123 -82.5 198.5t-257.5 75.5h-295v74h233q183 0 278 87t95 236q0 134 -97.5 218.5t-250.5 84.5q-162 0 -251 -100.5
t-89 -267.5v-1012z" />
    <glyph glyph-name="S" unicode="S" 
d="M969 1434v-78h-475q-170 0 -243 -64.5t-73 -187.5q0 -70 30 -123t80.5 -86t116 -58t138 -45t144.5 -41.5t137.5 -53t116 -73.5t80.5 -108.5t30 -153.5q0 -177 -117.5 -269.5t-329.5 -92.5h-516v78h504q176 0 272.5 70.5t96.5 201.5q0 77 -30 135t-80.5 93.5t-116 61.5
t-138 45.5t-144.5 40.5t-137.5 51t-116 71.5t-80.5 108.5t-30 155q0 157 105 239.5t268 82.5h508z" />
    <glyph glyph-name="T" unicode="T" horiz-adv-x="909" 
d="M498 1360v-1360h-86v1360h-408v74h901v-74h-407z" />
    <glyph glyph-name="U" unicode="U" horiz-adv-x="1251" 
d="M131 1434h86v-992q0 -180 111.5 -284.5t296.5 -104.5t296 104.5t111 284.5v992h86v-965q0 -231 -133.5 -362.5t-359.5 -131.5t-360 131.5t-134 362.5v965z" />
    <glyph glyph-name="V" unicode="V" horiz-adv-x="1024" 
d="M-37 1434h84l399 -1297q15 -47 26.5 -65.5t25.5 -18.5t25 18.5t26 65.5l428 1297h84l-449 -1358q-19 -59 -45.5 -80t-68.5 -21q-43 0 -70.5 21t-46.5 80z" />
    <glyph glyph-name="W" unicode="W" horiz-adv-x="1933" 
d="M924 1434h86v-959q0 -107 32 -191t85 -133t115.5 -73.5t129.5 -24.5q147 0 245.5 97t98.5 253v1031h86v-1041q0 -191 -121 -304.5t-303 -113.5q-145 0 -240 63.5t-171 199.5q-76 -136 -171.5 -199.5t-240.5 -63.5q-182 0 -303 113.5t-121 304.5v1041h86v-1031
q0 -156 98.5 -253t245.5 -97q67 0 129.5 24.5t116 73.5t85.5 133t32 191v959z" />
    <glyph glyph-name="X" unicode="X" horiz-adv-x="1251" 
d="M1217 1442v-86q-100 0 -199 -49.5t-176.5 -132.5t-125.5 -202.5t-48 -250.5t48 -250.5t125.5 -202.5t176.5 -132.5t199 -49.5v-86q-207 0 -369 137.5t-221 356.5h-4q-59 -219 -221 -356.5t-369 -137.5v86q100 0 199 49.5t176.5 132.5t125.5 202.5t48 250.5t-48 250.5
t-125.5 202.5t-176.5 132.5t-199 49.5v86q207 0 369 -137.5t221 -356.5h4q59 219 221 356.5t369 137.5z" />
    <glyph glyph-name="Y" unicode="Y" 
d="M922 1434h86v-392q0 -100 -33 -184.5t-88 -140.5t-126.5 -87.5t-148.5 -31.5v-598h-86v598q-77 0 -148 31.5t-126 87.5t-88 140.5t-33 184.5v392h86v-398q0 -161 98.5 -260.5t253.5 -99.5t254 99.5t99 260.5v398z" />
    <glyph glyph-name="Z" unicode="Z" horiz-adv-x="1024" 
d="M963 78v-78h-801q-121 0 -121 90q0 36 12.5 66.5t44.5 76.5l717 1014q41 55 41 84q0 25 -33 25h-704v78h702q125 0 125 -91q0 -43 -14.5 -74.5t-52.5 -84.5l-729 -1034q-19 -27 -19 -46q0 -26 37 -26h795z" />
    <glyph glyph-name="bracketleft" unicode="[" horiz-adv-x="569" 
d="M184 1434h279v-78h-201v-1659h201v-78h-279v1815z" />
    <glyph glyph-name="backslash" unicode="\" horiz-adv-x="569" 
d="M-135 1458h82l760 -1483h-82z" />
    <glyph glyph-name="bracketright" unicode="]" horiz-adv-x="569" 
d="M106 1434h279v-1815h-279v78h201v1659h-201v78z" />
    <glyph glyph-name="asciicircum" unicode="^" horiz-adv-x="1228" 
d="M567 1434h95l442 -869h-100l-390 778l-393 -778h-96z" />
    <glyph glyph-name="underscore" unicode="_" horiz-adv-x="1024" 
d="M1024 -256h-1024v102h1024v-102z" />
    <glyph glyph-name="grave" unicode="`" horiz-adv-x="454" 
d="M344 1094h-76l-272 282h104z" />
    <glyph glyph-name="a" unicode="a" 
d="M1016 0h-78v485q0 113 -49.5 211.5t-141 160t-204.5 61.5q-73 0 -144 -33t-125.5 -89.5t-88 -138t-33.5 -172.5t33.5 -172.5t88 -137.5t125.5 -89t144 -33q92 0 164 36t139 106v-93q-40 -33 -72.5 -55t-97 -44.5t-133.5 -22.5q-200 0 -336.5 143.5t-136.5 361.5
t136.5 362t336.5 144t336.5 -144t136.5 -362v-485z" />
    <glyph glyph-name="b" unicode="b" 
d="M123 1434h78v-949q0 -113 49.5 -211.5t141 -159.5t204.5 -61q73 0 144 33t125.5 89t88 137.5t33.5 172.5t-33.5 172.5t-88 138t-125.5 89.5t-144 33q-92 0 -164 -36t-139 -106v92q30 25 53 41t62.5 37.5t87 33t100.5 11.5q200 0 336.5 -144t136.5 -362t-136.5 -361.5
t-336.5 -143.5t-336.5 143.5t-136.5 361.5v949z" />
    <glyph glyph-name="c" unicode="c" horiz-adv-x="796" 
d="M719 991v-82h-141q-186 0 -302 -114.5t-116 -298.5t116 -299t302 -115h141v-82h-146q-214 0 -354.5 138.5t-140.5 357.5t140.5 357t354.5 138h146z" />
    <glyph glyph-name="d" unicode="d" 
d="M938 1434h78v-949q0 -218 -136.5 -361.5t-336.5 -143.5t-336.5 143.5t-136.5 361.5t136.5 362t336.5 144q53 0 100.5 -11.5t87 -33t62.5 -37.5t53 -41v-92q-67 70 -139 106t-164 36q-73 0 -144 -33t-125.5 -89.5t-88 -138t-33.5 -172.5t33.5 -172.5t88 -137.5t125.5 -89
t144 -33q113 0 204.5 61t141 159.5t49.5 211.5v949z" />
    <glyph glyph-name="e" unicode="e" 
d="M319 283l-49 65l625 422q-55 69 -136.5 108.5t-176.5 39.5q-120 0 -218 -61.5t-151 -162t-53 -215.5q0 -174 121.5 -300t300.5 -126q175 0 299 122t127 290h82q-3 -128 -68 -239t-177.5 -178.5t-246.5 -67.5q-226 0 -373 144t-147 359q0 137 62.5 252.5t179 185.5
t262.5 70q136 0 250 -64.5t182 -172.5z" />
    <glyph glyph-name="f" unicode="f" horiz-adv-x="569" 
d="M602 971v-74h-401v-897h-78v1133q0 74 29.5 133.5t77.5 95t103.5 54t112.5 18.5h156v-74h-156q-97 0 -171 -63.5t-74 -184.5v-141h401z" />
    <glyph glyph-name="g" unicode="g" 
d="M248 -418l24 74q125 -49 246 -49q206 0 313 107t107 352v419q0 113 -49.5 211.5t-141 160t-204.5 61.5q-73 0 -144 -33t-125.5 -89.5t-88 -138t-33.5 -172.5t33.5 -172.5t88 -137.5t125.5 -89t144 -33q92 0 164 36t139 106v-93q-40 -33 -72.5 -55t-97 -44.5t-133.5 -22.5
q-200 0 -336.5 143.5t-136.5 361.5t136.5 362t336.5 144t336.5 -144t136.5 -362v-473q0 -223 -135.5 -351t-352.5 -128q-146 0 -280 49z" />
    <glyph glyph-name="h" unicode="h" horiz-adv-x="1024" 
d="M901 0h-78v582q0 149 -90 242.5t-221 93.5t-221 -93.5t-90 -242.5v-582h-78v1434h78v-594h4q51 72 131.5 111.5t175.5 39.5q166 0 277.5 -111t111.5 -288v-592z" />
    <glyph glyph-name="i" unicode="i" horiz-adv-x="454" 
d="M266 0h-78v971h78v-971zM166 1245q0 26 17.5 44t43.5 18t44 -18t18 -44t-18 -43.5t-44 -17.5t-43.5 17.5t-17.5 43.5z" />
    <glyph glyph-name="j" unicode="j" horiz-adv-x="454" 
d="M188 971h78v-1137q0 -74 -29.5 -133.5t-77.5 -95t-103.5 -54t-112.5 -18.5h-45v74h45q97 0 171 63.5t74 184.5v1116zM166 1245q0 26 17.5 44t43.5 18t44 -18t18 -44t-18 -43.5t-44 -17.5t-43.5 17.5t-17.5 43.5z" />
    <glyph glyph-name="k" unicode="k" horiz-adv-x="909" 
d="M201 0h-78v1434h78v-869h159q37 0 69 14.5t65.5 50.5t59 70.5t69.5 100.5l114 170h94l-141 -213q-6 -9 -25.5 -40.5t-30 -46.5t-29 -39.5t-37 -41.5t-38.5 -29v-4q52 -2 98.5 -20.5t85.5 -53.5t62 -93t23 -132v-258h-78v254q0 99 -68 168.5t-178 69.5h-274v-492z" />
    <glyph glyph-name="l" unicode="l" horiz-adv-x="454" 
d="M266 0h-78v1434h78v-1434z" />
    <glyph glyph-name="m" unicode="m" horiz-adv-x="1478" 
d="M778 0h-78v643q0 130 -74 202.5t-177 72.5q-102 0 -177 -72.5t-75 -202.5v-643h-78v643q0 163 94 255.5t236 92.5q224 0 288 -190h4q64 190 289 190q142 0 236 -92.5t94 -255.5v-643h-78v643q0 130 -75 202.5t-177 72.5q-103 0 -177.5 -72.5t-74.5 -202.5v-643z" />
    <glyph glyph-name="n" unicode="n" horiz-adv-x="1024" 
d="M901 0h-78v582q0 149 -90 242.5t-221 93.5t-221 -93.5t-90 -242.5v-582h-78v592q0 177 111.5 288t277.5 111t277.5 -111t111.5 -288v-592z" />
    <glyph glyph-name="o" unicode="o" 
d="M569 918q-115 0 -210 -61.5t-147 -160.5t-52 -211q0 -173 117.5 -302.5t291.5 -129.5t292 129.5t118 302.5q0 112 -52 211t-147.5 160.5t-210.5 61.5zM569 991q136 0 250 -69t178 -185t64 -252t-64 -251.5t-177.5 -184.5t-250.5 -69q-136 0 -249.5 69t-177.5 184.5
t-64 251.5t64 252t177.5 185t249.5 69z" />
    <glyph glyph-name="p" unicode="p" 
d="M201 -467h-78v952q0 218 136.5 362t336.5 144t336.5 -144t136.5 -362t-136.5 -361.5t-336.5 -143.5q-69 0 -133.5 22.5t-97 44.5t-72.5 55v93q67 -70 139 -106t164 -36q73 0 144 33t125.5 89t88 137.5t33.5 172.5t-33.5 172.5t-88 138t-125.5 89.5t-144 33
q-113 0 -204.5 -61.5t-141 -160t-49.5 -211.5v-952z" />
    <glyph glyph-name="q" unicode="q" 
d="M1016 -463h-78v948q0 113 -49.5 211.5t-141 160t-204.5 61.5q-73 0 -144 -33t-125.5 -89.5t-88 -138t-33.5 -172.5t33.5 -172.5t88 -137.5t125.5 -89t144 -33q92 0 164 36t139 106v-93q-40 -33 -72.5 -55t-97 -44.5t-133.5 -22.5q-200 0 -336.5 143.5t-136.5 361.5
t136.5 362t336.5 144t336.5 -144t136.5 -362v-948z" />
    <glyph glyph-name="r" unicode="r" horiz-adv-x="569" 
d="M201 0h-78v971h78v-187h4q35 77 115 132t172 55h90v-74h-82q-118 0 -208.5 -111t-90.5 -278v-508z" />
    <glyph glyph-name="s" unicode="s" horiz-adv-x="909" 
d="M78 0v74h434q236 0 236 164q0 58 -29 99.5t-76 64t-107.5 41t-123.5 30t-123.5 32t-107.5 46t-76 72.5t-29 112q0 100 66.5 168t181.5 68h436v-74h-430q-68 0 -118 -42.5t-50 -117.5q0 -58 37 -96.5t96.5 -59t131 -35.5t143 -34.5t131 -47.5t96.5 -82t37 -132
q0 -125 -88 -187.5t-252 -62.5h-416z" />
    <glyph glyph-name="t" unicode="t" horiz-adv-x="569" 
d="M201 1237v-266h344v-74h-344v-627q0 -92 50.5 -144t137.5 -52h156v-74h-139q-136 0 -209.5 74t-73.5 205v958h78z" />
    <glyph glyph-name="u" unicode="u" horiz-adv-x="1024" 
d="M123 971h78v-582q0 -149 90 -242.5t221 -93.5t221 93.5t90 242.5v582h78v-592q0 -177 -111.5 -288t-277.5 -111t-277.5 111t-111.5 288v592z" />
    <glyph glyph-name="v" unicode="v" horiz-adv-x="909" 
d="M827 971h91l-371 -940q-20 -51 -92 -51q-73 0 -93 51l-370 940h90l344 -869q17 -41 29 -41q14 0 28 41z" />
    <glyph glyph-name="w" unicode="w" horiz-adv-x="1478" 
d="M700 971h78v-643q0 -130 74.5 -202.5t177.5 -72.5q102 0 177 72.5t75 202.5v643h78v-643q0 -163 -94 -255.5t-236 -92.5q-225 0 -289 190h-4q-64 -190 -288 -190q-142 0 -236 92.5t-94 255.5v643h78v-643q0 -130 75 -202.5t177 -72.5q103 0 177 72.5t74 202.5v643z" />
    <glyph glyph-name="x" unicode="x" horiz-adv-x="909" 
d="M872 971v-74q-96 0 -182.5 -54.5t-140 -150.5t-53.5 -207q0 -84 32 -160.5t83.5 -131t120.5 -87t140 -32.5v-74q-139 0 -251.5 77.5t-165.5 209.5q-52 -132 -165 -209.5t-253 -77.5v74q71 0 140 32.5t121 87t84 131t32 160.5q0 111 -54 207t-140.5 150.5t-182.5 54.5v74
q140 0 253 -77.5t165 -209.5q53 132 165.5 209.5t251.5 77.5z" />
    <glyph glyph-name="y" unicode="y" horiz-adv-x="1024" 
d="M555 -442h-86v426q-150 12 -248 121t-98 274v592h78v-582q0 -149 90 -242.5t221 -93.5t221 93.5t90 242.5v582h78v-592q0 -165 -98 -274t-248 -121v-426z" />
    <glyph glyph-name="z" unicode="z" horiz-adv-x="796" 
d="M86 893v78h557q42 0 64 -23t22 -65q0 -51 -47 -109l-518 -627q-3 -4 -9 -11t-8.5 -10t-5.5 -8.5t-4.5 -10t-1.5 -9.5q0 -20 37 -20h582v-78h-623q-42 0 -64 23t-22 65q0 51 47 109l518 626q3 4 9 11t8.5 10t5.5 8.5t4.5 10t1.5 9.5q0 21 -37 21h-516z" />
    <glyph glyph-name="braceleft" unicode="{" horiz-adv-x="569" 
d="M135 498v77q111 0 111 316v321q0 141 33 193.5t104 52.5h80v-78h-78q-33 0 -47 -40.5t-14 -161.5v-322q0 -74 -13.5 -136t-34.5 -99t-34.5 -54.5t-24.5 -27.5v-4q10 -7 24 -26t34.5 -56t34.5 -99.5t14 -136.5v-317q0 -121 14 -162t47 -41h78v-78h-80q-71 0 -104 52.5
t-33 193.5v319q0 314 -111 314z" />
    <glyph glyph-name="bar" unicode="|" horiz-adv-x="454" 
d="M186 0v1434h82v-1434h-82z" />
    <glyph glyph-name="braceright" unicode="}" horiz-adv-x="569" 
d="M434 575v-77q-110 0 -110 -316v-321q0 -140 -33.5 -193t-104.5 -53h-80v78h78q33 0 47.5 41t14.5 162v321q0 74 13.5 136t34.5 99.5t34 55.5t24 27v4q-10 7 -24 26t-34.5 55.5t-34 99t-13.5 136.5v318q0 83 -7.5 128t-20 59.5t-34.5 14.5h-78v78h80q71 0 104.5 -53
t33.5 -193v-319q0 -314 110 -314z" />
    <glyph glyph-name="asciitilde" unicode="~" horiz-adv-x="1228" 
d="M1044 602l54 -49q-104 -176 -267 -176q-29 0 -70 11.5t-69.5 23t-81.5 34.5q-52 23 -82 35t-73.5 23.5t-77.5 11.5q-60 0 -104 -39t-89 -108l-53 49q104 176 266 176q31 0 73 -11.5t71 -23.5t82 -35q158 -69 235 -69q56 0 98.5 39t87.5 108z" />
    <glyph glyph-name="uni00A0" unicode="&#xa0;" horiz-adv-x="569" 
 />
    <glyph glyph-name="exclamdown" unicode="&#xa1;" horiz-adv-x="454" 
d="M199 709h77v-1176h-77v1176zM160 926q0 32 23 55t55 23t54.5 -23t22.5 -55t-22.5 -55t-54.5 -23t-55 23t-23 55z" />
    <glyph glyph-name="cent" unicode="&#xa2;" 
d="M750 1139v-78h-236q-142 0 -221.5 -77t-79.5 -210t79.5 -210t221.5 -77h236v-77h-166v-324h-82v324q-165 0 -272 97t-107 267t107 267.5t272 97.5v295h82v-295h166z" />
    <glyph glyph-name="sterling" unicode="&#xa3;" 
d="M-20 0v82h28q117 0 187.5 71t70.5 191v375h-135v82h135v194q0 72 12 136.5t40.5 125t72 104.5t111 70.5t153.5 26.5q102 0 215 -37l-28 -69q-102 28 -174 28q-320 0 -320 -401v-178h252v-82h-252v-311q0 -140 -21 -201.5t-94 -120.5v-4h410q158 0 245 90t87 246v133h82
v-150q0 -174 -103.5 -287.5t-289.5 -113.5h-684z" />
    <glyph glyph-name="currency" unicode="&#xa4;" 
d="M143 717q0 -177 124.5 -301.5t301.5 -124.5t301.5 124.5t124.5 301.5t-124.5 301.5t-301.5 124.5t-301.5 -124.5t-124.5 -301.5zM956 391l113 -112l-59 -62l-113 113q-137 -121 -328 -121q-190 0 -327 121l-113 -113l-59 62l112 112q-121 137 -121 326q0 188 121 325
l-112 113l59 62l113 -113q137 121 327 121q191 0 328 -121l113 113l59 -62l-113 -113q121 -137 121 -325q0 -189 -121 -326z" />
    <glyph glyph-name="yen" unicode="&#xa5;" 
d="M88 586v82h440q0 6 0.5 31t0 37.5t-2.5 32.5t-6 34h-432v82h416q-45 201 -185.5 334t-293.5 133v82q182 0 339.5 -145t202.5 -341h4q45 196 203 341t340 145v-82q-153 0 -293.5 -133t-185.5 -334h416v-82h-433q-4 -14 -6 -34t-2.5 -32.5t0 -37.5t0.5 -31h441v-82h-441
v-586h-82v586h-440z" />
    <glyph glyph-name="brokenbar" unicode="&#xa6;" horiz-adv-x="454" 
d="M186 549h82v-549h-82v549zM186 1434h82v-549h-82v549z" />
    <glyph glyph-name="section" unicode="&#xa7;" horiz-adv-x="1024" 
d="M186 -8l56 55q61 -75 125 -111t174 -36q103 0 166 54.5t63 131.5q0 66 -35 118t-90.5 86t-123 64t-134.5 61t-122.5 67t-90.5 92t-35 128q0 101 69.5 158t170.5 55l4 5q-201 96 -201 272q0 116 85.5 191t215.5 75q224 0 351 -198l-60 -56q-41 87 -117.5 140t-169.5 53
q-106 0 -168.5 -56t-62.5 -135q0 -57 27 -104t71.5 -79t101 -63.5t115 -56.5t115 -58.5t101 -69.5t71.5 -89t27 -117q0 -90 -61 -147t-152 -60v-4q74 -38 125 -100.5t51 -138.5q0 -135 -86.5 -208t-226.5 -73q-84 0 -152.5 23.5t-107 52t-89.5 78.5zM639 412q72 0 120 44
t48 115q0 50 -40.5 98.5t-98.5 82.5t-120.5 61t-108 40t-58.5 13q-72 0 -120 -44t-48 -115q0 -50 40.5 -98.5t98.5 -82.5t120.5 -61t108 -40t58.5 -13z" />
    <glyph glyph-name="dieresis" unicode="&#xa8;" horiz-adv-x="454" 
d="M-4 1212q0 29 20.5 49.5t49.5 20.5t49 -20.5t20 -49.5t-20 -49t-49 -20t-49.5 20t-20.5 49zM319 1212q0 29 20.5 49.5t49.5 20.5t49.5 -20.5t20.5 -49.5t-20.5 -49t-49.5 -20t-49.5 20t-20.5 49z" />
    <glyph glyph-name="copyright" unicode="&#xa9;" horiz-adv-x="1638" 
d="M1108 565h86q-34 -130 -125 -211.5t-225 -81.5q-198 0 -314 122t-116 325q0 190 116.5 316t307.5 126q138 0 234.5 -83.5t121.5 -200.5h-86q-20 90 -91.5 150t-176.5 60q-157 0 -246.5 -104.5t-89.5 -263.5q0 -152 94 -262.5t246 -110.5q104 0 175 62.5t89 156.5z
M817 -25q-200 0 -367.5 100.5t-263.5 271t-96 370.5t96 370.5t263.5 270.5t367.5 100t368.5 -100t265.5 -270.5t97 -370.5q0 -150 -57.5 -287t-154.5 -237t-233 -159t-286 -59zM817 53q177 0 325 91t232 243.5t84 329.5t-84 329.5t-232 243t-325 90.5q-134 0 -253 -53.5
t-203 -143.5t-132.5 -211.5t-48.5 -254.5t48.5 -254.5t132.5 -212t203 -144t253 -53.5z" />
    <glyph glyph-name="ordfeminine" unicode="&#xaa;" horiz-adv-x="684" 
d="M629 864h-66v291q0 95 -66.5 168.5t-174.5 73.5q-109 0 -175.5 -73.5t-66.5 -168.5t66.5 -168.5t175.5 -73.5q58 0 114.5 31.5t81.5 77.5v-82q-66 -88 -196 -88q-139 0 -223.5 90t-84.5 213q0 131 89 217t219 86q137 0 222 -85t85 -218v-291z" />
    <glyph glyph-name="guillemotleft" unicode="&#xab;" horiz-adv-x="796" 
d="M438 168h-96l-246 317l246 318h96l-245 -318zM690 168h-96l-246 317l246 318h96l-246 -318z" />
    <glyph glyph-name="logicalnot" unicode="&#xac;" horiz-adv-x="1228" 
d="M1016 256v377h-885v82h967v-459h-82z" />
    <glyph glyph-name="uni00AD" unicode="&#xad;" horiz-adv-x="681" 
d="M537 446h-390v78h390v-78z" />
    <glyph glyph-name="registered" unicode="&#xae;" horiz-adv-x="1638" 
d="M618 684v-408h-77v865h325q138 0 204.5 -55t66.5 -173q0 -110 -54.5 -161.5t-158.5 -67.5l262 -408h-111l-248 408h-209zM618 758h168q42 0 66.5 1t60.5 5.5t56.5 14.5t41.5 26.5t30.5 44.5t9.5 65q0 152 -209 152h-224v-309zM817 -25q-200 0 -367.5 100.5t-263.5 271
t-96 370.5t96 370.5t263.5 270.5t367.5 100t368.5 -100t265.5 -270.5t97 -370.5q0 -150 -57.5 -287t-154.5 -237t-233 -159t-286 -59zM817 53q177 0 325 91t232 243.5t84 329.5t-84 329.5t-232 243t-325 90.5q-134 0 -253 -53.5t-203 -143.5t-132.5 -211.5t-48.5 -254.5
t48.5 -254.5t132.5 -212t203 -144t253 -53.5z" />
    <glyph glyph-name="macron" unicode="&#xaf;" horiz-adv-x="454" 
d="M514 1176h-571v65h571v-65z" />
    <glyph glyph-name="degree" unicode="&#xb0;" horiz-adv-x="819" 
d="M410 934q91 0 156 69t65 162t-65 162.5t-156 69.5t-156.5 -69.5t-65.5 -162.5t65.5 -162t156.5 -69zM410 872q-123 0 -209 85t-86 208t86 208t209 85t209 -85t86 -208t-86 -208t-209 -85z" />
    <glyph glyph-name="plusminus" unicode="&#xb1;" horiz-adv-x="1228" 
d="M573 612v359h82v-359h443v-82h-443v-358h-82v358h-442v82h442zM131 0v82h967v-82h-967z" />
    <glyph glyph-name="twosuperior" unicode="&#xb2;" horiz-adv-x="681" 
d="M625 649v-65h-543q-57 0 -57 63q0 33 54 81t131 99.5t154 107t131 121.5t54 126q0 211 -227 211q-116 0 -172 -54t-56 -153q0 -79 65 -132.5t165 -39.5l2 -4q-46 -58 -72 -58q-30 0 -68.5 15t-76.5 43t-63.5 75t-25.5 103q0 126 78.5 198t223.5 72q61 0 113 -15t95.5 -46
t68 -86t24.5 -129q0 -66 -54.5 -139.5t-131.5 -132.5t-154.5 -110.5t-132 -89t-54.5 -51.5q0 -10 13 -10h516z" />
    <glyph glyph-name="threesuperior" unicode="&#xb3;" horiz-adv-x="681" 
d="M55 1378v66h424q72 0 72 -45q0 -40 -33 -66l-282 -246h100q133 0 209 -69.5t76 -175.5q0 -125 -82 -191.5t-224 -66.5h-266v65h297q90 0 143.5 49t53.5 129q0 92 -55 143.5t-169 51.5h-165v70l295 260q16 13 16 18q0 8 -6 8h-404z" />
    <glyph glyph-name="acute" unicode="&#xb4;" horiz-adv-x="454" 
d="M186 1094h-75l243 282h105z" />
    <glyph glyph-name="mu" unicode="&#xb5;" horiz-adv-x="1024" 
d="M823 971h78v-592q0 -177 -111.5 -288t-277.5 -111q-95 0 -175.5 39.5t-131.5 111.5h-4v-598h-78v1438h78v-582q0 -149 90 -242.5t221 -93.5t221 93.5t90 242.5v582z" />
    <glyph glyph-name="paragraph" unicode="&#xb6;" horiz-adv-x="1228" 
d="M965 1434v-1618h-78v1544h-248v-1544h-78v827q-140 0 -253 118t-113 277t113 277.5t253 118.5h404z" />
    <glyph glyph-name="periodcentered" unicode="&#xb7;" horiz-adv-x="569" 
d="M209 485q0 31 22.5 53.5t53.5 22.5t53 -22.5t22 -53.5t-22 -53t-53 -22t-53.5 22t-22.5 53z" />
    <glyph glyph-name="cedilla" unicode="&#xb8;" horiz-adv-x="454" 
d="M6 -350l27 49q73 -37 160 -37q49 0 90 25t41 71q0 48 -34 70t-85 22q-40 0 -88 -24l-33 27l115 153h69l-98 -115l4 -4q23 17 78 17q65 0 109.5 -40t44.5 -104q0 -53 -37.5 -88.5t-85.5 -49t-99 -13.5q-91 0 -178 41z" />
    <glyph glyph-name="onesuperior" unicode="&#xb9;" horiz-adv-x="681" 
d="M172 1378l12 66h195v-860h-70v794h-137z" />
    <glyph glyph-name="ordmasculine" unicode="&#xba;" horiz-adv-x="684" 
d="M596 1151q0 100 -73 173t-181 73t-181 -73t-73 -173q0 -96 74 -167t180 -71t180 71t74 167zM662 1155q0 -125 -93 -214t-227 -89t-226.5 89t-92.5 214t92.5 214t226.5 89t227 -89t93 -214z" />
    <glyph glyph-name="guillemotright" unicode="&#xbb;" horiz-adv-x="796" 
d="M455 168h-97l246 317l-246 318h97l245 -318zM203 168h-97l246 317l-246 318h97l246 -318z" />
    <glyph glyph-name="onequarter" unicode="&#xbc;" horiz-adv-x="1708" 
d="M410 -25h-76l946 1483h80zM131 1380l14 66h203v-868h-69v802h-148zM1460 287v520l62 63q4 4 6 4t2 -8v-579h139v-66h-139v-221h-68v221h-389q-67 0 -67 62q0 17 6 33t13.5 28.5t33.5 50.5l315 479h76l-365 -550q-6 -9 -6 -21q0 -16 21 -16h360z" />
    <glyph glyph-name="onehalf" unicode="&#xbd;" horiz-adv-x="1708" 
d="M358 -25h-75l946 1483h80zM1669 66v-66h-543q-57 0 -57 63q0 33 54 81t131 99.5t154 107t131 121.5t54 126q0 211 -227 211t-227 -207q0 -79 64.5 -132.5t164.5 -39.5l2 -4q-46 -57 -72 -57q-30 0 -68.5 15t-76 42.5t-63 74.5t-25.5 103q0 126 78.5 198t222.5 72
q61 0 113 -15t95.5 -46t68 -86t24.5 -129q0 -66 -54 -139t-131.5 -132.5t-155 -110.5t-131.5 -88.5t-54 -51.5q0 -10 12 -10h516zM172 1378l12 66h195v-860h-70v794h-137z" />
    <glyph glyph-name="threequarters" unicode="&#xbe;" horiz-adv-x="1708" 
d="M1460 291v520l62 63q5 5 6 5q2 0 2 -9v-579h139v-66h-139v-221h-68v221h-389q-67 0 -67 62q0 17 6 33t13.5 28.5t33.5 50.5l315 480h76l-365 -551q-6 -9 -6 -21q0 -16 21 -16h360zM477 -25h-76l947 1483h79zM55 1378v66h424q72 0 72 -45q0 -40 -33 -66l-282 -246h100
q133 0 209 -69.5t76 -175.5q0 -125 -82 -191.5t-224 -66.5h-266v65h297q90 0 143.5 49t53.5 129q0 92 -55 143.5t-169 51.5h-165v70l295 260q16 13 16 18q0 8 -6 8h-404z" />
    <glyph glyph-name="questiondown" unicode="&#xbf;" horiz-adv-x="909" 
d="M782 -61h82q0 -173 -113 -289.5t-296 -116.5q-184 0 -297 116.5t-113 289.5q0 90 25.5 163t67 120t95.5 79t108.5 45.5t109.5 13.5v369h77v-442q-62 0 -116 -8.5t-108 -32.5t-92 -62t-61.5 -100.5t-23.5 -144.5q0 -138 91.5 -233t236.5 -95t236 95t91 233zM567 926
q0 -32 -23 -55t-55 -23t-54.5 23t-22.5 55t22.5 55t54.5 23t55 -23t23 -55z" />
    <glyph glyph-name="Agrave" unicode="&#xc0;" horiz-adv-x="1251" 
d="M1118 965v-965h-86v700h-733v74h733v217q0 180 -111 284.5t-296 104.5t-296.5 -104.5t-111.5 -284.5v-991h-86v965q0 231 133.5 362t360.5 131q226 0 359.5 -131t133.5 -362zM743 1518h-75l-273 282h105z" />
    <glyph glyph-name="Aacute" unicode="&#xc1;" horiz-adv-x="1251" 
d="M1118 965v-965h-86v700h-733v74h733v217q0 180 -111 284.5t-296 104.5t-296.5 -104.5t-111.5 -284.5v-991h-86v965q0 231 133.5 362t360.5 131q226 0 359.5 -131t133.5 -362zM586 1518h-76l244 282h104z" />
    <glyph glyph-name="Acircumflex" unicode="&#xc2;" horiz-adv-x="1251" 
d="M1118 965v-965h-86v700h-733v74h733v217q0 180 -111 284.5t-296 104.5t-296.5 -104.5t-111.5 -284.5v-991h-86v965q0 231 133.5 362t360.5 131q226 0 359.5 -131t133.5 -362zM680 1800l223 -282h-86l-192 233l-193 -233h-82l219 282h111z" />
    <glyph glyph-name="Atilde" unicode="&#xc3;" horiz-adv-x="1251" 
d="M1118 965v-965h-86v700h-733v74h733v217q0 180 -111 284.5t-296 104.5t-296.5 -104.5t-111.5 -284.5v-991h-86v965q0 231 133.5 362t360.5 131q226 0 359.5 -131t133.5 -362zM389 1548h-61q12 74 52.5 127.5t108.5 53.5q49 0 144 -56q4 -2 16 -8.5t16.5 -9.5t15 -8.5
t16 -8t14 -6.5t14.5 -6t13 -4t13 -3t11 -1q48 0 70.5 29.5t31.5 81.5h62q-12 -74 -53 -127.5t-109 -53.5q-20 0 -47.5 10t-44 18.5t-51.5 27.5q-93 55 -129 55q-48 0 -71 -30t-32 -81z" />
    <glyph glyph-name="Adieresis" unicode="&#xc4;" horiz-adv-x="1251" 
d="M1118 965v-965h-86v700h-733v74h733v217q0 180 -111 284.5t-296 104.5t-296.5 -104.5t-111.5 -284.5v-991h-86v965q0 231 133.5 362t360.5 131q226 0 359.5 -131t133.5 -362zM395 1636q0 29 20.5 49.5t49.5 20.5t49.5 -20.5t20.5 -49.5t-20.5 -49t-49.5 -20t-49.5 20
t-20.5 49zM719 1636q0 29 20 49.5t49 20.5t49.5 -20.5t20.5 -49.5t-20.5 -49t-49.5 -20t-49 20t-20 49z" />
    <glyph glyph-name="Aring" unicode="&#xc5;" horiz-adv-x="1251" 
d="M1118 965v-965h-86v700h-733v74h733v217q0 180 -111 284.5t-296 104.5t-296.5 -104.5t-111.5 -284.5v-991h-86v965q0 231 133.5 362t360.5 131q226 0 359.5 -131t133.5 -362zM485 1716q0 -58 41.5 -99.5t100.5 -41.5t100 41.5t41 99.5q0 59 -41.5 100.5t-99.5 41.5
q-59 0 -100.5 -42t-41.5 -100zM428 1716q0 83 58 141t141 58t140.5 -58t57.5 -141t-57.5 -140.5t-140.5 -57.5t-141 57.5t-58 140.5z" />
    <glyph glyph-name="AE" unicode="&#xc6;" horiz-adv-x="1933" 
d="M1858 700h-781q0 -122 40 -226.5t106.5 -176.5t152 -123.5t176 -75.5t179.5 -24h127v-74h-160q-192 0 -360 93.5t-255 262.5h-4v-356h-90v700h-715v74h715v172q0 202 -107.5 318t-289.5 116q-183 0 -291 -116.5t-108 -317.5v-946h-87v930q0 247 129.5 387.5t356.5 140.5
q195 0 319.5 -106t155.5 -295h4q85 179 256.5 278t370.5 99h160v-74h-156q-132 0 -251 -52.5t-199.5 -136t-127.5 -188t-47 -209.5h781v-74z" />
    <glyph glyph-name="Ccedilla" unicode="&#xc7;" horiz-adv-x="1024" 
d="M973 74v-74h-182h-17l-94 -109l4 -4q23 17 78 17q65 0 109 -40t44 -104q0 -40 -21 -71t-55.5 -47.5t-71 -24.5t-73.5 -8q-91 0 -178 41l27 49q73 -37 159 -37q49 0 90.5 25t41.5 71q0 48 -34 70t-85 22q-40 0 -88 -24l-33 27l113 151q-124 14 -235.5 68t-199 142
t-139 218t-51.5 285q0 168 60.5 306.5t161 226.5t226.5 136t261 48h184v-74h-168q-92 0 -181.5 -24.5t-172 -76.5t-145 -126t-99.5 -181.5t-37 -234.5t37 -234.5t99.5 -181.5t145 -126t172 -76.5t181.5 -24.5h166z" />
    <glyph glyph-name="Egrave" unicode="&#xc8;" horiz-adv-x="1024" 
d="M926 774v-74h-787q0 -122 40.5 -226.5t107 -176.5t152 -123.5t176.5 -75.5t180 -24h131v-74h-164q-135 0 -261 48t-226.5 136t-161 226.5t-60.5 306.5t60.5 306.5t161 226.5t226.5 136t261 48h164v-74h-160q-132 0 -251 -52.5t-200 -136t-128.5 -188.5t-47.5 -209h787z
M795 1518h-76l-273 282h105z" />
    <glyph glyph-name="Eacute" unicode="&#xc9;" horiz-adv-x="1024" 
d="M926 774v-74h-787q0 -122 40.5 -226.5t107 -176.5t152 -123.5t176.5 -75.5t180 -24h131v-74h-164q-135 0 -261 48t-226.5 136t-161 226.5t-60.5 306.5t60.5 306.5t161 226.5t226.5 136t261 48h164v-74h-160q-132 0 -251 -52.5t-200 -136t-128.5 -188.5t-47.5 -209h787z
M637 1518h-76l244 282h104z" />
    <glyph glyph-name="Ecircumflex" unicode="&#xca;" horiz-adv-x="1024" 
d="M926 774v-74h-787q0 -122 40.5 -226.5t107 -176.5t152 -123.5t176.5 -75.5t180 -24h131v-74h-164q-135 0 -261 48t-226.5 136t-161 226.5t-60.5 306.5t60.5 306.5t161 226.5t226.5 136t261 48h164v-74h-160q-132 0 -251 -52.5t-200 -136t-128.5 -188.5t-47.5 -209h787z
M731 1800l223 -282h-86l-192 233l-193 -233h-82l220 282h110z" />
    <glyph glyph-name="Edieresis" unicode="&#xcb;" horiz-adv-x="1024" 
d="M926 774v-74h-787q0 -122 40.5 -226.5t107 -176.5t152 -123.5t176.5 -75.5t180 -24h131v-74h-164q-135 0 -261 48t-226.5 136t-161 226.5t-60.5 306.5t60.5 306.5t161 226.5t226.5 136t261 48h164v-74h-160q-132 0 -251 -52.5t-200 -136t-128.5 -188.5t-47.5 -209h787z
M446 1636q0 29 20.5 49.5t49.5 20.5t49.5 -20.5t20.5 -49.5t-20.5 -49t-49.5 -20t-49.5 20t-20.5 49zM770 1636q0 29 20.5 49.5t49.5 20.5t49 -20.5t20 -49.5t-20 -49t-49 -20t-49.5 20t-20.5 49z" />
    <glyph glyph-name="Igrave" unicode="&#xcc;" horiz-adv-x="454" 
d="M270 0h-86v1434h86v-1434zM344 1518h-76l-272 282h104z" />
    <glyph glyph-name="Iacute" unicode="&#xcd;" horiz-adv-x="454" 
d="M270 0h-86v1434h86v-1434zM186 1518h-75l243 282h105z" />
    <glyph glyph-name="Icircumflex" unicode="&#xce;" horiz-adv-x="454" 
d="M270 0h-86v1434h86v-1434zM281 1800l223 -282h-86l-193 233l-192 -233h-82l219 282h111z" />
    <glyph glyph-name="Idieresis" unicode="&#xcf;" horiz-adv-x="454" 
d="M270 0h-86v1434h86v-1434zM-4 1636q0 29 20.5 49.5t49.5 20.5t49 -20.5t20 -49.5t-20 -49t-49 -20t-49.5 20t-20.5 49zM319 1636q0 29 20.5 49.5t49.5 20.5t49.5 -20.5t20.5 -49.5t-20.5 -49t-49.5 -20t-49.5 20t-20.5 49z" />
    <glyph glyph-name="Eth" unicode="&#xd0;" horiz-adv-x="1251" 
d="M496 0h-207v78h198q136 0 249.5 53t187 142t114.5 204t41 240q0 132 -50.5 250t-138 203.5t-212.5 135.5t-268 50h-193v-570h500v-73h-500v-713h-86v713h-151v73h151v648h311q142 0 274 -53t232.5 -145t160.5 -228t60 -291q0 -159 -53 -294.5t-143.5 -227.5t-214 -143.5
t-262.5 -51.5z" />
    <glyph glyph-name="Ntilde" unicode="&#xd1;" horiz-adv-x="1251" 
d="M225 0h-86v1343q0 47 25.5 81t81.5 34q45 0 71.5 -17t51.5 -69l600 -1282q15 -29 35 -29q22 0 22 39v1358h86v-1380q0 -53 -25 -78t-79 -25q-88 0 -131 99l-570 1226q-22 47 -33.5 63.5t-23.5 16.5q-25 0 -25 -37v-1343zM414 1548h-62q12 74 53 127.5t109 53.5
q48 0 143 -56q4 -2 16 -8.5t16.5 -9.5t15 -8.5t16 -8t14 -6.5t14.5 -6t13 -4t13 -3t11 -1q48 0 71 30t32 81h61q-12 -74 -53 -127.5t-109 -53.5q-20 0 -47.5 10t-44 18.5t-51.5 27.5q-93 55 -129 55q-48 0 -70.5 -29.5t-31.5 -81.5z" />
    <glyph glyph-name="Ograve" unicode="&#xd2;" horiz-adv-x="1593" 
d="M795 -25q-200 0 -367.5 100.5t-263.5 271t-96 370.5t96 370.5t263.5 270.5t367.5 100t368.5 -100t265.5 -270.5t97 -370.5q0 -150 -57.5 -287t-154.5 -237t-233 -159t-286 -59zM795 53q177 0 325 91t232 243.5t84 329.5t-84 329.5t-232 243t-325 90.5q-134 0 -253 -53.5
t-203 -143.5t-132.5 -211.5t-48.5 -254.5t48.5 -254.5t132.5 -212t203 -144t253 -53.5zM913 1518h-75l-273 282h105z" />
    <glyph glyph-name="Oacute" unicode="&#xd3;" horiz-adv-x="1593" 
d="M795 -25q-200 0 -367.5 100.5t-263.5 271t-96 370.5t96 370.5t263.5 270.5t367.5 100t368.5 -100t265.5 -270.5t97 -370.5q0 -150 -57.5 -287t-154.5 -237t-233 -159t-286 -59zM795 53q177 0 325 91t232 243.5t84 329.5t-84 329.5t-232 243t-325 90.5q-134 0 -253 -53.5
t-203 -143.5t-132.5 -211.5t-48.5 -254.5t48.5 -254.5t132.5 -212t203 -144t253 -53.5zM756 1518h-76l244 282h104z" />
    <glyph glyph-name="Ocircumflex" unicode="&#xd4;" horiz-adv-x="1593" 
d="M795 -25q-200 0 -367.5 100.5t-263.5 271t-96 370.5t96 370.5t263.5 270.5t367.5 100t368.5 -100t265.5 -270.5t97 -370.5q0 -150 -57.5 -287t-154.5 -237t-233 -159t-286 -59zM795 53q177 0 325 91t232 243.5t84 329.5t-84 329.5t-232 243t-325 90.5q-134 0 -253 -53.5
t-203 -143.5t-132.5 -211.5t-48.5 -254.5t48.5 -254.5t132.5 -212t203 -144t253 -53.5zM850 1800l223 -282h-86l-192 233l-193 -233h-82l219 282h111z" />
    <glyph glyph-name="Otilde" unicode="&#xd5;" horiz-adv-x="1593" 
d="M795 -25q-200 0 -367.5 100.5t-263.5 271t-96 370.5t96 370.5t263.5 270.5t367.5 100t368.5 -100t265.5 -270.5t97 -370.5q0 -150 -57.5 -287t-154.5 -237t-233 -159t-286 -59zM795 53q177 0 325 91t232 243.5t84 329.5t-84 329.5t-232 243t-325 90.5q-134 0 -253 -53.5
t-203 -143.5t-132.5 -211.5t-48.5 -254.5t48.5 -254.5t132.5 -212t203 -144t253 -53.5zM559 1548h-61q12 74 52.5 127.5t108.5 53.5q49 0 144 -56q4 -2 16 -8.5t16.5 -9.5t15 -8.5t16 -8t14 -6.5t14.5 -6t13 -4t13 -3t11 -1q48 0 70.5 29.5t31.5 81.5h62q-12 -74 -53 -127.5
t-109 -53.5q-20 0 -47.5 10t-44 18.5t-51.5 27.5q-93 55 -129 55q-48 0 -71 -30t-32 -81z" />
    <glyph glyph-name="Odieresis" unicode="&#xd6;" horiz-adv-x="1593" 
d="M795 -25q-200 0 -367.5 100.5t-263.5 271t-96 370.5t96 370.5t263.5 270.5t367.5 100t368.5 -100t265.5 -270.5t97 -370.5q0 -150 -57.5 -287t-154.5 -237t-233 -159t-286 -59zM795 53q177 0 325 91t232 243.5t84 329.5t-84 329.5t-232 243t-325 90.5q-134 0 -253 -53.5
t-203 -143.5t-132.5 -211.5t-48.5 -254.5t48.5 -254.5t132.5 -212t203 -144t253 -53.5zM565 1636q0 29 20.5 49.5t49.5 20.5t49.5 -20.5t20.5 -49.5t-20.5 -49t-49.5 -20t-49.5 20t-20.5 49zM889 1636q0 29 20 49.5t49 20.5t49.5 -20.5t20.5 -49.5t-20.5 -49t-49.5 -20
t-49 20t-20 49z" />
    <glyph glyph-name="multiply" unicode="&#xd7;" horiz-adv-x="1228" 
d="M1040 0l-426 430l-426 -430l-57 53l430 432l-430 433l57 53l426 -430l426 430l58 -53l-430 -433l430 -432z" />
    <glyph glyph-name="Oslash" unicode="&#xd8;" horiz-adv-x="1593" 
d="M1286 1145l-928 -914q84 -84 196.5 -131t240.5 -47q177 0 325 91t232 243.5t84 329.5q0 122 -40.5 233.5t-109.5 194.5zM307 289l924 913q-188 178 -436 178q-134 0 -253 -53.5t-203 -143.5t-132.5 -211.5t-48.5 -254.5q0 -124 40.5 -238t108.5 -190zM100 -25h-106
l254 254q-86 99 -133 225.5t-47 262.5q0 200 96 370.5t263.5 270.5t367.5 100q284 0 495 -198l201 198h106l-254 -252q86 -99 134.5 -225.5t48.5 -263.5q0 -150 -57.5 -287t-154.5 -237t-233 -159t-286 -59q-143 0 -272.5 53t-223.5 146z" />
    <glyph glyph-name="Ugrave" unicode="&#xd9;" horiz-adv-x="1251" 
d="M131 1434h86v-992q0 -180 111.5 -284.5t296.5 -104.5t296 104.5t111 284.5v992h86v-965q0 -231 -133.5 -362.5t-359.5 -131.5t-360 131.5t-134 362.5v965zM743 1518h-75l-273 282h105z" />
    <glyph glyph-name="Uacute" unicode="&#xda;" horiz-adv-x="1251" 
d="M131 1434h86v-992q0 -180 111.5 -284.5t296.5 -104.5t296 104.5t111 284.5v992h86v-965q0 -231 -133.5 -362.5t-359.5 -131.5t-360 131.5t-134 362.5v965zM586 1518h-76l244 282h104z" />
    <glyph glyph-name="Ucircumflex" unicode="&#xdb;" horiz-adv-x="1251" 
d="M131 1434h86v-992q0 -180 111.5 -284.5t296.5 -104.5t296 104.5t111 284.5v992h86v-965q0 -231 -133.5 -362.5t-359.5 -131.5t-360 131.5t-134 362.5v965zM680 1800l223 -282h-86l-192 233l-193 -233h-82l219 282h111z" />
    <glyph glyph-name="Udieresis" unicode="&#xdc;" horiz-adv-x="1251" 
d="M131 1434h86v-992q0 -180 111.5 -284.5t296.5 -104.5t296 104.5t111 284.5v992h86v-965q0 -231 -133.5 -362.5t-359.5 -131.5t-360 131.5t-134 362.5v965zM395 1636q0 29 20.5 49.5t49.5 20.5t49.5 -20.5t20.5 -49.5t-20.5 -49t-49.5 -20t-49.5 20t-20.5 49zM719 1636
q0 29 20 49.5t49 20.5t49.5 -20.5t20.5 -49.5t-20.5 -49t-49.5 -20t-49 20t-20 49z" />
    <glyph glyph-name="Yacute" unicode="&#xdd;" 
d="M922 1434h86v-392q0 -100 -33 -184.5t-88 -140.5t-126.5 -87.5t-148.5 -31.5v-598h-86v598q-77 0 -148 31.5t-126 87.5t-88 140.5t-33 184.5v392h86v-398q0 -161 98.5 -260.5t253.5 -99.5t254 99.5t99 260.5v398zM528 1518h-75l243 282h105z" />
    <glyph glyph-name="Thorn" unicode="&#xde;" horiz-adv-x="1024" 
d="M285 324v77h278q155 0 252.5 98t97.5 265t-97.5 264.5t-252.5 97.5q-153 0 -253.5 -97.5t-100.5 -237.5v-791h-86v1434h86v-385h4q54 71 142.5 113t203.5 42q195 0 320 -117.5t125 -322.5t-124.5 -322.5t-316.5 -117.5h-278z" />
    <glyph glyph-name="germandbls" unicode="&#xdf;" 
d="M12 803v82h123v209q0 157 108.5 260.5t274.5 103.5q142 0 235 -70.5t93 -187.5q0 -77 -30 -135.5t-72 -90t-84.5 -53t-72.5 -35t-30 -24.5q0 -7 21 -16.5t55 -21.5t78 -31.5t89.5 -43t89.5 -60t78 -79t55 -102t21 -127.5q0 -381 -481 -381h-262v78h270q192 0 292 76.5
t100 201.5q0 83 -27.5 148.5t-71 105t-96.5 69t-106 49t-96.5 38t-71 42t-27.5 54.5t30.5 56.5t74 47.5t87.5 48t74.5 69.5t30.5 100.5q0 53 -21 92.5t-57.5 61t-77.5 32t-88 10.5q-73 0 -132 -26t-95.5 -68.5t-56 -94t-19.5 -106.5v-1085h-82v803h-123z" />
    <glyph glyph-name="agrave" unicode="&#xe0;" 
d="M1016 0h-78v485q0 113 -49.5 211.5t-141 160t-204.5 61.5q-73 0 -144 -33t-125.5 -89.5t-88 -138t-33.5 -172.5t33.5 -172.5t88 -137.5t125.5 -89t144 -33q92 0 164 36t139 106v-93q-40 -33 -72.5 -55t-97 -44.5t-133.5 -22.5q-200 0 -336.5 143.5t-136.5 361.5
t136.5 362t336.5 144t336.5 -144t136.5 -362v-485zM686 1094h-76l-272 282h104z" />
    <glyph glyph-name="aacute" unicode="&#xe1;" 
d="M1016 0h-78v485q0 113 -49.5 211.5t-141 160t-204.5 61.5q-73 0 -144 -33t-125.5 -89.5t-88 -138t-33.5 -172.5t33.5 -172.5t88 -137.5t125.5 -89t144 -33q92 0 164 36t139 106v-93q-40 -33 -72.5 -55t-97 -44.5t-133.5 -22.5q-200 0 -336.5 143.5t-136.5 361.5
t136.5 362t336.5 144t336.5 -144t136.5 -362v-485zM528 1094h-75l243 282h105z" />
    <glyph glyph-name="acircumflex" unicode="&#xe2;" 
d="M1016 0h-78v485q0 113 -49.5 211.5t-141 160t-204.5 61.5q-73 0 -144 -33t-125.5 -89.5t-88 -138t-33.5 -172.5t33.5 -172.5t88 -137.5t125.5 -89t144 -33q92 0 164 36t139 106v-93q-40 -33 -72.5 -55t-97 -44.5t-133.5 -22.5q-200 0 -336.5 143.5t-136.5 361.5
t136.5 362t336.5 144t336.5 -144t136.5 -362v-485zM623 1376l223 -282h-86l-193 233l-192 -233h-82l219 282h111z" />
    <glyph glyph-name="atilde" unicode="&#xe3;" 
d="M1016 0h-78v485q0 113 -49.5 211.5t-141 160t-204.5 61.5q-73 0 -144 -33t-125.5 -89.5t-88 -138t-33.5 -172.5t33.5 -172.5t88 -137.5t125.5 -89t144 -33q92 0 164 36t139 106v-93q-40 -33 -72.5 -55t-97 -44.5t-133.5 -22.5q-200 0 -336.5 143.5t-136.5 361.5
t136.5 362t336.5 144t336.5 -144t136.5 -362v-485zM332 1124h-62q12 74 53 127.5t109 53.5q48 0 143 -56q100 -55 130 -55q48 0 70.5 29.5t31.5 81.5h61q-12 -74 -52.5 -127.5t-108.5 -53.5q-42 0 -144 56q-93 55 -129 55q-48 0 -70.5 -29.5t-31.5 -81.5z" />
    <glyph glyph-name="adieresis" unicode="&#xe4;" 
d="M1016 0h-78v485q0 113 -49.5 211.5t-141 160t-204.5 61.5q-73 0 -144 -33t-125.5 -89.5t-88 -138t-33.5 -172.5t33.5 -172.5t88 -137.5t125.5 -89t144 -33q92 0 164 36t139 106v-93q-40 -33 -72.5 -55t-97 -44.5t-133.5 -22.5q-200 0 -336.5 143.5t-136.5 361.5
t136.5 362t336.5 144t336.5 -144t136.5 -362v-485zM338 1212q0 29 20.5 49.5t49.5 20.5t49 -20.5t20 -49.5t-20 -49t-49 -20t-49.5 20t-20.5 49zM662 1212q0 29 20 49.5t49 20.5t49.5 -20.5t20.5 -49.5t-20.5 -49t-49.5 -20t-49 20t-20 49z" />
    <glyph glyph-name="aring" unicode="&#xe5;" 
d="M1016 0h-78v485q0 113 -49.5 211.5t-141 160t-204.5 61.5q-73 0 -144 -33t-125.5 -89.5t-88 -138t-33.5 -172.5t33.5 -172.5t88 -137.5t125.5 -89t144 -33q92 0 164 36t139 106v-93q-40 -33 -72.5 -55t-97 -44.5t-133.5 -22.5q-200 0 -336.5 143.5t-136.5 361.5
t136.5 362t336.5 144t336.5 -144t136.5 -362v-485zM428 1292q0 -58 41 -99.5t100 -41.5t100.5 41.5t41.5 99.5t-41.5 100t-100.5 42q-58 0 -99.5 -41.5t-41.5 -100.5zM371 1292q0 83 57.5 141t140.5 58t141 -58t58 -141t-58 -140.5t-141 -57.5t-140.5 57.5t-57.5 140.5z" />
    <glyph glyph-name="ae" unicode="&#xe6;" horiz-adv-x="1933" 
d="M172 836l-41 63q175 92 346 92q96 0 178 -27t154.5 -94.5t112.5 -171.5q38 99 113.5 167t161 97t177.5 29q133 0 250 -74.5t180 -193.5l-749 -322l-29 70l651 281q-131 166 -315 166q-101 0 -196 -57t-154.5 -152.5t-59.5 -200.5q0 -195 120.5 -325t313.5 -130
q144 0 254.5 96t135.5 238l82 -14q-48 -201 -183 -297t-332 -96q-134 0 -253 82t-172 206q-60 -145 -176.5 -216.5t-276.5 -71.5q-77 0 -143 15t-123 47t-90 89.5t-33 134.5q0 42 15.5 81t40 71t64.5 62.5t77.5 53t92 46.5t95 39t100 33.5t93.5 27.5t87.5 23.5t71.5 19.5
q-91 195 -348 195q-113 0 -293 -82zM848 651q-23 -7 -89 -24t-109 -29t-112 -34t-115.5 -42t-100.5 -50t-87 -60.5t-55 -71t-22 -84.5q0 -50 29 -90.5t75 -64t95.5 -36t95.5 -12.5q101 0 182 34.5t131.5 94t77 134.5t26.5 159q0 37 -4 69t-10 64t-8 43z" />
    <glyph glyph-name="ccedilla" unicode="&#xe7;" horiz-adv-x="796" 
d="M719 991v-82h-141q-186 0 -302 -114.5t-116 -298.5t116 -299t302 -115h141v-82h-146h-18l-94 -109l4 -4q23 17 78 17q65 0 109 -40t44 -104q0 -40 -21 -71t-55.5 -47.5t-71 -24.5t-73.5 -8q-91 0 -178 41l27 49q73 -37 159 -37q49 0 90 25t41 71q0 48 -34 70t-84 22
q-40 0 -88 -24l-33 27l114 155q-182 27 -296.5 159.5t-114.5 328.5q0 219 140.5 357t354.5 138h146z" />
    <glyph glyph-name="egrave" unicode="&#xe8;" 
d="M319 283l-49 65l625 422q-55 69 -136.5 108.5t-176.5 39.5q-120 0 -218 -61.5t-151 -162t-53 -215.5q0 -174 121.5 -300t300.5 -126q175 0 299 122t127 290h82q-3 -128 -68 -239t-177.5 -178.5t-246.5 -67.5q-226 0 -373 144t-147 359q0 137 62.5 252.5t179 185.5
t262.5 70q136 0 250 -64.5t182 -172.5zM686 1094h-76l-272 282h104z" />
    <glyph glyph-name="eacute" unicode="&#xe9;" 
d="M319 283l-49 65l625 422q-55 69 -136.5 108.5t-176.5 39.5q-120 0 -218 -61.5t-151 -162t-53 -215.5q0 -174 121.5 -300t300.5 -126q175 0 299 122t127 290h82q-3 -128 -68 -239t-177.5 -178.5t-246.5 -67.5q-226 0 -373 144t-147 359q0 137 62.5 252.5t179 185.5
t262.5 70q136 0 250 -64.5t182 -172.5zM528 1094h-75l243 282h105z" />
    <glyph glyph-name="ecircumflex" unicode="&#xea;" 
d="M319 283l-49 65l625 422q-55 69 -136.5 108.5t-176.5 39.5q-120 0 -218 -61.5t-151 -162t-53 -215.5q0 -174 121.5 -300t300.5 -126q175 0 299 122t127 290h82q-3 -128 -68 -239t-177.5 -178.5t-246.5 -67.5q-226 0 -373 144t-147 359q0 137 62.5 252.5t179 185.5
t262.5 70q136 0 250 -64.5t182 -172.5zM623 1376l223 -282h-86l-193 233l-192 -233h-82l219 282h111z" />
    <glyph glyph-name="edieresis" unicode="&#xeb;" 
d="M319 283l-49 65l625 422q-55 69 -136.5 108.5t-176.5 39.5q-120 0 -218 -61.5t-151 -162t-53 -215.5q0 -174 121.5 -300t300.5 -126q175 0 299 122t127 290h82q-3 -128 -68 -239t-177.5 -178.5t-246.5 -67.5q-226 0 -373 144t-147 359q0 137 62.5 252.5t179 185.5
t262.5 70q136 0 250 -64.5t182 -172.5zM338 1212q0 29 20.5 49.5t49.5 20.5t49 -20.5t20 -49.5t-20 -49t-49 -20t-49.5 20t-20.5 49zM662 1212q0 29 20 49.5t49 20.5t49.5 -20.5t20.5 -49.5t-20.5 -49t-49.5 -20t-49 20t-20 49z" />
    <glyph glyph-name="igrave" unicode="&#xec;" horiz-adv-x="454" 
d="M266 0h-78v971h78v-971zM344 1094h-76l-272 282h104z" />
    <glyph glyph-name="iacute" unicode="&#xed;" horiz-adv-x="454" 
d="M266 0h-78v971h78v-971zM186 1094h-75l243 282h105z" />
    <glyph glyph-name="icircumflex" unicode="&#xee;" horiz-adv-x="454" 
d="M266 0h-78v971h78v-971zM281 1376l223 -282h-86l-193 233l-192 -233h-82l219 282h111z" />
    <glyph glyph-name="idieresis" unicode="&#xef;" horiz-adv-x="454" 
d="M266 0h-78v971h78v-971zM-4 1212q0 29 20.5 49.5t49.5 20.5t49 -20.5t20 -49.5t-20 -49t-49 -20t-49.5 20t-20.5 49zM319 1212q0 29 20.5 49.5t49.5 20.5t49.5 -20.5t20.5 -49.5t-20.5 -49t-49.5 -20t-49.5 20t-20.5 49z" />
    <glyph glyph-name="eth" unicode="&#xf0;" 
d="M238 1405l45 53q139 -65 262 -147l200 147l39 -53l-182 -135q96 -69 175.5 -148t145 -172t102 -201.5t36.5 -220.5q0 -250 -139.5 -399t-354.5 -149q-209 0 -349 144.5t-140 358.5q0 136 63.5 252.5t176.5 186t249 69.5q94 0 146 -22l90 -125v-4q-97 78 -236 78
q-117 0 -211.5 -61.5t-145 -161.5t-50.5 -216q0 -175 116.5 -300.5t290.5 -125.5q177 0 294.5 130t117.5 329q0 106 -34.5 209t-96.5 192.5t-139 166t-170 143.5l-222 -162l-38 53l202 150q-109 75 -243 141z" />
    <glyph glyph-name="ntilde" unicode="&#xf1;" horiz-adv-x="1024" 
d="M901 0h-78v582q0 149 -90 242.5t-221 93.5t-221 -93.5t-90 -242.5v-582h-78v592q0 177 111.5 288t277.5 111t277.5 -111t111.5 -288v-592zM274 1124h-61q12 74 53 127.5t109 53.5q48 0 143 -56q4 -2 16 -8.5t16.5 -9.5t15 -8.5t16 -8t14 -6.5t14.5 -6t13 -4t13 -3t11 -1
q48 0 71 30t32 81h61q-12 -74 -53 -127.5t-109 -53.5q-20 0 -47.5 10t-44 18.5t-51.5 27.5q-93 55 -129 55q-48 0 -71 -30t-32 -81z" />
    <glyph glyph-name="ograve" unicode="&#xf2;" 
d="M569 918q-115 0 -210 -61.5t-147 -160.5t-52 -211q0 -173 117.5 -302.5t291.5 -129.5t292 129.5t118 302.5q0 112 -52 211t-147.5 160.5t-210.5 61.5zM569 991q136 0 250 -69t178 -185t64 -252t-64 -251.5t-177.5 -184.5t-250.5 -69q-136 0 -249.5 69t-177.5 184.5
t-64 251.5t64 252t177.5 185t249.5 69zM686 1094h-76l-272 282h104z" />
    <glyph glyph-name="oacute" unicode="&#xf3;" 
d="M569 918q-115 0 -210 -61.5t-147 -160.5t-52 -211q0 -173 117.5 -302.5t291.5 -129.5t292 129.5t118 302.5q0 112 -52 211t-147.5 160.5t-210.5 61.5zM569 991q136 0 250 -69t178 -185t64 -252t-64 -251.5t-177.5 -184.5t-250.5 -69q-136 0 -249.5 69t-177.5 184.5
t-64 251.5t64 252t177.5 185t249.5 69zM528 1094h-75l243 282h105z" />
    <glyph glyph-name="ocircumflex" unicode="&#xf4;" 
d="M569 918q-115 0 -210 -61.5t-147 -160.5t-52 -211q0 -173 117.5 -302.5t291.5 -129.5t292 129.5t118 302.5q0 112 -52 211t-147.5 160.5t-210.5 61.5zM569 991q136 0 250 -69t178 -185t64 -252t-64 -251.5t-177.5 -184.5t-250.5 -69q-136 0 -249.5 69t-177.5 184.5
t-64 251.5t64 252t177.5 185t249.5 69zM623 1376l223 -282h-86l-193 233l-192 -233h-82l219 282h111z" />
    <glyph glyph-name="otilde" unicode="&#xf5;" 
d="M569 918q-115 0 -210 -61.5t-147 -160.5t-52 -211q0 -173 117.5 -302.5t291.5 -129.5t292 129.5t118 302.5q0 112 -52 211t-147.5 160.5t-210.5 61.5zM569 991q136 0 250 -69t178 -185t64 -252t-64 -251.5t-177.5 -184.5t-250.5 -69q-136 0 -249.5 69t-177.5 184.5
t-64 251.5t64 252t177.5 185t249.5 69zM332 1124h-62q12 74 53 127.5t109 53.5q48 0 143 -56q100 -55 130 -55q48 0 70.5 29.5t31.5 81.5h61q-12 -74 -52.5 -127.5t-108.5 -53.5q-42 0 -144 56q-93 55 -129 55q-48 0 -70.5 -29.5t-31.5 -81.5z" />
    <glyph glyph-name="odieresis" unicode="&#xf6;" 
d="M569 918q-115 0 -210 -61.5t-147 -160.5t-52 -211q0 -173 117.5 -302.5t291.5 -129.5t292 129.5t118 302.5q0 112 -52 211t-147.5 160.5t-210.5 61.5zM569 991q136 0 250 -69t178 -185t64 -252t-64 -251.5t-177.5 -184.5t-250.5 -69q-136 0 -249.5 69t-177.5 184.5
t-64 251.5t64 252t177.5 185t249.5 69zM338 1212q0 29 20.5 49.5t49.5 20.5t49 -20.5t20 -49.5t-20 -49t-49 -20t-49.5 20t-20.5 49zM662 1212q0 29 20 49.5t49 20.5t49.5 -20.5t20.5 -49.5t-20.5 -49t-49.5 -20t-49 20t-20 49z" />
    <glyph glyph-name="divide" unicode="&#xf7;" horiz-adv-x="1228" 
d="M1098 444h-967v82h967v-82zM508 881q0 44 31 75t75 31t75.5 -31t31.5 -75t-31.5 -75.5t-75.5 -31.5t-75 31.5t-31 75.5zM508 90q0 44 31 75.5t75 31.5t75.5 -31.5t31.5 -75.5t-31.5 -75t-75.5 -31t-75 31t-31 75z" />
    <glyph glyph-name="oslash" unicode="&#xf8;" 
d="M254 215l582 596q-113 107 -267 107q-115 0 -210 -61.5t-147 -160.5t-52 -211q0 -153 94 -270zM1032 1012h103l-195 -197q121 -137 121 -330q0 -136 -64 -251.5t-177.5 -184.5t-250.5 -69q-191 0 -323 126l-144 -147h-98l193 199q-119 138 -119 327q0 136 64 252
t177.5 185t249.5 69q184 0 322 -125zM885 758l-584 -596q109 -109 268 -109q174 0 292 129.5t118 302.5q0 152 -94 273z" />
    <glyph glyph-name="ugrave" unicode="&#xf9;" horiz-adv-x="1024" 
d="M123 971h78v-582q0 -149 90 -242.5t221 -93.5t221 93.5t90 242.5v582h78v-592q0 -177 -111.5 -288t-277.5 -111t-277.5 111t-111.5 288v592zM629 1094h-76l-272 282h104z" />
    <glyph glyph-name="uacute" unicode="&#xfa;" horiz-adv-x="1024" 
d="M123 971h78v-582q0 -149 90 -242.5t221 -93.5t221 93.5t90 242.5v582h78v-592q0 -177 -111.5 -288t-277.5 -111t-277.5 111t-111.5 288v592zM471 1094h-76l244 282h104z" />
    <glyph glyph-name="ucircumflex" unicode="&#xfb;" horiz-adv-x="1024" 
d="M123 971h78v-582q0 -149 90 -242.5t221 -93.5t221 93.5t90 242.5v582h78v-592q0 -177 -111.5 -288t-277.5 -111t-277.5 111t-111.5 288v592zM565 1376l223 -282h-86l-192 233l-193 -233h-81l219 282h110z" />
    <glyph glyph-name="udieresis" unicode="&#xfc;" horiz-adv-x="1024" 
d="M123 971h78v-582q0 -149 90 -242.5t221 -93.5t221 93.5t90 242.5v582h78v-592q0 -177 -111.5 -288t-277.5 -111t-277.5 111t-111.5 288v592zM281 1212q0 29 20 49.5t49 20.5t49.5 -20.5t20.5 -49.5t-20.5 -49t-49.5 -20t-49 20t-20 49zM604 1212q0 29 20.5 49.5
t49.5 20.5t49 -20.5t20 -49.5t-20 -49t-49 -20t-49.5 20t-20.5 49z" />
    <glyph glyph-name="yacute" unicode="&#xfd;" horiz-adv-x="1024" 
d="M555 -442h-86v426q-150 12 -248 121t-98 274v592h78v-582q0 -149 90 -242.5t221 -93.5t221 93.5t90 242.5v582h78v-592q0 -165 -98 -274t-248 -121v-426zM471 1094h-76l244 282h104z" />
    <glyph glyph-name="thorn" unicode="&#xfe;" 
d="M201 -467h-78v1901h78v-664h4q60 103 163.5 162t227.5 59q200 0 336.5 -144t136.5 -362t-136.5 -361.5t-336.5 -143.5q-69 0 -133.5 22.5t-97 44.5t-72.5 55v93q67 -70 139 -106t164 -36q73 0 144 33t125.5 89t88 137.5t33.5 172.5t-33.5 172.5t-88 138t-125.5 89.5
t-144 33q-113 0 -204.5 -61.5t-141 -160t-49.5 -211.5v-952z" />
    <glyph glyph-name="ydieresis" unicode="&#xff;" horiz-adv-x="1024" 
d="M555 -442h-86v426q-150 12 -248 121t-98 274v592h78v-582q0 -149 90 -242.5t221 -93.5t221 93.5t90 242.5v582h78v-592q0 -165 -98 -274t-248 -121v-426zM281 1212q0 29 20 49.5t49 20.5t49.5 -20.5t20.5 -49.5t-20.5 -49t-49.5 -20t-49 20t-20 49zM604 1212
q0 29 20.5 49.5t49.5 20.5t49 -20.5t20 -49.5t-20 -49t-49 -20t-49.5 20t-20.5 49z" />
    <glyph glyph-name="Abreve" unicode="&#x102;" horiz-adv-x="1251" 
d="M1118 965v-965h-86v700h-733v74h733v217q0 180 -111 284.5t-296 104.5t-296.5 -104.5t-111.5 -284.5v-991h-86v965q0 231 133.5 362t360.5 131q226 0 359.5 -131t133.5 -362zM836 1776h61q-10 -108 -88 -176t-188 -68q-108 0 -186.5 69t-82.5 175h62q7 -77 67.5 -128
t139.5 -51q87 0 144.5 47.5t70.5 131.5z" />
    <glyph glyph-name="abreve" unicode="&#x103;" 
d="M1016 0h-78v485q0 113 -49.5 211.5t-141 160t-204.5 61.5q-73 0 -144 -33t-125.5 -89.5t-88 -138t-33.5 -172.5t33.5 -172.5t88 -137.5t125.5 -89t144 -33q92 0 164 36t139 106v-93q-40 -33 -72.5 -55t-97 -44.5t-133.5 -22.5q-200 0 -336.5 143.5t-136.5 361.5
t136.5 362t336.5 144t336.5 -144t136.5 -362v-485zM780 1325h62q-10 -108 -88.5 -176t-188.5 -68q-108 0 -186 69t-82 175h61q7 -77 67.5 -127.5t139.5 -50.5q87 0 144.5 47t70.5 131z" />
    <glyph glyph-name="Dcroat" unicode="&#x110;" horiz-adv-x="1251" 
d="M217 0h-86v731h-131v66h131v637h311q142 0 274 -53t232.5 -145t160.5 -228t60 -291q0 -159 -53 -294.5t-143.5 -227.5t-214 -143.5t-262.5 -51.5h-207v78h198q136 0 249.5 53t187 142t114.5 204t41 240q0 132 -50.5 250t-138 203.5t-212.5 135.5t-268 50h-193v-559h354
v-66h-354v-731z" />
    <glyph glyph-name="dcroat" unicode="&#x111;" 
d="M1139 1094h-123v-609q0 -218 -136.5 -361.5t-336.5 -143.5t-336.5 143.5t-136.5 361.5t136.5 362t336.5 144q53 0 100.5 -11.5t87 -33t62.5 -37.5t53 -41v-92q-67 70 -139 106t-164 36q-73 0 -144 -33t-125.5 -89.5t-88 -138t-33.5 -172.5t33.5 -172.5t88 -137.5
t125.5 -89t144 -33q113 0 204.5 61t141 159.5t49.5 211.5v609h-188v77h188v263h78v-263h123v-77z" />
    <glyph glyph-name="Itilde" unicode="&#x128;" horiz-adv-x="454" 
d="M270 0h-86v1434h86v-1434zM-10 1548h-62q12 74 53 127.5t109 53.5q48 0 143 -56q4 -2 16 -8.5t16.5 -9.5t15 -8.5t16 -8t14 -6.5t14.5 -6t13 -4t13 -3t11 -1q48 0 71 30t32 81h61q-12 -74 -52.5 -127.5t-108.5 -53.5q-42 0 -144 56q-93 55 -129 55q-48 0 -70.5 -29.5
t-31.5 -81.5z" />
    <glyph glyph-name="itilde" unicode="&#x129;" horiz-adv-x="454" 
d="M266 0h-78v971h78v-971zM-10 1124h-62q12 74 53 127.5t109 53.5q48 0 143 -56q4 -2 16 -8.5t16.5 -9.5t15 -8.5t16 -8t14 -6.5t14.5 -6t13 -4t13 -3t11 -1q48 0 71 30t32 81h61q-12 -74 -52.5 -127.5t-108.5 -53.5q-42 0 -144 56q-93 55 -129 55q-48 0 -70.5 -29.5
t-31.5 -81.5z" />
    <glyph glyph-name="dotlessi" unicode="&#x131;" horiz-adv-x="454" 
d="M266 0h-78v971h78v-971z" />
    <glyph glyph-name="Lslash" unicode="&#x141;" horiz-adv-x="796" 
d="M801 74v-74h-301q-68 0 -132.5 27.5t-118 78.5t-86 133t-32.5 183v332l-156 -74v82l156 74v598h86v-557l324 151v-82l-324 -151v-369q0 -153 86 -252.5t225 -99.5h273z" />
    <glyph glyph-name="lslash" unicode="&#x142;" horiz-adv-x="454" 
d="M451 1008v-86l-185 -93v-829h-78v791l-184 -91v86l184 91v557h78v-519z" />
    <glyph glyph-name="OE" unicode="&#x152;" horiz-adv-x="2048" 
d="M705 53q166 0 300.5 91t208.5 243t74 330t-74 329.5t-208.5 242.5t-300.5 91t-303.5 -91t-214 -242.5t-76.5 -329.5q0 -133 45.5 -254.5t123.5 -212t189 -144t236 -53.5zM2021 774v-74h-641q3 -262 180.5 -436.5t460.5 -189.5v-74q-502 0 -682 446h-4
q-30 -94 -88.5 -178.5t-138.5 -150t-185 -104t-218 -38.5q-187 0 -344 100.5t-246.5 271t-89.5 370.5q0 150 53 286.5t143.5 236.5t217 159t266.5 59q150 0 283 -67.5t220.5 -174t126.5 -233.5h4q70 207 249.5 329t432.5 122v-74q-174 0 -318.5 -77t-229.5 -211t-93 -298
h641z" />
    <glyph glyph-name="oe" unicode="&#x153;" horiz-adv-x="2048" 
d="M160 479q0 -175 116.5 -300.5t290.5 -125.5q171 0 291.5 127t120.5 299q0 115 -52 215.5t-147.5 162t-212.5 61.5t-211.5 -61.5t-145 -161.5t-50.5 -216zM1960 668l-770 -330l-37 74l694 295q-53 101 -150.5 156t-213.5 55q-177 0 -299.5 -122t-122.5 -292
q0 -115 54 -218.5t153.5 -168.5t220.5 -64q147 0 264 95t148 237l79 -14q-37 -168 -174 -280t-309 -111q-81 1 -151.5 20.5t-120.5 49t-91.5 71t-67.5 80t-46 82.5q-56 -134 -173.5 -218.5t-264.5 -84.5q-140 0 -256 66t-182 181.5t-66 255.5q0 136 63.5 252.5t176.5 186
t249 69.5q152 0 273 -84t178 -219q30 61 65 109t89 95t132.5 73t174.5 26q162 0 293.5 -86.5t187.5 -236.5z" />
    <glyph glyph-name="Scaron" unicode="&#x160;" 
d="M969 1434v-78h-475q-170 0 -243 -64.5t-73 -187.5q0 -70 30 -123t80.5 -86t116 -58t138 -45t144.5 -41.5t137.5 -53t116 -73.5t80.5 -108.5t30 -153.5q0 -177 -117.5 -269.5t-329.5 -92.5h-516v78h504q176 0 272.5 70.5t96.5 201.5q0 77 -30 135t-80.5 93.5t-116 61.5
t-138 45.5t-144.5 40.5t-137.5 51t-116 71.5t-80.5 108.5t-30 155q0 157 105 239.5t268 82.5h508zM846 1800l-223 -282h-111l-219 282h82l192 -233l193 233h86z" />
    <glyph glyph-name="scaron" unicode="&#x161;" horiz-adv-x="909" 
d="M78 0v74h434q236 0 236 164q0 58 -29 99.5t-76 64t-107.5 41t-123.5 30t-123.5 32t-107.5 46t-76 72.5t-29 112q0 100 66.5 168t181.5 68h436v-74h-430q-68 0 -118 -42.5t-50 -117.5q0 -58 37 -96.5t96.5 -59t131 -35.5t143 -34.5t131 -47.5t96.5 -82t37 -132
q0 -125 -88 -187.5t-252 -62.5h-416zM731 1376l-223 -282h-111l-219 282h82l193 -233l192 233h86z" />
    <glyph glyph-name="Utilde" unicode="&#x168;" horiz-adv-x="1251" 
d="M131 1434h86v-992q0 -180 111.5 -284.5t296.5 -104.5t296 104.5t111 284.5v992h86v-965q0 -231 -133.5 -362.5t-359.5 -131.5t-360 131.5t-134 362.5v965zM387 1548h-61q12 74 52.5 127.5t108.5 53.5q49 0 144 -56q4 -2 16 -8.5t16.5 -9.5t15 -8.5t16 -8t14 -6.5t14.5 -6
t13 -4t13 -3t11 -1q48 0 70.5 29.5t31.5 81.5h62q-12 -74 -53 -127.5t-109 -53.5q-42 0 -144 56q-93 55 -129 55q-48 0 -70.5 -29.5t-31.5 -81.5z" />
    <glyph glyph-name="utilde" unicode="&#x169;" horiz-adv-x="1024" 
d="M123 971h78v-582q0 -149 90 -242.5t221 -93.5t221 93.5t90 242.5v582h78v-592q0 -177 -111.5 -288t-277.5 -111t-277.5 111t-111.5 288v592zM274 1124h-61q12 74 53 127.5t109 53.5q48 0 143 -56q4 -2 16 -8.5t16.5 -9.5t15 -8.5t16 -8t14 -6.5t14.5 -6t13 -4t13 -3
t11 -1q48 0 71 30t32 81h61q-12 -74 -53 -127.5t-109 -53.5q-20 0 -47.5 10t-44 18.5t-51.5 27.5q-93 55 -129 55q-48 0 -71 -30t-32 -81z" />
    <glyph glyph-name="Ydieresis" unicode="&#x178;" 
d="M922 1434h86v-392q0 -100 -33 -184.5t-88 -140.5t-126.5 -87.5t-148.5 -31.5v-598h-86v598q-77 0 -148 31.5t-126 87.5t-88 140.5t-33 184.5v392h86v-398q0 -161 98.5 -260.5t253.5 -99.5t254 99.5t99 260.5v398zM338 1636q0 29 20.5 49.5t49.5 20.5t49 -20.5t20 -49.5
t-20 -49t-49 -20t-49.5 20t-20.5 49zM662 1636q0 29 20 49.5t49 20.5t49.5 -20.5t20.5 -49.5t-20.5 -49t-49.5 -20t-49 20t-20 49z" />
    <glyph glyph-name="Zcaron" unicode="&#x17d;" horiz-adv-x="1024" 
d="M963 78v-78h-801q-121 0 -121 90q0 36 12.5 66.5t44.5 76.5l717 1014q41 55 41 84q0 25 -33 25h-704v78h702q125 0 125 -91q0 -43 -14.5 -74.5t-52.5 -84.5l-729 -1034q-19 -27 -19 -46q0 -26 37 -26h795zM788 1800l-223 -282h-110l-219 282h81l193 -233l192 233h86z" />
    <glyph glyph-name="zcaron" unicode="&#x17e;" horiz-adv-x="796" 
d="M86 893v78h557q42 0 64 -23t22 -65q0 -51 -47 -109l-518 -627q-3 -4 -9 -11t-8.5 -10t-5.5 -8.5t-4.5 -10t-1.5 -9.5q0 -20 37 -20h582v-78h-623q-42 0 -64 23t-22 65q0 51 47 109l518 626q3 4 9 11t8.5 10t5.5 8.5t4.5 10t1.5 9.5q0 21 -37 21h-516zM676 1376l-223 -282
h-111l-219 282h82l192 -233l193 233h86z" />
    <glyph glyph-name="florin" unicode="&#x192;" 
d="M541 725h-279v82h283l20 211q8 87 34 162t72.5 139.5t123.5 101.5t176 37q57 0 149 -37l-22 -69q-68 24 -146 24q-136 -2 -212.5 -110t-94.5 -346l-8 -113h299v-82h-303l-41 -666q-4 -73 -19.5 -143.5t-46.5 -141t-74.5 -123t-110 -85.5t-146.5 -33q-100 0 -175 37l21 84
q76 -39 162 -39q89 0 155 66t101 171t43 238z" />
    <glyph glyph-name="Ohorn" unicode="&#x1a0;" horiz-adv-x="1593" 
d="M795 -25q-200 0 -367.5 100.5t-263.5 271t-96 370.5t96 370.5t263.5 270.5t367.5 100q144 0 274 -54.5t231 -152.5q48 7 69 48t7 135h78q20 -206 -94 -248q166 -206 166 -469q0 -150 -57.5 -287t-154.5 -237t-233 -159t-286 -59zM795 53q177 0 325 91t232 243.5t84 329.5
t-84 329.5t-232 243t-325 90.5q-134 0 -253 -53.5t-203 -143.5t-132.5 -211.5t-48.5 -254.5t48.5 -254.5t132.5 -212t203 -144t253 -53.5z" />
    <glyph glyph-name="ohorn" unicode="&#x1a1;" 
d="M569 991q120 0 222 -53.5t170 -146.5q46 7 66.5 47t6.5 133h78q23 -219 -106 -252q55 -113 55 -234q0 -136 -64 -251.5t-177.5 -184.5t-250.5 -69q-136 0 -249.5 69t-177.5 184.5t-64 251.5t64 252t177.5 185t249.5 69zM569 918q-115 0 -210 -61.5t-147 -160.5t-52 -211
q0 -173 117.5 -302.5t291.5 -129.5t292 129.5t118 302.5q0 112 -52 211t-147.5 160.5t-210.5 61.5z" />
    <glyph glyph-name="Uhorn" unicode="&#x1af;" horiz-adv-x="1251" 
d="M131 1434h86v-992q0 -180 111.5 -284.5t296.5 -104.5t296 104.5t111 284.5v992h86v-183q27 1 45.5 9t34 28.5t17.5 55.5t-5 90h78q4 -56 2.5 -97t-15 -69.5t-28 -47t-37.5 -28.5t-44.5 -14t-47.5 -4v-705q0 -231 -133.5 -362.5t-359.5 -131.5t-360 131.5t-134 362.5v965z
" />
    <glyph glyph-name="uhorn" unicode="&#x1b0;" horiz-adv-x="1024" 
d="M123 971h78v-582q0 -149 90 -242.5t221 -93.5t221 93.5t90 242.5v582h78v-183q27 1 45.5 9t34 28.5t17.5 55.5t-5 90h78q4 -56 2.5 -97t-15 -69.5t-28 -47t-37.5 -28.5t-44.5 -14t-47.5 -4v-332q0 -177 -111.5 -288t-277.5 -111t-277.5 111t-111.5 288v592z" />
    <glyph glyph-name="circumflex" unicode="&#x2c6;" horiz-adv-x="454" 
d="M281 1376l223 -282h-86l-193 233l-192 -233h-82l219 282h111z" />
    <glyph glyph-name="caron" unicode="&#x2c7;" horiz-adv-x="454" 
d="M504 1376l-223 -282h-111l-219 282h82l192 -233l193 233h86z" />
    <glyph glyph-name="uni02C9" unicode="&#x2c9;" horiz-adv-x="454" 
d="M514 1176h-571v65h571v-65z" />
    <glyph glyph-name="breve" unicode="&#x2d8;" horiz-adv-x="454" 
d="M438 1343h62q-10 -108 -88.5 -175.5t-188.5 -67.5q-108 0 -186 68.5t-82 174.5h61q7 -77 67.5 -127.5t139.5 -50.5q87 0 144.5 47t70.5 131z" />
    <glyph glyph-name="dotaccent" unicode="&#x2d9;" horiz-adv-x="454" 
d="M227 1143q-29 0 -49 20t-20 49t20 49.5t49 20.5t49.5 -20.5t20.5 -49.5t-20.5 -49t-49.5 -20z" />
    <glyph glyph-name="ring" unicode="&#x2da;" horiz-adv-x="454" 
d="M86 1292q0 -58 41 -99.5t100 -41.5t100.5 41.5t41.5 99.5t-41.5 100t-100.5 42q-58 0 -99.5 -41.5t-41.5 -100.5zM29 1292q0 83 57.5 141t140.5 58t141 -58t58 -141t-58 -140.5t-141 -57.5t-140.5 57.5t-57.5 140.5z" />
    <glyph glyph-name="ogonek" unicode="&#x2db;" horiz-adv-x="454" 
d="M414 45v-20q-150 -54 -216.5 -118.5t-66.5 -148.5q0 -46 41 -71t90 -25q87 0 160 37l29 -39q-69 -30 -111.5 -40.5t-89.5 -10.5q-85 0 -143 39.5t-58 111.5q0 41 14.5 76.5t35.5 61t55.5 48.5t63 36.5t71 27.5t66 20t59.5 15z" />
    <glyph glyph-name="tilde" unicode="&#x2dc;" horiz-adv-x="454" 
d="M-10 1124h-62q12 74 53 127.5t109 53.5q48 0 143 -56q4 -2 16 -8.5t16.5 -9.5t15 -8.5t16 -8t14 -6.5t14.5 -6t13 -4t13 -3t11 -1q48 0 71 30t32 81h61q-12 -74 -52.5 -127.5t-108.5 -53.5q-42 0 -144 56q-93 55 -129 55q-48 0 -70.5 -29.5t-31.5 -81.5z" />
    <glyph glyph-name="hungarumlaut" unicode="&#x2dd;" horiz-adv-x="454" 
d="M76 1094h-76l233 282h105zM295 1094h-76l244 282h104z" />
    <glyph glyph-name="gravecomb" unicode="&#x300;" horiz-adv-x="454" 
d="M344 1094h-76l-272 282h104z" />
    <glyph glyph-name="acutecomb" unicode="&#x301;" horiz-adv-x="454" 
d="M186 1094h-75l243 282h105z" />
    <glyph glyph-name="uni0302" unicode="&#x302;" horiz-adv-x="454" 
d="M281 1376l223 -282h-86l-193 233l-192 -233h-82l219 282h111z" />
    <glyph glyph-name="tildecomb" unicode="&#x303;" horiz-adv-x="454" 
d="M-10 1124h-62q12 74 53 127.5t109 53.5q48 0 143 -56q4 -2 16 -8.5t16.5 -9.5t15 -8.5t16 -8t14 -6.5t14.5 -6t13 -4t13 -3t11 -1q48 0 71 30t32 81h61q-12 -74 -52.5 -127.5t-108.5 -53.5q-42 0 -144 56q-93 55 -129 55q-48 0 -70.5 -29.5t-31.5 -81.5z" />
    <glyph glyph-name="uni0306" unicode="&#x306;" horiz-adv-x="454" 
d="M438 1325h62q-10 -108 -88.5 -176t-188.5 -68q-108 0 -186 69t-82 175h61q7 -77 67.5 -127.5t139.5 -50.5q87 0 144.5 47t70.5 131z" />
    <glyph glyph-name="hookabovecomb" unicode="&#x309;" horiz-adv-x="446" 
d="M256 1161q-7 -7 -11 -12t-5.5 -12t-2 -10t0 -15.5t0.5 -17.5h-70q0 31 0.5 43.5t9 33.5t25.5 35q14 12 44 28t46.5 33t19.5 44q4 52 -21.5 81t-72.5 29q-46 1 -69 -23t-23 -59h-70q-3 70 43.5 112.5t118.5 39.5q81 0 126.5 -52.5t37.5 -129.5q-3 -35 -19 -60.5t-33 -37
t-40.5 -25.5t-34.5 -25z" />
    <glyph glyph-name="dotbelowcomb" unicode="&#x323;" horiz-adv-x="454" 
d="M215 -217q-23 0 -39 16t-16 39t16 39.5t39 16.5t39 -16.5t16 -39.5t-16 -39t-39 -16z" />
    <glyph glyph-name="uni03A9" unicode="&#x3a9;" horiz-adv-x="1495" 
d="M442 72v6q-131 112 -214 286t-83 388q0 157 48 290t131 222t194 138.5t236 49.5q171 0 308.5 -92.5t212.5 -251t75 -350.5q0 -222 -87.5 -402t-211.5 -278v-6h327v-72h-463v53q147 95 249 279t102 416q0 85 -20.5 172.5t-63 170.5t-102 147t-144 103t-182.5 39
q-157 0 -278 -87t-184 -230.5t-63 -317.5q0 -219 104 -409.5t245 -282.5v-53h-461v72h325z" />
    <glyph glyph-name="uni03BC" unicode="&#x3bc;" horiz-adv-x="1024" 
d="M823 971h78v-592q0 -177 -111.5 -288t-277.5 -111q-95 0 -175.5 39.5t-131.5 111.5h-4v-598h-78v1438h78v-582q0 -149 90 -242.5t221 -93.5t221 93.5t90 242.5v582z" />
    <glyph glyph-name="pi" unicode="&#x3c0;" horiz-adv-x="1130" 
d="M1071 983h-180v-682q0 -200 33 -301h-82q-33 56 -33 285v698h-432q-10 -236 -58.5 -545t-103.5 -438h-84q58 149 104.5 442.5t57.5 540.5q-170 0 -248 -29l-18 56q85 47 266 47h788z" />
    <glyph glyph-name="uni1EA0" unicode="&#x1ea0;" horiz-adv-x="1251" 
d="M1118 965v-965h-86v700h-733v74h733v217q0 180 -111 284.5t-296 104.5t-296.5 -104.5t-111.5 -284.5v-991h-86v965q0 231 133.5 362t360.5 131q226 0 359.5 -131t133.5 -362zM621 -217q-23 0 -39.5 16t-16.5 39t16.5 39.5t39.5 16.5t39 -16.5t16 -39.5t-16 -39t-39 -16z
" />
    <glyph glyph-name="uni1EA1" unicode="&#x1ea1;" 
d="M1016 0h-78v485q0 113 -49.5 211.5t-141 160t-204.5 61.5q-73 0 -144 -33t-125.5 -89.5t-88 -138t-33.5 -172.5t33.5 -172.5t88 -137.5t125.5 -89t144 -33q92 0 164 36t139 106v-93q-40 -33 -72.5 -55t-97 -44.5t-133.5 -22.5q-200 0 -336.5 143.5t-136.5 361.5
t136.5 362t336.5 144t336.5 -144t136.5 -362v-485zM526 -217q-23 0 -39 16t-16 39t16 39.5t39 16.5t39.5 -16.5t16.5 -39.5t-16.5 -39t-39.5 -16z" />
    <glyph glyph-name="uni1EA2" unicode="&#x1ea2;" horiz-adv-x="1251" 
d="M1118 965v-965h-86v700h-733v74h733v217q0 180 -111 284.5t-296 104.5t-296.5 -104.5t-111.5 -284.5v-991h-86v965q0 231 133.5 362t360.5 131q226 0 359.5 -131t133.5 -362zM680 1583q-7 -7 -11 -12t-5.5 -12t-2 -10t0 -15.5t0.5 -17.5h-70q0 31 0.5 43.5t9 33.5
t25.5 35q14 12 44 28t46.5 33t19.5 44q4 52 -21.5 81t-72.5 29q-46 1 -69 -23t-23 -59h-70q-3 70 43.5 112.5t118.5 39.5q81 0 126.5 -52.5t37.5 -129.5q-3 -35 -19 -60.5t-33 -37t-40.5 -25.5t-34.5 -25z" />
    <glyph glyph-name="uni1EA3" unicode="&#x1ea3;" 
d="M1016 0h-78v485q0 113 -49.5 211.5t-141 160t-204.5 61.5q-73 0 -144 -33t-125.5 -89.5t-88 -138t-33.5 -172.5t33.5 -172.5t88 -137.5t125.5 -89t144 -33q92 0 164 36t139 106v-93q-40 -33 -72.5 -55t-97 -44.5t-133.5 -22.5q-200 0 -336.5 143.5t-136.5 361.5
t136.5 362t336.5 144t336.5 -144t136.5 -362v-485zM604 1161q-7 -7 -11 -12t-5.5 -12t-2 -10t0 -15.5t0.5 -17.5h-70q0 31 0.5 43.5t9 33.5t25.5 35q14 12 44.5 28t47 33t19.5 44q4 51 -22 80.5t-73 29.5q-46 1 -69 -23t-23 -59h-69q-3 70 43.5 112.5t117.5 39.5
q81 0 126.5 -52.5t37.5 -129.5q-3 -35 -19 -60.5t-33 -37t-40.5 -25.5t-34.5 -25z" />
    <glyph glyph-name="uni1EA4" unicode="&#x1ea4;" horiz-adv-x="1251" 
d="M1118 965v-965h-86v700h-733v74h733v217q0 180 -111 284.5t-296 104.5t-296.5 -104.5t-111.5 -284.5v-991h-86v965q0 231 133.5 362t360.5 131q226 0 359.5 -131t133.5 -362zM682 1800l223 -282h-86l-192 233l-193 -233h-82l219 282h111zM872 1790h-75l243 283h105z" />
    <glyph glyph-name="uni1EA5" unicode="&#x1ea5;" 
d="M1016 0h-78v485q0 113 -49.5 211.5t-141 160t-204.5 61.5q-73 0 -144 -33t-125.5 -89.5t-88 -138t-33.5 -172.5t33.5 -172.5t88 -137.5t125.5 -89t144 -33q92 0 164 36t139 106v-93q-40 -33 -72.5 -55t-97 -44.5t-133.5 -22.5q-200 0 -336.5 143.5t-136.5 361.5
t136.5 362t336.5 144t336.5 -144t136.5 -362v-485zM610 1376l224 -282h-86l-193 233l-193 -233h-81l219 282h110zM801 1366h-76l244 283h104z" />
    <glyph glyph-name="uni1EA6" unicode="&#x1ea6;" horiz-adv-x="1251" 
d="M1118 965v-965h-86v700h-733v74h733v217q0 180 -111 284.5t-296 104.5t-296.5 -104.5t-111.5 -284.5v-991h-86v965q0 231 133.5 362t360.5 131q226 0 359.5 -131t133.5 -362zM682 1800l223 -282h-86l-192 233l-193 -233h-82l219 282h111zM940 1792h-76l-272 283h104z" />
    <glyph glyph-name="uni1EA7" unicode="&#x1ea7;" 
d="M1016 0h-78v485q0 113 -49.5 211.5t-141 160t-204.5 61.5q-73 0 -144 -33t-125.5 -89.5t-88 -138t-33.5 -172.5t33.5 -172.5t88 -137.5t125.5 -89t144 -33q92 0 164 36t139 106v-93q-40 -33 -72.5 -55t-97 -44.5t-133.5 -22.5q-200 0 -336.5 143.5t-136.5 361.5
t136.5 362t336.5 144t336.5 -144t136.5 -362v-485zM604 1376l223 -282h-86l-192 233l-193 -233h-82l220 282h110zM862 1368h-76l-272 283h104z" />
    <glyph glyph-name="uni1EA8" unicode="&#x1ea8;" horiz-adv-x="1251" 
d="M1118 965v-965h-86v700h-733v74h733v217q0 180 -111 284.5t-296 104.5t-296.5 -104.5t-111.5 -284.5v-991h-86v965q0 231 133.5 362t360.5 131q226 0 359.5 -131t133.5 -362zM670 1798l223 -282h-86l-193 233l-192 -233h-82l219 282h111zM907 1858q-7 -7 -11 -12
t-5.5 -12.5t-2 -10.5t0 -15.5t0.5 -17.5h-70q0 31 0.5 43.5t9 34t25.5 35.5q14 12 44.5 28t47 32.5t19.5 43.5q4 52 -22 81.5t-73 29.5q-46 1 -69 -23t-23 -59h-69q-3 70 43 112t118 39q81 0 126.5 -52.5t37.5 -129.5q-4 -46 -25.5 -72t-56 -45t-45.5 -30z" />
    <glyph glyph-name="uni1EA9" unicode="&#x1ea9;" 
d="M1016 0h-78v485q0 113 -49.5 211.5t-141 160t-204.5 61.5q-73 0 -144 -33t-125.5 -89.5t-88 -138t-33.5 -172.5t33.5 -172.5t88 -137.5t125.5 -89t144 -33q92 0 164 36t139 106v-93q-40 -33 -72.5 -55t-97 -44.5t-133.5 -22.5q-200 0 -336.5 143.5t-136.5 361.5
t136.5 362t336.5 144t336.5 -144t136.5 -362v-485zM612 1376l224 -282h-86l-193 233l-192 -233h-82l219 282h110zM850 1436q-6 -6 -9.5 -11t-5.5 -8.5t-3 -10.5t-1 -9.5v-13.5v-15h-69q0 31 0.5 43.5t9 34t25.5 35.5q14 12 44 28t46.5 32.5t19.5 43.5q4 52 -21.5 81.5
t-72.5 29.5q-46 1 -69 -23t-23 -59h-70q-3 69 43.5 111.5t118.5 39.5q81 0 126.5 -52.5t37.5 -129.5q-4 -46 -25.5 -72t-56 -45t-45.5 -30z" />
    <glyph glyph-name="uni1EAA" unicode="&#x1eaa;" horiz-adv-x="1251" 
d="M1118 965v-965h-86v700h-733v74h733v217q0 180 -111 284.5t-296 104.5t-296.5 -104.5t-111.5 -284.5v-991h-86v965q0 231 133.5 362t360.5 131q226 0 359.5 -131t133.5 -362zM690 1798l223 -282h-86l-192 233l-193 -233h-82l220 282h110zM403 1888h-61q12 74 53 127
t109 53q50 0 143 -55q4 -2 16 -8.5t16.5 -9.5t15 -8.5t16 -8t14 -6.5t14.5 -6t13 -4t13 -3t11 -1q48 0 71 29.5t32 80.5h61q-12 -74 -53 -127t-109 -53q-20 0 -47.5 10t-44 18.5t-51.5 27.5q-93 55 -129 55q-48 0 -71 -30t-32 -81z" />
    <glyph glyph-name="uni1EAB" unicode="&#x1eab;" 
d="M1016 0h-78v485q0 113 -49.5 211.5t-141 160t-204.5 61.5q-73 0 -144 -33t-125.5 -89.5t-88 -138t-33.5 -172.5t33.5 -172.5t88 -137.5t125.5 -89t144 -33q92 0 164 36t139 106v-93q-40 -33 -72.5 -55t-97 -44.5t-133.5 -22.5q-200 0 -336.5 143.5t-136.5 361.5
t136.5 362t336.5 144t336.5 -144t136.5 -362v-485zM586 1376l223 -282h-86l-193 233l-192 -233h-82l219 282h111zM299 1466h-61q12 74 52.5 127.5t108.5 53.5q49 0 144 -56q4 -2 16 -8.5t16.5 -9.5t15 -8.5t16 -8t14 -6.5t14.5 -6t13 -4t13 -3t11 -1q48 0 70.5 29.5
t31.5 81.5h62q-12 -74 -53 -127.5t-109 -53.5q-42 0 -144 56q-93 55 -129 55q-48 0 -70.5 -29.5t-31.5 -81.5z" />
    <glyph glyph-name="uni1EAC" unicode="&#x1eac;" horiz-adv-x="1251" 
d="M1118 965v-965h-86v700h-733v74h733v217q0 180 -111 284.5t-296 104.5t-296.5 -104.5t-111.5 -284.5v-991h-86v965q0 231 133.5 362t360.5 131q226 0 359.5 -131t133.5 -362zM700 1798l224 -282h-86l-193 233l-192 -233h-82l219 282h110zM649 -217q-23 0 -39 16t-16 39
t16 39.5t39 16.5t39.5 -16.5t16.5 -39.5t-16.5 -39t-39.5 -16z" />
    <glyph glyph-name="uni1EAD" unicode="&#x1ead;" 
d="M1016 0h-78v485q0 113 -49.5 211.5t-141 160t-204.5 61.5q-73 0 -144 -33t-125.5 -89.5t-88 -138t-33.5 -172.5t33.5 -172.5t88 -137.5t125.5 -89t144 -33q92 0 164 36t139 106v-93q-40 -33 -72.5 -55t-97 -44.5t-133.5 -22.5q-200 0 -336.5 143.5t-136.5 361.5
t136.5 362t336.5 144t336.5 -144t136.5 -362v-485zM598 1376l223 -282h-86l-192 233l-193 -233h-82l219 282h111zM541 -217q-23 0 -39.5 16t-16.5 39t16.5 39.5t39.5 16.5t39 -16.5t16 -39.5t-16 -39t-39 -16z" />
    <glyph glyph-name="uni1EAE" unicode="&#x1eae;" horiz-adv-x="1251" 
d="M1118 965v-965h-86v700h-733v74h733v217q0 180 -111 284.5t-296 104.5t-296.5 -104.5t-111.5 -284.5v-991h-86v965q0 231 133.5 362t360.5 131q226 0 359.5 -131t133.5 -362zM838 1759h61q-10 -108 -88 -175.5t-188 -67.5q-108 0 -186.5 69t-82.5 174h62
q7 -77 67.5 -127.5t139.5 -50.5q87 0 144.5 47t70.5 131zM582 1819h-76l244 282h104z" />
    <glyph glyph-name="uni1EAF" unicode="&#x1eaf;" 
d="M1016 0h-78v485q0 113 -49.5 211.5t-141 160t-204.5 61.5q-73 0 -144 -33t-125.5 -89.5t-88 -138t-33.5 -172.5t33.5 -172.5t88 -137.5t125.5 -89t144 -33q92 0 164 36t139 106v-93q-40 -33 -72.5 -55t-97 -44.5t-133.5 -22.5q-200 0 -336.5 143.5t-136.5 361.5
t136.5 362t336.5 144t336.5 -144t136.5 -362v-485zM768 1337h61q-10 -108 -88 -175.5t-188 -67.5q-108 0 -186 68.5t-82 174.5h61q7 -77 67.5 -127.5t139.5 -50.5q87 0 144.5 47t70.5 131zM512 1397h-76l244 282h104z" />
    <glyph glyph-name="uni1EB0" unicode="&#x1eb0;" horiz-adv-x="1251" 
d="M1118 965v-965h-86v700h-733v74h733v217q0 180 -111 284.5t-296 104.5t-296.5 -104.5t-111.5 -284.5v-991h-86v965q0 231 133.5 362t360.5 131q226 0 359.5 -131t133.5 -362zM854 1759h61q-10 -108 -88 -175.5t-188 -67.5q-108 0 -186 68.5t-82 174.5h61
q7 -77 67.5 -127.5t139.5 -50.5q87 0 144.5 47t70.5 131zM774 1817h-76l-272 282h104z" />
    <glyph glyph-name="uni1EB1" unicode="&#x1eb1;" 
d="M1016 0h-78v485q0 113 -49.5 211.5t-141 160t-204.5 61.5q-73 0 -144 -33t-125.5 -89.5t-88 -138t-33.5 -172.5t33.5 -172.5t88 -137.5t125.5 -89t144 -33q92 0 164 36t139 106v-93q-40 -33 -72.5 -55t-97 -44.5t-133.5 -22.5q-200 0 -336.5 143.5t-136.5 361.5
t136.5 362t336.5 144t336.5 -144t136.5 -362v-485zM774 1337h62q-10 -108 -88.5 -175.5t-188.5 -67.5q-108 0 -186 68.5t-82 174.5h61q7 -77 67.5 -127.5t139.5 -50.5q87 0 144.5 47t70.5 131zM694 1395h-76l-272 282h105z" />
    <glyph glyph-name="uni1EB2" unicode="&#x1eb2;" horiz-adv-x="1251" 
d="M1118 965v-965h-86v700h-733v74h733v217q0 180 -111 284.5t-296 104.5t-296.5 -104.5t-111.5 -284.5v-991h-86v965q0 231 133.5 362t360.5 131q226 0 359.5 -131t133.5 -362zM844 1759h61q-10 -108 -88 -175.5t-188 -67.5q-108 0 -186.5 69t-82.5 174h62
q7 -77 67.5 -127.5t139.5 -50.5q87 0 144.5 47t70.5 131zM678 1886q-5 -5 -8.5 -9t-5.5 -8.5t-3 -7.5t-1.5 -8.5t-0.5 -8.5v-11.5v-13.5h-69q0 31 0.5 43.5t9 33.5t25.5 35q14 12 44 28t46.5 33t19.5 44q4 52 -21.5 81t-72.5 29q-46 1 -69 -23t-23 -59h-70q-3 70 43.5 112.5
t118.5 39.5q81 0 126.5 -52.5t37.5 -129.5q-3 -35 -19 -60.5t-33 -37t-40.5 -25.5t-34.5 -25z" />
    <glyph glyph-name="uni1EB3" unicode="&#x1eb3;" 
d="M1016 0h-78v485q0 113 -49.5 211.5t-141 160t-204.5 61.5q-73 0 -144 -33t-125.5 -89.5t-88 -138t-33.5 -172.5t33.5 -172.5t88 -137.5t125.5 -89t144 -33q92 0 164 36t139 106v-93q-40 -33 -72.5 -55t-97 -44.5t-133.5 -22.5q-200 0 -336.5 143.5t-136.5 361.5
t136.5 362t336.5 144t336.5 -144t136.5 -362v-485zM768 1337h61q-10 -108 -88 -175.5t-188 -67.5q-108 0 -186 68.5t-82 174.5h61q7 -77 67.5 -127.5t139.5 -50.5q87 0 144.5 47t70.5 131zM602 1464q-7 -7 -11 -12t-5.5 -12t-2 -10t0 -15.5t0.5 -17.5h-70q0 31 0.5 43.5
t9 33.5t25.5 35q14 12 44 28t46.5 33t19.5 44q4 52 -21.5 81t-72.5 29q-46 1 -69 -23t-23 -59h-70q-3 70 43.5 112.5t118.5 39.5q81 0 126.5 -52.5t37.5 -129.5q-3 -35 -19 -60.5t-33 -37t-40.5 -25.5t-34.5 -25z" />
    <glyph glyph-name="uni1EB4" unicode="&#x1eb4;" horiz-adv-x="1251" 
d="M1118 965v-965h-86v700h-733v74h733v217q0 180 -111 284.5t-296 104.5t-296.5 -104.5t-111.5 -284.5v-991h-86v965q0 231 133.5 362t360.5 131q226 0 359.5 -131t133.5 -362zM825 1759h62q-10 -108 -88.5 -175.5t-188.5 -67.5q-108 0 -186 68.5t-82 174.5h61
q7 -77 67.5 -127.5t139.5 -50.5q87 0 144.5 47t70.5 131zM395 1888h-61q12 74 53 127t109 53q50 0 143 -55q4 -2 16 -8.5t16.5 -9.5t15 -8.5t16 -8t14 -6.5t14.5 -6t13 -4t13 -3t11 -1q48 0 70.5 29.5t31.5 80.5h62q-12 -74 -53 -127t-109 -53q-20 0 -47.5 10t-44 18.5
t-51.5 27.5q-93 55 -129 55q-48 0 -71 -30t-32 -81z" />
    <glyph glyph-name="uni1EB5" unicode="&#x1eb5;" 
d="M1016 0h-78v485q0 113 -49.5 211.5t-141 160t-204.5 61.5q-73 0 -144 -33t-125.5 -89.5t-88 -138t-33.5 -172.5t33.5 -172.5t88 -137.5t125.5 -89t144 -33q92 0 164 36t139 106v-93q-40 -33 -72.5 -55t-97 -44.5t-133.5 -22.5q-200 0 -336.5 143.5t-136.5 361.5
t136.5 362t336.5 144t336.5 -144t136.5 -362v-485zM776 1337h62q-10 -108 -88.5 -175.5t-188.5 -67.5q-108 0 -186 68.5t-82 174.5h61q7 -77 67.5 -127.5t139.5 -50.5q87 0 144.5 47t70.5 131zM346 1466h-61q12 74 52.5 127.5t108.5 53.5q49 0 144 -56q4 -2 16 -8.5
t16.5 -9.5t15 -8.5t16 -8t14 -6.5t14.5 -6t13 -4t13 -3t11 -1q48 0 70.5 29.5t31.5 81.5h62q-12 -74 -53 -127.5t-109 -53.5q-20 0 -47.5 10t-44 18.5t-51.5 27.5q-93 55 -129 55q-48 0 -71 -30t-32 -81z" />
    <glyph glyph-name="uni1EB6" unicode="&#x1eb6;" horiz-adv-x="1251" 
d="M1118 965v-965h-86v700h-733v74h733v217q0 180 -111 284.5t-296 104.5t-296.5 -104.5t-111.5 -284.5v-991h-86v965q0 231 133.5 362t360.5 131q226 0 359.5 -131t133.5 -362zM623 -217q-23 0 -39.5 16t-16.5 39t16.5 39.5t39.5 16.5t39 -16.5t16 -39.5t-16 -39t-39 -16z
M840 1759h61q-10 -108 -88 -175.5t-188 -67.5q-108 0 -186.5 69t-82.5 174h62q7 -77 67.5 -127.5t139.5 -50.5q87 0 144.5 47t70.5 131z" />
    <glyph glyph-name="uni1EB7" unicode="&#x1eb7;" 
d="M1016 0h-78v485q0 113 -49.5 211.5t-141 160t-204.5 61.5q-73 0 -144 -33t-125.5 -89.5t-88 -138t-33.5 -172.5t33.5 -172.5t88 -137.5t125.5 -89t144 -33q92 0 164 36t139 106v-93q-40 -33 -72.5 -55t-97 -44.5t-133.5 -22.5q-200 0 -336.5 143.5t-136.5 361.5
t136.5 362t336.5 144t336.5 -144t136.5 -362v-485zM535 -217q-23 0 -39.5 16t-16.5 39t16.5 39.5t39.5 16.5t39 -16.5t16 -39.5t-16 -39t-39 -16zM745 1337h62q-10 -108 -88.5 -175.5t-188.5 -67.5q-108 0 -186 68.5t-82 174.5h62q7 -77 67 -127.5t139 -50.5q87 0 144.5 47
t70.5 131z" />
    <glyph glyph-name="uni1EB8" unicode="&#x1eb8;" horiz-adv-x="1024" 
d="M926 774v-74h-787q0 -122 40.5 -226.5t107 -176.5t152 -123.5t176.5 -75.5t180 -24h131v-74h-164q-135 0 -261 48t-226.5 136t-161 226.5t-60.5 306.5t60.5 306.5t161 226.5t226.5 136t261 48h164v-74h-160q-132 0 -251 -52.5t-200 -136t-128.5 -188.5t-47.5 -209h787z
M676 -217q-23 0 -39 16t-16 39t16 39.5t39 16.5t39 -16.5t16 -39.5t-16 -39t-39 -16z" />
    <glyph glyph-name="uni1EB9" unicode="&#x1eb9;" 
d="M319 283l-49 65l625 422q-55 69 -136.5 108.5t-176.5 39.5q-120 0 -218 -61.5t-151 -162t-53 -215.5q0 -174 121.5 -300t300.5 -126q175 0 299 122t127 290h82q-3 -128 -68 -239t-177.5 -178.5t-246.5 -67.5q-226 0 -373 144t-147 359q0 137 62.5 252.5t179 185.5
t262.5 70q136 0 250 -64.5t182 -172.5zM582 -217q-23 0 -39.5 16t-16.5 39t16.5 39.5t39.5 16.5t39 -16.5t16 -39.5t-16 -39t-39 -16z" />
    <glyph glyph-name="uni1EBA" unicode="&#x1eba;" horiz-adv-x="1024" 
d="M926 774v-74h-787q0 -122 40.5 -226.5t107 -176.5t152 -123.5t176.5 -75.5t180 -24h131v-74h-164q-135 0 -261 48t-226.5 136t-161 226.5t-60.5 306.5t60.5 306.5t161 226.5t226.5 136t261 48h164v-74h-160q-132 0 -251 -52.5t-200 -136t-128.5 -188.5t-47.5 -209h787z
M764 1585q-5 -5 -8.5 -9t-5.5 -8.5t-3 -7.5t-1.5 -8.5t-0.5 -8.5v-11.5v-13.5h-69q0 31 0.5 43.5t9 33.5t25.5 35q14 12 44 28t46.5 33t19.5 44q4 52 -21.5 81t-72.5 29q-46 1 -69 -23t-23 -59h-70q-3 70 43.5 112.5t118.5 39.5q81 0 126.5 -52.5t37.5 -129.5
q-3 -35 -19 -60.5t-33 -37t-40.5 -25.5t-34.5 -25z" />
    <glyph glyph-name="uni1EBB" unicode="&#x1ebb;" 
d="M319 283l-49 65l625 422q-55 69 -136.5 108.5t-176.5 39.5q-120 0 -218 -61.5t-151 -162t-53 -215.5q0 -174 121.5 -300t300.5 -126q175 0 299 122t127 290h82q-3 -128 -68 -239t-177.5 -178.5t-246.5 -67.5q-226 0 -373 144t-147 359q0 137 62.5 252.5t179 185.5
t262.5 70q136 0 250 -64.5t182 -172.5zM627 1161q-5 -5 -8.5 -9t-5.5 -8.5t-3 -7.5t-1.5 -8.5t-0.5 -8.5v-11.5v-13.5h-69v9q0 26 1 39t9 31.5t24 32.5q14 12 44.5 28t47 33t19.5 44q4 52 -21.5 81t-72.5 29q-46 1 -69 -23t-23 -59h-70q-3 70 43.5 112.5t118.5 39.5
q81 0 126.5 -52.5t37.5 -129.5q-3 -35 -19 -60.5t-33 -37t-40.5 -25.5t-34.5 -25z" />
    <glyph glyph-name="uni1EBC" unicode="&#x1ebc;" horiz-adv-x="1024" 
d="M926 774v-74h-787q0 -122 40.5 -226.5t107 -176.5t152 -123.5t176.5 -75.5t180 -24h131v-74h-164q-135 0 -261 48t-226.5 136t-161 226.5t-60.5 306.5t60.5 306.5t161 226.5t226.5 136t261 48h164v-74h-160q-132 0 -251 -52.5t-200 -136t-128.5 -188.5t-47.5 -209h787z
M455 1548h-62q12 74 53 127.5t109 53.5q48 0 143 -56q4 -2 16 -8.5t16.5 -9.5t15 -8.5t16 -8t14 -6.5t14.5 -6t13 -4t13 -3t11 -1q48 0 71 30t32 81h61q-12 -74 -53 -127.5t-109 -53.5q-20 0 -47.5 10t-44 18.5t-51.5 27.5q-93 55 -129 55q-48 0 -70.5 -29.5t-31.5 -81.5z
" />
    <glyph glyph-name="uni1EBD" unicode="&#x1ebd;" 
d="M319 283l-49 65l625 422q-55 69 -136.5 108.5t-176.5 39.5q-120 0 -218 -61.5t-151 -162t-53 -215.5q0 -174 121.5 -300t300.5 -126q175 0 299 122t127 290h82q-3 -128 -68 -239t-177.5 -178.5t-246.5 -67.5q-226 0 -373 144t-147 359q0 137 62.5 252.5t179 185.5
t262.5 70q136 0 250 -64.5t182 -172.5zM360 1124h-61q12 74 53 127.5t109 53.5q48 0 143 -56q4 -2 16 -8.5t16.5 -9.5t15 -8.5t16 -8t14 -6.5t14.5 -6t13 -4t13 -3t11 -1q48 0 71 30t32 81h61q-12 -74 -53 -127.5t-109 -53.5q-20 0 -47.5 10t-44 18.5t-51.5 27.5
q-93 55 -129 55q-48 0 -71 -30t-32 -81z" />
    <glyph glyph-name="uni1EBE" unicode="&#x1ebe;" horiz-adv-x="1024" 
d="M926 774v-74h-787q0 -122 40.5 -226.5t107 -176.5t152 -123.5t176.5 -75.5t180 -24h131v-74h-164q-135 0 -261 48t-226.5 136t-161 226.5t-60.5 306.5t60.5 306.5t161 226.5t226.5 136t261 48h164v-74h-160q-132 0 -251 -52.5t-200 -136t-128.5 -188.5t-47.5 -209h787z
M705 1798l223 -282h-86l-193 233l-192 -233h-82l219 282h111zM895 1788h-76l244 283h104z" />
    <glyph glyph-name="uni1EBF" unicode="&#x1ebf;" 
d="M319 283l-49 65l625 422q-55 69 -136.5 108.5t-176.5 39.5q-120 0 -218 -61.5t-151 -162t-53 -215.5q0 -174 121.5 -300t300.5 -126q175 0 299 122t127 290h82q-3 -128 -68 -239t-177.5 -178.5t-246.5 -67.5q-226 0 -373 144t-147 359q0 137 62.5 252.5t179 185.5
t262.5 70q136 0 250 -64.5t182 -172.5zM637 1376l223 -282h-86l-192 233l-193 -233h-82l219 282h111zM827 1366h-75l243 283h105z" />
    <glyph glyph-name="uni1EC0" unicode="&#x1ec0;" horiz-adv-x="1024" 
d="M926 774v-74h-787q0 -122 40.5 -226.5t107 -176.5t152 -123.5t176.5 -75.5t180 -24h131v-74h-164q-135 0 -261 48t-226.5 136t-161 226.5t-60.5 306.5t60.5 306.5t161 226.5t226.5 136t261 48h164v-74h-160q-132 0 -251 -52.5t-200 -136t-128.5 -188.5t-47.5 -209h787z
M709 1798l223 -282h-86l-193 233l-192 -233h-82l219 282h111zM967 1790h-76l-273 283h105z" />
    <glyph glyph-name="uni1EC1" unicode="&#x1ec1;" 
d="M319 283l-49 65l625 422q-55 69 -136.5 108.5t-176.5 39.5q-120 0 -218 -61.5t-151 -162t-53 -215.5q0 -174 121.5 -300t300.5 -126q175 0 299 122t127 290h82q-3 -128 -68 -239t-177.5 -178.5t-246.5 -67.5q-226 0 -373 144t-147 359q0 137 62.5 252.5t179 185.5
t262.5 70q136 0 250 -64.5t182 -172.5zM627 1376l223 -282h-86l-193 233l-192 -233h-82l219 282h111zM885 1368h-76l-272 283h104z" />
    <glyph glyph-name="uni1EC2" unicode="&#x1ec2;" horiz-adv-x="1024" 
d="M926 774v-74h-787q0 -122 40.5 -226.5t107 -176.5t152 -123.5t176.5 -75.5t180 -24h131v-74h-164q-135 0 -261 48t-226.5 136t-161 226.5t-60.5 306.5t60.5 306.5t161 226.5t226.5 136t261 48h164v-74h-160q-132 0 -251 -52.5t-200 -136t-128.5 -188.5t-47.5 -209h787z
M715 1798l223 -282h-86l-193 233l-192 -233h-82l219 282h111zM952 1858q-7 -7 -11 -12t-5.5 -12.5t-2 -10.5t0 -15.5t0.5 -17.5h-70q0 31 0.5 43.5t9 34t25.5 35.5q14 12 44.5 28t47 32.5t19.5 43.5q4 52 -22 81.5t-73 29.5q-46 1 -69 -23t-23 -59h-69q-3 70 43 112t118 39
q81 0 126.5 -52.5t37.5 -129.5q-4 -46 -25.5 -72t-56 -45t-45.5 -30z" />
    <glyph glyph-name="uni1EC3" unicode="&#x1ec3;" 
d="M319 283l-49 65l625 422q-55 69 -136.5 108.5t-176.5 39.5q-120 0 -218 -61.5t-151 -162t-53 -215.5q0 -174 121.5 -300t300.5 -126q175 0 299 122t127 290h82q-3 -128 -68 -239t-177.5 -178.5t-246.5 -67.5q-226 0 -373 144t-147 359q0 137 62.5 252.5t179 185.5
t262.5 70q136 0 250 -64.5t182 -172.5zM633 1376l223 -282h-86l-192 233l-193 -233h-82l219 282h111zM870 1436q-7 -7 -11 -12t-5.5 -12.5t-2 -10.5t0 -15.5t0.5 -17.5h-70q0 31 0.5 43.5t9 34t25.5 35.5q14 12 44.5 28t47 32.5t19.5 43.5q4 52 -21.5 81.5t-72.5 29.5
q-46 1 -69.5 -23.5t-23.5 -58.5h-69q-3 69 43.5 111.5t118.5 39.5q81 0 126 -52.5t37 -129.5q-4 -46 -25.5 -72t-56 -45t-45.5 -30z" />
    <glyph glyph-name="uni1EC4" unicode="&#x1ec4;" horiz-adv-x="1024" 
d="M926 774v-74h-787q0 -122 40.5 -226.5t107 -176.5t152 -123.5t176.5 -75.5t180 -24h131v-74h-164q-135 0 -261 48t-226.5 136t-161 226.5t-60.5 306.5t60.5 306.5t161 226.5t226.5 136t261 48h164v-74h-160q-132 0 -251 -52.5t-200 -136t-128.5 -188.5t-47.5 -209h787z
M700 1798l224 -282h-86l-193 233l-192 -233h-82l219 282h110zM414 1888h-62q12 74 53 127t109 53q50 0 143 -55q4 -2 16 -8.5t16.5 -9.5t15 -8.5t16 -8t14 -6.5t14.5 -6t13 -4t13 -3t11 -1q48 0 71 29.5t32 80.5h61q-12 -74 -53 -127t-109 -53q-20 0 -47.5 10t-44 18.5
t-51.5 27.5q-93 55 -129 55q-48 0 -70.5 -29.5t-31.5 -81.5z" />
    <glyph glyph-name="uni1EC5" unicode="&#x1ec5;" 
d="M319 283l-49 65l625 422q-55 69 -136.5 108.5t-176.5 39.5q-120 0 -218 -61.5t-151 -162t-53 -215.5q0 -174 121.5 -300t300.5 -126q175 0 299 122t127 290h82q-3 -128 -68 -239t-177.5 -178.5t-246.5 -67.5q-226 0 -373 144t-147 359q0 137 62.5 252.5t179 185.5
t262.5 70q136 0 250 -64.5t182 -172.5zM641 1376l223 -282h-86l-192 233l-193 -233h-82l219 282h111zM354 1466h-61q12 74 53 127.5t109 53.5q48 0 143 -56q4 -2 16 -8.5t16.5 -9.5t15 -8.5t16 -8t14 -6.5t14.5 -6t13 -4t13 -3t11 -1q48 0 70.5 29.5t31.5 81.5h62
q-12 -74 -53 -127.5t-109 -53.5q-20 0 -47.5 10t-44 18.5t-51.5 27.5q-93 55 -129 55q-48 0 -71 -30t-32 -81z" />
    <glyph glyph-name="uni1EC6" unicode="&#x1ec6;" horiz-adv-x="1024" 
d="M926 774v-74h-787q0 -122 40.5 -226.5t107 -176.5t152 -123.5t176.5 -75.5t180 -24h131v-74h-164q-135 0 -261 48t-226.5 136t-161 226.5t-60.5 306.5t60.5 306.5t161 226.5t226.5 136t261 48h164v-74h-160q-132 0 -251 -52.5t-200 -136t-128.5 -188.5t-47.5 -209h787z
M702 1800l224 -282h-86l-193 233l-192 -233h-82l219 282h110zM711 -217q-23 0 -39.5 16t-16.5 39t16.5 39.5t39.5 16.5t39 -16.5t16 -39.5t-16 -39t-39 -16z" />
    <glyph glyph-name="uni1EC7" unicode="&#x1ec7;" 
d="M319 283l-49 65l625 422q-55 69 -136.5 108.5t-176.5 39.5q-120 0 -218 -61.5t-151 -162t-53 -215.5q0 -174 121.5 -300t300.5 -126q175 0 299 122t127 290h82q-3 -128 -68 -239t-177.5 -178.5t-246.5 -67.5q-226 0 -373 144t-147 359q0 137 62.5 252.5t179 185.5
t262.5 70q136 0 250 -64.5t182 -172.5zM637 1376l223 -282h-86l-192 233l-193 -233h-82l219 282h111zM582 -217q-23 0 -39.5 16t-16.5 39t16.5 39.5t39.5 16.5t39 -16.5t16 -39.5t-16 -39t-39 -16z" />
    <glyph glyph-name="uni1EC8" unicode="&#x1ec8;" horiz-adv-x="454" 
d="M270 0h-86v1434h86v-1434zM276 1583q-7 -7 -11 -12t-5.5 -12t-2 -10t0 -15.5t0.5 -17.5h-70q0 31 0.5 43.5t9 33.5t25.5 35q14 12 44.5 28t47 33t19.5 44q4 52 -21.5 81t-72.5 29q-46 1 -69.5 -23.5t-23.5 -58.5h-69q-3 70 43.5 112.5t118.5 39.5q81 0 126 -52.5
t37 -129.5q-3 -35 -19 -60.5t-33 -37t-40.5 -25.5t-34.5 -25z" />
    <glyph glyph-name="uni1EC9" unicode="&#x1ec9;" horiz-adv-x="454" 
d="M258 1161q-7 -7 -11 -12t-5.5 -12t-2 -10t0 -15.5t0.5 -17.5h-70q0 31 0.5 43.5t9 33.5t25.5 35q14 12 44 28t46.5 33t19.5 44q4 52 -21.5 81t-72.5 29q-46 1 -69 -23t-23 -59h-70q-3 70 43.5 112.5t118.5 39.5q81 0 126.5 -52.5t37.5 -129.5q-3 -35 -19 -60.5t-33 -37
t-40.5 -25.5t-34.5 -25zM244 0h-78v971h78v-971z" />
    <glyph glyph-name="uni1ECA" unicode="&#x1eca;" horiz-adv-x="454" 
d="M270 0h-86v1434h86v-1434zM227 -217q-23 0 -39 16t-16 39t16 39.5t39 16.5t39.5 -16.5t16.5 -39.5t-16.5 -39t-39.5 -16z" />
    <glyph glyph-name="uni1ECB" unicode="&#x1ecb;" horiz-adv-x="454" 
d="M266 0h-78v971h78v-971zM166 1245q0 26 17.5 44t43.5 18t44 -18t18 -44t-18 -43.5t-44 -17.5t-43.5 17.5t-17.5 43.5zM233 -217q-23 0 -39 16t-16 39t16 39.5t39 16.5t39.5 -16.5t16.5 -39.5t-16.5 -39t-39.5 -16z" />
    <glyph glyph-name="uni1ECC" unicode="&#x1ecc;" horiz-adv-x="1593" 
d="M795 -25q-200 0 -367.5 100.5t-263.5 271t-96 370.5t96 370.5t263.5 270.5t367.5 100t368.5 -100t265.5 -270.5t97 -370.5q0 -150 -57.5 -287t-154.5 -237t-233 -159t-286 -59zM795 53q177 0 325 91t232 243.5t84 329.5t-84 329.5t-232 243t-325 90.5q-134 0 -253 -53.5
t-203 -143.5t-132.5 -211.5t-48.5 -254.5t48.5 -254.5t132.5 -212t203 -144t253 -53.5zM797 -217q-23 0 -39.5 16t-16.5 39t16.5 39.5t39.5 16.5t39 -16.5t16 -39.5t-16 -39t-39 -16z" />
    <glyph glyph-name="uni1ECD" unicode="&#x1ecd;" 
d="M569 918q-115 0 -210 -61.5t-147 -160.5t-52 -211q0 -173 117.5 -302.5t291.5 -129.5t292 129.5t118 302.5q0 112 -52 211t-147.5 160.5t-210.5 61.5zM569 991q136 0 250 -69t178 -185t64 -252t-64 -251.5t-177.5 -184.5t-250.5 -69q-136 0 -249.5 69t-177.5 184.5
t-64 251.5t64 252t177.5 185t249.5 69zM571 -217q-23 0 -39 16t-16 39t16 39.5t39 16.5t39.5 -16.5t16.5 -39.5t-16.5 -39t-39.5 -16z" />
    <glyph glyph-name="uni1ECE" unicode="&#x1ece;" horiz-adv-x="1593" 
d="M795 -25q-200 0 -367.5 100.5t-263.5 271t-96 370.5t96 370.5t263.5 270.5t367.5 100t368.5 -100t265.5 -270.5t97 -370.5q0 -150 -57.5 -287t-154.5 -237t-233 -159t-286 -59zM795 53q177 0 325 91t232 243.5t84 329.5t-84 329.5t-232 243t-325 90.5q-134 0 -253 -53.5
t-203 -143.5t-132.5 -211.5t-48.5 -254.5t48.5 -254.5t132.5 -212t203 -144t253 -53.5zM834 1583q-5 -5 -8.5 -9t-5.5 -8.5t-3 -7.5t-1.5 -8.5t-0.5 -8.5v-11.5v-13.5h-70q0 31 0.5 43.5t9 33.5t25.5 35q14 12 44.5 28t47 33t19.5 44q4 52 -21.5 81t-72.5 29q-46 1 -69 -23
t-23 -59h-70q-3 70 43.5 112.5t118.5 39.5q81 0 126.5 -52.5t37.5 -129.5q-3 -35 -19 -60.5t-33 -37t-40.5 -25.5t-34.5 -25z" />
    <glyph glyph-name="uni1ECF" unicode="&#x1ecf;" 
d="M569 918q-115 0 -210 -61.5t-147 -160.5t-52 -211q0 -173 117.5 -302.5t291.5 -129.5t292 129.5t118 302.5q0 112 -52 211t-147.5 160.5t-210.5 61.5zM569 991q136 0 250 -69t178 -185t64 -252t-64 -251.5t-177.5 -184.5t-250.5 -69q-136 0 -249.5 69t-177.5 184.5
t-64 251.5t64 252t177.5 185t249.5 69zM606 1161q-7 -7 -11 -12t-5.5 -12t-2 -10t0 -15.5t0.5 -17.5h-70q0 31 0.5 43.5t9 33.5t25.5 35q14 12 44.5 28t47 33t19.5 44q4 51 -22 80.5t-73 29.5q-46 1 -69 -23t-23 -59h-69q-3 70 43.5 112.5t117.5 39.5q81 0 126.5 -52.5
t37.5 -129.5q-3 -35 -19 -60.5t-33 -37t-40.5 -25.5t-34.5 -25z" />
    <glyph glyph-name="uni1ED0" unicode="&#x1ed0;" horiz-adv-x="1593" 
d="M795 -25q-200 0 -367.5 100.5t-263.5 271t-96 370.5t96 370.5t263.5 270.5t367.5 100t368.5 -100t265.5 -270.5t97 -370.5q0 -150 -57.5 -287t-154.5 -237t-233 -159t-286 -59zM795 53q177 0 325 91t232 243.5t84 329.5t-84 329.5t-232 243t-325 90.5q-134 0 -253 -53.5
t-203 -143.5t-132.5 -211.5t-48.5 -254.5t48.5 -254.5t132.5 -212t203 -144t253 -53.5zM848 1798l223 -282h-86l-192 233l-193 -233h-82l219 282h111zM1038 1788h-75l243 283h105z" />
    <glyph glyph-name="uni1ED1" unicode="&#x1ed1;" 
d="M569 918q-115 0 -210 -61.5t-147 -160.5t-52 -211q0 -173 117.5 -302.5t291.5 -129.5t292 129.5t118 302.5q0 112 -52 211t-147.5 160.5t-210.5 61.5zM569 991q136 0 250 -69t178 -185t64 -252t-64 -251.5t-177.5 -184.5t-250.5 -69q-136 0 -249.5 69t-177.5 184.5
t-64 251.5t64 252t177.5 185t249.5 69zM639 1376l223 -282h-86l-192 233l-193 -233h-82l219 282h111zM829 1366h-75l243 283h105z" />
    <glyph glyph-name="uni1ED2" unicode="&#x1ed2;" horiz-adv-x="1593" 
d="M795 -25q-200 0 -367.5 100.5t-263.5 271t-96 370.5t96 370.5t263.5 270.5t367.5 100t368.5 -100t265.5 -270.5t97 -370.5q0 -150 -57.5 -287t-154.5 -237t-233 -159t-286 -59zM795 53q177 0 325 91t232 243.5t84 329.5t-84 329.5t-232 243t-325 90.5q-134 0 -253 -53.5
t-203 -143.5t-132.5 -211.5t-48.5 -254.5t48.5 -254.5t132.5 -212t203 -144t253 -53.5zM864 1798l223 -282h-86l-192 233l-193 -233h-81l219 282h110zM1122 1790h-75l-273 283h105z" />
    <glyph glyph-name="uni1ED3" unicode="&#x1ed3;" 
d="M569 918q-115 0 -210 -61.5t-147 -160.5t-52 -211q0 -173 117.5 -302.5t291.5 -129.5t292 129.5t118 302.5q0 112 -52 211t-147.5 160.5t-210.5 61.5zM569 991q136 0 250 -69t178 -185t64 -252t-64 -251.5t-177.5 -184.5t-250.5 -69q-136 0 -249.5 69t-177.5 184.5
t-64 251.5t64 252t177.5 185t249.5 69zM614 1376l224 -282h-86l-193 233l-192 -233h-82l219 282h110zM872 1368h-75l-273 283h105z" />
    <glyph glyph-name="uni1ED4" unicode="&#x1ed4;" horiz-adv-x="1593" 
d="M795 -25q-200 0 -367.5 100.5t-263.5 271t-96 370.5t96 370.5t263.5 270.5t367.5 100t368.5 -100t265.5 -270.5t97 -370.5q0 -150 -57.5 -287t-154.5 -237t-233 -159t-286 -59zM795 53q177 0 325 91t232 243.5t84 329.5t-84 329.5t-232 243t-325 90.5q-134 0 -253 -53.5
t-203 -143.5t-132.5 -211.5t-48.5 -254.5t48.5 -254.5t132.5 -212t203 -144t253 -53.5zM866 1798l224 -282h-86l-193 233l-193 -233h-81l219 282h110zM1104 1858q-6 -6 -9.5 -11t-5.5 -8.5t-3 -10.5t-1 -9.5v-13.5v-15h-69q0 31 0.5 43.5t9 34t25.5 35.5q14 12 44 28
t46.5 32.5t19.5 43.5q4 52 -21.5 81.5t-72.5 29.5q-46 1 -69 -23t-23 -59h-70q-3 69 43.5 111.5t118.5 39.5q81 0 126.5 -52.5t37.5 -129.5q-4 -46 -25.5 -72t-56 -45t-45.5 -30z" />
    <glyph glyph-name="uni1ED5" unicode="&#x1ed5;" 
d="M569 918q-115 0 -210 -61.5t-147 -160.5t-52 -211q0 -173 117.5 -302.5t291.5 -129.5t292 129.5t118 302.5q0 112 -52 211t-147.5 160.5t-210.5 61.5zM569 991q136 0 250 -69t178 -185t64 -252t-64 -251.5t-177.5 -184.5t-250.5 -69q-136 0 -249.5 69t-177.5 184.5
t-64 251.5t64 252t177.5 185t249.5 69zM623 1376l223 -282h-86l-193 233l-192 -233h-82l219 282h111zM860 1436q-7 -7 -11 -12t-5.5 -12.5t-2 -10.5t0 -15.5t0.5 -17.5h-70q0 31 0.5 43.5t9 34t25.5 35.5q14 12 44.5 28t47 32.5t19.5 43.5q4 52 -22 81.5t-73 29.5
q-46 1 -69 -23t-23 -59h-69q-3 70 43 112t118 39q81 0 126.5 -52.5t37.5 -129.5q-4 -46 -25.5 -72t-56 -45t-45.5 -30z" />
    <glyph glyph-name="uni1ED6" unicode="&#x1ed6;" horiz-adv-x="1593" 
d="M795 -25q-200 0 -367.5 100.5t-263.5 271t-96 370.5t96 370.5t263.5 270.5t367.5 100t368.5 -100t265.5 -270.5t97 -370.5q0 -150 -57.5 -287t-154.5 -237t-233 -159t-286 -59zM795 53q177 0 325 91t232 243.5t84 329.5t-84 329.5t-232 243t-325 90.5q-134 0 -253 -53.5
t-203 -143.5t-132.5 -211.5t-48.5 -254.5t48.5 -254.5t132.5 -212t203 -144t253 -53.5zM866 1800l224 -282h-86l-193 233l-193 -233h-81l219 282h110zM580 1890h-62q12 74 53 127.5t109 53.5q48 0 143 -56q4 -2 16 -8.5t16.5 -9.5t15 -8.5t16 -8t14 -6.5t14.5 -6t13 -4
t13 -3t11 -1q48 0 71 30t32 81h61q-12 -74 -53 -127.5t-109 -53.5q-20 0 -47.5 10t-44 18.5t-51.5 27.5q-93 55 -129 55q-48 0 -70.5 -29.5t-31.5 -81.5z" />
    <glyph glyph-name="uni1ED7" unicode="&#x1ed7;" 
d="M569 918q-115 0 -210 -61.5t-147 -160.5t-52 -211q0 -173 117.5 -302.5t291.5 -129.5t292 129.5t118 302.5q0 112 -52 211t-147.5 160.5t-210.5 61.5zM569 991q136 0 250 -69t178 -185t64 -252t-64 -251.5t-177.5 -184.5t-250.5 -69q-136 0 -249.5 69t-177.5 184.5
t-64 251.5t64 252t177.5 185t249.5 69zM618 1376l224 -282h-86l-193 233l-192 -233h-82l219 282h110zM332 1466h-62q12 74 53 127.5t109 53.5q48 0 143 -56q100 -55 130 -55q48 0 70.5 29.5t31.5 81.5h61q-12 -74 -52.5 -127.5t-108.5 -53.5q-42 0 -144 56q-93 55 -129 55
q-48 0 -70.5 -29.5t-31.5 -81.5z" />
    <glyph glyph-name="uni1ED8" unicode="&#x1ed8;" horiz-adv-x="1593" 
d="M795 -25q-200 0 -367.5 100.5t-263.5 271t-96 370.5t96 370.5t263.5 270.5t367.5 100t368.5 -100t265.5 -270.5t97 -370.5q0 -150 -57.5 -287t-154.5 -237t-233 -159t-286 -59zM795 53q177 0 325 91t232 243.5t84 329.5t-84 329.5t-232 243t-325 90.5q-134 0 -253 -53.5
t-203 -143.5t-132.5 -211.5t-48.5 -254.5t48.5 -254.5t132.5 -212t203 -144t253 -53.5zM850 1800l223 -282h-86l-192 233l-193 -233h-82l219 282h111zM797 -217q-23 0 -39.5 16t-16.5 39t16.5 39.5t39.5 16.5t39 -16.5t16 -39.5t-16 -39t-39 -16z" />
    <glyph glyph-name="uni1ED9" unicode="&#x1ed9;" 
d="M569 918q-115 0 -210 -61.5t-147 -160.5t-52 -211q0 -173 117.5 -302.5t291.5 -129.5t292 129.5t118 302.5q0 112 -52 211t-147.5 160.5t-210.5 61.5zM569 991q136 0 250 -69t178 -185t64 -252t-64 -251.5t-177.5 -184.5t-250.5 -69q-136 0 -249.5 69t-177.5 184.5
t-64 251.5t64 252t177.5 185t249.5 69zM637 1376l223 -282h-86l-192 233l-193 -233h-82l219 282h111zM580 -217q-23 0 -39.5 16t-16.5 39t16.5 39.5t39.5 16.5t39 -16.5t16 -39.5t-16 -39t-39 -16z" />
    <glyph glyph-name="uni1EDA" unicode="&#x1eda;" horiz-adv-x="1593" 
d="M795 -25q-200 0 -367.5 100.5t-263.5 271t-96 370.5t96 370.5t263.5 270.5t367.5 100q144 0 274 -54.5t231 -152.5q48 7 69 48t7 135h78q20 -206 -94 -248q166 -206 166 -469q0 -150 -57.5 -287t-154.5 -237t-233 -159t-286 -59zM795 53q177 0 325 91t232 243.5t84 329.5
t-84 329.5t-232 243t-325 90.5q-134 0 -253 -53.5t-203 -143.5t-132.5 -211.5t-48.5 -254.5t48.5 -254.5t132.5 -212t203 -144t253 -53.5zM852 1518h-76l244 282h104z" />
    <glyph glyph-name="uni1EDB" unicode="&#x1edb;" 
d="M569 991q120 0 222 -53.5t170 -146.5q46 7 66.5 47t6.5 133h78q23 -219 -106 -252q55 -113 55 -234q0 -136 -64 -251.5t-177.5 -184.5t-250.5 -69q-136 0 -249.5 69t-177.5 184.5t-64 251.5t64 252t177.5 185t249.5 69zM569 918q-115 0 -210 -61.5t-147 -160.5t-52 -211
q0 -173 117.5 -302.5t291.5 -129.5t292 129.5t118 302.5q0 112 -52 211t-147.5 160.5t-210.5 61.5zM598 1094h-76l244 282h104z" />
    <glyph glyph-name="uni1EDC" unicode="&#x1edc;" horiz-adv-x="1593" 
d="M795 -25q-200 0 -367.5 100.5t-263.5 271t-96 370.5t96 370.5t263.5 270.5t367.5 100q144 0 274 -54.5t231 -152.5q48 7 69 48t7 135h78q20 -206 -94 -248q166 -206 166 -469q0 -150 -57.5 -287t-154.5 -237t-233 -159t-286 -59zM795 53q177 0 325 91t232 243.5t84 329.5
t-84 329.5t-232 243t-325 90.5q-134 0 -253 -53.5t-203 -143.5t-132.5 -211.5t-48.5 -254.5t48.5 -254.5t132.5 -212t203 -144t253 -53.5zM991 1518h-76l-272 282h105z" />
    <glyph glyph-name="uni1EDD" unicode="&#x1edd;" 
d="M569 991q120 0 222 -53.5t170 -146.5q46 7 66.5 47t6.5 133h78q23 -219 -106 -252q55 -113 55 -234q0 -136 -64 -251.5t-177.5 -184.5t-250.5 -69q-136 0 -249.5 69t-177.5 184.5t-64 251.5t64 252t177.5 185t249.5 69zM569 918q-115 0 -210 -61.5t-147 -160.5t-52 -211
q0 -173 117.5 -302.5t291.5 -129.5t292 129.5t118 302.5q0 112 -52 211t-147.5 160.5t-210.5 61.5zM737 1094h-75l-273 282h105z" />
    <glyph glyph-name="uni1EDE" unicode="&#x1ede;" horiz-adv-x="1593" 
d="M795 -25q-200 0 -367.5 100.5t-263.5 271t-96 370.5t96 370.5t263.5 270.5t367.5 100q144 0 274 -54.5t231 -152.5q48 7 69 48t7 135h78q20 -206 -94 -248q166 -206 166 -469q0 -150 -57.5 -287t-154.5 -237t-233 -159t-286 -59zM795 53q177 0 325 91t232 243.5t84 329.5
t-84 329.5t-232 243t-325 90.5q-134 0 -253 -53.5t-203 -143.5t-132.5 -211.5t-48.5 -254.5t48.5 -254.5t132.5 -212t203 -144t253 -53.5zM885 1583q-5 -5 -8.5 -9t-5.5 -8.5t-3 -7.5t-1.5 -8.5t-0.5 -8.5v-11.5v-13.5h-69v9q0 26 1 39t9 31.5t24 32.5q14 12 44.5 28t47 33
t19.5 44q4 52 -21.5 81t-72.5 29q-46 1 -69 -23t-23 -59h-70q-3 70 43.5 112.5t118.5 39.5q81 0 126.5 -52.5t37.5 -129.5q-3 -35 -19 -60.5t-33 -37t-40.5 -25.5t-34.5 -25z" />
    <glyph glyph-name="uni1EDF" unicode="&#x1edf;" 
d="M569 991q120 0 222 -53.5t170 -146.5q46 7 66.5 47t6.5 133h78q23 -219 -106 -252q55 -113 55 -234q0 -136 -64 -251.5t-177.5 -184.5t-250.5 -69q-136 0 -249.5 69t-177.5 184.5t-64 251.5t64 252t177.5 185t249.5 69zM569 918q-115 0 -210 -61.5t-147 -160.5t-52 -211
q0 -173 117.5 -302.5t291.5 -129.5t292 129.5t118 302.5q0 112 -52 211t-147.5 160.5t-210.5 61.5zM633 1161q-5 -5 -8.5 -9t-5.5 -8.5t-3 -7.5t-1.5 -8.5t-0.5 -8.5v-11.5v-13.5h-69q0 31 0.5 43.5t9 33.5t25.5 35q14 12 44 28t46.5 33t19.5 44q4 52 -21.5 81t-72.5 29
q-46 1 -69 -23t-23 -59h-70q-3 70 43.5 112.5t118.5 39.5q81 0 126.5 -52.5t37.5 -129.5q-3 -35 -19 -60.5t-33 -37t-40.5 -25.5t-34.5 -25z" />
    <glyph glyph-name="uni1EE0" unicode="&#x1ee0;" horiz-adv-x="1593" 
d="M795 -25q-200 0 -367.5 100.5t-263.5 271t-96 370.5t96 370.5t263.5 270.5t367.5 100q144 0 274 -54.5t231 -152.5q48 7 69 48t7 135h78q20 -206 -94 -248q166 -206 166 -469q0 -150 -57.5 -287t-154.5 -237t-233 -159t-286 -59zM795 53q177 0 325 91t232 243.5t84 329.5
t-84 329.5t-232 243t-325 90.5q-134 0 -253 -53.5t-203 -143.5t-132.5 -211.5t-48.5 -254.5t48.5 -254.5t132.5 -212t203 -144t253 -53.5zM602 1548h-55q12 75 47.5 128t93.5 53q46 0 125 -56q4 -3 14 -9t14.5 -9t13.5 -8.5t13.5 -8t12 -6.5t13 -6t11.5 -4t11 -3t10 -1
q75 0 90 111h53q-10 -74 -46 -127.5t-95 -53.5q-36 0 -125 56q-82 55 -113 55q-73 0 -88 -111z" />
    <glyph glyph-name="uni1EE1" unicode="&#x1ee1;" 
d="M569 991q120 0 222 -53.5t170 -146.5q46 7 66.5 47t6.5 133h78q23 -219 -106 -252q55 -113 55 -234q0 -136 -64 -251.5t-177.5 -184.5t-250.5 -69q-136 0 -249.5 69t-177.5 184.5t-64 251.5t64 252t177.5 185t249.5 69zM569 918q-115 0 -210 -61.5t-147 -160.5t-52 -211
q0 -173 117.5 -302.5t291.5 -129.5t292 129.5t118 302.5q0 112 -52 211t-147.5 160.5t-210.5 61.5zM416 1124h-51q10 70 44 120t89 50q42 0 116 -51q80 -53 107 -53q69 0 84 104h49q-8 -70 -41.5 -120t-89.5 -50q-34 0 -119 52q-71 53 -104 53q-69 0 -84 -105z" />
    <glyph glyph-name="uni1EE2" unicode="&#x1ee2;" horiz-adv-x="1593" 
d="M795 -25q-200 0 -367.5 100.5t-263.5 271t-96 370.5t96 370.5t263.5 270.5t367.5 100q144 0 274 -54.5t231 -152.5q48 7 69 48t7 135h78q20 -206 -94 -248q166 -206 166 -469q0 -150 -57.5 -287t-154.5 -237t-233 -159t-286 -59zM795 53q177 0 325 91t232 243.5t84 329.5
t-84 329.5t-232 243t-325 90.5q-134 0 -253 -53.5t-203 -143.5t-132.5 -211.5t-48.5 -254.5t48.5 -254.5t132.5 -212t203 -144t253 -53.5zM791 -217q-23 0 -39.5 16t-16.5 39t16.5 39.5t39.5 16.5t39 -16.5t16 -39.5t-16 -39t-39 -16z" />
    <glyph glyph-name="uni1EE3" unicode="&#x1ee3;" 
d="M569 991q120 0 222 -53.5t170 -146.5q46 7 66.5 47t6.5 133h78q23 -219 -106 -252q55 -113 55 -234q0 -136 -64 -251.5t-177.5 -184.5t-250.5 -69q-136 0 -249.5 69t-177.5 184.5t-64 251.5t64 252t177.5 185t249.5 69zM569 918q-115 0 -210 -61.5t-147 -160.5t-52 -211
q0 -173 117.5 -302.5t291.5 -129.5t292 129.5t118 302.5q0 112 -52 211t-147.5 160.5t-210.5 61.5zM592 -217q-23 0 -39 16t-16 39t16 39.5t39 16.5t39 -16.5t16 -39.5t-16 -39t-39 -16z" />
    <glyph glyph-name="uni1EE4" unicode="&#x1ee4;" horiz-adv-x="1251" 
d="M131 1434h86v-992q0 -180 111.5 -284.5t296.5 -104.5t296 104.5t111 284.5v992h86v-965q0 -231 -133.5 -362.5t-359.5 -131.5t-360 131.5t-134 362.5v965zM639 -217q-23 0 -39 16t-16 39t16 39.5t39 16.5t39 -16.5t16 -39.5t-16 -39t-39 -16z" />
    <glyph glyph-name="uni1EE5" unicode="&#x1ee5;" horiz-adv-x="1024" 
d="M123 971h78v-582q0 -149 90 -242.5t221 -93.5t221 93.5t90 242.5v582h78v-592q0 -177 -111.5 -288t-277.5 -111t-277.5 111t-111.5 288v592zM512 -217q-23 0 -39 16t-16 39t16 39.5t39 16.5t39 -16.5t16 -39.5t-16 -39t-39 -16z" />
    <glyph glyph-name="uni1EE6" unicode="&#x1ee6;" horiz-adv-x="1251" 
d="M131 1434h86v-992q0 -180 111.5 -284.5t296.5 -104.5t296 104.5t111 284.5v992h86v-965q0 -231 -133.5 -362.5t-359.5 -131.5t-360 131.5t-134 362.5v965zM672 1585q-5 -5 -8.5 -9t-5.5 -8.5t-3 -7.5t-1.5 -8.5t-0.5 -8.5v-11.5v-13.5h-69v9q0 26 1 39t9 31.5t24 32.5
q14 12 44.5 28t47 33t19.5 44q4 52 -21.5 81t-72.5 29q-46 1 -69 -23t-23 -59h-70q-3 70 43.5 112.5t118.5 39.5q81 0 126.5 -52.5t37.5 -129.5q-3 -35 -19 -60.5t-33 -37t-40.5 -25.5t-34.5 -25z" />
    <glyph glyph-name="uni1EE7" unicode="&#x1ee7;" horiz-adv-x="1024" 
d="M123 971h78v-582q0 -149 90 -242.5t221 -93.5t221 93.5t90 242.5v582h78v-592q0 -177 -111.5 -288t-277.5 -111t-277.5 111t-111.5 288v592zM557 1161q-7 -7 -11 -12t-5.5 -12t-2 -10t0 -15.5t0.5 -17.5h-70q0 31 0.5 43.5t9 33.5t25.5 35q14 12 44 28t46.5 33t19.5 44
q4 52 -21.5 81t-72.5 29q-46 1 -69 -23t-23 -59h-70q-3 70 43.5 112.5t118.5 39.5q81 0 126.5 -52.5t37.5 -129.5q-3 -35 -19 -60.5t-33 -37t-40.5 -25.5t-34.5 -25z" />
    <glyph glyph-name="uni1EE8" unicode="&#x1ee8;" horiz-adv-x="1251" 
d="M131 1434h86v-992q0 -180 111.5 -284.5t296.5 -104.5t296 104.5t111 284.5v992h86v-183q27 1 45.5 9t34 28.5t17.5 55.5t-5 90h78q4 -56 2.5 -97t-15 -69.5t-28 -47t-37.5 -28.5t-44.5 -14t-47.5 -4v-705q0 -231 -133.5 -362.5t-359.5 -131.5t-360 131.5t-134 362.5v965z
M621 1518h-76l243 282h105z" />
    <glyph glyph-name="uni1EE9" unicode="&#x1ee9;" horiz-adv-x="1024" 
d="M123 971h78v-582q0 -149 90 -242.5t221 -93.5t221 93.5t90 242.5v582h78v-183q27 1 45.5 9t34 28.5t17.5 55.5t-5 90h78q4 -56 2.5 -97t-15 -69.5t-28 -47t-37.5 -28.5t-44.5 -14t-47.5 -4v-332q0 -177 -111.5 -288t-277.5 -111t-277.5 111t-111.5 288v592zM473 1094h-76
l244 282h104z" />
    <glyph glyph-name="uni1EEA" unicode="&#x1eea;" horiz-adv-x="1251" 
d="M131 1434h86v-992q0 -180 111.5 -284.5t296.5 -104.5t296 104.5t111 284.5v992h86v-183q27 1 45.5 9t34 28.5t17.5 55.5t-5 90h78q4 -56 2.5 -97t-15 -69.5t-28 -47t-37.5 -28.5t-44.5 -14t-47.5 -4v-705q0 -231 -133.5 -362.5t-359.5 -131.5t-360 131.5t-134 362.5v965z
M784 1516h-75l-273 282h105z" />
    <glyph glyph-name="uni1EEB" unicode="&#x1eeb;" horiz-adv-x="1024" 
d="M123 971h78v-582q0 -149 90 -242.5t221 -93.5t221 93.5t90 242.5v582h78v-183q27 1 45.5 9t34 28.5t17.5 55.5t-5 90h78q4 -56 2.5 -97t-15 -69.5t-28 -47t-37.5 -28.5t-44.5 -14t-47.5 -4v-332q0 -177 -111.5 -288t-277.5 -111t-277.5 111t-111.5 288v592zM678 1094h-76
l-272 282h104z" />
    <glyph glyph-name="uni1EEC" unicode="&#x1eec;" horiz-adv-x="1251" 
d="M131 1434h86v-992q0 -180 111.5 -284.5t296.5 -104.5t296 104.5t111 284.5v992h86v-183q27 1 45.5 9t34 28.5t17.5 55.5t-5 90h78q4 -56 2.5 -97t-15 -69.5t-28 -47t-37.5 -28.5t-44.5 -14t-47.5 -4v-705q0 -231 -133.5 -362.5t-359.5 -131.5t-360 131.5t-134 362.5v965z
M678 1585q-5 -5 -8.5 -9t-5.5 -8.5t-3 -7.5t-1.5 -8.5t-0.5 -8.5v-11.5v-13.5h-69q0 31 0.5 43.5t9 33.5t25.5 35q14 12 44 28t46.5 33t19.5 44q4 52 -21.5 81t-72.5 29q-46 1 -69 -23t-23 -59h-70q-3 70 43.5 112.5t118.5 39.5q81 0 126.5 -52.5t37.5 -129.5
q-3 -35 -19 -60.5t-33 -37t-40.5 -25.5t-34.5 -25z" />
    <glyph glyph-name="uni1EED" unicode="&#x1eed;" horiz-adv-x="1024" 
d="M123 971h78v-582q0 -149 90 -242.5t221 -93.5t221 93.5t90 242.5v582h78v-183q27 1 45.5 9t34 28.5t17.5 55.5t-5 90h78q4 -56 2.5 -97t-15 -69.5t-28 -47t-37.5 -28.5t-44.5 -14t-47.5 -4v-332q0 -177 -111.5 -288t-277.5 -111t-277.5 111t-111.5 288v592zM567 1161
q-7 -7 -11 -12t-5.5 -12t-2 -10t0 -15.5t0.5 -17.5h-70q0 31 0.5 43.5t9 33.5t25.5 35q14 12 44.5 28t47 33t19.5 44q4 51 -22 80.5t-73 29.5q-46 1 -69 -23t-23 -59h-69q-3 70 43.5 112.5t117.5 39.5q81 0 126.5 -52.5t37.5 -129.5q-3 -35 -19 -60.5t-33 -37t-40.5 -25.5
t-34.5 -25z" />
    <glyph glyph-name="uni1EEE" unicode="&#x1eee;" horiz-adv-x="1251" 
d="M131 1434h86v-992q0 -180 111.5 -284.5t296.5 -104.5t296 104.5t111 284.5v992h86v-183q27 1 45.5 9t34 28.5t17.5 55.5t-5 90h78q4 -56 2.5 -97t-15 -69.5t-28 -47t-37.5 -28.5t-44.5 -14t-47.5 -4v-705q0 -231 -133.5 -362.5t-359.5 -131.5t-360 131.5t-134 362.5v965z
M408 1548h-62q12 74 53 127.5t109 53.5q48 0 143 -56q4 -2 16 -8.5t16.5 -9.5t15 -8.5t16 -8t14 -6.5t14.5 -6t13 -4t13 -3t11 -1q48 0 71 30t32 81h61q-12 -74 -53 -127.5t-109 -53.5q-20 0 -47.5 10t-44 18.5t-51.5 27.5q-93 55 -129 55q-48 0 -70.5 -29.5t-31.5 -81.5z
" />
    <glyph glyph-name="uni1EEF" unicode="&#x1eef;" horiz-adv-x="1024" 
d="M123 971h78v-582q0 -149 90 -242.5t221 -93.5t221 93.5t90 242.5v582h78v-183q27 1 45.5 9t34 28.5t17.5 55.5t-5 90h78q4 -56 2.5 -97t-15 -69.5t-28 -47t-37.5 -28.5t-44.5 -14t-47.5 -4v-332q0 -177 -111.5 -288t-277.5 -111t-277.5 111t-111.5 288v592zM315 1124h-55
q12 79 49 136t99 57q46 0 129 -60q5 -3 18.5 -12t19.5 -12.5t17 -10.5t17.5 -10t15 -7t15.5 -5.5t13 -1.5q76 0 95 119h55q-10 -79 -48 -136t-100 -57q-9 0 -20.5 3t-19.5 6t-23 10.5t-21 11t-23.5 14t-21.5 13.5q-30 21 -44.5 30.5t-35.5 19t-36 9.5q-44 0 -65 -31.5
t-30 -85.5z" />
    <glyph glyph-name="uni1EF0" unicode="&#x1ef0;" horiz-adv-x="1251" 
d="M131 1434h86v-992q0 -180 111.5 -284.5t296.5 -104.5t296 104.5t111 284.5v992h86v-183q27 1 45.5 9t34 28.5t17.5 55.5t-5 90h78q4 -56 2.5 -97t-15 -69.5t-28 -47t-37.5 -28.5t-44.5 -14t-47.5 -4v-705q0 -231 -133.5 -362.5t-359.5 -131.5t-360 131.5t-134 362.5v965z
M629 -217q-23 0 -39.5 16t-16.5 39t16.5 39.5t39.5 16.5t39 -16.5t16 -39.5t-16 -39t-39 -16z" />
    <glyph glyph-name="uni1EF1" unicode="&#x1ef1;" horiz-adv-x="1024" 
d="M123 971h78v-582q0 -149 90 -242.5t221 -93.5t221 93.5t90 242.5v582h78v-183q27 1 45.5 9t34 28.5t17.5 55.5t-5 90h78q4 -56 2.5 -97t-15 -69.5t-28 -47t-37.5 -28.5t-44.5 -14t-47.5 -4v-332q0 -177 -111.5 -288t-277.5 -111t-277.5 111t-111.5 288v592zM514 -217
q-23 0 -39 16t-16 39t16 39.5t39 16.5t39 -16.5t16 -39.5t-16 -39t-39 -16z" />
    <glyph glyph-name="Ygrave" unicode="&#x1ef2;" 
d="M745 1518h-75l-273 282h105zM922 1434h86v-392q0 -100 -33 -184.5t-88 -140.5t-126.5 -87.5t-148.5 -31.5v-598h-86v598q-77 0 -148 31.5t-126 87.5t-88 140.5t-33 184.5v392h86v-398q0 -161 98.5 -260.5t253.5 -99.5t254 99.5t99 260.5v398z" />
    <glyph glyph-name="ygrave" unicode="&#x1ef3;" horiz-adv-x="1024" 
d="M684 1094h-76l-272 282h104zM555 -442h-86v426q-150 12 -248 121t-98 274v592h78v-582q0 -149 90 -242.5t221 -93.5t221 93.5t90 242.5v582h78v-592q0 -165 -98 -274t-248 -121v-426z" />
    <glyph glyph-name="uni1EF4" unicode="&#x1ef4;" 
d="M922 1434h86v-392q0 -100 -33 -184.5t-88 -140.5t-126.5 -87.5t-148.5 -31.5v-598h-86v598q-77 0 -148 31.5t-126 87.5t-88 140.5t-33 184.5v392h86v-398q0 -161 98.5 -260.5t253.5 -99.5t254 99.5t99 260.5v398zM571 -217q-23 0 -39 16t-16 39t16 39.5t39 16.5
t39.5 -16.5t16.5 -39.5t-16.5 -39t-39.5 -16z" />
    <glyph glyph-name="uni1EF5" unicode="&#x1ef5;" horiz-adv-x="1024" 
d="M555 -442h-86v426q-150 12 -248 121t-98 274v592h78v-582q0 -149 90 -242.5t221 -93.5t221 93.5t90 242.5v582h78v-592q0 -165 -98 -274t-248 -121v-426zM514 -600q-23 0 -39 16t-16 39t16 39.5t39 16.5t39 -16.5t16 -39.5t-16 -39t-39 -16z" />
    <glyph glyph-name="uni1EF6" unicode="&#x1ef6;" 
d="M922 1434h86v-392q0 -100 -33 -184.5t-88 -140.5t-126.5 -87.5t-148.5 -31.5v-598h-86v598q-77 0 -148 31.5t-126 87.5t-88 140.5t-33 184.5v392h86v-398q0 -161 98.5 -260.5t253.5 -99.5t254 99.5t99 260.5v398zM606 1585q-7 -7 -11 -12t-5.5 -12t-2 -10t0 -15.5
t0.5 -17.5h-70q0 31 0.5 43.5t9 33.5t25.5 35q14 12 44.5 28t47 33t19.5 44q4 51 -22 80.5t-73 29.5q-46 1 -69 -23t-23 -59h-69q-3 70 43.5 112.5t117.5 39.5q81 0 126.5 -52.5t37.5 -129.5q-3 -35 -19 -60.5t-33 -37t-40.5 -25.5t-34.5 -25z" />
    <glyph glyph-name="uni1EF7" unicode="&#x1ef7;" horiz-adv-x="1024" 
d="M555 -442h-86v426q-150 12 -248 121t-98 274v592h78v-582q0 -149 90 -242.5t221 -93.5t221 93.5t90 242.5v582h78v-592q0 -165 -98 -274t-248 -121v-426zM551 1161q-5 -5 -8.5 -9t-5.5 -8.5t-3 -7.5t-1.5 -8.5t-0.5 -8.5v-11.5v-13.5h-69q0 31 0.5 43.5t9 33.5t25.5 35
q14 12 44 28t46.5 33t19.5 44q4 52 -21.5 81t-72.5 29q-46 1 -69 -23t-23 -59h-70q-3 70 43.5 112.5t118.5 39.5q81 0 126.5 -52.5t37.5 -129.5q-3 -35 -19 -60.5t-33 -37t-40.5 -25.5t-34.5 -25z" />
    <glyph glyph-name="uni1EF8" unicode="&#x1ef8;" 
d="M922 1434h86v-392q0 -100 -33 -184.5t-88 -140.5t-126.5 -87.5t-148.5 -31.5v-598h-86v598q-77 0 -148 31.5t-126 87.5t-88 140.5t-33 184.5v392h86v-398q0 -161 98.5 -260.5t253.5 -99.5t254 99.5t99 260.5v398zM332 1548h-62q12 74 53 127.5t109 53.5q48 0 143 -56
q100 -55 130 -55q48 0 70.5 29.5t31.5 81.5h61q-12 -74 -52.5 -127.5t-108.5 -53.5q-42 0 -144 56q-93 55 -129 55q-48 0 -70.5 -29.5t-31.5 -81.5z" />
    <glyph glyph-name="uni1EF9" unicode="&#x1ef9;" horiz-adv-x="1024" 
d="M666 -442h-86v426q-150 12 -248.5 121t-98.5 274v592h78v-582q0 -149 90.5 -242.5t221.5 -93.5t221 93.5t90 242.5v582h78v-592q0 -165 -98 -274t-248 -121v-426zM387 1124h-61q12 74 52.5 127.5t108.5 53.5q49 0 144 -56q4 -2 16 -8.5t16.5 -9.5t15 -8.5t16 -8t14 -6.5
t14.5 -6t13 -4t13 -3t11 -1q48 0 70.5 29.5t31.5 81.5h62q-12 -74 -53 -127.5t-109 -53.5q-42 0 -144 56q-93 55 -129 55q-48 0 -70.5 -29.5t-31.5 -81.5z" />
    <glyph glyph-name="endash" unicode="&#x2013;" horiz-adv-x="1024" 
d="M0 446v78h1024v-78h-1024z" />
    <glyph glyph-name="emdash" unicode="&#x2014;" horiz-adv-x="2048" 
d="M0 446v78h2048v-78h-2048z" />
    <glyph glyph-name="quoteleft" unicode="&#x2018;" horiz-adv-x="454" 
d="M299 1118h-74l-69 316h86z" />
    <glyph glyph-name="quoteright" unicode="&#x2019;" horiz-adv-x="454" 
d="M229 1118h-73l57 316h86z" />
    <glyph glyph-name="quotesinglbase" unicode="&#x201a;" horiz-adv-x="454" 
d="M229 -168h-73l57 315h86z" />
    <glyph glyph-name="quotedblleft" unicode="&#x201c;" horiz-adv-x="681" 
d="M545 1118h-74l-70 316h86zM279 1118h-74l-70 316h86z" />
    <glyph glyph-name="quotedblright" unicode="&#x201d;" horiz-adv-x="681" 
d="M211 1118h-74l58 316h86zM477 1118h-74l58 316h86z" />
    <glyph glyph-name="quotedblbase" unicode="&#x201e;" horiz-adv-x="681" 
d="M211 -168h-74l58 315h86zM477 -168h-74l58 315h86z" />
    <glyph glyph-name="dagger" unicode="&#x2020;" horiz-adv-x="1024" 
d="M180 928v110l307 -26l-30 422h108l-30 -422l309 26v-110l-309 30q-4 -74 13 -208t17 -136q0 -6 -10 -100.5t-19.5 -280t-7.5 -417.5h-32q2 232 -7.5 417.5t-19.5 280t-10 100.5q0 2 17 136t13 208z" />
    <glyph glyph-name="daggerdbl" unicode="&#x2021;" horiz-adv-x="1024" 
d="M844 199l-309 26l30 -422h-108l30 422l-307 -26v110l309 -30q3 54 -4.5 130.5t-16.5 137.5t-9 71t9 71t16.5 138t4.5 131l-309 -30v110l307 -26l-30 422h108l-30 -422l309 26v-110l-309 30q-3 -54 4.5 -131t16.5 -138t9 -71t-9 -71t-16.5 -137.5t-4.5 -130.5l309 30v-110
z" />
    <glyph glyph-name="bullet" unicode="&#x2022;" horiz-adv-x="1024" 
d="M154 717q0 149 104.5 253.5t253.5 104.5t253.5 -104.5t104.5 -253.5t-104.5 -254t-253.5 -105t-253.5 105t-104.5 254z" />
    <glyph glyph-name="ellipsis" unicode="&#x2026;" horiz-adv-x="2048" 
d="M264 66q0 32 23 54.5t55 22.5t55 -22.5t23 -54.5t-23 -55t-55 -23t-55 23t-23 55zM946 66q0 32 23 54.5t55 22.5t55 -22.5t23 -54.5t-23 -55t-55 -23t-55 23t-23 55zM1628 66q0 32 23 54.5t55 22.5t55 -22.5t23 -54.5t-23 -55t-55 -23t-55 23t-23 55z" />
    <glyph glyph-name="perthousand" unicode="&#x2030;" horiz-adv-x="2048" 
d="M1948 281q0 93 -66 160t-162 67t-161.5 -67t-65.5 -160t65.5 -160.5t161.5 -67.5t162 67.5t66 160.5zM205 -25h-76l946 1483h80zM549 1153q0 93 -65.5 160t-161.5 67t-162 -67t-66 -160t66 -160t162 -67t161.5 67t65.5 160zM1720 586q126 0 218 -89.5t92 -215.5t-92 -216
t-218 -90t-217.5 90t-91.5 216t91.5 215.5t217.5 89.5zM322 1458q126 0 217.5 -89.5t91.5 -215.5t-91.5 -215.5t-217.5 -89.5t-218 89.5t-92 215.5t92 215.5t218 89.5zM952 586q126 0 218 -89.5t92 -215.5t-92 -216t-218 -90t-217.5 90t-91.5 216t91.5 215.5t217.5 89.5z
M1180 281q0 93 -66 160t-162 67t-161.5 -67t-65.5 -160t65.5 -160.5t161.5 -67.5t162 67.5t66 160.5z" />
    <glyph glyph-name="guilsinglleft" unicode="&#x2039;" horiz-adv-x="569" 
d="M446 168h-96l-246 317l246 318h96l-245 -318z" />
    <glyph glyph-name="guilsinglright" unicode="&#x203a;" horiz-adv-x="569" 
d="M219 168h-96l246 317l-246 318h96l246 -318z" />
    <glyph glyph-name="fraction" unicode="&#x2044;" horiz-adv-x="342" 
d="M-266 -25h-76l946 1483h80z" />
    <glyph glyph-name="Euro" unicode="&#x20ac;" 
d="M866 586h-561q17 -101 62 -186t106.5 -143.5t137.5 -99.5t156.5 -60t162.5 -19h160v-78h-177q-164 0 -310 66t-253 201.5t-135 318.5h-147v78h139q-2 18 -2 53q0 63 10 131h-147v78h163q43 160 149 277t243.5 174t289.5 57h179v-78h-162q-95 0 -187.5 -26.5t-175 -78
t-147 -135.5t-96.5 -190h542v-78h-561q-10 -68 -10 -131q0 -37 2 -53h569v-78z" />
    <glyph glyph-name="afii61289" unicode="&#x2113;" horiz-adv-x="956" 
d="M850 262l53 -37q-129 -237 -356 -237q-82 0 -145 32.5t-100 90t-55.5 128.5t-19.5 154v29q-22 -19 -68 -58t-57 -49l-34 60q114 94 159 141v588q0 109 17.5 194t45.5 136.5t66.5 84.5t76 45.5t77.5 12.5q113 0 173 -87.5t60 -223.5q0 -190 -114 -382t-324 -397v-55
q1 -101 22 -176.5t57.5 -118.5t80 -63.5t94.5 -20.5q97 0 173 63t118 146zM305 1120v-538q85 91 145 165t114.5 160.5t82 173.5t27.5 174q0 117 -41 184.5t-129 67.5q-35 0 -68.5 -21t-63.5 -64t-48.5 -121t-18.5 -181z" />
    <glyph glyph-name="trademark" unicode="&#x2122;" horiz-adv-x="2027" 
d="M829 1434v-78h-288v-766h-78v766h-289v78h655zM1130 1434l293 -709l293 709h137v-844h-77v753h-4l-330 -753h-37l-330 753h-4v-753h-78v844h137z" />
    <glyph glyph-name="Omega" unicode="&#x2126;" horiz-adv-x="1495" 
d="M442 72v6q-131 112 -214 286t-83 388q0 157 48 290t131 222t194 138.5t236 49.5q171 0 308.5 -92.5t212.5 -251t75 -350.5q0 -222 -87.5 -402t-211.5 -278v-6h327v-72h-463v53q147 95 249 279t102 416q0 85 -20.5 172.5t-63 170.5t-102 147t-144 103t-182.5 39
q-157 0 -278 -87t-184 -230.5t-63 -317.5q0 -219 104 -409.5t245 -282.5v-53h-461v72h325z" />
    <glyph glyph-name="estimated" unicode="&#x212e;" horiz-adv-x="1787" 
d="M1716 696h-1333q-10 0 -10 -8v-403q0 -28 16 -47q100 -103 230 -161.5t274 -58.5q156 0 293.5 65.5t238.5 180.5h117q-110 -133 -282 -210t-369 -77q-167 0 -319 58.5t-262 157t-175 235.5t-65 287q0 152 65 289.5t175 237t262 158t319 58.5q168 0 321 -58.5t263.5 -158
t175.5 -237t65 -289.5v-19zM1413 750v405q0 29 -18 47q-102 99 -230.5 155t-271.5 56q-142 0 -272 -58t-230 -159q-18 -18 -18 -51v-395q0 -15 10 -15h1022q8 0 8 15z" />
    <glyph glyph-name="partialdiff" unicode="&#x2202;" horiz-adv-x="1083" 
d="M207 1425l-39 60q136 110 319 110q75 0 144.5 -28.5t132.5 -90.5t109.5 -150.5t74 -217.5t27.5 -283q0 -175 -31.5 -325.5t-93 -266.5t-160 -182.5t-223.5 -66.5q-92 0 -165 38.5t-117.5 104.5t-67.5 148t-23 174q0 114 36 211.5t96 162.5t137.5 101.5t160.5 36.5
q72 0 137.5 -24t110 -61t73 -70t44.5 -63h2q2 29 2 103q0 155 -34.5 285.5t-91.5 215t-130.5 131t-153.5 46.5q-156 0 -276 -99zM473 53h2q107 0 194 80t139 210t69 290q-15 42 -45 85.5t-73 83t-103 64.5t-124 25q-143 0 -248.5 -127t-105.5 -309q0 -177 81 -289.5
t214 -112.5z" />
    <glyph glyph-name="Delta" unicode="&#x2206;" horiz-adv-x="1318" 
d="M70 0v74l544 1396h93l542 -1396v-74h-1179zM154 70h1003l-346 903q-16 46 -74.5 191t-74.5 198h-11q-9 -34 -32.5 -97t-55 -141.5t-45.5 -115.5z" />
    <glyph glyph-name="product" unicode="&#x220f;" horiz-adv-x="1406" 
d="M1348 1352h-234v-1549h-82v1549h-661v-1549h-80v1549h-236v75h1293v-75z" />
    <glyph glyph-name="summation" unicode="&#x2211;" horiz-adv-x="1130" 
d="M1079 -197h-1032v60l588 747l-561 758v59h975v-73h-850v-8l536 -725l-573 -730v-8h917v-80z" />
    <glyph glyph-name="minus" unicode="&#x2212;" horiz-adv-x="1228" 
d="M1098 444h-967v82h967v-82z" />
    <glyph glyph-name="uni2215" unicode="&#x2215;" horiz-adv-x="342" 
d="M-266 -25h-76l946 1483h80z" />
    <glyph glyph-name="uni2219" unicode="&#x2219;" horiz-adv-x="569" 
d="M209 485q0 31 22.5 53.5t53.5 22.5t53 -22.5t22 -53.5t-22 -53t-53 -22t-53.5 22t-22.5 53z" />
    <glyph glyph-name="radical" unicode="&#x221a;" horiz-adv-x="1142" 
d="M1135 1688l-453 -2005h-88l-344 983l-154 -58l-24 60l235 90l295 -836q29 -119 31 -131h2q3 15 12 58.5t12 64.5l404 1774h72z" />
    <glyph glyph-name="infinity" unicode="&#x221e;" horiz-adv-x="1589" 
d="M1481 596v-2q0 -134 -89.5 -220.5t-211.5 -86.5q-40 0 -79.5 13t-70 30t-75 55.5t-73 66.5t-85.5 87q-102 -112 -151 -152q-120 -100 -243 -100q-121 0 -207.5 89t-86.5 212q0 131 87 219t220 88q46 0 92 -16.5t80 -37t79 -61t69 -66t69 -75.5q106 117 152 156
q117 100 239 100q131 0 208 -83t77 -216zM414 354h2q34 0 69.5 12.5t61.5 27t61 44.5t52.5 48t52.5 54.5t45 47.5q-95 110 -140 149q-108 94 -219 94q-100 0 -158.5 -72.5t-58.5 -172.5q0 -99 64 -165.5t168 -66.5zM1188 831h-2q-51 0 -107.5 -29.5t-89 -59t-84.5 -84
t-63 -64.5q53 -56 81 -84t68 -64t68 -52t61.5 -28t67.5 -12q101 0 161 70.5t60 165.5q0 114 -62.5 177.5t-158.5 63.5z" />
    <glyph glyph-name="integral" unicode="&#x222b;" horiz-adv-x="681" 
d="M655 1700l-24 -60q-31 23 -78 23q-64 0 -104 -45q-43 -49 -60.5 -136.5t-17.5 -244.5q0 -155 13 -528t13 -529q0 -290 -98 -416q-58 -77 -162 -77q-32 0 -67 11t-52 23l23 64q43 -27 96 -27q59 0 99 49q79 101 79 375q0 157 -13 534.5t-13 530.5q0 164 23 261t79 153
q64 70 160 70q27 0 57 -9.5t47 -21.5z" />
    <glyph glyph-name="approxequal" unicode="&#x2248;" horiz-adv-x="1173" 
d="M1024 854l43 -37q-91 -182 -254 -182q-13 0 -26 1.5t-22.5 2.5t-24 5.5t-22 6t-24 9t-22 9.5t-25.5 12t-24.5 12.5t-28.5 14.5t-29 15q-125 70 -203 70q-68 0 -117 -41t-93 -115l-48 35q48 90 117.5 138t155.5 48q35 0 72.5 -11t60.5 -22.5t58.5 -31.5t45.5 -25
q11 -5 34.5 -17.5t34 -17.5t30.5 -13.5t34 -12t34 -6.5t40 -3q63 0 110.5 37.5t92.5 118.5zM1024 524l43 -35q-91 -182 -254 -182q-13 0 -25.5 1.5t-23 2.5t-24 5t-21.5 6.5t-23.5 9t-22.5 9.5t-25.5 12.5t-25 13t-28 15t-29.5 15.5q-46 24 -68.5 35t-60.5 23t-71 12
q-70 0 -119 -41.5t-94 -116.5l-48 35q97 186 273 186q36 0 73 -10.5t60 -22t57.5 -30.5t46.5 -25q91 -49 130 -60q38 -11 77 -11q64 0 110.5 36.5t92.5 116.5z" />
    <glyph glyph-name="notequal" unicode="&#x2260;" horiz-adv-x="1173" 
d="M815 1020l-102 -215h350v-66h-379l-149 -315h528v-66h-557l-117 -247l-55 26l104 221h-329v66h360l147 315h-507v66h536l115 244z" />
    <glyph glyph-name="lessequal" unicode="&#x2264;" horiz-adv-x="1173" 
d="M1059 193l-938 464v68l936 465v-84l-856 -412v-4l858 -416v-81zM1063 35h-954v69h954v-69z" />
    <glyph glyph-name="greaterequal" unicode="&#x2265;" horiz-adv-x="1173" 
d="M121 1190l938 -465v-68l-938 -464v81l856 414v4l-856 414v84zM1063 35h-954v69h954v-69z" />
    <glyph glyph-name="lozenge" unicode="&#x25ca;" horiz-adv-x="1146" 
d="M1026 713l-420 -801h-69l-418 801l420 803h69zM944 711l-334 630q-25 56 -39 99h-4q-12 -44 -39 -99l-329 -624l336 -635q28 -64 36 -94h7q11 42 36 94z" />
    <glyph glyph-name="_433" horiz-adv-x="751" 
d="M610 1309h62q-10 -108 -88.5 -176t-188.5 -68q-108 0 -186 69t-82 175h61q7 -77 67.5 -128t139.5 -51q87 0 144.5 47.5t70.5 131.5zM180 1438h-61q12 74 53 127t109 53q50 0 143 -55q6 -3 20.5 -11t21 -12t19 -10.5t20 -9.5t17 -6.5t17 -5t14.5 -1.5q48 0 70.5 29.5
t31.5 81.5h62q-12 -74 -53 -127t-109 -53q-43 0 -143 55q-93 55 -129 55q-48 0 -71 -29.5t-32 -80.5z" />
    <glyph glyph-name="_434" horiz-adv-x="690" 
d="M559 1309h62q-10 -108 -88.5 -176t-188.5 -68q-108 0 -186 69t-82 175h61q7 -77 67.5 -128t139.5 -51q87 0 144.5 47.5t70.5 131.5zM393 1436q-7 -7 -11 -12t-5.5 -12.5t-2 -10.5t0 -15.5t0.5 -17.5h-70q0 31 0.5 43.5t9 34t25.5 35.5q14 12 44.5 28t47 32.5t19.5 43.5
q4 52 -22 81.5t-73 29.5q-46 1 -69 -23t-23 -59h-69q-3 70 43 112t118 39q81 0 126.5 -52.5t37.5 -129.5q-4 -46 -25.5 -72t-56 -45t-45.5 -30z" />
    <glyph glyph-name="_435" horiz-adv-x="675" 
d="M555 1309h61q-10 -108 -88 -176t-188 -68q-108 0 -186 69t-82 175h61q7 -77 67.5 -128t139.5 -51q87 0 144.5 47.5t70.5 131.5zM299 1368h-76l244 283h104z" />
    <glyph glyph-name="_436" horiz-adv-x="729" 
d="M412 1376l223 -282h-86l-193 233l-192 -233h-82l219 282h111zM125 1466h-62q12 74 53 127.5t109 53.5q49 0 144 -56q4 -2 16 -8.5t16.5 -9.5t15 -8.5t16 -8t14 -6.5t14.5 -6t13 -4t13 -3t11 -1q48 0 70.5 29.5t31.5 81.5h62q-12 -74 -53 -127.5t-109 -53.5q-42 0 -144 56
q-93 55 -129 55q-48 0 -70.5 -29.5t-31.5 -81.5z" />
    <glyph glyph-name="_437" horiz-adv-x="729" 
d="M401 1376l224 -282h-86l-193 233l-192 -233h-82l219 282h110zM639 1436q-7 -7 -11 -12t-5.5 -12.5t-2 -10.5t0 -15.5t0.5 -17.5h-70q0 31 0.5 43.5t9 34t25.5 35.5q14 12 44 28t46.5 32.5t19.5 43.5q4 52 -21.5 81.5t-72.5 29.5q-46 1 -69 -23t-23 -59h-70
q-3 69 43.5 111.5t118.5 39.5q81 0 126.5 -52.5t37.5 -129.5q-4 -46 -25.5 -72t-56 -45t-45.5 -30z" />
    <glyph glyph-name="_438" horiz-adv-x="745" 
d="M406 1376l223 -282h-86l-193 233l-192 -233h-82l219 282h111zM664 1368h-76l-273 283h105z" />
    <glyph glyph-name="_439" horiz-adv-x="784" 
d="M440 1376l224 -282h-86l-193 233l-192 -233h-82l219 282h110zM631 1366h-76l244 283h104z" />
    <glyph glyph-name="_440" horiz-adv-x="716" 
d="M563 1309h62q-10 -108 -88.5 -176t-188.5 -68q-108 0 -186 69t-82 175h61q7 -77 67.5 -128t139.5 -51q87 0 144.5 47.5t70.5 131.5zM483 1366h-75l-273 283h105z" />
    </font>
</defs>
</svg>
