<svg xmlns="http://www.w3.org/2000/svg" width="88" height="128" fill="none" xmlns:v="https://vecta.io/nano"><g clip-path="url(#A)" stroke="#fff"><path d="M84.557.489l-.021.002-.021.003c-.607.099-1.144.404-1.62.764-.469.356-.914.795-1.329 1.205l-.013.013-43.369 42.872c-.439.432-.852.891-1.236 1.373l-.001.001c-.813 1.028-1.277 2.001-1.272 3.027s.479 1.997 1.303 3.026h0l.003.004c.46.563.951 1.1 1.471 1.608L73.669 89.27l9.029 8.859.309-.32-.309.32c.322.311.735.68 1.221.891.516.224 1.113.269 1.744-.062 1.231-.645 1.417-1.921 1.387-2.975v-.01l-.001-.01a6.04 6.04 0 0 0-.642-2.326c-.521-1.071-1.165-2.078-1.918-3L53.292 50.301l-.001-.001c-.256-.328-.299-.483-.299-.575s.044-.247.299-.574h0L84.154 9.402c.975-1.216 1.834-2.52 2.565-3.897h0l.004-.007c.773-1.511.42-2.921-.296-4.191-.165-.293-.397-.535-.739-.681-.326-.139-.704-.17-1.131-.137z" fill="#078770"/><path d="M49.357 14.174l-.021.002-.021.003c-.607.099-1.144.404-1.62.764-.469.356-.914.795-1.329 1.205l-.013.013L2.986 59.033c-.44.432-.852.891-1.236 1.373l-.001.001C.937 61.435.473 62.408.478 63.434s.479 1.998 1.303 3.026h0l.003.004c.46.563.951 1.1 1.471 1.608l35.213 34.882 9.03 8.861.333-.345-.333.345c.322.311.735.68 1.221.891a1.94 1.94 0 0 0 1.744-.062c1.231-.645 1.417-1.921 1.387-2.975v-.01l-.001-.01c-.056-.81-.274-1.601-.642-2.326a15.35 15.35 0 0 0-1.918-3L18.092 63.986l-.001-.001c-.256-.328-.299-.483-.299-.575s.044-.247.299-.574h0l30.862-39.749c.975-1.216 1.833-2.52 2.565-3.897h0l.004-.007c.773-1.511.42-2.921-.296-4.191-.165-.293-.398-.535-.739-.681-.326-.139-.705-.17-1.131-.137z" fill="#003d21" fill-opacity=".8"/><path d="M84.557 27.848l-.021.002-.021.003c-.607.099-1.144.403-1.62.764-.469.356-.915.796-1.329 1.205l-.013.012-43.369 42.872a15.1 15.1 0 0 0-1.236 1.373l-.001.001c-.813 1.028-1.277 2.001-1.272 3.027s.479 1.997 1.303 3.026h0l.003.004c.46.563.951 1.1 1.471 1.608l35.213 34.882 9.03 8.861.347-.36-.347.36c.322.311.735.68 1.221.891.516.223 1.113.268 1.744-.062 1.231-.645 1.417-1.922 1.387-2.975v-.01l-.001-.01c-.056-.811-.274-1.601-.642-2.326-.521-1.071-1.165-2.078-1.918-3L53.292 77.66l-.001-.001c-.256-.328-.299-.483-.299-.575s.044-.247.299-.574h0l30.862-39.749a24.92 24.92 0 0 0 2.565-3.897h0l.004-.007c.773-1.511.42-2.921-.296-4.191-.165-.293-.397-.535-.739-.681-.326-.139-.704-.171-1.131-.137z" fill="#06727d" fill-opacity=".9"/></g><defs><clipPath id="A"><path fill="#fff" d="M0 0h88v128H0z"/></clipPath></defs></svg>