<svg xmlns="http://www.w3.org/2000/svg" viewBox="0 0 114.77 87.99"><defs><style>.cls-1{fill:#00703c;}.cls-2{fill:#fff;}</style></defs><g id="Layer_2" data-name="Layer 2"><g id="Layer_1-2" data-name="Layer 1"><path class="cls-1" d="M109.21,25.79c-4-3.9-2.57-9.91-2.57-9.91-10.25-.55-8-8.71-8-8.71A33.93,33.93,0,0,1,82.89,4.5C72.31.17,59.65,0,57.39,0S42.46.17,31.88,4.5A33.91,33.91,0,0,1,16.14,7.17s2.25,8.16-8,8.71c0,0,1.44,6-2.57,9.91-3.64,3.56-8,11.28-3.89,17.93,0,0-4.86,6.74,2.38,16,5.49,6.46,3.94,9,3.8,11.81,0,0,9.56.27,8.57,8.71,0,0,10-.7,17.71,3.65C41.67,88.16,52.67,88,57.39,88s15.72.17,23.25-4.08c7.73-4.35,17.71-3.65,17.71-3.65-1-8.44,8.57-8.71,8.57-8.71-.13-2.82-1.68-5.35,3.8-11.81,7.24-9.28,2.39-16,2.39-16,4.11-6.65-.25-14.37-3.9-17.93"/><path class="cls-2" d="M58.71,85.45H56.06c-5.89,0-14.43-.4-20.57-3.86-5.42-3.06-12.16-3.39-14.8-3.39-.91,0-1.44,0-1.45,0l-.54,0,.06-.52a6.18,6.18,0,0,0-1.28-5c-2.17-2.51-6.24-2.66-6.28-2.66l-.45,0,0-.45c0-.43.08-.86.14-1.29.29-2.21.59-4.49-3.57-9.4C1.21,51.11,4.17,45,4.93,43.73c-3.92-6.68.78-14,3.84-17,3.52-3.41,2.29-8.76,2.28-8.81l-.13-.52.53,0c3-.16,5.11-1.05,6.26-2.65a6.43,6.43,0,0,0,.81-4.91l-.14-.51.52,0a10.77,10.77,0,0,1,1.12,0c.43,0,1,0,1.6,0A32.24,32.24,0,0,0,33.46,6.77c9.81-4,21.56-4.23,23.82-4.23h.21c2.26,0,14,.21,23.84,4.23A32.15,32.15,0,0,0,93.16,9.28c.63,0,1.17,0,1.6,0a10.77,10.77,0,0,1,1.12,0l.52,0-.14.51a6.43,6.43,0,0,0,.82,4.92c1.14,1.59,3.24,2.48,6.24,2.64l.53,0-.12.52c0,.05-1.23,5.41,2.27,8.81,3.07,3,7.76,10.34,3.85,17,.76,1.29,3.71,7.38-2.4,15.21-4.17,4.93-3.87,7.21-3.58,9.42.06.43.11.86.13,1.29l0,.45-.45,0s-4.12.15-6.28,2.66a6.2,6.2,0,0,0-1.29,5l.06.52-.53,0s-.55,0-1.46,0c-2.64,0-9.37.33-14.8,3.39-6.14,3.46-14.68,3.86-20.57,3.86m-1.32-.89h1.32c3.69,0,13.49,0,20.14-3.74,5.61-3.16,12.52-3.51,15.23-3.51l1,0a6.86,6.86,0,0,1,1.55-5.13c2-2.3,5.25-2.82,6.46-2.94,0-.26-.06-.52-.1-.79-.3-2.28-.64-4.88,3.77-10.08C113.22,50.11,109,44.05,109,44l-.18-.24.16-.25c3.88-6.26-.64-13.3-3.57-16.15-3.24-3.16-2.85-7.64-2.61-9.15-3-.25-5.18-1.25-6.42-3a7,7,0,0,1-1.06-5.11l-.49,0c-.45,0-1,0-1.64,0A33.1,33.1,0,0,1,81,7.6c-9.67-4-21.28-4.17-23.51-4.17h-.21c-2.23,0-13.83.2-23.49,4.16a33,33,0,0,1-12.17,2.58c-.65,0-1.2,0-1.64,0l-.5,0a6.93,6.93,0,0,1-1.05,5.11C17.18,17,15,18,12,18.2c.24,1.51.63,6-2.62,9.15C6.47,30.2,2,37.24,5.82,43.5l.16.25L5.81,44C5.63,44.24,1.58,50.14,8,58.4c4.41,5.19,4.07,7.79,3.76,10.07,0,.27-.07.53-.09.79,1.21.12,4.47.64,6.46,2.94a6.86,6.86,0,0,1,1.54,5.13l1,0c2.71,0,9.63.35,15.23,3.51,6.65,3.74,16.45,3.74,20.14,3.74Z"/></g></g></svg>