<svg xmlns="http://www.w3.org/2000/svg" viewBox="0 0 54.27 34.79"><defs><style>.cls-1{fill:#fff;fill-rule:evenodd;}</style></defs><g id="Layer_2" data-name="Layer 2"><g id="Layer_1-2" data-name="Layer 1"><path class="cls-1" d="M6.78,18.13c-.4-1-.5-1.44-1.61-1.2s-.93,1.9-.93,1.9C8.89,27.83,15.12,28,15.12,28c-5.94-1.72-7.94-8.81-8.34-9.83"/><path class="cls-1" d="M32.47,6.41c-2.47,1-4.61,2.25-2.22,3.33A9.27,9.27,0,0,0,35,10.91c1.24-.06,3.44.48,2.88,3.67S35.12,30.43,17.92,28.5c0,0,5.63,4.39,15.07-.89S43.85,14.94,43.3,11.19c0,0-.17-5.29-4.75-5.75a13.19,13.19,0,0,0-6.08,1"/><path class="cls-1" d="M25.51,10.43C3.37,14.74,4.14,9.78,13.77,6.2s16-1.07,21.77-1.37,2.76-3,2.76-3C35.19-.92,32.94.31,29.49.11S14.17,3.53,11.71,4.58s-10.1,3-7.85,8,21.65-2.14,21.65-2.14"/><path class="cls-1" d="M46,8.82c1.18-.33,3.23,2.09,1.64,3.84a21.52,21.52,0,0,1-4.46,4.22s9.34-3.66,7.94-8S48.77,4.6,47.81,4.73c0,0-5.16.62-4.51,2.76S44.83,9.15,46,8.82"/><path class="cls-1" d="M42.46,28.26c-3.28,1.83-9,3.15-11.47,3.77s-6.12.72-10.43,1.54c-5.89,1.11-17.3-2.23-17.88-2.38C1.48,30.86-.15,30,0,30.6S2.37,32,2.37,32c1.43.79,6.89,1.58,9.15,2a17,17,0,0,0,6.15.65c3-.21,4.29.76,13.32-.62s11.38-4,16.74-6.71,6.54-5,6.54-5c-3.89,4-8.53,4.08-11.81,5.9"/><path class="cls-1" d="M9.13,16.91a16.85,16.85,0,0,0,4.59-.39c1.19-.28,2.35-1.11,2.13.07a8.23,8.23,0,0,0,1.28,4.84,6.14,6.14,0,0,0,3.79,3.19c3,1.24,4.22.33,5.11.83,0,0-2.45,1.89-8.33.35S9.41,21.5,8,17.44c0,0-.43-1,1.17-.53"/></g></g></svg>