<svg xmlns="http://www.w3.org/2000/svg" viewBox="0 0 73.36 9.62"><defs><style>.cls-1{fill:#00703c;}</style></defs><g id="Layer_2" data-name="Layer 2"><g id="Layer_1-2" data-name="Layer 1"><path class="cls-1" d="M6,1.19H5.08A3.56,3.56,0,0,0,1.32,4.73,3.35,3.35,0,0,0,4.6,8.27H6V9.46H4.6A4.55,4.55,0,0,1,0,4.73,4.83,4.83,0,0,1,5,0H6Z"/><path class="cls-1" d="M10,2.84a3.33,3.33,0,0,1,3.37,3.38,3.37,3.37,0,1,1-6.73,0A3.32,3.32,0,0,1,10,2.84m0,5.62a2.1,2.1,0,0,0,2.12-2.24,2.12,2.12,0,1,0-4.24,0A2.1,2.1,0,0,0,10,8.46"/><path class="cls-1" d="M14.5,9.46V2.37A2.2,2.2,0,0,1,16.8,0h1V1.14H17a1.11,1.11,0,0,0-1.27,1.2V3h2V4.11h-2V9.46Z"/><path class="cls-1" d="M18.26,9.46V2.37A2.2,2.2,0,0,1,20.56,0h1V1.14h-.84c-.79,0-1.27.37-1.27,1.2V3h1.94V4.11H19.45V9.46Z"/><path class="cls-1" d="M23.84,7.33l-.49-1L26.56,4.6A1.8,1.8,0,0,0,25.08,4,2.1,2.1,0,0,0,23,6.22a2.1,2.1,0,0,0,2.12,2.24c1.41,0,1.94-.84,2.18-2l1.2.15a3.26,3.26,0,0,1-3.38,3,3.32,3.32,0,0,1-3.36-3.38,3.39,3.39,0,0,1,6.5-1.33Z"/><path class="cls-1" d="M31.35,7.33l-.48-1,3.2-1.78A1.77,1.77,0,0,0,32.6,4a2.1,2.1,0,0,0-2.12,2.25A2.1,2.1,0,0,0,32.6,8.46c1.4,0,1.93-.84,2.17-2L36,6.58a3.27,3.27,0,0,1-3.38,3,3.33,3.33,0,0,1-3.37-3.38,3.39,3.39,0,0,1,6.5-1.33Z"/><path class="cls-1" d="M46.79,1.19H43c-.21,0-.27.07-.27.18a1.26,1.26,0,0,0,.3.55L47,7a1.93,1.93,0,0,0,.3-1.19,3.09,3.09,0,0,0-.89-2l.87-.89A3.93,3.93,0,0,1,47.84,8L49,9.46H47.44L47,8.94a4.15,4.15,0,0,1-2.42.68,3.83,3.83,0,0,1-4-3.85,3.78,3.78,0,0,1,1.61-3.15A2.27,2.27,0,0,1,41.5,1.3,1.26,1.26,0,0,1,42.87,0h3.92ZM42.92,3.58a2.71,2.71,0,0,0-1.05,2.17,2.62,2.62,0,0,0,2.65,2.68,2.57,2.57,0,0,0,1.73-.54Z"/><polygon class="cls-1" points="52.9 0 58.84 0 58.84 1.19 56.51 1.19 56.51 9.46 55.23 9.46 55.23 1.19 52.9 1.19 52.9 0"/><path class="cls-1" d="M61.4,7.33l-.49-1,3.2-1.78A1.77,1.77,0,0,0,62.64,4a2.1,2.1,0,0,0-2.12,2.25,2.1,2.1,0,0,0,2.12,2.24c1.41,0,1.93-.84,2.18-2l1.2.15a3.27,3.27,0,0,1-3.38,3,3.33,3.33,0,0,1-3.37-3.38,3.39,3.39,0,0,1,6.51-1.33Z"/><path class="cls-1" d="M72.17,9.46V5.81A1.91,1.91,0,0,0,70.06,4a2.15,2.15,0,0,0-2.14,2.27,2.14,2.14,0,0,0,2.13,2.22,2.1,2.1,0,0,0,1.63-.89V9a2.65,2.65,0,0,1-1.76.62,3.26,3.26,0,0,1-3.19-3.45,3.18,3.18,0,0,1,3.36-3.31,3,3,0,0,1,3.27,3.08V9.46Z"/></g></g></svg>