<svg xmlns="http://www.w3.org/2000/svg" viewBox="0 0 137.45 102.83" ><path d="M120.48,25.79c-4-3.9-2.57-9.91-2.57-9.91-10.26-.55-8-8.71-8-8.71A33.91,33.91,0,0,1,94.16,4.5C83.58.17,70.92,0,68.65,0S53.73.17,43.15,4.5A33.93,33.93,0,0,1,27.41,7.17s2.24,8.16-8,8.71c0,0,1.44,6-2.57,9.91-3.65,3.56-8,11.28-3.9,17.93,0,0-4.86,6.74,2.39,16,5.48,6.46,3.93,9,3.8,11.81,0,0,9.55.27,8.57,8.71,0,0,10-.7,17.71,3.65C52.93,88.16,63.94,88,68.65,88s15.72.17,23.26-4.08c7.73-4.35,17.71-3.65,17.71-3.65-1-8.44,8.57-8.71,8.57-8.71-.14-2.82-1.68-5.35,3.8-11.81,7.24-9.28,2.38-16,2.38-16,4.12-6.65-.25-14.37-3.89-17.93" fill="#00703c"/><path d="M70 85.45h-2.67c-5.89 0-14.43-.4-20.58-3.86C41.33 78.53 34.6 78.2 32 78.2h-1.46-.53l.06-.52a6.18 6.18 0 0 0-1.29-5c-2.17-2.51-6.23-2.66-6.27-2.66h-.46v-.45c0-.43.07-.86.13-1.29.29-2.21.59-4.49-3.57-9.4-6.13-7.77-3.18-13.88-2.42-15.15-3.91-6.68.78-14 3.85-17 3.51-3.41 2.28-8.76 2.27-8.81l-.12-.52h.53c3-.16 5.11-1.05 6.25-2.65a6.33 6.33 0 0 0 .81-4.91l-.14-.51h.52a11 11 0 0 1 1.13 0h1.59a32.16 32.16 0 0 0 11.84-2.56c9.81-4 21.57-4.23 23.83-4.23h.21c2.25 0 14 .21 23.83 4.23a32.15 32.15 0 0 0 11.83 2.51h1.6a10.77 10.77 0 0 1 1.12 0h.53l-.14.51a6.41 6.41 0 0 0 .81 4.92c1.15 1.59 3.25 2.48 6.25 2.64h.53l-.12.52c0 .05-1.24 5.41 2.26 8.81 3.07 3 7.77 10.34 3.85 17 .76 1.29 3.72 7.38-2.39 15.21-4.18 4.93-3.88 7.21-3.59 9.42a14.12 14.12 0 0 1 .14 1.29v.45h-.45s-4.11.15-6.28 2.66a6.2 6.2 0 0 0-1.28 5l.06.52h-.54-1.45c-2.64 0-9.38.33-14.8 3.39-6.12 3.43-14.66 3.83-20.53 3.83m-1.33-.89H70c3.68 0 13.48 0 20.13-3.74 5.61-3.16 12.53-3.51 15.24-3.51h1a6.82 6.82 0 0 1 1.55-5.13c2-2.3 5.25-2.82 6.45-2.94 0-.26-.06-.52-.09-.79-.31-2.28-.65-4.88 3.77-10.08 6.45-8.28 2.25-14.34 2.2-14.4l-.17-.24.16-.25c3.87-6.26-.64-13.3-3.57-16.15-3.25-3.16-2.86-7.64-2.61-9.15-3-.25-5.18-1.25-6.42-3a7 7 0 0 1-1.06-5.11h-.5-1.64A33.1 33.1 0 0 1 92.26 7.6c-9.67-4-21.27-4.17-23.5-4.17h-.21c-2.23 0-13.84.2-23.5 4.16a32.93 32.93 0 0 1-12.17 2.58h-1.63-.5a7 7 0 0 1-1.06 5.11c-1.24 1.73-3.4 2.73-6.42 3 .24 1.51.63 6-2.61 9.15-2.93 2.85-7.44 9.89-3.57 16.15l.15.25-.17.24c-.17.25-4.23 6.15 2.22 14.41 4.4 5.19 4.06 7.79 3.76 10.07 0 .27-.07.53-.1.79 1.21.12 4.47.64 6.46 2.94A6.82 6.82 0 0 1 31 77.33h1c2.71 0 9.62.35 15.23 3.51 6.65 3.74 16.45 3.74 20.14 3.74z" fill="#fff"/><path d="M6.6,69.07a20.38,20.38,0,0,1-.86,5.87c16.35-3.44,38.54-5.55,63-5.55s46.63,2.11,63,5.55a20.68,20.68,0,0,1,5.75-21.06C120.76,49.67,96.16,47,68.72,47S16.69,49.67,0,53.88A20.93,20.93,0,0,1,6.6,69.07" fill="#00703c"/><g fill="#fff"><path d="M68.72 70.71c24 0 45.93 1.59 63.15 4.22C116 71.31 93.59 69 68.72 69s-47.29 2.31-63.14 5.93c17.22-2.63 39.2-4.22 63.14-4.22m0-21.91c26 0 49.89 1.92 68.6 5.11-17.22-4.39-41.58-7.13-68.6-7.13S17.34 49.52.13 53.91c18.71-3.19 42.58-5.11 68.59-5.11M15 64.22l.35 2.35c0 .23.07.42.11.58l.11.5A.8.8 0 0 0 16 68a2.84 2.84 0 0 0 .89.13c.37 0 .58.14.62.33s-.08.39-.39.45l-3 .36-2.74.49a.4.4 0 0 1-.54-.3.37.37 0 0 1 .11-.32.71.71 0 0 1 .35-.16q1.07-.27 1.05-1a3 3 0 0 0 0-.55L11.18 60a2.25 2.25 0 0 0-.33-1 1.22 1.22 0 0 0-1-.27h-.53c-.08 0-.13-.1-.15-.23s.09-.41.38-.46l.7-.08.62-.07c.19 0 .58-.08 1.18-.14.26 0 .61-.08 1.06-.16l1.07-.2 1-.17 1-.17a7.61 7.61 0 0 1 1.69-.11 3.6 3.6 0 0 1 1.33.3 3 3 0 0 1 1.9 2.43 3.6 3.6 0 0 1-.22 1.82A4 4 0 0 1 19.81 63a3.87 3.87 0 0 1-2 .83l-.38.06a1.84 1.84 0 0 1-.47 0l-.56-.06h-.44a4 4 0 0 0-.77 0c-.11 0-.19.11-.21.28zm-.29-2c.05.38.13.59.21.64A1.79 1.79 0 0 0 16 63a1.93 1.93 0 0 0 1.78-1.62 3.33 3.33 0 0 0 0-1.26 2.71 2.71 0 0 0-.78-1.71 2.12 2.12 0 0 0-1.77-.51.92.92 0 0 0-.79.47 1.76 1.76 0 0 0-.09 1zm17.35-.69c0-.2-.05-.32-.06-.35s-.15-.12-.31-.1l-4.16.45c-.12 0-.19 0-.22.08a1.44 1.44 0 0 0-.06.41 2.65 2.65 0 0 1 0 .27l.29 2.65v.38a3.66 3.66 0 0 0 .21.8c.06.24.45.4 1.15.46.37 0 .58.11.6.34s-.11.38-.4.43l-3 .25-2.68.4c-.3 0-.47-.07-.53-.33a.36.36 0 0 1 .12-.31.64.64 0 0 1 .36-.14c.71-.16 1.08-.48 1.09-1a3.86 3.86 0 0 0 0-.56l-.82-7.47a2.29 2.29 0 0 0-.31-1 1.25 1.25 0 0 0-1-.3 1.65 1.65 0 0 1-.47-.05.32.32 0 0 1-.21-.26.35.35 0 0 1 .08-.31.68.68 0 0 1 .33-.1l1.61-.17 1.42-.11.72-.1.69-.1.67-.09.7-.1c.28 0 .44.07.48.29s0 .21-.05.26l-.19.11a6 6 0 0 0-1.09.44c-.22.19-.29.73-.19 1.62L27 60a1.57 1.57 0 0 0 .1.51c0 .08.2.13.47.13h.19l3.49-.38a1.63 1.63 0 0 0 .52-.11q.09-.07.06-.39l-.27-2.44q-.11-1-.48-1.2a1.83 1.83 0 0 0-.67-.14 3.07 3.07 0 0 1-.62-.09.24.24 0 0 1-.17-.24c0-.25.1-.39.4-.41l3-.25 2.78-.38q.51-.07.54.3c0 .16-.18.3-.54.45a4.68 4.68 0 0 0-.66.2.75.75 0 0 0-.41.51 2.18 2.18 0 0 0 0 .35 4.16 4.16 0 0 0 0 .51l.05.41.74 6.72v.38a2 2 0 0 0 .34 1 1.57 1.57 0 0 0 1 .29c.45 0 .68.11.71.37s0 .26-.14.29l-.52.12-2.76.23-2.8.38c-.32.05-.49-.06-.52-.32s.15-.33.51-.48l.77-.31a.68.68 0 0 0 .28-.41 2.69 2.69 0 0 0 0-.75z"/><path d="M39.27 56.46a1.46 1.46 0 0 0-.29-1 1.27 1.27 0 0 0-1-.34 2.27 2.27 0 0 1-.43-.07.27.27 0 0 1-.19-.27c0-.24.13-.37.44-.39l1.53-.07 1.46-.06c.21 0 .9-.07 2.06-.2l.74-.07c.31 0 .47.07.49.33s-.16.3-.5.41c-.67.14-1 .37-1.09.69a3 3 0 0 0-.07.88v.38l.3 4.42c0 .31 0 .51.05.61a8.14 8.14 0 0 0 .34 1.92 2.1 2.1 0 0 0 1.17 1.26 3.53 3.53 0 0 0 1.77.29 4 4 0 0 0 2-.63A2.26 2.26 0 0 0 49.21 63a8.89 8.89 0 0 0 0-1.66l-.34-4.83c0-.5-.06-.82-.08-.94a1.31 1.31 0 0 0-.43-.81 1.22 1.22 0 0 0-.84-.23h-.37a.72.72 0 0 1-.29-.06.62.62 0 0 1-.12-.28.28.28 0 0 1 .13-.3 1.45 1.45 0 0 1 .52-.11l3.48-.24c.29 0 .44.09.46.33s-.19.38-.62.43a.92.92 0 0 0-.9.86 6.32 6.32 0 0 0 0 1.15l.37 5.33a3.64 3.64 0 0 1-.83 3 6.08 6.08 0 0 1-3.9 1.47q-4.41.32-5.35-2a6.45 6.45 0 0 1-.45-2zm24.98-1.33v.33c0 .15-.12.34-.37.35s-.39-.15-.7-.47l-.33-.47a2.84 2.84 0 0 0-1.44-1.07 3.22 3.22 0 0 0-1.17-.16 3.7 3.7 0 0 0-2.23.82 4.92 4.92 0 0 0-1.42 1.91 7.08 7.08 0 0 0-.37 3.84A5.61 5.61 0 0 0 57.4 63a3.7 3.7 0 0 0 3.25 1.61c1.37 0 2.45-.91 3.22-2.6l.23-.33a.31.31 0 0 1 .25-.1c.26 0 .39.15.4.48v1.07q0 .16 0 .45a.75.75 0 0 1-.08.31 1.17 1.17 0 0 1-.48.45 7.26 7.26 0 0 1-3.72 1q-4.63.15-6.74-2.81a6.64 6.64 0 0 1-.58-1 5.4 5.4 0 0 1-.49-2.08 5.25 5.25 0 0 1 1-3.4 6.76 6.76 0 0 1 2.84-2.27 10.94 10.94 0 0 1 6.86-.62 1.08 1.08 0 0 1 .49.21 1.38 1.38 0 0 1 .18.55zm12.63 7.37a1.86 1.86 0 0 0 .54 1.6 2 2 0 0 0 1 .21A2.94 2.94 0 0 0 80 64a2.56 2.56 0 0 0 1-.84l.64-.84a.6.6 0 0 1 .47-.3c.24 0 .35.15.34.45a8.57 8.57 0 0 1-.15 1.17l-.2 1.12c0 .24-.1.37-.3.38L72.34 65q-.45 0-.48-.39a.32.32 0 0 1 .14-.31.64.64 0 0 1 .37-.1c.73-.06 1.13-.34 1.2-.83a2.75 2.75 0 0 0 0-.56l.14-7.51a2.12 2.12 0 0 0-.17-1.08 1.27 1.27 0 0 0-.91-.43 1.91 1.91 0 0 1-.46-.1.34.34 0 0 1-.17-.29c0-.15 0-.25.12-.29a.63.63 0 0 1 .33-.06l1.6.06 1.42.07h2.8c.29 0 .44.12.45.35s0 .21-.09.24a.72.72 0 0 1-.2.09 6.08 6.08 0 0 0-1.11.31c-.24.16-.36.69-.38 1.59zm6.52-3.28a5.78 5.78 0 0 1 1.33-3.41 6.91 6.91 0 0 1 3-2.1 7.05 7.05 0 0 1 2.79-.37 8.16 8.16 0 0 1 3.8 1.14A6.2 6.2 0 0 1 97 57.37a5.72 5.72 0 0 1 .39 2.63 5.85 5.85 0 0 1-1 3A6.24 6.24 0 0 1 94 65.07a7.28 7.28 0 0 1-3.77.74 7.43 7.43 0 0 1-5.14-2.17 5.88 5.88 0 0 1-1.31-2.09 5.8 5.8 0 0 1-.35-2.33m3.42-.36a8.09 8.09 0 0 0 .35 3.06A5.6 5.6 0 0 0 88.33 64a3 3 0 0 0 2.12 1.08c1.34.08 2.35-.7 3-2.32a7.85 7.85 0 0 0 .55-2.51 8.14 8.14 0 0 0-.72-4A3.4 3.4 0 0 0 90.42 54c-1.36-.1-2.38.69-3.07 2.38a8.2 8.2 0 0 0-.53 2.5m22.47 3.79l.49-4.62a3.37 3.37 0 0 0-.06-1.47 1.26 1.26 0 0 0-.93-.63l-.38-.06a.35.35 0 0 1-.34-.36c0-.27.28-.37.76-.32l3.43.36c.36 0 .53.17.51.4s-.27.34-.72.33h-.12a.92.92 0 0 0-.83.26 1.65 1.65 0 0 0-.33.92v.46l-1 9.31a.62.62 0 0 1-.15.42.58.58 0 0 1-.43.07.9.9 0 0 1-.5-.2 2.37 2.37 0 0 1-.19-.25 2.64 2.64 0 0 1-.25-.39l-6.67-10.17-.7 6.27-.11 1.17a1.89 1.89 0 0 0 .26 1.11 1.2 1.2 0 0 0 .87.41c.53.06.78.2.76.44s-.23.41-.61.36l-1.81-.27-1.87-.12c-.33 0-.49-.18-.48-.47s.08-.26.23-.28a2 2 0 0 1 .65 0c.43 0 .75-.2.94-.74a7 7 0 0 0 .24-1.34l.72-6.85a2 2 0 0 0 0-.9.83.83 0 0 0-.69-.52h-.29a.73.73 0 0 1-.32-.11.35.35 0 0 1-.1-.31c0-.23.25-.32.67-.28l3.45.37a2.63 2.63 0 0 1 .64.11 3.73 3.73 0 0 1 .46.63zm16.01 2.91l-.24 2.49c0 .19-.25.4-.71.64a4.94 4.94 0 0 1-1.75.42 9.52 9.52 0 0 1-2.54-.08 10.3 10.3 0 0 1-3.52-1.19A6.38 6.38 0 0 1 114 65.3a5.3 5.3 0 0 1-.51-3.4 5.41 5.41 0 0 1 1.07-2.55 6.82 6.82 0 0 1 3.44-2.29 9 9 0 0 1 4.2-.3c.21 0 .38.07.52.1a9.47 9.47 0 0 1 1.4.42l.63.23a1.88 1.88 0 0 1 .81.48 3.38 3.38 0 0 1 0 .39v.61.6a2.32 2.32 0 0 1 0 .35.39.39 0 0 1-.51.36c-.17 0-.41-.32-.73-.89a8 8 0 0 0-.74-1.21 2.6 2.6 0 0 0-1.6-.68 3.69 3.69 0 0 0-2.35.34 5.51 5.51 0 0 0-2.63 4.31 8.15 8.15 0 0 0-.07 1.86 6.43 6.43 0 0 0 .39 1.85 3.58 3.58 0 0 0 3 2.42 1.66 1.66 0 0 0 1.33-.18 2.78 2.78 0 0 0 .4-1.24l.12-.78.14-1a1 1 0 0 0-.28-.91 2.17 2.17 0 0 0-1-.35c-.36-.06-.52-.22-.49-.49s.32-.41.86-.32l5.26.75q.48.07.42.45c0 .22-.26.34-.68.38a1.36 1.36 0 0 0-.79.21 1.64 1.64 0 0 0-.28.79"/></g><path d="M37.92 94.39h-.86a3.56 3.56 0 0 0-3.76 3.54 3.36 3.36 0 0 0 3.27 3.55h1.35v1.18h-1.35A4.55 4.55 0 0 1 32 97.93a4.83 4.83 0 0 1 5-4.73h1zM42 96a3.38 3.38 0 1 1-3.37 3.38A3.33 3.33 0 0 1 42 96m0 5.62a2.24 2.24 0 1 0-2.13-2.24 2.1 2.1 0 0 0 2.13 2.28m4.48 1v-7.09a2.19 2.19 0 0 1 2.29-2.37h1v1.14h-.84a1.1 1.1 0 0 0-1.26 1.2v.64h1.94v1.13h-1.94v5.35zm3.75 0v-7.09a2.2 2.2 0 0 1 2.3-2.37h1v1.14h-.84a1.11 1.11 0 0 0-1.27 1.2v.64h1.95v1.13h-1.95v5.35zm5.58-2.13l-.48-1 3.2-1.78a1.76 1.76 0 0 0-1.47-.62 2.24 2.24 0 0 0 0 4.48c1.4 0 1.93-.83 2.17-2l1.21.14a3.27 3.27 0 0 1-3.38 3 3.38 3.38 0 1 1 3.13-4.7zm7.52 0l-.49-1L66 97.8a1.76 1.76 0 0 0-1.47-.62 2.24 2.24 0 0 0 0 4.48c1.41 0 1.93-.83 2.18-2l1.2.14a3.26 3.26 0 0 1-3.38 3 3.38 3.38 0 1 1 3.14-4.7zm15.43-6.14H75c-.22 0-.27.07-.27.18a1.16 1.16 0 0 0 .3.55l3.93 5a2 2 0 0 0 .3-1.19 3.11 3.11 0 0 0-.9-2l.87-.89A3.88 3.88 0 0 1 80.55 99a4 4 0 0 1-.73 2.28l1.18 1.38h-1.59l-.49-.52a4.13 4.13 0 0 1-2.41.69 3.83 3.83 0 0 1-4-3.85 3.73 3.73 0 0 1 1.61-3.15 2.24 2.24 0 0 1-.65-1.33 1.26 1.26 0 0 1 1.36-1.3h3.92zm-3.86 2.4A2.68 2.68 0 0 0 73.84 99a2.63 2.63 0 0 0 2.65 2.69 2.56 2.56 0 0 0 1.73-.54zm9.97-3.59h5.95v1.19h-2.34v8.27h-1.27v-8.27h-2.34V93.2zm8.5 7.33l-.49-1 3.21-1.78a1.8 1.8 0 0 0-1.48-.62 2.24 2.24 0 0 0 0 4.48c1.41 0 1.94-.83 2.18-2l1.2.14a3.26 3.26 0 0 1-3.38 3 3.38 3.38 0 1 1 3.14-4.7zm10.77 2.13V99a1.91 1.91 0 0 0-2.14-1.82 2.25 2.25 0 1 0 1.63 3.59v1.41a2.69 2.69 0 0 1-1.76.62 3.26 3.26 0 0 1-3.19-3.45 3.18 3.18 0 0 1 3.38-3.35 3 3 0 0 1 3.27 3.08v3.54z" fill="#00703c"/><g fill="#fff"><path d="M49.47 78.51v-.05c0-.23.09-.34.17-.34a.15.15 0 0 1 .15.08 2.07 2.07 0 0 1 .1.26l.11.33a.82.82 0 0 0 .19.28 1 1 0 0 0 .76.27 1.24 1.24 0 0 0 .68-.19.68.68 0 0 0 .32-.59.7.7 0 0 0-.39-.64c-.14-.08-.3-.15-.5-.24l-.41-.17a2.62 2.62 0 0 1-.81-.52.9.9 0 0 1-.28-.7 1.22 1.22 0 0 1 .29-.8 1.79 1.79 0 0 1 .71-.5 2.34 2.34 0 0 1 .91-.18 2.13 2.13 0 0 1 1 .19c.07 0 .11.1.11.23v.66c0 .14-.05.21-.14.21s-.17-.06-.21-.2c-.15-.52-.42-.79-.83-.79a1.11 1.11 0 0 0-.57.16.6.6 0 0 0-.27.5.58.58 0 0 0 .37.53l.7.25a2.46 2.46 0 0 1 .93.49 1.27 1.27 0 0 1 .37 1 1.52 1.52 0 0 1-.9 1.39 2.25 2.25 0 0 1-1 .23 3.25 3.25 0 0 1-.63-.07 2.76 2.76 0 0 1-.62-.18.35.35 0 0 1-.17-.15.23.23 0 0 1 0-.09.46.46 0 0 1 0-.14v-.48zM54 77.29a.51.51 0 0 0 0-.29.27.27 0 0 0-.1-.08.4.4 0 0 0-.17 0h0-.13v-.1c0-.1.1-.13.31-.18a2.28 2.28 0 0 0 .52-.18s.16-.11.34-.26A.71.71 0 0 1 55 76a.1.1 0 0 1 .09.06.76.76 0 0 1 0 .21v2.33a1.36 1.36 0 0 1 0 .21.53.53 0 0 0 0 .14.29.29 0 0 0 .07.21h.14.23a.17.17 0 0 1 .12 0 .36.36 0 0 1 .05.09c0 .1-.08.15-.23.15h-1.83c-.15 0-.23 0-.23-.15s0-.1.06-.11h.11.2c.1 0 .16 0 .18-.1a1.76 1.76 0 0 0 .06-.59zm-.12-2.13a.51.51 0 0 1 .21-.42.72.72 0 0 1 .44-.14.66.66 0 0 1 .45.14.5.5 0 0 1 .19.42.53.53 0 0 1-.19.43.73.73 0 0 1-.47.17.64.64 0 0 1-.45-.16.59.59 0 0 1-.18-.44"/><path d="M60.09 77.27v1.54a.67.67 0 0 0 0 .21.29.29 0 0 0 .11.15l.28.06a.17.17 0 0 1 .12 0 .16.16 0 0 1 .05.11c0 .09-.07.13-.23.13H58.7c-.14 0-.22 0-.23-.13s.06-.12.16-.16l.24-.09A.22.22 0 0 0 59 79v-.25-1.32c0-.59-.2-.89-.62-.89a.84.84 0 0 0-.55.19.38.38 0 0 0-.13.19 1.19 1.19 0 0 0 0 .29v1.53a.79.79 0 0 0 0 .28q0 .12.33.21a.15.15 0 0 1 .14.16c0 .09 0 .13-.16.13H56.2c-.16 0-.24 0-.24-.13s.06-.13.18-.16a1 1 0 0 0 .3-.09.32.32 0 0 0 .1-.18v-.45-1.22a.67.67 0 0 0 0-.28c0-.06-.12-.09-.26-.11h-.12c-.07 0-.11 0-.11-.11a.11.11 0 0 1 .08-.11l.11-.05h.12a2.52 2.52 0 0 0 .49-.18 1.6 1.6 0 0 0 .45-.3.33.33 0 0 1 .27-.14c.07 0 .1.09.1.27v.31l.65-.39a1.43 1.43 0 0 1 .56-.11 1.52 1.52 0 0 1 .93.3.62.62 0 0 1 .25.34 1.85 1.85 0 0 1 .07.57m1.95.26a1.58 1.58 0 0 0 .17.74 1.41 1.41 0 0 0 .49.56 1.21 1.21 0 0 0 .68.21 1.29 1.29 0 0 0 .67-.19l.17-.08s.07 0 .08.09-.24.39-.72.57a2.09 2.09 0 0 1-.72.12 2 2 0 0 1-1.68-.78 1.7 1.7 0 0 1-.29-1 1.43 1.43 0 0 1 .21-.76 1.88 1.88 0 0 1 .88-.75 2.71 2.71 0 0 1 1.15-.25 1.81 1.81 0 0 1 .9.21.54.54 0 0 1 .16.1.41.41 0 0 1 0 .21 1.23 1.23 0 0 1-.06.39c-.06.17-.14.26-.24.26a.3.3 0 0 1-.25-.11l-.04-.1-.37-.56a.38.38 0 0 0-.29-.11.87.87 0 0 0-.76.6 1.49 1.49 0 0 0-.14.63m4.06-.09a.22.22 0 0 0-.14 0 .24.24 0 0 0 0 .15 1.52 1.52 0 0 0 .16.69 1.34 1.34 0 0 0 .45.52 1.11 1.11 0 0 0 .65.2 1.33 1.33 0 0 0 .74-.23.87.87 0 0 1 .22-.11.13.13 0 0 1 .08 0 .08.08 0 0 1 0 .07c0 .12-.13.25-.38.41a3.29 3.29 0 0 1-.54.26 2.09 2.09 0 0 1-.69.12 2 2 0 0 1-.92-.22 1.94 1.94 0 0 1-.71-.62 1.71 1.71 0 0 1-.29-1 1.52 1.52 0 0 1 .58-1.21 2.12 2.12 0 0 1 2.13-.36 1.67 1.67 0 0 1 .59.38.83.83 0 0 1 .26.6c0 .12 0 .19-.07.23a.55.55 0 0 1-.32.06zm-.1-.39a.09.09 0 0 0 0 .09.43.43 0 0 0 .2 0h.36.31a.6.6 0 0 0 .27-.1.37.37 0 0 0 .1-.29.44.44 0 0 0-.14-.34.5.5 0 0 0-.35-.12.79.79 0 0 0-.56.22.68.68 0 0 0-.24.54m6.56-1.28c0-.18-.06-.27-.16-.27l-.4.11a2.08 2.08 0 0 1-.43.1q-.16 0-.18-.12-.02-.12.3-.24h.19a6.23 6.23 0 0 0 1.55-.51.3.3 0 0 1 .13 0c.09 0 .13.11.13.33v3.52a1.48 1.48 0 0 0 0 .38.25.25 0 0 0 .13.14.8.8 0 0 0 .31 0 1.05 1.05 0 0 1 .3 0 .14.14 0 0 1 .08.14c0 .12-.09.17-.27.17h-.6-.8-.52-.52c-.16 0-.24-.05-.25-.17s0-.12.13-.15h.22a.93.93 0 0 0 .44-.08.41.41 0 0 0 .18-.38zm4.45-.7a.53.53 0 0 0-.49.31 1.26 1.26 0 0 0-.13.6 2.16 2.16 0 0 0 .12.71c.19.53.46.81.8.82h.16.11c.07 0 .1 0 .1.09s-.12.21-.36.27a2.31 2.31 0 0 1-.51.07 1.3 1.3 0 0 1-1-.43 1.45 1.45 0 0 1-.4-1 1.72 1.72 0 0 1 1.74-1.7 1.76 1.76 0 0 1 1.39.61 2.09 2.09 0 0 1 .5 1.42 2.93 2.93 0 0 1-.39 1.46 3.65 3.65 0 0 1-1 1.12 5.76 5.76 0 0 1-.92.56 2.46 2.46 0 0 1-1 .34.13.13 0 0 1-.1 0 .19.19 0 0 1 0-.1c0-.07.09-.13.26-.19a3.23 3.23 0 0 0 1.8-1.61A3 3 0 0 0 78 76.9a2.88 2.88 0 0 0-.12-.8 2.21 2.21 0 0 0-.36-.72.64.64 0 0 0-.52-.28m4.84 4.22c.39 0 .59-.32.59-1A2 2 0 0 0 82 77a.53.53 0 0 0-.4-.23.64.64 0 0 0-.3.09.31.31 0 0 1-.12.05.11.11 0 0 1-.06 0 .39.39 0 0 1 0-.09c0-.07.07-.15.22-.24a1.37 1.37 0 0 1 1.44 0 1.5 1.5 0 0 1 .49.57 1.77 1.77 0 0 1 .18.8 1.56 1.56 0 0 1-.54 1.21 1.84 1.84 0 0 1-1.27.48 1.72 1.72 0 0 1-1-.28 2.11 2.11 0 0 1-.86-1.36 3.24 3.24 0 0 1 0-.56 2.93 2.93 0 0 1 .44-1.6 4 4 0 0 1 1.47-1.38 3.89 3.89 0 0 1 .54-.27 2.64 2.64 0 0 1 .88-.23c.11 0 .17.05.17.14s-.13.1-.39.19l-.47.18a1.9 1.9 0 0 0-.5.32l-.26.25-.25.33a3.14 3.14 0 0 0-.55 1.83 3.09 3.09 0 0 0 .13 1 2.24 2.24 0 0 0 .43.86.67.67 0 0 0 .47.27m4.77-2.57c0 .09.08.16.23.22a1.61 1.61 0 0 1 .35.14 1.32 1.32 0 0 1 .5 1 1.15 1.15 0 0 1-.28.77 1.94 1.94 0 0 1-.65.5 2.49 2.49 0 0 1-1 .2 2.65 2.65 0 0 1-.9-.14 1.14 1.14 0 0 1-.91-1.03.84.84 0 0 1 .14-.54 1.07 1.07 0 0 1 .67-.48c.13-.05.2-.08.21-.11h0l-.12-.07-.3-.2a1.12 1.12 0 0 1-.39-.86A1.19 1.19 0 0 1 85 75a2.42 2.42 0 0 1 1-.18 1.65 1.65 0 0 1 1.42.55.89.89 0 0 1 .17.51.84.84 0 0 1-.69.81c-.11 0-.16.06-.16.08m-1.29.69c-.12 0-.24.14-.35.4a1.46 1.46 0 0 0-.08.46 1 1 0 0 0 .41.87.85.85 0 0 0 .52.16.89.89 0 0 0 .58-.23.66.66 0 0 0 .27-.52.82.82 0 0 0 0-.18.78.78 0 0 0-.27-.45 2.83 2.83 0 0 0-.51-.31 1.67 1.67 0 0 0-.55-.2m.95-.83c.08 0 .16-.12.27-.34a.79.79 0 0 0 .06-.29 1 1 0 0 0-.22-.65.78.78 0 0 0-1.1-.1.61.61 0 0 0-.23.47.59.59 0 0 0 .25.47 2.21 2.21 0 0 0 .32.19l.41.17.24.08"/><path d="M48.41 27.65c-.4-1-.5-1.44-1.61-1.2s-.93 1.9-.93 1.9c4.65 8.95 10.88 9.13 10.88 9.13-5.94-1.72-7.94-8.81-8.34-9.83M74.1 15.93c-2.47 1-4.61 2.25-2.22 3.33a9.17 9.17 0 0 0 4.72 1.16c1.24-.05 3.44.49 2.88 3.68S76.75 40 59.55 38c0 0 5.63 4.39 15.07-.89s10.86-12.65 10.31-16.4c0 0-.17-5.29-4.75-5.75a13.37 13.37 0 0 0-6.08 1M67.14 20C45 24.26 45.77 19.3 55.4 15.72s16-1.07 21.77-1.37 2.76-3 2.76-3c-3.11-2.79-5.36-1.56-8.81-1.76S55.8 13.05 53.34 14.1s-10.1 3-7.85 8S67.14 20 67.14 20m20.51-1.66c1.18-.33 3.23 2.09 1.64 3.84a21.29 21.29 0 0 1-4.46 4.22s9.34-3.66 7.94-8-2.37-4.27-3.33-4.14c0 0-5.16.61-4.51 2.76s1.53 1.66 2.72 1.33m-3.56 19.43c-3.28 1.82-9 3.15-11.47 3.76s-6.12.73-10.43 1.54c-5.89 1.12-17.3-2.22-17.88-2.38-1.2-.32-2.83-1.15-2.67-.58.22.72 2.36 1.42 2.36 1.42 1.43.79 6.89 1.58 9.15 2a16.7 16.7 0 0 0 6.15.65c3-.21 4.29.76 13.32-.62S84 39.49 89.36 36.85s6.54-5 6.54-5C92 35.83 87.37 36 84.09 37.78M50.76 26.43a16.45 16.45 0 0 0 4.59-.43c1.19-.28 2.35-1.11 2.13.07A8.22 8.22 0 0 0 58.76 31a6.12 6.12 0 0 0 3.79 3.19c3 1.23 4.22.33 5.11.83 0 0-2.45 1.88-8.33.35S51 31 49.59 27c0 0-.43-1 1.17-.53" fill-rule="evenodd"/></g></svg>