<svg width="128" height="96" viewBox="0 0 128 96" fill="none" xmlns="http://www.w3.org/2000/svg">
              <g id="bg">
                <path
                  d="M111.327 23.8904C107.631 20.2776 108.952 14.7103 108.952 14.7103C99.4717 14.2008 101.56 6.64188 101.56 6.64188C96.5816 6.99107 91.592 6.1431 87.0065 4.16854C77.2303 0.157478 65.5321 0 63.4346 0C61.337 0 49.6481 0.157478 39.8718 4.16854C35.289 6.14095 30.3029 6.98886 25.3276 6.64188C25.3276 6.64188 27.3974 14.2008 17.9354 14.7103C17.9354 14.7103 19.266 20.2684 15.5606 23.8904C12.1879 27.1882 8.16841 34.3395 11.9569 40.4997C11.9569 40.4997 7.46615 46.7433 14.1654 55.3212C19.229 61.3054 17.7968 63.6583 17.6767 66.2613C17.6767 66.2613 26.5011 66.5114 25.5956 74.3297C25.5956 74.3297 34.8359 73.6813 41.9601 77.7109C48.9088 81.6664 59.0824 81.5182 63.4346 81.5182C67.7867 81.5182 77.9603 81.6756 84.9275 77.7387C92.0702 73.7091 101.292 74.3575 101.292 74.3575C100.368 66.5392 109.211 66.2891 109.211 66.2891C109.082 63.6768 107.659 61.3332 112.722 55.349C119.412 46.7525 114.921 40.5275 114.921 40.5275C118.728 34.3673 114.69 27.2159 111.327 23.9182"
                  fill="#00703C"
                />
                <path
                  d="M64.682 79.156H62.2149C56.7723 79.156 48.8811 78.7854 43.1983 75.5803C38.1901 72.7457 31.9714 72.44 29.5689 72.44C28.7281 72.44 28.2291 72.44 28.2198 72.44H27.7301L27.7855 71.9583C27.9318 71.1458 27.901 70.3111 27.6952 69.5116C27.4895 68.7122 27.1137 67.9668 26.5935 67.3266C24.5884 65.0015 20.8368 64.8625 20.7999 64.8625H20.3748V64.4457C20.3748 64.0473 20.4395 63.649 20.495 63.2507C20.7629 61.2035 21.0401 59.0914 17.1962 54.5431C11.5319 47.3454 14.2578 41.6854 14.96 40.509C11.3471 34.321 15.6808 27.5402 18.5175 24.7611C21.7609 21.6023 20.6243 16.6464 20.6151 16.6001L20.5042 16.1184H20.9939C23.766 15.9701 25.7157 15.1457 26.7691 13.6636C27.1939 12.9954 27.4792 12.2479 27.6079 11.4662C27.7365 10.6845 27.7058 9.88472 27.5176 9.11521L27.3882 8.64278H27.8687C28.2165 8.62485 28.565 8.62485 28.9129 8.64278C29.3102 8.64278 29.8369 8.64278 30.3821 8.64278C34.1458 8.55419 37.8585 7.74944 41.3226 6.27134C50.3873 2.56597 61.2539 2.35291 63.3422 2.35291H63.5362C65.6153 2.35291 76.4726 2.54744 85.5558 6.27134C89.0201 7.73261 92.7294 8.52161 96.4871 8.59646C97.0785 8.59646 97.5682 8.59646 97.9655 8.59646C98.3103 8.57847 98.6557 8.57847 99.0004 8.59646H99.4902L99.3608 9.0689C99.1755 9.84018 99.1463 10.6409 99.2749 11.4236C99.4034 12.2064 99.6871 12.9555 100.109 13.6265C101.172 15.0994 103.112 15.9238 105.884 16.072H106.374L106.263 16.5537C106.263 16.6001 105.118 21.5653 108.352 24.7148C111.188 27.4939 115.531 34.2932 111.909 40.4626C112.611 41.6576 115.347 47.2991 109.701 54.5523C105.838 59.1192 106.115 61.2312 106.383 63.2785C106.439 63.6768 106.494 64.0751 106.513 64.4734V64.8903H106.097C106.097 64.8903 102.299 65.0293 100.294 67.3544C99.7767 67.9959 99.4032 68.7417 99.1991 69.541C98.995 70.3402 98.9651 71.1742 99.1113 71.9861L99.1668 72.4678H98.6678C98.6678 72.4678 98.1688 72.4678 97.328 72.4678C94.8885 72.4678 88.6606 72.7735 83.6523 75.6081C77.9973 78.7854 70.1061 79.156 64.682 79.156ZM63.4531 78.3315H64.682C68.0824 78.3315 77.1379 78.3315 83.2827 74.867C88.4665 71.9398 94.8608 71.6155 97.3649 71.6155H98.2889C98.1952 70.7675 98.2738 69.9093 98.52 69.0925C98.7661 68.2758 99.1747 67.5175 99.7212 66.8634C101.569 64.7328 104.572 64.2511 105.681 64.14C105.681 63.8991 105.626 63.6583 105.598 63.4082C105.312 61.2961 104.997 58.8876 109.082 54.0706C115.042 46.4005 111.161 40.7869 111.114 40.7313L110.957 40.509L111.105 40.2774C114.681 34.4785 110.514 27.957 107.806 25.3169C104.803 22.3897 105.164 18.2397 105.395 16.8409C102.623 16.6093 100.608 15.683 99.4625 14.0619C98.5395 12.6696 98.1886 10.9737 98.483 9.32827H98.021C97.6144 9.32827 97.097 9.32827 96.5056 9.32827C92.6436 9.28481 88.8247 8.50844 85.2509 7.04021C76.3155 3.33484 65.5968 3.17736 63.5362 3.17736H63.3422C61.2816 3.17736 50.5536 3.36263 41.6275 7.03094C38.0645 8.53664 34.248 9.34777 30.3821 9.42091C29.7814 9.42091 29.2825 9.42091 28.8759 9.42091H28.4139C28.7082 11.0664 28.3573 12.7622 27.4344 14.1545C26.2886 15.7571 24.2927 16.6834 21.5021 16.9335C21.7239 18.3323 22.0843 22.4916 19.0904 25.4096C16.383 28.0497 12.2157 34.5711 15.7916 40.37L15.9303 40.6016L15.7732 40.8239C15.6161 41.0555 11.8645 46.5209 17.8245 54.1725C21.8902 58.9802 21.5761 61.3887 21.2989 63.5008C21.2989 63.7509 21.2342 63.9917 21.2065 64.2326C22.3245 64.3438 25.3369 64.8255 27.1757 66.956C27.7193 67.5982 28.1293 68.3429 28.3816 69.1463C28.6339 69.9497 28.7234 70.7955 28.6449 71.6341H29.5689C32.073 71.6341 38.4581 71.9583 43.6419 74.8855C49.7867 78.3501 58.8422 78.3501 62.2518 78.3501L63.4531 78.3315Z"
                  fill="#fff"
                />
              </g>
              <g id="name" fill="#fff">
                <path
                  d="M6.09859 63.9825C6.09969 65.8242 5.83196 67.6561 5.30393 69.4201C20.4118 66.2335 40.916 64.2789 63.5177 64.2789C86.1195 64.2789 106.605 66.2335 121.732 69.4201C120.714 65.9952 120.672 62.3531 121.611 58.9056C122.55 55.4581 124.432 52.3427 127.045 49.9113C111.586 46.0114 88.8546 43.5381 63.4993 43.5381C38.1439 43.5381 15.422 46.0114 0 49.9113C1.91794 51.7175 3.44805 53.897 4.49668 56.3165C5.54531 58.7359 6.0904 61.3445 6.09859 63.9825"
                  fill="#00703C"
                />
                <path
                  d="M63.4993 65.5017C85.6759 65.5017 105.94 66.9746 121.852 69.4108C107.187 66.0575 86.4799 63.9176 63.4993 63.9176C40.5187 63.9176 19.8019 66.0575 5.15608 69.4108C21.0679 66.9746 41.378 65.5017 63.4993 65.5017"
                />
                <path
                  d="M63.4992 45.2055C87.524 45.2055 109.599 46.9841 126.888 49.9391C110.976 45.8725 88.4665 43.3343 63.4992 43.3343C38.532 43.3343 16.0227 45.8725 0.120117 49.9391C17.4087 46.9841 39.4653 45.2055 63.4992 45.2055Z"
                />
                <path
                  d="M13.8604 59.4897L14.1838 61.6666C14.1838 61.8797 14.2485 62.0557 14.2855 62.2039C14.3225 62.3521 14.3687 62.6022 14.3871 62.6671C14.4768 62.8192 14.6177 62.9342 14.7845 62.9913C15.0505 63.075 15.3281 63.1156 15.6068 63.1117C15.9487 63.1117 16.1428 63.2414 16.1797 63.4174C16.2167 63.5934 16.1058 63.7787 15.8194 63.8343L13.0473 64.1677L10.5155 64.6217C10.4647 64.6417 10.4101 64.6502 10.3557 64.6466C10.3012 64.643 10.2482 64.6274 10.2005 64.6008C10.1528 64.5742 10.1116 64.5374 10.0798 64.493C10.0479 64.4485 10.0263 64.3976 10.0165 64.3438C10.0087 64.2898 10.0138 64.2348 10.0315 64.1832C10.0492 64.1317 10.0789 64.0851 10.1181 64.0473C10.2103 63.969 10.3222 63.9177 10.4415 63.8991C11.1007 63.7324 11.4241 63.4236 11.4118 62.9728C11.4273 62.8033 11.4273 62.6328 11.4118 62.4633L10.3306 55.5806C10.3035 55.2519 10.199 54.9345 10.0257 54.6542C9.89943 54.5471 9.75119 54.4692 9.59149 54.426C9.4318 54.3827 9.26458 54.3753 9.10169 54.4041H8.61195C8.53803 54.4041 8.49183 54.3115 8.47335 54.191C8.45487 54.0706 8.55651 53.8112 8.82448 53.7649L9.4713 53.6908L10.0442 53.626C10.2198 53.626 10.5801 53.5519 11.1346 53.4963C11.3748 53.4963 11.6982 53.4222 12.114 53.3481L13.1027 53.1628L14.0268 53.0053L14.9508 52.8478C15.4659 52.7557 15.9897 52.7216 16.5124 52.7459C16.936 52.7593 17.3531 52.8536 17.7414 53.0239C18.2099 53.2045 18.6207 53.5094 18.9299 53.9058C19.2391 54.3023 19.4351 54.7755 19.497 55.2749C19.5755 55.845 19.5055 56.4258 19.2937 56.9608C19.0778 57.4981 18.7391 57.9772 18.305 58.3596C17.7745 58.7869 17.1334 59.0537 16.457 59.1285L16.1058 59.184C15.9617 59.2026 15.8157 59.2026 15.6715 59.184L15.1541 59.1285H14.7475C14.5109 59.1055 14.2726 59.1055 14.036 59.1285C13.9344 59.1285 13.8604 59.2303 13.842 59.3878L13.8604 59.4897ZM13.5925 57.637C13.6387 57.989 13.7126 58.1836 13.7865 58.2299C14.0977 58.376 14.4465 58.4213 14.7845 58.3596C15.1876 58.3332 15.57 58.1704 15.8688 57.8978C16.1676 57.6251 16.3652 57.2588 16.4292 56.8589C16.5033 56.4734 16.5033 56.0772 16.4292 55.6917C16.3852 55.0944 16.1295 54.5326 15.7085 54.1077C15.4889 53.9107 15.2278 53.7659 14.9446 53.6841C14.6614 53.6023 14.3635 53.5856 14.073 53.6352C13.9239 53.6373 13.778 53.6786 13.6498 53.755C13.5217 53.8314 13.4159 53.9403 13.343 54.0706C13.2261 54.3648 13.1972 54.6866 13.2598 54.997L13.5925 57.637Z"
                />
                <path
                  d="M29.6244 56.9978C29.6244 56.8126 29.5782 56.7014 29.5689 56.6736C29.5597 56.6458 29.4303 56.5625 29.2825 56.581L25.4385 56.9978C25.3276 56.9978 25.2629 56.9979 25.2352 57.072C25.1986 57.1952 25.1799 57.3231 25.1798 57.4518C25.184 57.5351 25.184 57.6186 25.1798 57.7019L25.4478 60.1567C25.4478 60.3234 25.4478 60.4346 25.4478 60.5087C25.4843 60.7623 25.5494 61.0109 25.6418 61.2498C25.6972 61.4721 26.0576 61.6203 26.7044 61.6759C27.0463 61.6759 27.2404 61.7778 27.2588 61.9908C27.2773 62.2039 27.1572 62.3428 26.8892 62.3892L24.1172 62.6208L21.6408 62.9913C21.3635 62.9913 21.2065 62.9264 21.151 62.6856C21.1451 62.6323 21.1521 62.5784 21.1714 62.5284C21.1907 62.4784 21.2218 62.4338 21.2619 62.3984C21.3568 62.3219 21.473 62.2766 21.5946 62.2687C22.2506 62.1205 22.5925 61.8241 22.6017 61.3424C22.6143 61.1697 22.6143 60.9963 22.6017 60.8237L21.844 53.9039C21.8212 53.577 21.7231 53.26 21.5576 52.9775C21.4327 52.8672 21.2854 52.7852 21.1259 52.7372C20.9664 52.6893 20.7985 52.6764 20.6336 52.6996C20.4873 52.7052 20.3411 52.6896 20.1993 52.6533C20.1479 52.635 20.1026 52.6028 20.0684 52.5603C20.0341 52.5178 20.0123 52.4666 20.0052 52.4125C19.9939 52.3621 19.9947 52.3098 20.0075 52.2599C20.0204 52.21 20.0449 52.1638 20.0791 52.1253C20.1712 52.0687 20.2762 52.0367 20.3841 52.0326L21.8718 51.8752L23.1839 51.7733L23.8492 51.6806L24.4868 51.588L25.1059 51.5046L25.7527 51.412C26.0114 51.412 26.1593 51.4768 26.1962 51.6806C26.2332 51.8844 26.1962 51.8752 26.15 51.9215L25.9744 52.0234C25.6262 52.1259 25.2889 52.2624 24.9673 52.431C24.764 52.607 24.6993 53.1072 24.7917 53.9317L24.9488 55.5805C24.9532 55.7421 24.9844 55.9017 25.0412 56.053C25.0412 56.1271 25.226 56.1734 25.4755 56.1734H25.651L28.8759 55.8214C29.0405 55.814 29.2029 55.7796 29.3564 55.7195C29.4118 55.6763 29.4303 55.5558 29.4118 55.3582L29.1623 53.0979C29.0946 52.4804 28.9467 52.1098 28.7188 51.9863C28.5224 51.9045 28.3124 51.8605 28.0997 51.8566C27.9064 51.8485 27.7144 51.8206 27.5268 51.7733C27.4797 51.7589 27.4388 51.7293 27.4103 51.6891C27.3819 51.6488 27.3676 51.6002 27.3697 51.551C27.3697 51.3194 27.4621 51.1897 27.7393 51.1712L30.5114 50.9396L33.0802 50.5876C33.3944 50.5443 33.5607 50.637 33.5792 50.8655C33.5792 51.0137 33.4129 51.1434 33.0802 51.2823C32.8727 51.3289 32.6688 51.3909 32.4704 51.4676C32.3757 51.5125 32.2925 51.5784 32.2268 51.6602C32.1612 51.742 32.115 51.8377 32.0915 51.94C32.0828 52.0479 32.0828 52.1563 32.0915 52.2642C32.0819 52.4216 32.0819 52.5793 32.0915 52.7367L32.1377 53.1165L32.8215 59.3415C32.8215 59.5082 32.8215 59.6287 32.8215 59.6935C32.8415 60.0249 32.95 60.3449 33.1357 60.6199C33.4042 60.8122 33.7302 60.9069 34.0597 60.8885C34.4755 60.8885 34.688 60.9904 34.7158 61.2312C34.7435 61.4721 34.7158 61.4721 34.5864 61.4999L34.1059 61.611L31.5556 61.8241L28.9683 62.1761C28.6726 62.2224 28.5155 62.1205 28.4878 61.8797C28.4601 61.6388 28.6264 61.574 28.9591 61.435L29.6706 61.1479C29.8015 61.0585 29.8939 60.9228 29.9293 60.7681C29.9617 60.5376 29.9617 60.3038 29.9293 60.0733L29.6244 56.9978Z"
                />
                <path
                  d="M36.2866 52.3013C36.3139 51.97 36.2185 51.6402 36.0186 51.375C35.8962 51.2591 35.7503 51.1709 35.5908 51.1166C35.4314 51.0623 35.2622 51.043 35.0946 51.06C34.9604 51.0512 34.8273 51.0295 34.6973 50.9952C34.6445 50.9788 34.5987 50.9454 34.5669 50.9001C34.5352 50.8549 34.5193 50.8003 34.5217 50.745C34.5217 50.5227 34.6418 50.4023 34.9283 50.3838C35.7045 50.3282 36.1757 50.3097 36.3421 50.3189C36.7394 50.3189 37.1922 50.3189 37.6911 50.2633C37.8852 50.2633 38.5228 50.1985 39.5946 50.0781L40.2784 50.0132C40.5649 50.0132 40.7127 50.0781 40.7312 50.3189C40.7497 50.5598 40.5833 50.5968 40.2692 50.6987C39.6501 50.8284 39.3451 51.0415 39.262 51.3379C39.2004 51.6049 39.1786 51.8796 39.1973 52.1531C39.1973 52.2272 39.1973 52.3383 39.1973 52.5051L39.4745 56.5995C39.4745 56.8867 39.4745 57.072 39.5207 57.1646C39.554 57.7679 39.6595 58.3651 39.8349 58.9432C39.9227 59.2032 40.0645 59.4416 40.2508 59.6428C40.4371 59.8439 40.6638 60.0033 40.916 60.1104C41.429 60.3396 41.9924 60.4321 42.5515 60.379C43.2083 60.3527 43.8463 60.1512 44.3996 59.7954C44.6732 59.6506 44.9113 59.4467 45.0966 59.1984C45.282 58.9501 45.41 58.6636 45.4715 58.3596C45.5193 57.8481 45.5193 57.3333 45.4715 56.8218L45.1573 52.3476C45.1573 51.8844 45.1018 51.588 45.0834 51.4768C45.0454 51.1869 44.9043 50.9205 44.686 50.7265C44.4623 50.5622 44.1859 50.4863 43.9098 50.5135H43.568C43.4758 50.5137 43.3845 50.4948 43.3 50.4579C43.2421 50.382 43.204 50.2929 43.1891 50.1985C43.1776 50.1454 43.1829 50.09 43.2045 50.0401C43.2261 49.9903 43.2627 49.9485 43.3092 49.9206C43.4618 49.8572 43.6247 49.8227 43.7897 49.8187L47.0053 49.5964C47.2733 49.5964 47.4119 49.6797 47.4304 49.9021C47.4489 50.1244 47.2548 50.2541 46.8575 50.3004C46.6445 50.3046 46.4409 50.3888 46.2869 50.5363C46.1329 50.6838 46.0397 50.884 46.0259 51.097C45.9936 51.4514 45.9936 51.808 46.0259 52.1623L46.3678 57.0997C46.4528 57.591 46.4282 58.095 46.2955 58.5756C46.1629 59.0561 45.9257 59.5012 45.6008 59.8788C44.5971 60.7442 43.3209 61.2264 41.9971 61.2405C39.2805 61.4381 37.6326 60.8206 37.0536 59.3878C36.8173 58.7964 36.6769 58.171 36.6377 57.5351L36.2866 52.3013Z"
                />
                <path
                  d="M59.3688 51.0693C59.3688 51.1341 59.3688 51.236 59.3688 51.375C59.3688 51.5139 59.258 51.6899 59.027 51.6992C58.7959 51.7085 58.6666 51.5602 58.3801 51.2638L58.0752 50.8284C57.7501 50.3626 57.2833 50.0148 56.7446 49.8372C56.3964 49.7214 56.0299 49.6712 55.6635 49.689C54.912 49.7082 54.1878 49.9752 53.6029 50.4486C53.0277 50.9219 52.5771 51.5294 52.2908 52.2179C51.8506 53.3491 51.7322 54.5805 51.9489 55.7751C52.0691 56.7205 52.4463 57.6146 53.0392 58.3596C53.37 58.8457 53.82 59.2383 54.346 59.4995C54.872 59.7607 55.4562 59.8818 56.0423 59.851C57.3083 59.851 58.3062 59.008 59.0177 57.4425L59.2302 57.1368C59.2593 57.105 59.2952 57.0801 59.3352 57.064C59.3752 57.048 59.4183 57.0412 59.4612 57.0442C59.7015 57.0442 59.8216 57.1831 59.8309 57.4888V58.48C59.8309 58.5788 59.8309 58.7178 59.8309 58.8969C59.8271 58.9968 59.8019 59.0948 59.7569 59.184C59.6519 59.3627 59.498 59.5073 59.3134 59.6009C58.2717 60.2143 57.0841 60.5344 55.876 60.5272C53.0238 60.6199 50.9479 59.7522 49.6481 57.9242C49.4429 57.6316 49.2636 57.3217 49.1121 56.9979C48.8347 56.3923 48.6807 55.7372 48.6594 55.0711C48.5939 53.9456 48.9205 52.8323 49.5834 51.9215C50.2502 50.9935 51.1577 50.2662 52.2076 49.8187C54.2038 48.948 56.4269 48.7466 58.5465 49.2444C58.7112 49.2703 58.8669 49.3372 58.9992 49.4389C59.09 49.5951 59.1467 49.7687 59.1656 49.9484L59.3688 51.0693Z"
                />
                <path
                  d="M71.0393 57.8964C71 58.1654 71.0247 58.4399 71.1114 58.6975C71.1981 58.9551 71.3444 59.1885 71.5383 59.3786C71.8243 59.5225 72.1427 59.5896 72.4623 59.5731C72.9662 59.6154 73.4718 59.516 73.9223 59.2859C74.2922 59.111 74.6106 58.8429 74.8463 58.5078L75.4377 57.7297C75.4823 57.6516 75.5451 57.5855 75.6207 57.5371C75.6964 57.4887 75.7826 57.4594 75.872 57.4518C76.0938 57.4518 76.1954 57.5907 76.1862 57.8686C76.1649 58.2327 76.1186 58.5948 76.0476 58.9524L75.8628 59.99C75.8628 60.2123 75.7704 60.3327 75.5856 60.342L66.8442 60.2123C66.567 60.2123 66.4192 60.0919 66.4007 59.851C66.3932 59.7958 66.4013 59.7396 66.4242 59.6888C66.4471 59.638 66.4838 59.5947 66.5301 59.5638C66.6319 59.4987 66.7512 59.4663 66.872 59.4712C67.5465 59.4156 67.9161 59.1562 67.9808 58.7023C67.9984 58.5299 67.9984 58.3561 67.9808 58.1836L68.1102 51.2267C68.146 50.8852 68.0918 50.5403 67.9531 50.2263C67.8474 50.106 67.7183 50.0086 67.5737 49.9401C67.4291 49.8716 67.2721 49.8334 67.1122 49.828C66.9673 49.8148 66.8245 49.7837 66.6872 49.7353C66.64 49.708 66.6007 49.6689 66.5732 49.6218C66.5457 49.5747 66.5308 49.5213 66.5301 49.4667C66.5301 49.3277 66.5301 49.2351 66.641 49.1981C66.7357 49.1522 66.8411 49.133 66.9459 49.1425L68.4243 49.1981L69.7365 49.2629H72.3237C72.5917 49.2629 72.7303 49.3741 72.7396 49.5871C72.7488 49.8002 72.7396 49.7817 72.6564 49.8094C72.5994 49.8465 72.5371 49.8747 72.4716 49.8928C72.1214 49.9558 71.778 50.0519 71.4459 50.18C71.2241 50.3282 71.1133 50.8192 71.0948 51.6529L71.0393 57.8964Z"
                />
                <path
                  d="M77.064 54.858C77.1215 53.6994 77.5528 52.5909 78.293 51.6992C79.0257 50.8126 79.9833 50.1406 81.065 49.7539C81.8927 49.4671 82.7695 49.3505 83.6431 49.4111C84.8824 49.4682 86.0884 49.8309 87.1544 50.4671C88.2484 51.0657 89.1178 52.0056 89.6308 53.1443C89.9401 53.9167 90.0636 54.7514 89.9912 55.5806C89.9435 56.5744 89.6238 57.5358 89.0671 58.3596C88.5074 59.1782 87.7468 59.8386 86.8587 60.2771C85.7797 60.8142 84.5766 61.0509 83.3751 60.9626C81.5916 60.9365 79.8882 60.2156 78.6256 58.9524C78.0901 58.4001 77.6775 57.7403 77.4151 57.0164C77.1612 56.3267 77.0511 55.5921 77.0917 54.858H77.064ZM80.2519 54.5245C80.1776 55.4814 80.2874 56.4437 80.5753 57.3591C80.7824 58.0686 81.1384 58.7256 81.6195 59.2859C81.8607 59.5778 82.1589 59.8171 82.4958 59.9892C82.8327 60.1612 83.2011 60.2624 83.5784 60.2864C84.8166 60.3605 85.7499 59.6379 86.3505 58.1373C86.6461 57.3955 86.8178 56.6099 86.8587 55.8121C86.953 54.5405 86.7241 53.2656 86.1934 52.1068C85.9951 51.544 85.6415 51.0494 85.1736 50.6804C84.7057 50.3114 84.1429 50.0832 83.5507 50.0225C82.294 49.9299 81.3515 50.6617 80.7139 52.2272C80.4309 52.9687 80.2657 53.7502 80.2242 54.5431"
                />
                <path
                  d="M100.987 58.0539L101.44 53.7742C101.522 53.3217 101.503 52.8567 101.384 52.4125C101.296 52.2552 101.172 52.1206 101.023 52.0193C100.874 51.9181 100.704 51.8529 100.525 51.8289L100.174 51.7733C100.131 51.7721 100.09 51.7625 100.051 51.7451C100.012 51.7277 99.9771 51.7028 99.9479 51.6718C99.9188 51.6408 99.896 51.6044 99.8808 51.5646C99.8657 51.5248 99.8586 51.4824 99.8598 51.4398C99.8598 51.1897 100.119 51.0971 100.562 51.1434L103.731 51.4769C104.064 51.4769 104.221 51.6343 104.203 51.8474C104.184 52.0605 103.953 52.1624 103.537 52.1531H103.427C103.289 52.1267 103.147 52.1349 103.013 52.1769C102.879 52.2189 102.758 52.2935 102.66 52.3939C102.474 52.6406 102.368 52.9377 102.355 53.2462C102.355 53.3666 102.355 53.5055 102.355 53.6723L101.431 62.2965C101.434 62.439 101.385 62.5776 101.292 62.6856C101.173 62.7582 101.031 62.7814 100.895 62.7504C100.725 62.7374 100.564 62.6728 100.433 62.5652C100.369 62.492 100.31 62.4146 100.257 62.3336C100.17 62.2202 100.092 62.0993 100.026 61.9723L93.8628 52.5514L93.216 58.3596C93.1513 58.9617 93.1144 59.2859 93.1144 59.4434C93.087 59.8028 93.1709 60.1619 93.3546 60.4716C93.4552 60.5871 93.5786 60.6805 93.717 60.7458C93.8553 60.8112 94.0056 60.8471 94.1585 60.8514C94.6483 60.907 94.8793 61.0367 94.8608 61.259C94.8423 61.4814 94.6483 61.6388 94.2971 61.5925L92.6246 61.3424L90.8967 61.2312C90.5918 61.2312 90.4439 61.0645 90.4532 60.7959C90.4624 60.5272 90.5271 60.555 90.6657 60.5365C90.8646 60.5036 91.0674 60.5036 91.2663 60.5365C91.6636 60.5365 91.9593 60.3512 92.1349 59.851C92.2489 59.4454 92.3231 59.0297 92.3567 58.6097L93.022 52.2642C93.0851 51.99 93.0851 51.7048 93.022 51.4305C92.97 51.2993 92.8831 51.1849 92.7706 51.1C92.6582 51.015 92.5245 50.9627 92.3844 50.9488H92.1164C92.0113 50.9386 91.91 50.9037 91.8207 50.8469C91.7833 50.8102 91.7553 50.7648 91.7392 50.7148C91.7231 50.6648 91.7194 50.6116 91.7283 50.5598C91.7283 50.3467 91.9593 50.2633 92.3474 50.3004L95.5353 50.6431C95.7359 50.6525 95.9345 50.6867 96.1267 50.745C96.2883 50.9242 96.4308 51.1198 96.5518 51.3286L100.987 58.0539Z"
                />
                <path
                  d="M115.781 60.7495L115.559 63.0561C115.559 63.2321 115.328 63.4267 114.903 63.649C114.392 63.8768 113.844 64.0087 113.286 64.0381C112.504 64.1186 111.714 64.0937 110.939 63.9639C109.797 63.7972 108.695 63.4237 107.686 62.8616C106.693 62.3138 105.878 61.4905 105.339 60.4902C104.837 59.522 104.672 58.4138 104.868 57.3406C104.988 56.4806 105.329 55.6667 105.857 54.9784C106.672 53.9588 107.782 53.2176 109.035 52.8571C110.289 52.4581 111.619 52.3629 112.916 52.5792C113.11 52.5792 113.267 52.644 113.397 52.6718C113.837 52.7679 114.27 52.898 114.69 53.0609L115.273 53.274C115.556 53.3561 115.813 53.5091 116.021 53.7186C116.028 53.8389 116.028 53.9596 116.021 54.0799V54.6449V55.2008C116.029 55.3087 116.029 55.417 116.021 55.525C116.019 55.5811 116.005 55.636 115.978 55.6855C115.952 55.7349 115.914 55.7775 115.869 55.8099C115.823 55.8423 115.77 55.8635 115.715 55.8719C115.66 55.8804 115.603 55.8757 115.55 55.8585C115.393 55.8585 115.171 55.562 114.875 55.034C114.681 54.6408 114.452 54.2657 114.191 53.9131C113.785 53.5393 113.263 53.3169 112.713 53.2832C111.974 53.1455 111.211 53.2562 110.542 53.5982C109.848 54.0213 109.266 54.6045 108.843 55.299C108.421 55.9935 108.17 56.7792 108.111 57.5907C108.024 58.1607 108.003 58.7388 108.047 59.3137C108.082 59.8996 108.203 60.4771 108.407 61.0274C108.608 61.6273 108.975 62.157 109.466 62.5542C109.958 62.9514 110.552 63.1995 111.179 63.2692C111.384 63.3287 111.6 63.3446 111.811 63.3159C112.023 63.2872 112.226 63.2145 112.408 63.1025C112.62 62.7543 112.747 62.3606 112.778 61.9538L112.889 61.2312C112.972 60.7032 113.018 60.379 113.018 60.3049C113.048 60.1539 113.04 59.9977 112.995 59.8506C112.95 59.7034 112.869 59.5698 112.759 59.4619C112.483 59.279 112.165 59.1676 111.835 59.1377C111.503 59.0821 111.355 58.9339 111.382 58.6838C111.41 58.4337 111.678 58.304 112.177 58.3874L117.037 59.0821C117.333 59.1254 117.463 59.2643 117.426 59.499C117.426 59.7028 117.185 59.8139 116.797 59.851C116.54 59.8393 116.285 59.9072 116.067 60.0455C115.919 60.2629 115.83 60.515 115.809 60.7773"
                />
              </g>
              <g id="coffe" fill="#fff">
                <path
                  d="M35.0392 87.4375H34.2445C33.7988 87.4123 33.3526 87.4784 32.9332 87.6317C32.5137 87.7849 32.1298 88.0222 31.8047 88.329C31.4797 88.6358 31.2203 89.0057 31.0425 89.4162C30.8646 89.8267 30.772 90.2692 30.7702 90.7167C30.7465 91.1331 30.8066 91.55 30.9468 91.9427C31.087 92.3353 31.3044 92.6957 31.5863 93.0025C31.8681 93.3092 32.2086 93.556 32.5875 93.7283C32.9663 93.9006 33.3759 93.9948 33.7917 94.0052H35.0392V95.0983H33.7917C33.2238 95.1013 32.6611 94.9888 32.1377 94.7678C31.6143 94.5467 31.141 94.2217 30.7463 93.8122C30.3517 93.4027 30.0439 92.9173 29.8416 92.3853C29.6392 91.8533 29.5464 91.2857 29.5689 90.7167C29.5808 90.1235 29.7103 89.5386 29.9498 88.996C30.1893 88.4534 30.534 87.964 30.964 87.5563C31.3939 87.1485 31.9005 86.8306 32.4542 86.6209C33.0078 86.4113 33.5976 86.3141 34.1891 86.3351H35.1131L35.0392 87.4375Z"
                />
                <path
                  d="M38.8092 88.9289C39.4273 88.927 40.0321 89.1091 40.5469 89.452C41.0617 89.795 41.4635 90.2833 41.7013 90.8553C41.9391 91.4272 42.0022 92.0571 41.8828 92.6651C41.7633 93.273 41.4666 93.8318 41.0302 94.2706C40.5937 94.7094 40.0373 95.0085 39.4312 95.1301C38.8251 95.2517 38.1966 95.1902 37.6254 94.9535C37.0542 94.7168 36.5658 94.3155 36.2222 93.8004C35.8786 93.2853 35.6952 92.6796 35.6952 92.0599C35.689 91.6478 35.7653 91.2386 35.9195 90.8566C36.0736 90.4745 36.3026 90.1273 36.5929 89.8354C36.8832 89.5435 37.2289 89.3129 37.6095 89.1572C37.9902 89.0015 38.3981 88.9239 38.8092 88.9289V88.9289ZM38.8092 94.1349C39.2223 94.1553 39.632 94.0511 39.9855 93.8358C40.339 93.6206 40.62 93.3041 40.7924 92.9271C40.9647 92.5502 41.0205 92.1302 40.9525 91.7212C40.8845 91.3122 40.6958 90.933 40.4108 90.6326C40.1258 90.3321 39.7575 90.1241 39.3535 90.0354C38.9495 89.9467 38.5282 89.9814 38.144 90.1351C37.7599 90.2887 37.4304 90.5541 37.1982 90.8972C36.9659 91.2403 36.8415 91.6453 36.841 92.0599C36.8177 92.3314 36.8515 92.6048 36.9403 92.8623C37.029 93.1199 37.1708 93.3559 37.3564 93.555C37.5419 93.7541 37.7671 93.9119 38.0174 94.0182C38.2677 94.1245 38.5374 94.1769 38.8092 94.172"
                />
                <path
                  d="M42.9489 95.0983V88.5306C42.9248 88.2425 42.9624 87.9526 43.0592 87.6803C43.1561 87.408 43.3098 87.1596 43.5102 86.9517C43.7105 86.7438 43.9529 86.5813 44.221 86.4749C44.4892 86.3686 44.7769 86.3209 45.0649 86.3351H45.9889V87.3912H45.2127C45.0593 87.3677 44.9025 87.3798 44.7544 87.4265C44.6064 87.4732 44.471 87.5533 44.3586 87.6606C44.2462 87.7679 44.1598 87.8996 44.106 88.0456C44.0523 88.1916 44.0326 88.348 44.0484 88.5028V89.0956H45.8411V90.1424H44.0484V95.0983H42.9489Z"
                />
                <path
                  d="M46.414 95.0983V88.5306C46.3913 88.242 46.4302 87.9519 46.5281 87.6797C46.626 87.4074 46.7807 87.1591 46.9817 86.9514C47.1828 86.7437 47.4257 86.5813 47.6942 86.475C47.9628 86.3688 48.2509 86.3211 48.5392 86.3351H49.4633V87.3912H48.6871C48.5333 87.368 48.3762 87.3803 48.2278 87.4269C48.0794 87.4736 47.9435 87.5535 47.8304 87.6606C47.7174 87.7677 47.6301 87.8992 47.5752 88.0451C47.5203 88.191 47.4992 88.3475 47.5136 88.5028V89.0956H49.3154V90.1424H47.5136V95.0983H46.414Z"
                />
                <path
                  d="M51.57 93.1252L51.1265 92.1989L54.0834 90.55C53.9181 90.3538 53.7089 90.1995 53.4729 90.0997C53.2368 89.9999 52.9806 89.9574 52.7251 89.9757C52.1761 89.9757 51.6497 90.1943 51.2615 90.5834C50.8733 90.9726 50.6553 91.5003 50.6553 92.0507C50.6553 92.601 50.8733 93.1288 51.2615 93.5179C51.6497 93.907 52.1761 94.1257 52.7251 94.1257C54.0187 94.1257 54.5085 93.3568 54.7302 92.273L55.8483 92.4027C55.7846 93.1799 55.4244 93.9025 54.8426 94.4201C54.2609 94.9378 53.5024 95.2105 52.7251 95.1817C52.1614 95.1786 51.609 95.0226 51.1265 94.7303C50.6441 94.438 50.2496 94.0202 49.9848 93.5213C49.72 93.0223 49.5949 92.4609 49.6227 91.8964C49.6505 91.332 49.8301 90.7856 50.1426 90.3152C50.4551 89.8448 50.8887 89.468 51.3975 89.2247C51.9063 88.9814 52.4713 88.8807 53.0326 88.9333C53.5939 88.9858 54.1305 89.1897 54.5856 89.5233C55.0406 89.8568 55.3971 90.3076 55.6173 90.8279L51.57 93.1252Z"
                />
                <path
                  d="M58.5187 93.1252L58.066 92.1989L60.9859 90.5963C60.8206 90.4001 60.6114 90.2458 60.3754 90.146C60.1393 90.0462 59.8831 90.0037 59.6276 90.022C59.0786 90.022 58.5522 90.2406 58.164 90.6297C57.7758 91.0189 57.5578 91.5467 57.5578 92.097C57.5578 92.6473 57.7758 93.1751 58.164 93.5642C58.5522 93.9534 59.0786 94.172 59.6276 94.172C60.9305 94.172 61.4109 93.4031 61.642 92.3193L62.7508 92.449C62.6893 93.227 62.3298 93.951 61.7475 94.4691C61.1652 94.9872 60.4055 95.2592 59.6276 95.228C59.0643 95.2233 58.5127 95.0659 58.0314 94.7725C57.55 94.4791 57.1568 94.0607 56.8933 93.5615C56.6298 93.0623 56.5059 92.501 56.5347 91.937C56.5635 91.373 56.744 90.8273 57.0569 90.3578C57.3698 89.8882 57.8036 89.5122 58.3124 89.2696C58.8211 89.027 59.3858 88.9269 59.9466 88.9798C60.5075 89.0328 61.0436 89.2368 61.4982 89.5703C61.9528 89.9038 62.309 90.3543 62.529 90.8742L58.5187 93.1252Z"
                />
                <path
                  d="M72.7765 87.4375H69.3022C69.0989 87.4375 69.0527 87.5023 69.0527 87.6042C69.0967 87.7963 69.1926 87.9726 69.3299 88.1137L72.9613 92.7454C73.1667 92.4162 73.2636 92.0306 73.2385 91.6431C73.1949 90.9448 72.8993 90.2862 72.4069 89.7904L73.2108 88.966C73.5993 89.3078 73.9094 89.7299 74.1199 90.2032C74.3304 90.6764 74.4364 91.1898 74.4305 91.7079C74.426 92.4645 74.1906 93.2015 73.756 93.82L74.8463 95.0983H73.3771L72.9243 94.6166C72.266 95.0559 71.4879 95.2792 70.6974 95.2558C70.2181 95.2772 69.7394 95.2006 69.2905 95.0307C68.8416 94.8608 68.4318 94.6012 68.0861 94.2676C67.7404 93.9341 67.4659 93.5335 67.2794 93.0903C67.093 92.647 66.9983 92.1704 67.0013 91.6894C66.989 91.1176 67.1185 90.5517 67.3781 90.0424C67.6378 89.5331 68.0195 89.0964 68.489 88.7714C68.1553 88.4409 67.9435 88.0064 67.8884 87.5394C67.8827 87.3749 67.9117 87.2111 67.9736 87.0586C68.0354 86.9062 68.1288 86.7686 68.2475 86.6549C68.3661 86.5411 68.5075 86.4539 68.6622 86.3988C68.8168 86.3437 68.9814 86.322 69.1451 86.3351H72.7673L72.7765 87.4375ZM69.2098 89.6607C68.8958 89.8993 68.6432 90.2094 68.4729 90.5655C68.3025 90.9215 68.2194 91.3132 68.2303 91.7079C68.2228 92.0341 68.2808 92.3584 68.4008 92.6617C68.5207 92.9649 68.7002 93.2409 68.9286 93.4733C69.157 93.7058 69.4296 93.8898 69.7303 94.0146C70.0309 94.1394 70.3535 94.2024 70.679 94.1998C71.2548 94.234 71.8233 94.0561 72.2775 93.6996L69.2098 89.6607Z"
                />
                <path d="M78.4223 86.3351H83.9203V87.4375H81.7581V95.0983H80.5845V87.4375H78.4223V86.3351Z" />
                <path
                  d="M86.2766 93.1252L85.8238 92.1989L88.7899 90.55C88.6218 90.3548 88.4108 90.2013 88.1735 90.1016C87.9362 90.002 87.6791 89.9588 87.4224 89.9757C86.8734 89.9757 86.3469 90.1943 85.9588 90.5834C85.5706 90.9726 85.3525 91.5003 85.3525 92.0507C85.3525 92.601 85.5706 93.1288 85.9588 93.5179C86.3469 93.9071 86.8734 94.1257 87.4224 94.1257C88.7252 94.1257 89.215 93.3568 89.4367 92.273L90.5456 92.4027C90.4841 93.1807 90.1245 93.9047 89.5423 94.4228C88.96 94.9409 88.2003 95.2129 87.4224 95.1817C86.8591 95.177 86.3075 95.0196 85.8262 94.7262C85.3448 94.4328 84.9516 94.0144 84.6881 93.5152C84.4246 93.016 84.3007 92.4547 84.3295 91.8907C84.3583 91.3267 84.5387 90.781 84.8517 90.3114C85.1646 89.8419 85.5984 89.4659 86.1071 89.2233C86.6159 88.9807 87.1806 88.8806 87.7414 88.9335C88.3022 88.9865 88.8384 89.1905 89.293 89.524C89.7476 89.8575 90.1038 90.308 90.3238 90.8279L86.2766 93.1252Z"
                />
                <path
                  d="M96.2283 95.0983V91.7079C96.2187 91.4636 96.1585 91.2239 96.0518 91.0041C95.9451 90.7842 95.794 90.5889 95.6082 90.4305C95.4224 90.272 95.2059 90.154 94.9723 90.0837C94.7387 90.0133 94.493 89.9924 94.2509 90.022C93.8907 89.9942 93.5294 90.061 93.2028 90.2159C92.8761 90.3707 92.5954 90.6082 92.3882 90.905C92.181 91.2017 92.0546 91.5475 92.0213 91.9082C91.988 92.2688 92.0491 92.632 92.1984 92.9618C92.3478 93.2916 92.5804 93.5767 92.8731 93.789C93.1659 94.0012 93.5088 94.1334 93.868 94.1723C94.2272 94.2112 94.5904 94.1557 94.9216 94.011C95.2529 93.8664 95.5408 93.6377 95.7571 93.3475V94.6537C95.3007 95.0335 94.7239 95.2372 94.1308 95.228C93.7255 95.22 93.3259 95.13 92.9561 94.9635C92.5863 94.797 92.2538 94.5573 91.9786 94.2589C91.7034 93.9605 91.491 93.6095 91.3544 93.2269C91.2177 92.8442 91.1595 92.4379 91.1832 92.0321C91.1601 91.6162 91.2253 91.2 91.3745 90.8112C91.5236 90.4223 91.7534 90.0696 92.0486 89.7763C92.3437 89.483 92.6976 89.2559 93.0868 89.1098C93.476 88.9637 93.8917 88.9021 94.3064 88.9289C94.6971 88.8933 95.091 88.9413 95.4619 89.0697C95.8327 89.198 96.1722 89.4039 96.4578 89.6736C96.7434 89.9433 96.9687 90.2707 97.1187 90.6341C97.2687 90.9976 97.34 91.3889 97.3279 91.782V95.0613L96.2283 95.0983Z"
                />
              </g>
              <g id="since" fill="#fff">
                <path
                  d="M45.7117 72.7271V72.6808C45.7117 72.4678 45.7949 72.3659 45.8688 72.3659C45.8967 72.3627 45.9248 72.3681 45.9496 72.3813C45.9743 72.3946 45.9945 72.415 46.0074 72.44C46.0435 72.5181 46.0744 72.5986 46.0998 72.6808C46.1645 72.8754 46.1922 72.9773 46.2014 72.9865C46.2413 73.0843 46.3011 73.1726 46.377 73.2459C46.4703 73.3342 46.581 73.402 46.7019 73.4451C46.8228 73.4881 46.9513 73.5055 47.0793 73.496C47.3013 73.4996 47.5196 73.4385 47.7076 73.32C47.7998 73.2623 47.8756 73.1817 47.9274 73.0859C47.9792 72.9901 48.0054 72.8824 48.0033 72.7735C48.0055 72.6506 47.9727 72.5296 47.9089 72.4246C47.8451 72.3196 47.7529 72.235 47.6429 72.1806C47.5136 72.1065 47.3657 72.0417 47.1809 71.9583L46.8021 71.8008C46.525 71.688 46.2713 71.5246 46.0536 71.3191C45.9663 71.2362 45.8979 71.1353 45.8532 71.0234C45.8086 70.9114 45.7887 70.7911 45.7949 70.6707C45.7926 70.3994 45.8877 70.1364 46.0628 69.9296C46.2403 69.7236 46.4656 69.5645 46.7189 69.4664C46.9853 69.3551 47.2712 69.2985 47.5598 69.2997C47.8774 69.2826 48.1945 69.343 48.4838 69.4757C48.5485 69.4757 48.5854 69.5683 48.5854 69.6888V70.3001C48.5854 70.4298 48.5392 70.4947 48.4561 70.4947C48.3729 70.4947 48.299 70.4391 48.262 70.3094C48.1234 69.8277 47.8739 69.5776 47.4951 69.5776C47.3094 69.5783 47.1273 69.6295 46.9684 69.7258C46.8919 69.7763 46.829 69.8451 46.7855 69.9259C46.7419 70.0067 46.7191 70.0971 46.7189 70.189C46.7209 70.2956 46.7544 70.3992 46.8153 70.4866C46.8762 70.5741 46.9616 70.6413 47.0608 70.6799L47.7076 70.9115C48.0233 70.999 48.3165 71.1538 48.5669 71.3654C48.6875 71.4858 48.7805 71.6309 48.8396 71.7909C48.8986 71.9508 48.9222 72.1217 48.9088 72.2918C48.9092 72.564 48.8309 72.8305 48.6833 73.0591C48.5357 73.2876 48.3252 73.4683 48.0772 73.5794C47.7897 73.7208 47.4735 73.7937 47.1532 73.7924C46.9575 73.7899 46.7625 73.7682 46.571 73.7276C46.3742 73.6947 46.1819 73.6387 45.9981 73.5609C45.9319 73.5333 45.8766 73.4844 45.8411 73.4219C45.8356 73.3944 45.8356 73.366 45.8411 73.3385C45.8345 73.2956 45.8345 73.2518 45.8411 73.2088V72.7642L45.7117 72.7271Z"
                />
                <path
                  d="M49.8975 71.597C49.9235 71.5093 49.9235 71.416 49.8975 71.3284C49.8731 71.2966 49.8414 71.2712 49.8051 71.2543C49.7534 71.243 49.6998 71.243 49.6481 71.2543V71.2543H49.5279C49.5279 71.2543 49.5279 71.2543 49.5279 71.1616C49.5279 71.069 49.6203 71.0412 49.8144 70.9949C49.9807 70.959 50.142 70.903 50.2949 70.8281C50.2949 70.8281 50.4427 70.7262 50.6091 70.5873C50.6657 70.5108 50.7382 70.4476 50.8216 70.402C50.8393 70.4023 50.8566 70.4077 50.8713 70.4176C50.886 70.4274 50.8977 70.4413 50.9047 70.4576C50.9137 70.5221 50.9137 70.5876 50.9047 70.6521V72.8105C50.9097 72.8753 50.9097 72.9403 50.9047 73.005C50.899 73.0481 50.899 73.0917 50.9047 73.1347C50.8998 73.2056 50.9231 73.2756 50.9694 73.3293H51.0988H51.3113C51.347 73.3158 51.3865 73.3158 51.4222 73.3293C51.4415 73.3547 51.4571 73.3828 51.4684 73.4126C51.4684 73.5053 51.3945 73.5516 51.2559 73.5516H49.5649C49.4263 73.5516 49.3524 73.5516 49.3524 73.4126C49.3524 73.2737 49.3524 73.32 49.4078 73.3107H49.5095H49.6943C49.7867 73.3107 49.8421 73.3107 49.8606 73.2181C49.9098 73.0404 49.9285 72.8556 49.916 72.6716L49.8975 71.597ZM49.7867 69.6239C49.7856 69.5482 49.8026 69.4734 49.8364 69.4056C49.8701 69.3379 49.9196 69.2794 49.9807 69.2348C50.0984 69.148 50.2412 69.1025 50.3873 69.1051C50.5371 69.0956 50.6851 69.1418 50.8031 69.2348C50.8614 69.2808 50.9077 69.3402 50.9383 69.4079C50.9688 69.4756 50.9827 69.5497 50.9787 69.6239C50.9819 69.6994 50.9678 69.7746 50.9373 69.8436C50.9069 69.9127 50.861 69.9738 50.8031 70.0222C50.6813 70.1243 50.5275 70.1801 50.3688 70.1797C50.2163 70.1859 50.0673 70.1328 49.953 70.0315C49.8986 69.9788 49.8557 69.9154 49.8271 69.8452C49.7984 69.7751 49.7847 69.6997 49.7867 69.6239"
                />
                <path
                  d="M55.5249 71.5785V73.0051C55.5147 73.0695 55.5147 73.1352 55.5249 73.1996C55.5426 73.2558 55.5784 73.3047 55.6265 73.3385L55.8853 73.3941C55.921 73.3806 55.9604 73.3806 55.9961 73.3941C56.0242 73.4207 56.0408 73.4573 56.0423 73.496C56.0423 73.5794 55.9777 73.6165 55.8298 73.6165H54.2405C54.1111 73.6165 54.0372 73.6164 54.028 73.496C54.0187 73.3756 54.0834 73.3849 54.1758 73.3478L54.3976 73.2644C54.4465 73.2525 54.4893 73.2228 54.5177 73.1811C54.5177 73.1811 54.5177 73.0792 54.5177 72.9495V71.7267C54.5177 71.1802 54.3329 70.9023 53.9448 70.9023C53.7599 70.8984 53.5797 70.9608 53.4366 71.0783C53.3794 71.1231 53.3374 71.1846 53.3165 71.2543C53.3055 71.3435 53.3055 71.4337 53.3165 71.5229V72.9402C53.3011 73.026 53.3011 73.1138 53.3165 73.1996C53.3165 73.2737 53.4181 73.3386 53.6214 73.3941C53.6396 73.3953 53.6574 73.4001 53.6738 73.4082C53.6902 73.4163 53.7048 73.4275 53.7168 73.4413C53.7288 73.4551 53.738 73.4711 53.7438 73.4884C53.7497 73.5058 53.752 73.5241 53.7508 73.5423C53.7508 73.6257 53.7508 73.6628 53.6029 73.6628H51.9304C51.7826 73.6628 51.7086 73.6628 51.7086 73.5423C51.7086 73.4219 51.7641 73.4219 51.875 73.3941C51.9712 73.3811 52.0647 73.353 52.1522 73.3108C52.2005 73.2669 52.233 73.2083 52.2446 73.144C52.2446 73.0329 52.2446 72.8939 52.2446 72.7272V71.597C52.2628 71.5115 52.2628 71.4231 52.2446 71.3377C52.2446 71.2821 52.1337 71.2543 52.0043 71.2358H51.8935C51.8288 71.2358 51.7918 71.2358 51.7918 71.1339C51.791 71.111 51.7978 71.0886 51.8112 71.0701C51.8246 71.0516 51.8438 71.0382 51.8657 71.032L51.9674 70.9856H52.0783C52.2345 70.9459 52.3863 70.89 52.531 70.8189C52.6844 70.7506 52.825 70.6566 52.9468 70.541C52.975 70.5009 53.0124 70.4682 53.0558 70.4456C53.0992 70.4231 53.1474 70.4113 53.1963 70.4113C53.261 70.4113 53.2887 70.4947 53.2887 70.6614V70.9486L53.8894 70.5873C54.0533 70.5188 54.2293 70.4842 54.4068 70.4854C54.716 70.4807 55.018 70.5784 55.2662 70.7633C55.3775 70.838 55.4593 70.9494 55.4972 71.0783C55.546 71.2498 55.5678 71.428 55.5619 71.6063"
                />
                <path
                  d="M57.3637 71.8471C57.3597 72.085 57.4136 72.3203 57.5208 72.5326C57.6227 72.743 57.779 72.9222 57.9736 73.0514C58.1588 73.1779 58.3777 73.2457 58.6019 73.2459C58.8205 73.2452 59.0346 73.1843 59.221 73.0699L59.3781 72.9958C59.3781 72.9958 59.4428 72.9958 59.452 73.0791C59.4613 73.1625 59.2302 73.4404 58.7867 73.6072C58.5732 73.683 58.348 73.7207 58.1214 73.7183C57.8237 73.7323 57.5271 73.6739 57.2568 73.5481C56.9865 73.4222 56.7505 73.2328 56.569 72.9958C56.3853 72.7227 56.2916 72.3987 56.3011 72.0694C56.2987 71.8212 56.3659 71.5772 56.4951 71.3654C56.6866 71.054 56.9711 70.8109 57.3083 70.6707C57.6413 70.5164 58.004 70.4373 58.3709 70.4391C58.6602 70.4307 58.9468 70.4977 59.2025 70.6336C59.2568 70.6556 59.3069 70.6869 59.3504 70.7262C59.3672 70.79 59.3672 70.857 59.3504 70.9208C59.3514 71.0434 59.3327 71.1654 59.2949 71.282C59.2395 71.4395 59.1656 71.5229 59.0732 71.5229C59.0294 71.5255 58.9856 71.5176 58.9454 71.4998C58.9053 71.4821 58.8699 71.4551 58.8422 71.421L58.8052 71.3284C58.7313 71.2079 58.6204 71.0319 58.4633 70.8096C58.4283 70.7747 58.3863 70.7476 58.3402 70.73C58.294 70.7125 58.2446 70.7049 58.1953 70.7077C58.0365 70.7202 57.885 70.7797 57.7599 70.8786C57.6349 70.9776 57.542 71.1116 57.4931 71.2635C57.4079 71.4462 57.3638 71.6454 57.3637 71.8471"
                />
                <path
                  d="M61.1153 71.7638C61.0733 71.7496 61.0279 71.7496 60.9859 71.7638C60.9711 71.8089 60.9711 71.8576 60.9859 71.9027C60.9843 72.1245 61.0349 72.3435 61.1337 72.5419C61.2282 72.736 61.3715 72.902 61.5496 73.0236C61.7255 73.1468 61.9356 73.2116 62.1502 73.2089C62.3941 73.2075 62.6322 73.1333 62.834 72.9958C62.8966 72.9524 62.965 72.918 63.0372 72.8939C63.0613 72.8861 63.0871 72.8861 63.1112 72.8939C63.1161 72.904 63.1186 72.9151 63.1186 72.9263C63.1186 72.9376 63.1161 72.9486 63.1112 72.9587C63.1112 73.0699 62.991 73.1903 62.76 73.3385C62.6014 73.4339 62.4343 73.5145 62.2611 73.5794C62.0563 73.6521 61.8407 73.6897 61.6235 73.6906C61.3279 73.6918 61.0364 73.6219 60.7734 73.4868C60.5109 73.3523 60.2856 73.155 60.1173 72.9124C59.9341 72.6391 59.8404 72.3153 59.8493 71.9861C59.8472 71.7706 59.8943 71.5575 59.9873 71.3631C60.0802 71.1688 60.2163 70.9985 60.3853 70.8652C60.6534 70.6379 60.9776 70.487 61.3238 70.4283C61.6701 70.3696 62.0257 70.4053 62.3535 70.5317C62.558 70.609 62.7438 70.729 62.8986 70.8837C62.9741 70.9552 63.0344 71.0414 63.0757 71.1369C63.117 71.2325 63.1385 71.3354 63.1389 71.4395C63.1389 71.5507 63.1389 71.6155 63.0742 71.6526C62.9835 71.7006 62.8804 71.72 62.7785 71.7082L61.1153 71.7638ZM61.0229 71.4025C61.0156 71.4152 61.0117 71.4295 61.0117 71.4442C61.0117 71.4588 61.0156 71.4732 61.0229 71.4859C61.0836 71.5004 61.1469 71.5004 61.2077 71.4859H61.5403H61.8268C61.9162 71.4757 62.0018 71.4439 62.0762 71.3932C62.1099 71.3577 62.1356 71.3153 62.1515 71.269C62.1675 71.2226 62.1733 71.1734 62.1686 71.1246C62.171 71.0658 62.1607 71.0073 62.1384 70.9529C62.116 70.8985 62.0822 70.8497 62.0393 70.8096C61.9496 70.7325 61.8339 70.6927 61.7159 70.6985C61.5233 70.6953 61.3373 70.7686 61.1984 70.9023C61.1263 70.9635 61.0689 71.0403 61.0305 71.127C60.9921 71.2136 60.9737 71.3077 60.9767 71.4025"
                />
                <path
                  d="M67.0383 70.2168C67.0383 70.05 66.9828 69.9666 66.8904 69.9666L66.5208 70.0685C66.392 70.1135 66.2588 70.1445 66.1235 70.1612C66.0249 70.1612 65.9695 70.1241 65.9572 70.05C65.9449 69.9759 66.0373 69.9018 66.2344 69.8277H66.41C66.906 69.7338 67.3875 69.575 67.8422 69.3553C67.8818 69.3465 67.9228 69.3465 67.9623 69.3553C68.0455 69.3553 68.0824 69.4572 68.0824 69.661V72.9217C68.0674 73.0385 68.0674 73.1568 68.0824 73.2737C68.1038 73.3312 68.147 73.3778 68.2026 73.4034C68.2971 73.4221 68.3944 73.4221 68.489 73.4034C68.5809 73.3901 68.6743 73.3901 68.7662 73.4034C68.7904 73.4147 68.8104 73.4333 68.8237 73.4565C68.8369 73.4797 68.8427 73.5064 68.8401 73.5331C68.8401 73.6442 68.757 73.6906 68.5907 73.6906H68.0362H67.297H66.8165H66.336C66.1882 73.6906 66.1143 73.6442 66.105 73.5331C66.0958 73.4219 66.105 73.4219 66.2251 73.3941H66.4284C66.5679 73.4029 66.7075 73.3775 66.835 73.32C66.8918 73.2819 66.9373 73.229 66.9666 73.167C66.9959 73.105 67.0079 73.0363 67.0013 72.968L67.0383 70.2168Z"
                />
                <path
                  d="M71.1502 69.5683C71.0551 69.5669 70.9616 69.5934 70.8812 69.6444C70.8008 69.6954 70.7369 69.7687 70.6974 69.8555C70.6123 70.028 70.571 70.219 70.5773 70.4113C70.5773 70.6352 70.6148 70.8575 70.6882 71.069C70.8637 71.56 71.1132 71.8194 71.4274 71.8286H71.5752H71.6769C71.7416 71.8286 71.7693 71.8286 71.7693 71.912C71.7693 71.9954 71.6584 72.1065 71.4366 72.1621C71.2825 72.2012 71.1244 72.223 70.9654 72.2269C70.7918 72.2314 70.6193 72.1982 70.4598 72.1294C70.3003 72.0606 70.1575 71.958 70.0414 71.8286C69.8041 71.5789 69.6718 71.2472 69.6718 70.9023C69.6742 70.693 69.7177 70.4863 69.7998 70.2939C69.8819 70.1016 70.001 69.9273 70.1503 69.781C70.2996 69.6348 70.4762 69.5195 70.6699 69.4417C70.8637 69.3638 71.0708 69.325 71.2796 69.3275C71.5221 69.3196 71.7634 69.3663 71.9856 69.4641C72.2079 69.5619 72.4055 69.7083 72.564 69.8926C72.8756 70.2583 73.0403 70.7272 73.026 71.208C73.0259 71.6826 72.9016 72.1489 72.6656 72.5604C72.4326 72.9667 72.118 73.32 71.7416 73.5979C71.475 73.7971 71.1904 73.9708 70.8915 74.1167C70.6098 74.2875 70.2946 74.3949 69.9674 74.4316C69.9528 74.4377 69.9371 74.4409 69.9212 74.4409C69.9054 74.4409 69.8897 74.4377 69.875 74.4316C69.8668 74.4013 69.8668 74.3693 69.875 74.339C69.875 74.2741 69.9582 74.2186 70.1153 74.163C70.8412 73.9001 71.4373 73.3656 71.7785 72.6716C72.0035 72.2281 72.1056 71.7323 72.0742 71.2358C72.0722 70.9847 72.0349 70.7352 71.9633 70.4947C71.8941 70.2538 71.7814 70.0278 71.6307 69.8277C71.5773 69.749 71.5057 69.6843 71.4221 69.6391C71.3384 69.594 71.2452 69.5697 71.1502 69.5683Z"
                />
                <path
                  d="M75.6225 73.4775C75.9829 73.4775 76.1677 73.1811 76.1677 72.5512C76.1851 72.1091 76.0442 71.6753 75.7703 71.3284C75.7287 71.2672 75.6739 71.2163 75.6099 71.1794C75.5459 71.1425 75.4744 71.1206 75.4007 71.1153C75.3029 71.1197 75.2076 71.1483 75.1235 71.1987C75.0902 71.2218 75.0524 71.2376 75.0126 71.245C74.9945 71.2502 74.9753 71.2502 74.9572 71.245C74.954 71.2173 74.954 71.1893 74.9572 71.1616C74.9572 71.0968 75.0219 71.0227 75.1605 70.9393C75.3604 70.8155 75.5908 70.7499 75.8258 70.7499C76.0608 70.7499 76.2911 70.8155 76.4911 70.9393C76.6843 71.0739 76.8401 71.2557 76.9439 71.4673C77.0564 71.6979 77.1134 71.9517 77.1102 72.2084C77.1142 72.4205 77.0715 72.6309 76.9853 72.8246C76.8991 73.0183 76.7713 73.1906 76.6112 73.3293C76.2909 73.622 75.8711 73.7811 75.4377 73.7739C75.1104 73.785 74.7877 73.6944 74.5137 73.5145C74.0932 73.2163 73.8075 72.7634 73.719 72.2547C73.7041 72.0821 73.7041 71.9086 73.719 71.736C73.7092 71.213 73.8504 70.6983 74.1256 70.2538C74.462 69.7184 74.9297 69.2783 75.4839 68.9755C75.6435 68.8793 75.8103 68.7956 75.9829 68.7254C76.2396 68.6077 76.5147 68.5356 76.796 68.5123C76.8977 68.5123 76.9531 68.5586 76.9531 68.642C76.9531 68.7254 76.833 68.7346 76.5927 68.818L76.1584 68.9847C75.9899 69.0587 75.834 69.1587 75.6964 69.2812L75.4562 69.5128L75.2252 69.8184C74.8842 70.3169 74.7066 70.9094 74.7169 71.5136C74.7061 71.8269 74.7467 72.1399 74.8371 72.44C74.9104 72.7312 75.046 73.0031 75.2344 73.2366C75.2854 73.3064 75.3504 73.3646 75.4252 73.4077C75.5 73.4508 75.5829 73.4777 75.6687 73.4868"
                />
                <path
                  d="M80.0763 71.106C80.0763 71.1894 80.1503 71.2543 80.2889 71.3098C80.4014 71.3402 80.5099 71.3838 80.6123 71.4395C80.7522 71.5506 80.8661 71.6912 80.9459 71.8512C81.0258 72.0113 81.0696 72.187 81.0743 72.3659C81.0783 72.6274 80.9862 72.8813 80.8156 73.0792C80.6506 73.2747 80.4458 73.4326 80.2149 73.5423C79.923 73.6673 79.6084 73.7304 79.2909 73.7276C79.0083 73.7328 78.727 73.6889 78.4593 73.5979C78.2347 73.5522 78.031 73.4343 77.8793 73.2622C77.7276 73.09 77.636 72.8729 77.6184 72.6438C77.6034 72.4671 77.6491 72.2906 77.7478 72.1435C77.8165 72.0321 77.9066 71.9354 78.0129 71.8591C78.1192 71.7827 78.2395 71.7283 78.3669 71.6989C78.487 71.6526 78.5517 71.6248 78.5609 71.597L78.45 71.5322C78.45 71.5322 78.3114 71.4488 78.1728 71.3469C78.0585 71.2484 77.9671 71.1261 77.9048 70.9885C77.8426 70.8509 77.811 70.7013 77.8125 70.5502C77.8048 70.3167 77.8714 70.0867 78.0026 69.8936C78.1338 69.7004 78.3229 69.5541 78.5424 69.4757C78.8352 69.3552 79.1502 69.2983 79.4665 69.3089C79.7099 69.282 79.9563 69.3142 80.1847 69.4029C80.4131 69.4915 80.6168 69.6341 80.7786 69.8184C80.8783 69.9559 80.9331 70.1209 80.9357 70.2909C80.9322 70.4705 80.8667 70.6434 80.7505 70.7801C80.6343 70.9169 80.4744 71.0092 80.2981 71.0412C80.1965 71.0412 80.1503 71.0968 80.1503 71.1153L80.0763 71.106ZM78.9583 71.7545C78.8474 71.7545 78.7365 71.8842 78.6349 72.125C78.5876 72.2622 78.5626 72.406 78.5609 72.5511C78.5514 72.7066 78.5811 72.8619 78.6474 73.0028C78.7136 73.1436 78.8142 73.2655 78.9398 73.3571C79.0794 73.4579 79.2482 73.51 79.4203 73.5053C79.6187 73.5014 79.8091 73.4257 79.9562 73.2922C80.032 73.2366 80.0939 73.1642 80.1372 73.0806C80.1805 72.9971 80.2039 72.9046 80.2057 72.8105C80.2118 72.7551 80.2118 72.6992 80.2057 72.6438C80.1731 72.4801 80.0849 72.3328 79.9562 72.2269C79.8097 72.1148 79.6517 72.0186 79.485 71.9398C79.3277 71.8485 79.1557 71.7858 78.9767 71.7545H78.9583ZM79.8546 70.9856C79.9285 70.9856 80.0024 70.8745 80.1041 70.6707C80.1393 70.5854 80.1581 70.4943 80.1595 70.402C80.1647 70.1836 80.0927 69.9703 79.9562 69.7999C79.8956 69.7268 79.8212 69.6664 79.7373 69.6222C79.6534 69.578 79.5616 69.5508 79.4672 69.5422C79.3727 69.5336 79.2776 69.5437 79.1871 69.572C79.0966 69.6004 79.0125 69.6463 78.9398 69.7073C78.8744 69.7595 78.8213 69.8256 78.7846 69.9009C78.7478 69.9763 78.7282 70.0588 78.7273 70.1426C78.729 70.2283 78.7509 70.3123 78.791 70.3879C78.8311 70.4636 78.8884 70.5287 78.9583 70.578C79.0517 70.6449 79.1506 70.7038 79.2539 70.754L79.6328 70.9115L79.8546 70.9856"
                />
              </g>
              <g id="cup" fill="#fff">
                <path
                  fill-rule="evenodd"
                  clip-rule="evenodd"
                  d="M44.7322 25.6134C44.3626 24.687 44.2702 24.2794 43.2446 24.5018C42.2189 24.7241 42.3852 26.2618 42.3852 26.2618C46.6819 34.5526 52.4386 34.7193 52.4386 34.7193C46.9499 33.126 45.1018 26.5582 44.7322 25.6134Z"
                />
                <path
                  fill-rule="evenodd"
                  clip-rule="evenodd"
                  d="M68.4705 14.7566C66.1882 15.683 64.2108 16.8409 66.4192 17.8414C67.7501 18.5863 69.2568 18.9575 70.7806 18.9159C71.9264 18.8696 73.9593 19.3698 73.4418 22.3249C72.9244 25.2799 70.9192 37.0537 55.0259 35.201C55.0259 35.201 60.2282 39.2677 68.951 34.3766C77.6739 29.4855 78.986 22.6583 78.4778 19.1846C78.4778 19.1846 78.3207 14.2842 74.0886 13.8581C72.1695 13.7241 70.2457 14.0414 68.4705 14.7844"
                />
                <path
                  fill-rule="evenodd"
                  clip-rule="evenodd"
                  d="M62.0393 18.5268C41.5813 22.4731 42.2928 17.8784 51.1912 14.5621C60.0896 11.2458 65.9756 13.5709 71.3073 13.293C76.6389 13.0151 73.8576 10.514 73.8576 10.514C70.9839 7.92949 68.9048 9.06889 65.7169 8.88362C62.529 8.69835 51.5608 12.0888 49.2877 13.0614C47.0146 14.0341 39.955 15.8405 42.0341 20.4722C44.1131 25.1039 62.0393 18.5268 62.0393 18.5268Z"
                />
                <path
                  fill-rule="evenodd"
                  clip-rule="evenodd"
                  d="M80.9911 16.9891C82.0815 16.6834 83.9757 18.9252 82.5065 20.5463C81.3284 22.0421 79.9403 23.3589 78.3854 24.4554C78.3854 24.4554 87.0158 21.065 85.7221 17.0447C84.4285 13.0244 83.5322 13.0892 82.6451 13.2096C82.6451 13.2096 77.8771 13.7747 78.4778 15.7664C79.0784 17.758 79.8915 17.3041 80.9911 16.9984"
                />
                <path
                  fill-rule="evenodd"
                  clip-rule="evenodd"
                  d="M77.7016 34.9972C74.6708 36.6832 69.3853 37.9152 67.103 38.4803C64.8206 39.0453 61.4479 39.1565 57.4654 39.9068C52.0228 40.9443 41.4797 37.8504 40.9437 37.7021C39.8349 37.4057 38.3287 36.6368 38.4766 37.1649C38.6799 37.8318 40.6573 38.4803 40.6573 38.4803C41.9786 39.2121 47.0238 39.9439 49.1121 40.333C50.9525 40.8866 52.8798 41.0908 54.7949 40.9351C57.567 40.7405 58.759 41.6391 67.103 40.3607C75.447 39.0824 77.6184 36.5813 82.5712 34.1357C87.524 31.6902 88.6144 29.504 88.6144 29.504C85.0107 33.1909 80.7324 33.3483 77.7016 34.9972Z"
                />
                <path
                  fill-rule="evenodd"
                  clip-rule="evenodd"
                  d="M46.9037 24.4832C48.3291 24.5507 49.7569 24.4166 51.145 24.0849C52.2446 23.8255 53.3165 23.0567 53.1132 24.1497C53.0152 25.7592 53.4293 27.3583 54.2959 28.7166C54.642 29.4267 55.1323 30.0563 55.7354 30.5652C56.3385 31.0741 57.0411 31.451 57.798 31.6716C60.5701 32.811 61.6974 31.9773 62.5198 32.4405C62.5198 32.4405 60.2559 34.182 54.8226 32.7647C49.3893 31.3474 47.1255 28.7166 45.8226 25.0112C45.8226 25.0112 45.4253 24.0849 46.9037 24.5203"
                />
              </g>
            </svg>