<svg xmlns="http://www.w3.org/2000/svg" viewBox="0 0 137.49 33.58"><defs><style>.cls-1{fill:#00703c;}.cls-2{fill:#fff;}</style></defs><g id="Layer_2" data-name="Layer 2"><g id="Layer_1-2" data-name="Layer 1"><path class="cls-1" d="M6.6,22.29a20.44,20.44,0,0,1-.86,5.87c16.35-3.44,38.54-5.55,63-5.55s46.63,2.11,63,5.55a20.49,20.49,0,0,1-.86-5.87A20.92,20.92,0,0,1,137.49,7.1C120.8,2.89,96.2.23,68.76.23S16.69,2.89,0,7.1A21,21,0,0,1,6.6,22.29"/><path class="cls-2" d="M68.72,23.93c24,0,45.93,1.59,63.15,4.22C116,24.53,93.59,22.26,68.72,22.26S21.43,24.53,5.58,28.15c17.22-2.63,39.2-4.22,63.14-4.22"/><path class="cls-2" d="M68.72,2c26,0,49.89,1.91,68.6,5.1C120.1,2.75,95.74,0,68.72,0S17.34,2.75.13,7.13C18.84,3.94,42.71,2,68.72,2"/><path class="cls-2" d="M15,17.44l.39,2.31a2.22,2.22,0,0,0,.11.58c0,.16.09.43.11.51a.84.84,0,0,0,.35.35,2.47,2.47,0,0,0,.89.13c.37,0,.58.14.62.34s-.08.38-.39.44l-3,.37L11.34,23a.4.4,0,0,1-.52-.23.14.14,0,0,1,0-.07.35.35,0,0,1,.11-.32.75.75,0,0,1,.35-.16c.71-.18,1.06-.51,1.05-1a2.53,2.53,0,0,0,0-.55L11.2,13.19a2.2,2.2,0,0,0-.33-1,1.17,1.17,0,0,0-1-.28H9.34c-.08,0-.13-.1-.15-.22a.47.47,0,0,1,.38-.47l.7-.08.62-.07c.19,0,.58-.08,1.18-.14a7.41,7.41,0,0,0,1.06-.16l1.07-.2,1-.16c.45-.09.78-.14,1-.17a6.84,6.84,0,0,1,1.69-.12,3.58,3.58,0,0,1,1.33.3,3,3,0,0,1,1.9,2.43,3.64,3.64,0,0,1-.22,1.82,3.92,3.92,0,0,1-1.08,1.55,3.87,3.87,0,0,1-2,.83l-.38.06a1.85,1.85,0,0,1-.47,0,5.32,5.32,0,0,1-.56-.06L16,17a5,5,0,0,0-.77,0c-.11,0-.19.11-.21.28Zm-.29-2c0,.37.13.59.21.63a1.67,1.67,0,0,0,1.08.09,1.93,1.93,0,0,0,1.78-1.62,3.29,3.29,0,0,0,0-1.25A2.67,2.67,0,0,0,17,11.64a2.09,2.09,0,0,0-1.77-.52.9.9,0,0,0-.79.47,1.79,1.79,0,0,0-.09,1Z"/><path class="cls-2" d="M32.06,14.75a.62.62,0,0,0-.06-.36c-.05-.08-.15-.12-.31-.1l-4.16.46a.36.36,0,0,0-.22.09,1.4,1.4,0,0,0-.06.41v.26l.29,2.65v.38a3.78,3.78,0,0,0,.21.8c.06.25.45.4,1.15.47.37,0,.58.1.6.33s-.11.38-.4.43l-3,.25-2.76.38a.41.41,0,0,1-.51-.24.29.29,0,0,1,0-.09.36.36,0,0,1,.12-.31.67.67,0,0,1,.36-.14c.71-.16,1.08-.48,1.09-1a5,5,0,0,0,0-.55l-.82-7.48a2.21,2.21,0,0,0-.31-1,1.23,1.23,0,0,0-1-.31,1.48,1.48,0,0,1-.47-.05c-.1,0-.17-.11-.21-.26a.35.35,0,0,1,.08-.31.75.75,0,0,1,.33-.1l1.59-.14L25,9.11l.72-.1.69-.09.67-.1.7-.1c.28,0,.44.07.48.29s0,.21-.05.26L28,9.38a5.44,5.44,0,0,0-1.09.45c-.22.19-.29.73-.19,1.61l.2,1.82a1.49,1.49,0,0,0,.1.51c0,.08.2.13.47.14h.19l3.49-.38a1.86,1.86,0,0,0,.52-.11q.09-.08.06-.39l-.27-2.44c-.07-.67-.23-1.07-.48-1.19a1.56,1.56,0,0,0-.67-.15,3.2,3.2,0,0,1-.62-.09.25.25,0,0,1-.17-.24c0-.25.1-.38.4-.4l3-.26,2.78-.38q.51-.08.54.3t-.54.45a5,5,0,0,0-.66.2.75.75,0,0,0-.41.51,2.16,2.16,0,0,0,0,.36,4.17,4.17,0,0,0,0,.5l.05.42.74,6.71v.38a2,2,0,0,0,.34,1,1.55,1.55,0,0,0,1,.29c.45,0,.68.12.71.37s0,.26-.14.29l-.36.09L34.24,20l-2.8.38c-.32,0-.49-.06-.52-.32s.15-.32.51-.48l.77-.31a.7.7,0,0,0,.28-.41,2.36,2.36,0,0,0,0-.75Z"/><path class="cls-2" d="M39.27,9.68A1.47,1.47,0,0,0,39,8.75a1.27,1.27,0,0,0-1-.34,2,2,0,0,1-.43-.07.27.27,0,0,1-.19-.27c0-.24.13-.37.44-.39.84-.06,1.35-.08,1.53-.07.43,0,.92-.05,1.46-.06.21,0,.9-.07,2.06-.2l.74-.07c.31,0,.47.07.49.33s-.16.3-.5.41c-.67.14-1,.37-1.09.69a2.89,2.89,0,0,0-.07.88V10l.3,4.43a1.73,1.73,0,0,0,0,.6,7.82,7.82,0,0,0,.34,1.92,2.08,2.08,0,0,0,1.17,1.26,3.59,3.59,0,0,0,1.77.3,4.08,4.08,0,0,0,2-.64,2.28,2.28,0,0,0,1.12-1.62,9.2,9.2,0,0,0,0-1.66l-.32-4.81a5.34,5.34,0,0,0-.08-.95A1.3,1.3,0,0,0,48.36,8a1.31,1.31,0,0,0-.84-.23h-.37a.58.58,0,0,1-.29-.06.7.7,0,0,1-.12-.28.28.28,0,0,1,.13-.3,1.3,1.3,0,0,1,.52-.1l3.48-.27c.29,0,.44.09.46.33s-.19.39-.62.43a.92.92,0,0,0-.9.86,7.36,7.36,0,0,0,0,1.15l.37,5.33a3.64,3.64,0,0,1-.83,3,6.14,6.14,0,0,1-3.9,1.47c-2.94.21-4.72-.45-5.35-2a6.25,6.25,0,0,1-.45-2Z"/><path class="cls-2" d="M64.25,8.36v.32a.36.36,0,0,1-.37.35c-.25,0-.39-.15-.7-.47l-.33-.46A2.78,2.78,0,0,0,61.41,7a2.91,2.91,0,0,0-1.17-.15A3.63,3.63,0,0,0,58,7.68a5,5,0,0,0-1.42,1.91,7,7,0,0,0-.37,3.82,5.52,5.52,0,0,0,1.13,2.8,3.69,3.69,0,0,0,3.25,1.61c1.37,0,2.45-.91,3.22-2.6l.23-.33a.3.3,0,0,1,.25-.1c.26,0,.39.15.4.48V16.8a.79.79,0,0,1-.08.3,1.12,1.12,0,0,1-.48.46,7.36,7.36,0,0,1-3.72,1c-3.09.1-5.34-.83-6.74-2.81a6.2,6.2,0,0,1-.58-1,5.33,5.33,0,0,1-.49-2.08,5.24,5.24,0,0,1,1-3.4A6.72,6.72,0,0,1,56.45,7a10.07,10.07,0,0,1,3.93-.9,10,10,0,0,1,2.93.29,1,1,0,0,1,.49.2,1.37,1.37,0,0,1,.18.55Z"/><path class="cls-2" d="M76.88,15.75a1.86,1.86,0,0,0,.54,1.61,2.29,2.29,0,0,0,1,.2A3,3,0,0,0,80,17.24a2.62,2.62,0,0,0,1-.84l.64-.84a.61.61,0,0,1,.47-.3c.24,0,.35.15.34.45a7.8,7.8,0,0,1-.15,1.17L82.1,18c0,.24-.1.37-.3.38l-9.44-.18q-.45,0-.48-.39a.34.34,0,0,1,.16-.29.61.61,0,0,1,.37-.1c.73-.06,1.13-.34,1.2-.83a2.53,2.53,0,0,0,0-.55l.14-7.52a2.11,2.11,0,0,0-.17-1.08A1.22,1.22,0,0,0,72.67,7a1.82,1.82,0,0,1-.46-.11A.34.34,0,0,1,72,6.62c0-.15,0-.25.12-.29a.75.75,0,0,1,.33-.06l1.6.07,1.42.06h2.8c.29,0,.44.12.45.35s0,.21-.09.24l-.2.1a5.36,5.36,0,0,0-1.11.3C77.12,7.55,77,8.08,77,9Z"/><path class="cls-2" d="M83.4,12.44A5.77,5.77,0,0,1,84.73,9a6.87,6.87,0,0,1,3-2.09,7.12,7.12,0,0,1,2.79-.38,8.2,8.2,0,0,1,3.85,1.19A6.19,6.19,0,0,1,97,10.59a5.84,5.84,0,0,1,.44,2.58,6,6,0,0,1-1,3A6.43,6.43,0,0,1,94,18.3a8.11,8.11,0,0,1-8.91-1.44,5.93,5.93,0,0,1-1.34-2.11,6,6,0,0,1-.35-2.34m3.42-.36a8.14,8.14,0,0,0,.35,3.06,5.57,5.57,0,0,0,1.16,2.12,3,3,0,0,0,2.12,1.08c1.34.08,2.35-.7,3-2.32A7.8,7.8,0,0,0,94,13.47a8.22,8.22,0,0,0-.72-4,3.4,3.4,0,0,0-2.87-2.23c-1.36-.1-2.38.69-3.07,2.38a7.92,7.92,0,0,0-.53,2.5"/><path class="cls-2" d="M109.29,15.89l.49-4.62a3.32,3.32,0,0,0-.06-1.47,1.26,1.26,0,0,0-.93-.63l-.38-.06a.35.35,0,0,1-.34-.36h0c0-.26.28-.37.76-.32l3.43.36c.36,0,.53.18.51.4s-.27.34-.72.33h-.12a.88.88,0,0,0-.83.25,1.64,1.64,0,0,0-.33.92v.46l-1,9.31a.59.59,0,0,1-.15.42.54.54,0,0,1-.43.07.85.85,0,0,1-.5-.2,2.35,2.35,0,0,1-.19-.25,2,2,0,0,1-.25-.39L101.58,10l-.66,6.28c-.07.65-.11,1.05-.11,1.18a1.85,1.85,0,0,0,.26,1.1,1.22,1.22,0,0,0,.87.41c.53.06.78.21.76.44s-.23.41-.61.36l-1.81-.27-1.87-.12a.42.42,0,0,1-.48-.47c0-.29.08-.26.23-.28a1.78,1.78,0,0,1,.65,0c.43.05.75-.2.94-.74A7.69,7.69,0,0,0,100,16.5l.72-6.85a2,2,0,0,0,0-.9.82.82,0,0,0-.69-.52h-.29a.76.76,0,0,1-.32-.11.36.36,0,0,1-.1-.31c0-.23.25-.32.67-.28l3.45.37a2.77,2.77,0,0,1,.64.11,3.57,3.57,0,0,1,.46.64Z"/><path class="cls-2" d="M125.3,18.8l-.24,2.49c0,.19-.25.4-.71.64a5.06,5.06,0,0,1-1.75.43,10.83,10.83,0,0,1-6.06-1.28A6.49,6.49,0,0,1,114,18.53a5.37,5.37,0,0,1-.51-3.41,5.41,5.41,0,0,1,1.07-2.55A6.8,6.8,0,0,1,118,10.28a9.06,9.06,0,0,1,4.2-.3l.52.1a8.66,8.66,0,0,1,1.4.42l.63.23a1.81,1.81,0,0,1,.81.48,2.54,2.54,0,0,1,0,.39v1.21a2,2,0,0,1,0,.35.4.4,0,0,1-.4.38l-.11,0c-.17,0-.41-.32-.73-.89a8.34,8.34,0,0,0-.74-1.21,2.65,2.65,0,0,0-1.58-.67,3.61,3.61,0,0,0-2.35.35A5.46,5.46,0,0,0,117,15.4a8.28,8.28,0,0,0-.07,1.86,6.5,6.5,0,0,0,.39,1.85,3.55,3.55,0,0,0,3,2.42,1.68,1.68,0,0,0,1.33-.17,2.92,2.92,0,0,0,.4-1.25l.12-.77c.09-.58.14-.93.14-1a1,1,0,0,0-.28-.91,2.11,2.11,0,0,0-1-.35c-.36-.06-.52-.22-.49-.49s.32-.41.86-.32l5.26.75q.48.07.42.45c0,.22-.26.34-.68.38a1.56,1.56,0,0,0-.79.21,1.75,1.75,0,0,0-.28.79"/><path class="cls-2" d="M49.47,31.75v-.06c0-.23.09-.34.17-.34a.18.18,0,0,1,.15.08,2,2,0,0,1,.1.26c.07.21.1.32.11.33a.77.77,0,0,0,.19.28,1,1,0,0,0,.76.27,1.17,1.17,0,0,0,.68-.19.7.7,0,0,0,.32-.59.71.71,0,0,0-.39-.64l-.5-.24-.42-.16a2.91,2.91,0,0,1-.81-.53.92.92,0,0,1-.28-.7,1.23,1.23,0,0,1,.29-.8,1.87,1.87,0,0,1,.71-.5,2.38,2.38,0,0,1,.91-.18,2.15,2.15,0,0,1,1,.19c.07,0,.11.1.11.23v.66c0,.14,0,.21-.14.21s-.17-.06-.21-.19c-.15-.53-.42-.8-.83-.8a1.14,1.14,0,0,0-.57.16.6.6,0,0,0-.27.5.56.56,0,0,0,.37.53l.7.25a2.38,2.38,0,0,1,.93.49,1.28,1.28,0,0,1,.37,1,1.51,1.51,0,0,1-.9,1.39,2,2,0,0,1-1,.23,3.73,3.73,0,0,1-1.25-.25.39.39,0,0,1-.17-.14.17.17,0,0,1,0-.1.33.33,0,0,1,0-.14v-.51Z"/><path class="cls-2" d="M54,30.51a.46.46,0,0,0-.06-.28.39.39,0,0,0-.1-.08h-.3v-.1c0-.1.1-.13.31-.18a2.47,2.47,0,0,0,.52-.18c.12-.08.23-.17.34-.26a.78.78,0,0,1,.35-.18.1.1,0,0,1,.09.06.74.74,0,0,1,0,.21v2.35a.81.81,0,0,1,0,.22.33.33,0,0,0,0,.14.29.29,0,0,0,.07.2h.37a.14.14,0,0,1,.12.06.35.35,0,0,1,0,.08c0,.1-.08.15-.23.15H53.64c-.15,0-.23,0-.23-.15a.11.11,0,0,1,.06-.11h.31c.1,0,.16,0,.18-.11a1.74,1.74,0,0,0,0-.6Zm-.12-2.13a.53.53,0,0,1,.21-.42.77.77,0,0,1,.44-.14A.67.67,0,0,1,55,28a.49.49,0,0,1,.19.42.51.51,0,0,1-.19.43.73.73,0,0,1-.47.17.61.61,0,0,1-.45-.16.59.59,0,0,1-.18-.44"/><path class="cls-2" d="M60.09,30.49V32a.74.74,0,0,0,0,.21.33.33,0,0,0,.11.15l.28.07a.13.13,0,0,1,.12,0,.16.16,0,0,1,0,.11c0,.09-.07.13-.23.13H58.7c-.14,0-.22,0-.23-.13s.06-.12.16-.15l.24-.1a.23.23,0,0,0,.1-.15V30.65c0-.59-.2-.89-.62-.89a.85.85,0,0,0-.55.2.34.34,0,0,0-.13.18,1.41,1.41,0,0,0,0,.29V32a.66.66,0,0,0,0,.28c0,.08.13.15.33.22a.13.13,0,0,1,.14.12v0c0,.09,0,.13-.16.13H56.2c-.2,0-.2,0-.2-.13s.06-.13.18-.15a1.18,1.18,0,0,0,.3-.1.25.25,0,0,0,.1-.18V30.51a.62.62,0,0,0,0-.27.31.31,0,0,0-.26-.11H56.2c-.07,0-.11,0-.11-.1a.11.11,0,0,1,.08-.12l.11-.05h.12a2.92,2.92,0,0,0,.49-.19,1.54,1.54,0,0,0,.45-.3.32.32,0,0,1,.27-.14c.07,0,.1.09.1.27v.25l.65-.4a1.55,1.55,0,0,1,.56-.11,1.5,1.5,0,0,1,.93.3.61.61,0,0,1,.25.34,1.86,1.86,0,0,1,.07.57"/><path class="cls-2" d="M62.08,30.75a1.71,1.71,0,0,0,.17.74,1.44,1.44,0,0,0,.49.55,1.19,1.19,0,0,0,.68.21,1.3,1.3,0,0,0,.67-.19l.17-.08s.07,0,.08.09-.24.4-.72.57a2.18,2.18,0,0,1-.72.12A2,2,0,0,1,61.22,32a1.68,1.68,0,0,1-.29-1,1.45,1.45,0,0,1,.21-.76,2,2,0,0,1,.88-.75,2.68,2.68,0,0,1,1.15-.25,1.78,1.78,0,0,1,.9.21.36.36,0,0,1,.16.11.34.34,0,0,1,0,.2,1.32,1.32,0,0,1-.06.39q-.09.26-.24.27a.36.36,0,0,1-.25-.11l-.09-.13c-.08-.13-.2-.32-.37-.56a.34.34,0,0,0-.22-.05.87.87,0,0,0-.76.6,1.57,1.57,0,0,0-.14.64"/><path class="cls-2" d="M66.14,30.69a.2.2,0,0,0-.14.06.43.43,0,0,0,0,.16,1.45,1.45,0,0,0,.16.68,1.33,1.33,0,0,0,.45.52,1.16,1.16,0,0,0,.65.2,1.36,1.36,0,0,0,.75-.26.91.91,0,0,1,.22-.11.11.11,0,0,1,.08,0,.09.09,0,0,1,0,.07c0,.12-.13.26-.38.41a3.36,3.36,0,0,1-.54.26,2,2,0,0,1-.69.12,2,2,0,0,1-.92-.22,1.85,1.85,0,0,1-.71-.62,1.7,1.7,0,0,1-.29-1,1.55,1.55,0,0,1,.59-1.21,2.16,2.16,0,0,1,1.42-.5,2,2,0,0,1,.71.14,1.62,1.62,0,0,1,.59.38.81.81,0,0,1,.26.6c0,.12,0,.19-.07.23a.59.59,0,0,1-.32.06ZM66,30.3v.09a.34.34,0,0,0,.2,0h.67a.52.52,0,0,0,.27-.1.38.38,0,0,0,.1-.29.48.48,0,0,0-.14-.34.5.5,0,0,0-.35-.12.82.82,0,0,0-.56.22.7.7,0,0,0-.24.54"/><path class="cls-2" d="M72.55,29c0-.18-.06-.27-.16-.27l-.4.11a2.07,2.07,0,0,1-.43.1q-.16,0-.18-.12t.3-.24h.19a6.38,6.38,0,0,0,1.55-.5.29.29,0,0,1,.13,0c.09,0,.13.11.13.33V32a1.21,1.21,0,0,0,0,.38.27.27,0,0,0,.13.13.81.81,0,0,0,.31,0,.76.76,0,0,1,.3,0,.13.13,0,0,1,.08.13c0,.12-.09.18-.27.17H71.79c-.16,0-.24-.05-.25-.17s0-.12.13-.14h.22a1,1,0,0,0,.44-.08.41.41,0,0,0,.18-.38Z"/><path class="cls-2" d="M77,28.32a.54.54,0,0,0-.49.31,1.29,1.29,0,0,0-.13.61,2.1,2.1,0,0,0,.12.7c.19.54.46.81.8.82h.27c.07,0,.1,0,.1.1s-.12.2-.36.26a2.24,2.24,0,0,1-.51.07,1.27,1.27,0,0,1-1-.43,1.44,1.44,0,0,1-.4-1,1.73,1.73,0,0,1,1.74-1.7,1.8,1.8,0,0,1,1.39.61,2.11,2.11,0,0,1,.5,1.42,2.88,2.88,0,0,1-.39,1.46,3.72,3.72,0,0,1-1,1.13,7.78,7.78,0,0,1-.92.56,2.57,2.57,0,0,1-1,.33h-.1a.17.17,0,0,1,0-.1c0-.07.09-.13.26-.19a3.2,3.2,0,0,0,1.8-1.61A3.06,3.06,0,0,0,78,30.13a2.79,2.79,0,0,0-.12-.81,2.21,2.21,0,0,0-.36-.72.64.64,0,0,0-.52-.28"/><path class="cls-2" d="M81.84,32.54c.39,0,.59-.32.59-1A2,2,0,0,0,82,30.21a.53.53,0,0,0-.4-.22.79.79,0,0,0-.3.08.34.34,0,0,1-.12.06.06.06,0,0,1-.06,0v-.08c0-.08.07-.16.22-.25a1.42,1.42,0,0,1,.72-.2,1.29,1.29,0,0,1,.72.21,1.53,1.53,0,0,1,.49.58,1.79,1.79,0,0,1,.18.79,1.56,1.56,0,0,1-.54,1.21,1.82,1.82,0,0,1-1.27.48,1.78,1.78,0,0,1-1-.28,2.14,2.14,0,0,1-.86-1.31,2.62,2.62,0,0,1,0-.56,2.89,2.89,0,0,1,.44-1.59,4,4,0,0,1,1.42-1.38,4.53,4.53,0,0,1,.54-.27,2.71,2.71,0,0,1,.88-.22c.11,0,.17,0,.17.13s-.13.1-.39.2a3.8,3.8,0,0,0-.47.18,1.38,1.38,0,0,0-.5.32,3.07,3.07,0,0,0-.26.25,3.92,3.92,0,0,0-.25.32,3.16,3.16,0,0,0-.55,1.84,3.06,3.06,0,0,0,.13,1,2.32,2.32,0,0,0,.43.86.67.67,0,0,0,.47.27"/><path class="cls-2" d="M86.66,30c0,.08.08.16.23.21a1.19,1.19,0,0,1,.35.15,1.31,1.31,0,0,1,.5,1,1.2,1.2,0,0,1-.28.77,2,2,0,0,1-.65.5,2.29,2.29,0,0,1-1,.2,2.5,2.5,0,0,1-.9-.14,1.14,1.14,0,0,1-.91-1,.8.8,0,0,1,.14-.54l.14-.18a2.1,2.1,0,0,1,.53-.29q.19-.07.21-.12h0l-.12-.08a1.57,1.57,0,0,1-.3-.2,1.14,1.14,0,0,1-.39-.86A1.16,1.16,0,0,1,85,28.22,2.29,2.29,0,0,1,86,28a1.7,1.7,0,0,1,1.42.55.87.87,0,0,1,.17.52c0,.38-.23.65-.69.8-.11,0-.16.06-.16.09m-1.29.69c-.12,0-.24.13-.35.39a1.5,1.5,0,0,0-.08.47.94.94,0,0,0,.41.86.8.8,0,0,0,.52.16.9.9,0,0,0,.58-.23.63.63,0,0,0,.27-.52.54.54,0,0,0,0-.18.78.78,0,0,0-.27-.45,3.3,3.3,0,0,0-.51-.31,1.57,1.57,0,0,0-.55-.19m1-.84c.08,0,.16-.11.27-.34a.72.72,0,0,0,.06-.29,1,1,0,0,0-.22-.65.72.72,0,0,0-.58-.28.82.82,0,0,0-.52.18.63.63,0,0,0-.23.48.57.57,0,0,0,.25.46,2.07,2.07,0,0,0,.32.19l.41.18.24.07"/></g></g></svg>