<svg xmlns="http://www.w3.org/2000/svg" width="471" height="632" fill="none" xmlns:v="https://vecta.io/nano"><mask id="A" maskUnits="userSpaceOnUse" x="0" y="0" width="471" height="632" fill="#000"><path fill="#fff" d="M0 0h471v632H0z"/><path d="M73.112 100.616H61.448c-21.168 0-44.64-14.4-44.64-45.216s23.472-45.216 44.64-45.216h11.808V5h-12.96C35.24 5 10.472 22.856 10.472 55.4s24.768 50.4 49.824 50.4h12.816v-5.184zm58.032-59.328c16.704 0 28.8 14.544 28.8 30.384s-12.096 30.384-28.8 30.384-28.8-14.544-28.8-30.384 12.096-30.384 28.8-30.384zm0-5.184c-19.584 0-34.56 16.272-34.56 35.568s14.976 35.568 34.56 35.568 34.56-16.272 34.56-35.568-14.976-35.568-34.56-35.568zm96.72 1.44H199.64v-9.936c0-12.24 9.216-17.424 17.28-17.424h10.944V5H216.92c-10.368 0-22.752 6.624-22.752 21.168V105.8h5.472V42.728h28.224v-5.184zm54.478 0h-28.224v-9.936c0-12.24 9.216-17.424 17.28-17.424h10.944V5h-10.944c-10.368 0-22.752 6.624-22.752 21.168V105.8h5.472V42.728h28.224v-5.184zm34.606 48.384l48.816-33.12c-6.192-9.936-17.28-16.704-30.384-16.704-21.024 0-35.424 16.416-35.424 35.712 0 20.016 15.264 35.424 36.576 35.424 19.296 0 34.128-15.984 34.56-34.128h-5.76c-.288 15.552-13.392 28.944-29.952 28.944-16.992 0-29.664-13.824-29.664-29.952 0-16.272 12.24-30.816 29.664-30.816 9.072 0 16.992 4.032 22.032 10.368l-43.92 29.664 3.456 4.608zm94.415 0l48.817-33.12c-6.192-9.936-17.28-16.704-30.384-16.704-21.024 0-35.425 16.416-35.425 35.712 0 20.016 15.265 35.424 36.577 35.424 19.296 0 34.128-15.984 34.56-34.128h-5.761c-.288 15.552-13.391 28.944-29.951 28.944-16.992 0-29.664-13.824-29.664-29.952 0-16.272 12.24-30.816 29.664-30.816 9.072 0 16.992 4.032 22.032 10.368l-43.92 29.664 3.455 4.608zM80.024 264.256c-9.072 8.784-17.424 10.8-29.52 10.8-23.328 0-36.288-15.84-36.288-35.28 0-13.392 7.056-23.472 18.72-29.52l47.088 54zM37.832 178c-9.504 0-16.416 3.456-16.416 12.384 0 5.184 1.008 7.92 7.632 16.128-11.376 6.912-20.592 15.84-20.592 34.704 0 27.648 22.752 39.312 41.76 39.312 14.112 0 23.904-3.168 33.552-12.24l8.208 10.512h7.056l-11.664-14.4c5.04-6.336 7.344-15.264 7.344-23.328 0-13.536-4.32-22.752-14.832-31.248l-3.6 3.6c8.064 6.624 12.672 13.824 12.672 26.208 0 8.064-1.44 14.4-5.184 20.304L36.104 206.08c-5.616-6.336-9.216-10.512-9.216-15.264 0-5.328 2.016-7.632 9.216-7.632h40.608V178h-38.88zm1.872 178.184H68.36V351H5v5.184h28.656V451.8h6.048v-95.616zm57.981 75.744l48.816-33.12c-6.192-9.936-17.28-16.704-30.384-16.704-21.024 0-35.424 16.416-35.424 35.712 0 20.016 15.264 35.424 36.576 35.424 19.296 0 34.128-15.984 34.56-34.128h-5.76c-.288 15.552-13.392 28.944-29.952 28.944-16.992 0-29.664-13.824-29.664-29.952 0-16.272 12.24-30.816 29.664-30.816 9.072 0 16.992 4.032 22.032 10.368l-43.92 29.664 3.456 4.608zM241.061 451.8v-34.128c0-20.592-14.688-35.568-33.264-35.568s-33.264 14.976-33.264 35.568 14.688 35.568 33.264 35.568c10.512 0 17.136-5.184 21.312-8.64v-6.48c-5.904 6.192-12.24 9.936-21.312 9.936-13.824 0-27.504-12.816-27.504-30.384s13.68-30.384 27.504-30.384c16.416 0 27.792 14.544 27.792 30.384V451.8h5.472zm-172.989 173v-41.616c0-16.848-12.096-28.08-27.36-28.08-8.928 0-16.848 3.888-21.6 10.656h-.288V524h-5.472v100.8h5.472v-40.896c0-14.256 9.936-23.616 21.888-23.616s21.888 9.36 21.888 23.616V624.8h5.472zm63.072-64.512c16.704 0 28.8 14.544 28.8 30.384s-12.096 30.384-28.8 30.384-28.8-14.544-28.8-30.384 12.096-30.384 28.8-30.384zm0-5.184c-19.584 0-34.56 16.272-34.56 35.568s14.976 35.568 34.56 35.568 34.56-16.272 34.56-35.568-14.976-35.568-34.56-35.568zm63.024 1.44v41.616c0 16.848 12.096 28.08 27.36 28.08s27.36-11.232 27.36-28.08v-41.616h-5.472v40.896c0 14.256-9.936 23.616-21.888 23.616s-21.888-9.36-21.888-23.616v-40.896h-5.472zM277.4 624.8h29.232c15.12 0 23.904-5.616 23.904-17.568 0-26.928-47.232-14.112-47.232-34.272 0-7.488 5.904-11.232 11.808-11.232h30.24v-5.184H294.68c-11.232 0-17.424 7.632-17.424 16.56 0 25.488 47.232 12.24 47.232 34.992 0 6.912-4.608 11.52-16.56 11.52H277.4v5.184zm95.376-19.872l48.816-33.12c-6.192-9.936-17.28-16.704-30.384-16.704-21.024 0-35.424 16.416-35.424 35.712 0 20.016 15.264 35.424 36.576 35.424 19.296 0 34.128-15.984 34.56-34.128h-5.76c-.288 15.552-13.392 28.944-29.952 28.944-16.992 0-29.664-13.824-29.664-29.952 0-16.272 12.24-30.816 29.664-30.816 9.072 0 16.992 4.032 22.032 10.368l-43.92 29.664 3.456 4.608z"/></mask><path d="M73.112 100.616H61.448c-21.168 0-44.64-14.4-44.64-45.216s23.472-45.216 44.64-45.216h11.808V5h-12.96C35.24 5 10.472 22.856 10.472 55.4s24.768 50.4 49.824 50.4h12.816v-5.184zm58.032-59.328c16.704 0 28.8 14.544 28.8 30.384s-12.096 30.384-28.8 30.384-28.8-14.544-28.8-30.384 12.096-30.384 28.8-30.384zm0-5.184c-19.584 0-34.56 16.272-34.56 35.568s14.976 35.568 34.56 35.568 34.56-16.272 34.56-35.568-14.976-35.568-34.56-35.568zm96.72 1.44H199.64v-9.936c0-12.24 9.216-17.424 17.28-17.424h10.944V5H216.92c-10.368 0-22.752 6.624-22.752 21.168V105.8h5.472V42.728h28.224v-5.184zm54.478 0h-28.224v-9.936c0-12.24 9.216-17.424 17.28-17.424h10.944V5h-10.944c-10.368 0-22.752 6.624-22.752 21.168V105.8h5.472V42.728h28.224v-5.184zm34.606 48.384l48.816-33.12c-6.192-9.936-17.28-16.704-30.384-16.704-21.024 0-35.424 16.416-35.424 35.712 0 20.016 15.264 35.424 36.576 35.424 19.296 0 34.128-15.984 34.56-34.128h-5.76c-.288 15.552-13.392 28.944-29.952 28.944-16.992 0-29.664-13.824-29.664-29.952 0-16.272 12.24-30.816 29.664-30.816 9.072 0 16.992 4.032 22.032 10.368l-43.92 29.664 3.456 4.608zm94.415 0l48.817-33.12c-6.192-9.936-17.28-16.704-30.384-16.704-21.024 0-35.425 16.416-35.425 35.712 0 20.016 15.265 35.424 36.577 35.424 19.296 0 34.128-15.984 34.56-34.128h-5.761c-.288 15.552-13.391 28.944-29.951 28.944-16.992 0-29.664-13.824-29.664-29.952 0-16.272 12.24-30.816 29.664-30.816 9.072 0 16.992 4.032 22.032 10.368l-43.92 29.664 3.455 4.608zM80.024 264.256c-9.072 8.784-17.424 10.8-29.52 10.8-23.328 0-36.288-15.84-36.288-35.28 0-13.392 7.056-23.472 18.72-29.52l47.088 54zM37.832 178c-9.504 0-16.416 3.456-16.416 12.384 0 5.184 1.008 7.92 7.632 16.128-11.376 6.912-20.592 15.84-20.592 34.704 0 27.648 22.752 39.312 41.76 39.312 14.112 0 23.904-3.168 33.552-12.24l8.208 10.512h7.056l-11.664-14.4c5.04-6.336 7.344-15.264 7.344-23.328 0-13.536-4.32-22.752-14.832-31.248l-3.6 3.6c8.064 6.624 12.672 13.824 12.672 26.208 0 8.064-1.44 14.4-5.184 20.304L36.104 206.08c-5.616-6.336-9.216-10.512-9.216-15.264 0-5.328 2.016-7.632 9.216-7.632h40.608V178h-38.88zm1.872 178.184H68.36V351H5v5.184h28.656V451.8h6.048v-95.616zm57.981 75.744l48.816-33.12c-6.192-9.936-17.28-16.704-30.384-16.704-21.024 0-35.424 16.416-35.424 35.712 0 20.016 15.264 35.424 36.576 35.424 19.296 0 34.128-15.984 34.56-34.128h-5.76c-.288 15.552-13.392 28.944-29.952 28.944-16.992 0-29.664-13.824-29.664-29.952 0-16.272 12.24-30.816 29.664-30.816 9.072 0 16.992 4.032 22.032 10.368l-43.92 29.664 3.456 4.608zM241.061 451.8v-34.128c0-20.592-14.688-35.568-33.264-35.568s-33.264 14.976-33.264 35.568 14.688 35.568 33.264 35.568c10.512 0 17.136-5.184 21.312-8.64v-6.48c-5.904 6.192-12.24 9.936-21.312 9.936-13.824 0-27.504-12.816-27.504-30.384s13.68-30.384 27.504-30.384c16.416 0 27.792 14.544 27.792 30.384V451.8h5.472zm-172.989 173v-41.616c0-16.848-12.096-28.08-27.36-28.08-8.928 0-16.848 3.888-21.6 10.656h-.288V524h-5.472v100.8h5.472v-40.896c0-14.256 9.936-23.616 21.888-23.616s21.888 9.36 21.888 23.616V624.8h5.472zm63.072-64.512c16.704 0 28.8 14.544 28.8 30.384s-12.096 30.384-28.8 30.384-28.8-14.544-28.8-30.384 12.096-30.384 28.8-30.384zm0-5.184c-19.584 0-34.56 16.272-34.56 35.568s14.976 35.568 34.56 35.568 34.56-16.272 34.56-35.568-14.976-35.568-34.56-35.568zm63.024 1.44v41.616c0 16.848 12.096 28.08 27.36 28.08s27.36-11.232 27.36-28.08v-41.616h-5.472v40.896c0 14.256-9.936 23.616-21.888 23.616s-21.888-9.36-21.888-23.616v-40.896h-5.472zM277.4 624.8h29.232c15.12 0 23.904-5.616 23.904-17.568 0-26.928-47.232-14.112-47.232-34.272 0-7.488 5.904-11.232 11.808-11.232h30.24v-5.184H294.68c-11.232 0-17.424 7.632-17.424 16.56 0 25.488 47.232 12.24 47.232 34.992 0 6.912-4.608 11.52-16.56 11.52H277.4v5.184zm95.376-19.872l48.816-33.12c-6.192-9.936-17.28-16.704-30.384-16.704-21.024 0-35.424 16.416-35.424 35.712 0 20.016 15.264 35.424 36.576 35.424 19.296 0 34.128-15.984 34.56-34.128h-5.76c-.288 15.552-13.392 28.944-29.952 28.944-16.992 0-29.664-13.824-29.664-29.952 0-16.272 12.24-30.816 29.664-30.816 9.072 0 16.992 4.032 22.032 10.368l-43.92 29.664 3.456 4.608z" stroke="#00703c" stroke-width="10" mask="url(#A)"/></svg>