<svg width="814" height="575" viewBox="0 0 814 575" fill="none" xmlns="http://www.w3.org/2000/svg">
<path d="M22.096 220.056H27.096V215.056V68.176C27.096 45.1531 45.4558 25.944 71.92 25.944C85.0491 25.944 96.0222 30.3012 103.7 37.9795C111.368 45.6471 116.168 57.0456 116.168 71.92C116.168 86.7944 111.368 98.1929 103.7 105.86C96.0222 113.539 85.0491 117.896 71.92 117.896H32.752H27.752V122.896V133.84V138.84H32.752H71.92C90.4119 138.84 107.192 132.869 119.388 121.304C131.627 109.7 138.84 92.8477 138.84 71.92C138.84 50.9923 131.627 34.1404 119.388 22.5358C107.192 10.971 90.4119 5 71.92 5C50.6929 5 33.8634 12.3634 22.3475 24.3146C10.8748 36.221 5 52.3438 5 69.328V215.056V220.056H10H22.096ZM197.776 220.056H202.776V215.056V119.832H304.232V215.056V220.056H309.232H321.328H326.328V215.056V13.456V8.45599H321.328H309.232H304.232V13.456V99.464H202.776V13.456V8.45599H197.776H185.68H180.68V13.456V215.056V220.056H185.68H197.776ZM388.815 8.45599H383.815V13.456V149.104C383.815 172.053 391.011 190.791 404.247 203.791C417.469 216.777 436.182 223.512 458.223 223.512C480.263 223.512 498.976 216.777 512.198 203.791C525.434 190.791 532.63 172.053 532.63 149.104V13.456V8.45599H527.63H515.535H510.535V13.456V152.848C510.535 168.662 505.206 180.951 496.308 189.307C487.371 197.699 474.358 202.568 458.223 202.568C442.087 202.568 429.074 197.699 420.137 189.307C411.239 180.951 405.911 168.662 405.911 152.848V13.456V8.45599H400.911H388.815ZM717.045 204.688V199.688H712.045H688.717C668.618 199.688 647.509 192.839 631.494 178.822C615.589 164.9 604.437 143.681 604.437 114.256C604.437 84.8306 615.589 63.6119 631.494 49.6904C647.509 35.6732 668.618 28.824 688.717 28.824H712.333H717.333V23.824V13.456V8.45599H712.333H686.413C633.967 8.45599 581.765 45.9981 581.765 114.256C581.765 182.514 633.967 220.056 686.413 220.056H712.045H717.045V215.056V204.688ZM11.152 354.456H6.152V359.456V501.728C6.152 543.623 35.4284 566.056 62.992 566.056H105.328H110.328V561.056V550.688V545.688H105.328H67.024C55.2183 545.688 45.6615 540.984 38.9876 533.24C32.2591 525.432 28.248 514.266 28.248 501.152V359.456V354.456H23.248H11.152ZM418.094 566.056H423.094V561.056V376.16C423.662 377.289 424.316 378.648 425.079 380.282C425.08 380.285 425.082 380.288 425.083 380.29L505.118 552.74C505.123 552.75 505.127 552.76 505.132 552.77C507.875 558.856 514.001 569.512 528.11 569.512C533.808 569.512 539.014 568.219 542.743 564.546C546.487 560.858 547.798 555.702 547.798 550.112V356V351H542.798H530.702H525.702V356V543.135L442.782 365.976L442.779 365.969L442.775 365.961C440.154 360.412 437.265 356.397 433.364 353.933C429.416 351.439 425.157 351 420.974 351C413.79 351 408.492 353.787 405.155 358.271C401.995 362.517 400.998 367.732 400.998 372.128V561.056V566.056H405.998H418.094ZM784.951 392.595L788.154 389.282L785.113 385.82C765.308 363.274 734.768 351 703.02 351C642.811 351 595.78 400.608 595.78 460.256C595.78 519.904 642.811 569.512 703.02 569.512C760.596 569.512 810.04 525.103 808.243 453.794L808.12 448.92H803.244H703.02H698.02V453.92V464.288V469.288H703.02H785.32C781.915 513.947 747.868 548.568 703.02 548.568C654.811 548.568 618.452 508.197 618.452 460.256C618.452 412.315 654.811 371.944 703.02 371.944C729.401 371.944 753.817 382.385 769.149 400.944L772.712 405.257L776.599 401.235L784.951 392.595ZM245.202 569.512C305.374 569.512 353.018 519.941 353.018 460.256C353.018 400.571 305.374 351 245.202 351C184.993 351 137.962 400.608 137.962 460.256C137.962 519.904 184.993 569.512 245.202 569.512ZM245.202 548.568C196.992 548.568 160.633 508.197 160.633 460.256C160.633 412.315 196.992 371.944 245.202 371.944C293.174 371.944 330.346 412.369 330.346 460.256C330.346 508.143 293.174 548.568 245.202 548.568Z" stroke="#00703C" stroke-width="10"/>
</svg>
