<svg xmlns="http://www.w3.org/2000/svg" viewBox="0 0 1280 70"><defs><style>.cls-1{fill-rule:evenodd;}</style></defs><g id="Layer_2" data-name="Layer 2"><g id="Layer_1-2" data-name="Layer 1"><path d="M0,0C514.52,84,794.81,84,1280,0V70H0Z"/><path class="cls-1" d="M619.78,50.16c-.4-1-.5-1.44-1.61-1.2s-.93,1.9-.93,1.9c4.65,9,10.88,9.13,10.88,9.13C622.18,58.27,620.18,51.18,619.78,50.16Zm25.69-11.72c-2.47,1-4.61,2.25-2.22,3.33A9.06,9.06,0,0,0,648,42.93c1.24,0,3.44.49,2.88,3.68s-2.73,15.9-19.93,13.9c0,0,5.63,4.39,15.07-.89S656.85,47,656.3,43.22c0,0-.17-5.29-4.75-5.75a13.45,13.45,0,0,0-6.08,1m-7,4c-22.14,4.26-21.37-.7-11.74-4.28s16-1.07,21.77-1.37,2.76-3,2.76-3c-3.11-2.79-5.36-1.56-8.81-1.76s-15.32,3.46-17.78,4.51-10.1,3-7.85,8,21.65-2.1,21.65-2.1ZM659,40.85c1.18-.33,3.23,2.09,1.64,3.84a21,21,0,0,1-4.46,4.22s9.34-3.66,7.94-8-2.37-4.27-3.33-4.14c0,0-5.16.61-4.51,2.76s1.53,1.66,2.72,1.33m-3.56,19.43c-3.28,1.82-9,3.15-11.47,3.76s-6.12.73-10.43,1.54c-5.89,1.12-17.3-2.22-17.88-2.38-1.2-.32-2.83-1.15-2.67-.58s2.36,1.42,2.36,1.42c1.43.79,6.89,1.58,9.15,2a16.61,16.61,0,0,0,6.15.65c3-.21,4.29.76,13.32-.62s11.38-4.08,16.74-6.72,6.54-5,6.54-5c-3.9,4-8.53,4.15-11.81,5.93ZM622.13,48.94a16.49,16.49,0,0,0,4.59-.43c1.19-.28,2.35-1.11,2.13.07a8.16,8.16,0,0,0,1.28,4.93,6.22,6.22,0,0,0,1.56,2,6.09,6.09,0,0,0,2.23,1.19c3,1.23,4.22.33,5.11.83,0,0-2.45,1.88-8.33.35s-8.33-4.37-9.74-8.37c0,0-.43-1,1.17-.53"/></g></g></svg>