<svg width="1280" height="70" viewBox="0 0 1280 70" fill="none" xmlns="http://www.w3.org/2000/svg">
<path d="M0 0C514.522 83.9866 794.809 84.0129 1280 0V70H0V0Z" fill="#39BD7F"/>
<path fill-rule="evenodd" clip-rule="evenodd" d="M619.781 50.1623C619.381 49.1623 619.281 48.7223 618.171 48.9623C617.061 49.2023 617.241 50.8623 617.241 50.8623C621.891 59.8123 628.121 59.9923 628.121 59.9923C622.181 58.2723 620.181 51.1823 619.781 50.1623Z" fill="#39BD7F"/>
<path fill-rule="evenodd" clip-rule="evenodd" d="M645.471 38.4423C643.001 39.4423 640.861 40.6923 643.251 41.7723C644.691 42.5765 646.322 42.9772 647.971 42.9323C649.211 42.8823 651.411 43.4223 650.851 46.6123C650.291 49.8023 648.121 62.5123 630.921 60.5123C630.921 60.5123 636.551 64.9023 645.991 59.6223C655.431 54.3423 656.851 46.9723 656.301 43.2223C656.301 43.2223 656.131 37.9323 651.551 37.4723C649.474 37.3277 647.392 37.6701 645.471 38.4723" fill="#39BD7F"/>
<path fill-rule="evenodd" clip-rule="evenodd" d="M638.511 42.5123C616.371 46.7723 617.141 41.8123 626.771 38.2323C636.401 34.6523 642.771 37.1623 648.541 36.8623C654.311 36.5623 651.301 33.8623 651.301 33.8623C648.191 31.0723 645.941 32.3023 642.491 32.1023C639.041 31.9023 627.171 35.5623 624.711 36.6123C622.251 37.6623 614.611 39.6123 616.861 44.6123C619.111 49.6123 638.511 42.5123 638.511 42.5123Z" fill="#39BD7F"/>
<path fill-rule="evenodd" clip-rule="evenodd" d="M659.021 40.8523C660.201 40.5223 662.251 42.9423 660.661 44.6923C659.386 46.3071 657.884 47.7285 656.201 48.9123C656.201 48.9123 665.541 45.2523 664.141 40.9123C662.741 36.5723 661.771 36.6423 660.811 36.7723C660.811 36.7723 655.651 37.3823 656.301 39.5323C656.951 41.6823 657.831 41.1923 659.021 40.8623" fill="#39BD7F"/>
<path fill-rule="evenodd" clip-rule="evenodd" d="M655.461 60.2923C652.181 62.1123 646.461 63.4423 643.991 64.0523C641.521 64.6623 637.871 64.7823 633.561 65.5923C627.671 66.7123 616.261 63.3723 615.681 63.2123C614.481 62.8923 612.851 62.0623 613.011 62.6323C613.231 63.3523 615.371 64.0523 615.371 64.0523C616.801 64.8423 622.261 65.6323 624.521 66.0523C626.513 66.65 628.598 66.8704 630.671 66.7023C633.671 66.4923 634.961 67.4623 643.991 66.0823C653.021 64.7023 655.371 62.0023 660.731 59.3623C666.091 56.7223 667.271 54.3623 667.271 54.3623C663.371 58.3423 658.741 58.5123 655.461 60.2923Z" fill="#39BD7F"/>
<path fill-rule="evenodd" clip-rule="evenodd" d="M622.131 48.9423C623.674 49.0151 625.219 48.8704 626.721 48.5123C627.911 48.2323 629.071 47.4023 628.851 48.5823C628.745 50.3197 629.193 52.0459 630.131 53.5123C630.505 54.2788 631.036 54.9586 631.689 55.5079C632.341 56.0573 633.102 56.4641 633.921 56.7023C636.921 57.9323 638.141 57.0323 639.031 57.5323C639.031 57.5323 636.581 59.4123 630.701 57.8823C624.821 56.3523 622.371 53.5123 620.961 49.5123C620.961 49.5123 620.531 48.5123 622.131 48.9823" fill="#39BD7F"/>
</svg>
