<svg id="Capa_1" enable-background="new 0 0 512 512" height="512" viewBox="0 0 512 512" width="512" xmlns="http://www.w3.org/2000/svg"><g><path d="m302.032 270.205-17.919-17.919c-2.929-2.929-7.678-2.929-10.606 0-2.929 2.929-2.929 7.678 0 10.606l141.94 141.94c2.386 2.268 7.168 3.431 10.95-.367 35.856-41.022 55.603-93.748 55.603-148.465 0-60.363-23.509-117.116-66.197-159.803s-99.44-66.197-159.803-66.197c-54.717 0-107.443 19.747-148.466 55.603-1.563 1.367-2.49 3.32-2.56 5.396-.07 2.075.724 4.086 2.192 5.555l141.304 141.302c2.929 2.929 7.678 2.929 10.606 0 2.929-2.929 2.929-7.678 0-10.606l-16.233-16.233c46.841-37.585 97.499-48.101 133.655-27.467-11.655 35.27-35.384 62.9-74.466 86.655zm112.685-48.353c20.872 36.645 10.598 86.083-27.579 133.46l-48.944-48.943c35.937-23.62 61.008-51.313 76.523-84.517zm-205.713-44.675-57.03-57.03c12.042-14.746 26.596-24.524 43.324-29.08 12.96 25.766 17.471 54.048 13.706 86.11zm13.243 13.243c5.511-32.452 3.585-61.536-5.924-88.277 6.968-.995 15.086-.91 21.074.309 8.818 27.547 10.359 57.163 4.715 90.235-3.337 2.438-6.649 4.995-9.931 7.666zm107.255-32.288c-5.018-15.014-11.604-28.461-19.641-39.969-2.372-3.396-7.049-4.225-10.443-1.854-3.396 2.372-4.226 7.047-1.854 10.443 6.684 9.57 12.286 20.698 16.702 33.138-17.463 3.055-37.5 10.861-55.395 21.676 3.739-31.882.72-62.414-9.465-90.439 9.001 2.471 17.474 6.512 25.206 12.026 3.372 2.405 8.056 1.621 10.461-1.752s1.621-8.056-1.752-10.461c-9.738-6.944-20.48-11.923-31.927-14.799-4.954-1.246-9.991.329-13.476 4.208-1.702 1.895-2.847 4.152-3.408 6.547-7.76-.806-16.533-.448-24.058 1.05-.685-1.453-1.386-2.901-2.12-4.341-3.021-5.929-9.47-8.954-15.681-7.354-19.909 5.124-37.152 16.305-51.331 33.243l-17.767-17.767c37.339-30.19 84.055-46.727 132.447-46.727 56.356 0 109.342 21.949 149.197 61.803s61.803 92.841 61.803 149.197c0 48.392-16.537 95.108-46.728 132.446l-22.481-22.481c20.009-24.555 33.584-50.79 39.318-76.119 6.427-28.396 2.834-55.085-10.39-77.184-2.622-4.383-7.295-6.833-12.504-6.553-2.544.136-4.95.923-7.04 2.22-4.918-6.057-11.374-12.007-17.754-16.27.543-1.512 1.072-3.032 1.572-4.568 2.057-6.328-.364-13.026-5.888-16.289-16.413-9.693-35.34-14.096-55.603-13.07zm54.015 48.104c5.641 4.228 11.334 10.041 14.708 15.145-14.835 28.778-38.103 53.117-70.87 74.147l-14.43-14.43c33.347-20.907 56.624-45.565 70.592-74.862z"/><path d="m437.019 74.981c-48.353-48.352-112.64-74.981-181.019-74.981-44.955 0-89.176 11.82-127.883 34.184-37.546 21.692-69.218 52.8-91.59 89.961-2.137 3.548-.992 8.157 2.557 10.293 3.55 2.136 8.157.992 10.294-2.557 44.061-73.187 121.304-116.881 206.622-116.881 132.888 0 241 108.112 241 241s-108.112 241-241 241-241-108.112-241-241c0-32.549 6.375-64.12 18.949-93.834 1.614-3.815-.17-8.216-3.984-9.83-3.816-1.615-8.215.17-9.83 3.984-13.361 31.575-20.135 65.112-20.135 99.68 0 68.379 26.629 132.666 74.981 181.019 48.353 48.352 112.64 74.981 181.019 74.981s132.666-26.629 181.019-74.981c48.352-48.353 74.981-112.64 74.981-181.019s-26.629-132.666-74.981-181.019z"/><path d="m90.999 104.974c-2.076.069-4.029.997-5.396 2.56-35.856 41.023-55.603 93.749-55.603 148.466 0 60.363 23.509 117.116 66.197 159.803s99.44 66.197 159.803 66.197c54.717 0 107.443-19.747 148.466-55.603 1.563-1.367 2.491-3.32 2.56-5.396.07-2.075-.724-4.086-2.192-5.555l-100.583-100.581c-.009-.008-.017-.017-.026-.026l-207.672-207.672c-1.468-1.469-3.492-2.273-5.554-2.193zm165.001 362.026c-56.356 0-109.342-21.949-149.197-61.803s-61.803-92.841-61.803-149.197c0-48.392 16.537-95.108 46.728-132.446l26.315 26.315c-9.223 22.997-14.254 52.426-14.276 81.854.037 58.822 18.469 109.28 51.582 136.391 2.12 7.776 5.208 15.238 9.293 22.292 3.662 5.905 11.905 9.028 19.524 4.515 5.065 6.062 11.819 11.608 18.068 15.31-.915 2.711-1.638 5.321-2.145 7.797-1.205 5.888 1.257 11.637 6.272 14.647 15.054 9.042 32.096 13.597 50.384 13.597 11.508 0 23.511-1.805 35.819-5.431 3.973-1.171 6.245-5.341 5.075-9.314-1.171-3.974-5.343-6.246-9.314-5.075-27.355 8.061-52.707 5.938-73.388-6.132 5.511-24.901 35.393-63.253 82.822-90.737l58.082 58.082c-11.797 10.201-24.053 18.831-36.502 25.669-3.63 1.995-4.957 6.554-2.963 10.185 1.365 2.485 3.932 3.891 6.581 3.891 1.221 0 2.458-.299 3.604-.928 13.661-7.504 27.063-16.99 39.907-28.19l21.979 21.979c-37.339 30.192-84.055 46.729-132.447 46.729zm-56.185-235.358c-32.103 36.725-48.65 76.318-47.948 111.822-21.235-25.904-33.134-65.505-33.101-111.73.018-25.341 3.79-49.472 10.924-70.217zm61.682 61.682c-37.658 24.087-68.993 56.565-84.727 88.057-21.02-38.234-8.161-90.84 33.686-139.098zm25.313 25.312c-39.325 23.548-65.699 53.119-78.549 77.707-5.509-3.577-11.573-9.054-14.925-14.161 15.842-28.075 44.735-56.643 79.032-77.988z"/></g></svg>