<svg viewBox="0 0 128 111" fill="none" xmlns="http://www.w3.org/2000/svg">
<path d="M101.125 38.3837H49.8904C49.0759 38.3828 48.295 38.0542 47.719 37.47C47.143 36.8857 46.819 36.0936 46.8181 35.2674V4.61107C46.8188 3.99315 47.0611 3.40073 47.4918 2.96379C47.9226 2.52685 48.5066 2.28106 49.1158 2.28035H101.863C102.482 2.28107 103.076 2.53078 103.513 2.9747C103.951 3.41862 104.197 4.02049 104.198 4.64828V35.2674C104.197 36.0936 103.873 36.8857 103.297 37.47C102.721 38.0542 101.94 38.3828 101.125 38.3837V38.3837Z" fill="white"/>
<path d="M101.125 38.3837H49.8904C49.0759 38.3828 48.295 38.0542 47.719 37.47C47.143 36.8857 46.819 36.0936 46.8181 35.2674V4.61107C46.8188 3.99315 47.0611 3.40073 47.4918 2.96379C47.9226 2.52685 48.5066 2.28106 49.1158 2.28035H101.863C102.482 2.28107 103.076 2.53078 103.513 2.9747C103.951 3.41862 104.197 4.02049 104.198 4.64828V35.2674C104.197 36.0936 103.873 36.8857 103.297 37.47C102.721 38.0542 101.94 38.3828 101.125 38.3837V38.3837ZM49.1158 2.6365C48.5997 2.6371 48.1049 2.84532 47.74 3.2155C47.3751 3.58568 47.1698 4.08757 47.1692 4.61107V35.2674C47.17 35.9992 47.457 36.7008 47.9672 37.2182C48.4773 37.7357 49.169 38.0268 49.8904 38.0276H101.125C101.847 38.0268 102.539 37.7357 103.049 37.2182C103.559 36.7008 103.846 35.9992 103.847 35.2674V4.64828C103.846 4.11492 103.637 3.60356 103.265 3.22641C102.893 2.84926 102.389 2.63711 101.863 2.6365H49.1158Z" fill="#3F3D56"/>
<path d="M52.6995 35.2675H98.3167C99.0617 35.2675 99.7761 34.9673 100.303 34.433C100.83 33.8986 101.126 33.1739 101.126 32.4183V10.0613C101.126 9.30564 100.83 8.58093 100.303 8.0466C99.7761 7.51227 99.0617 7.21209 98.3167 7.21209H52.6995C51.9545 7.21209 51.2401 7.51227 50.7133 8.0466C50.1865 8.58093 49.8906 9.30564 49.8906 10.0613V32.4183C49.8906 33.1739 50.1865 33.8986 50.7133 34.433C51.2401 34.9673 51.9545 35.2675 52.6995 35.2675Z" fill="#F0F0F0"/>
<path d="M104.275 4.44304H46.6911V2.94714C46.6965 2.16127 47.0089 1.40965 47.5599 0.857158C48.111 0.304665 48.8555 -0.00358355 49.6303 3.15074e-05H101.335C102.11 -0.00358732 102.855 0.304659 103.406 0.857152C103.957 1.40965 104.269 2.16127 104.275 2.94714V4.44304Z" fill="#06727D"/>
<path d="M52.2366 2.98873C52.6519 2.98873 52.9886 2.64723 52.9886 2.22596C52.9886 1.80469 52.6519 1.46319 52.2366 1.46319C51.8213 1.46319 51.4846 1.80469 51.4846 2.22596C51.4846 2.64723 51.8213 2.98873 52.2366 2.98873Z" fill="white"/>
<path d="M55.091 2.98873C55.5064 2.98873 55.843 2.64723 55.843 2.22596C55.843 1.80469 55.5064 1.46319 55.091 1.46319C54.6757 1.46319 54.3391 1.80469 54.3391 2.22596C54.3391 2.64723 54.6757 2.98873 55.091 2.98873Z" fill="white"/>
<path d="M57.9455 2.98873C58.3608 2.98873 58.6975 2.64723 58.6975 2.22596C58.6975 1.80469 58.3608 1.46319 57.9455 1.46319C57.5302 1.46319 57.1935 1.80469 57.1935 2.22596C57.1935 2.64723 57.5302 2.98873 57.9455 2.98873Z" fill="white"/>
<path d="M60.8191 27.1163C59.6733 27.1163 58.5532 26.7716 57.6004 26.1259C56.6477 25.4802 55.9051 24.5624 55.4666 23.4886C55.0282 22.4148 54.9134 21.2333 55.137 20.0933C55.3605 18.9534 55.9123 17.9063 56.7225 17.0845C57.5327 16.2626 58.565 15.703 59.6888 15.4762C60.8127 15.2495 61.9775 15.3658 63.0362 15.8106C64.0948 16.2554 64.9996 17.0086 65.6362 17.975C66.2728 18.9414 66.6125 20.0775 66.6125 21.2398C66.6108 22.7978 65.9999 24.2915 64.9138 25.3932C63.8277 26.4948 62.3551 27.1145 60.8191 27.1163V27.1163Z" fill="#06727D"/>
<path d="M94.586 26.0478H72.164C71.8018 26.0526 71.4512 25.9187 71.1822 25.6726C70.9132 25.4266 70.7457 25.0867 70.7132 24.7208C70.7002 24.526 70.7268 24.3305 70.7913 24.1466C70.8559 23.9627 70.9569 23.7941 71.0883 23.6514C71.2197 23.5087 71.3785 23.3949 71.555 23.317C71.7315 23.2391 71.9219 23.1988 72.1144 23.1986H94.5304C94.8943 23.1931 95.2468 23.3276 95.5171 23.5748C95.7874 23.8221 95.9555 24.1639 95.9876 24.5316C95.9998 24.726 95.9725 24.9208 95.9076 25.104C95.8426 25.2873 95.7414 25.4551 95.6101 25.5972C95.4787 25.7392 95.3201 25.8525 95.144 25.93C94.9679 26.0075 94.778 26.0476 94.586 26.0478Z" fill="#06727D"/>
<path d="M82.8235 19.9932H72.164C71.8018 19.9981 71.4512 19.8641 71.1822 19.6181C70.9132 19.3721 70.7457 19.0321 70.7132 18.6662C70.7002 18.4714 70.7268 18.276 70.7913 18.0921C70.8559 17.9081 70.9569 17.7396 71.0883 17.5969C71.2197 17.4542 71.3785 17.3403 71.555 17.2624C71.7315 17.1845 71.9219 17.1442 72.1144 17.144H82.7679C83.1318 17.1386 83.4843 17.273 83.7546 17.5203C84.0249 17.7675 84.193 18.1093 84.2252 18.4771C84.2373 18.6714 84.21 18.8662 84.1451 19.0495C84.0801 19.2327 83.9789 19.4006 83.8476 19.5426C83.7163 19.6847 83.5577 19.7979 83.3815 19.8754C83.2054 19.9529 83.0155 19.993 82.8235 19.9932Z" fill="#06727D"/>
<path d="M127.455 80.5615C127.541 80.3148 127.573 80.0519 127.549 79.7913C127.524 79.5307 127.443 79.2788 127.312 79.0533C127.181 78.8277 127.003 78.6341 126.79 78.486C126.577 78.3379 126.335 78.239 126.08 78.1961L125.022 71.9239L122.642 74.184L124.012 79.7937C123.969 80.2324 124.087 80.6716 124.342 81.0282C124.598 81.3849 124.973 81.6341 125.397 81.7288C125.822 81.8234 126.266 81.7568 126.645 81.5417C127.024 81.3266 127.312 80.9778 127.455 80.5615V80.5615Z" fill="#FFB8B8"/>
<path d="M125.874 77.5606L123.537 78.1825C123.426 78.2116 123.308 78.1956 123.208 78.1378C123.109 78.08 123.035 77.985 123.004 77.8731L118.805 62.7846L117.537 58.9355C117.414 58.5647 117.387 58.1684 117.456 57.7837C117.525 57.399 117.69 57.0384 117.933 56.7353C118.177 56.4323 118.492 56.1966 118.85 56.0504C119.207 55.9042 119.595 55.852 119.978 55.8989C120.421 55.9529 120.839 56.1374 121.18 56.4295C121.521 56.7216 121.77 57.1086 121.896 57.5426L125.251 69.045L126.198 77.0772C126.208 77.1665 126.192 77.2569 126.151 77.3366C126.109 77.4162 126.046 77.4814 125.967 77.5236C125.938 77.5396 125.906 77.552 125.874 77.5606V77.5606Z" fill="#F2F2F2"/>
<path d="M117.335 53.3538C119.717 53.3538 121.647 51.3956 121.647 48.9801C121.647 46.5645 119.717 44.6063 117.335 44.6063C114.954 44.6063 113.023 46.5645 113.023 48.9801C113.023 51.3956 114.954 53.3538 117.335 53.3538Z" fill="#FFB8B8"/>
<path d="M104.639 108.813L102.576 108.19L103.962 99.8228L107.007 100.742L104.639 108.813Z" fill="#FFB8B8"/>
<path d="M104.571 111L97.9188 108.992L97.9439 108.907C98.045 108.562 98.2121 108.241 98.4357 107.962C98.6593 107.682 98.9349 107.45 99.2468 107.279C99.5588 107.108 99.9009 107 100.254 106.963C100.607 106.926 100.963 106.96 101.303 107.062L101.303 107.062L105.366 108.288L104.571 111Z" fill="#2F2E41"/>
<path d="M127.241 108.706H125.088L124.065 100.285L126.188 100.285L127.241 108.706Z" fill="#FFB8B8"/>
<path d="M127.79 110.822L120.85 110.822V110.733C120.85 110.373 120.919 110.017 121.055 109.684C121.191 109.352 121.39 109.05 121.641 108.795C121.892 108.541 122.189 108.339 122.517 108.201C122.845 108.064 123.196 107.993 123.551 107.993H123.551L127.79 107.993L127.79 110.822Z" fill="#2F2E41"/>
<path d="M105.433 106.337H103.272C103.156 106.337 103.042 106.311 102.937 106.261C102.832 106.211 102.739 106.139 102.665 106.049C102.591 105.958 102.537 105.853 102.508 105.739C102.478 105.625 102.474 105.506 102.495 105.391C101.117 104.769 108.537 68.6744 110.29 69.3741L110.348 69.2898L119.176 70.0205C123.13 78.048 125.634 91.3313 127.976 105.198C128.004 105.313 128.008 105.433 127.985 105.55C127.962 105.666 127.915 105.776 127.845 105.872C127.775 105.967 127.686 106.046 127.583 106.102C127.479 106.158 127.365 106.19 127.248 106.196L124.82 106.315C124.656 106.324 124.493 106.28 124.354 106.19C124.216 106.1 124.109 105.968 124.048 105.812L114.746 82.2232C114.727 82.1716 114.693 82.1275 114.648 82.0972C114.603 82.067 114.549 82.0523 114.495 82.0554C114.441 82.0559 114.389 82.0734 114.345 82.1056C114.302 82.1377 114.269 82.1829 114.252 82.2347L106.179 105.799C106.125 105.956 106.024 106.092 105.891 106.189C105.757 106.285 105.597 106.337 105.433 106.337V106.337Z" fill="#00170D"/>
<path d="M119.361 70.727L119.294 70.7219L109.894 70.0023L111.543 59.366C111.724 58.1787 112.278 57.0826 113.124 56.2413C113.969 55.3999 115.06 54.8585 116.234 54.6978C116.306 54.6875 116.379 54.6775 116.452 54.6677C117.374 54.5446 118.312 54.6641 119.176 55.0146C120.039 55.3651 120.799 55.9349 121.383 56.6693C121.981 57.4078 122.381 58.2899 122.546 59.2307C122.71 60.1716 122.634 61.1395 122.323 62.0416L119.361 70.727Z" fill="#00703C"/>
<path d="M125.708 53.983C122.743 55.3587 118.72 55.1126 114.121 53.983C114.758 52.2148 115.254 50.5069 114.691 49.2532C114.464 48.7799 114.336 48.2641 114.315 47.7381C114.293 47.2121 114.379 46.6874 114.568 46.1968C115.009 45.1272 115.751 44.2137 116.703 43.5713C117.654 42.9288 118.772 42.5861 119.915 42.5862V42.5862C121.451 42.5862 122.925 43.2053 124.011 44.3074C125.098 45.4094 125.708 46.9041 125.708 48.4627V53.983Z" fill="#2F2E41"/>
<path d="M115.701 42.9861H119.388V47.5848H111.663V47.0818C111.663 45.9955 112.089 44.9538 112.846 44.1857C113.603 43.4176 114.63 42.9861 115.701 42.9861V42.9861Z" fill="#2F2E41"/>
<path d="M109.691 81.5508C109.881 81.3739 110.031 81.1569 110.129 80.9149C110.228 80.673 110.273 80.412 110.261 80.1505C110.25 79.889 110.182 79.6332 110.062 79.4012C109.943 79.1693 109.774 78.9667 109.569 78.8078L111.532 72.7637L108.386 73.6291L107.004 79.236C106.764 79.6032 106.665 80.0471 106.725 80.4835C106.786 80.92 107.003 81.3186 107.334 81.6039C107.665 81.8893 108.088 82.0414 108.522 82.0317C108.957 82.0219 109.373 81.8508 109.691 81.5508V81.5508Z" fill="#FFB8B8"/>
<path d="M109.68 78.1483L107.329 77.5871C107.218 77.5599 107.121 77.4897 107.059 77.3912C106.998 77.2928 106.977 77.1739 107.001 77.06L110.263 61.7352L110.921 57.7319C110.984 57.3462 111.143 56.983 111.382 56.6761C111.621 56.3692 111.932 56.1286 112.287 55.9767C112.643 55.8248 113.03 55.7666 113.413 55.8073C113.797 55.8481 114.164 55.9866 114.48 56.21V56.21C114.847 56.4683 115.131 56.8298 115.297 57.2498C115.463 57.6699 115.504 58.1301 115.415 58.5736L113.065 70.3296L110.19 77.8754C110.158 77.9592 110.102 78.0312 110.029 78.082C109.956 78.1328 109.869 78.16 109.78 78.1601C109.747 78.1601 109.713 78.1561 109.68 78.1483V78.1483Z" fill="#F2F2F2"/>
<path d="M17.7194 68.549C17.6253 68.5735 17.5332 68.6055 17.444 68.6446L10.1278 63.8572L10.2287 61.7142L7.0601 61.137L6.51796 64.9132C6.47416 65.2182 6.5291 65.5295 6.67454 65.8002C6.81997 66.0709 7.04805 66.2864 7.32453 66.4144L16.3354 70.5868C16.3802 70.9637 16.5371 71.3177 16.7852 71.602C17.0333 71.8862 17.3608 72.087 17.7241 72.1779C18.0875 72.2687 18.4695 72.2451 18.8193 72.1103C19.1692 71.9755 19.4703 71.7359 19.6826 71.4233C19.8949 71.1107 20.0083 70.74 20.0079 70.3604C20.0074 69.9808 19.8929 69.6103 19.6798 69.2983C19.4667 68.9863 19.165 68.7475 18.8148 68.6136C18.4646 68.4798 18.0825 68.4573 17.7194 68.549H17.7194Z" fill="#FFB8B8"/>
<path d="M9.82924 63.7252L5.9055 62.9905C5.79386 62.9696 5.68797 62.9245 5.59505 62.8584C5.50213 62.7922 5.42436 62.7065 5.36703 62.6071C5.3097 62.5077 5.27417 62.397 5.26285 62.2824C5.25153 62.1678 5.26469 62.0521 5.30143 61.9431L6.58907 58.1254C6.69768 57.5466 7.02817 57.035 7.50807 56.703C7.98797 56.371 8.5781 56.2455 9.14905 56.3542C9.72 56.4629 10.2252 56.7968 10.5538 57.2827C10.8823 57.7686 11.0075 58.3669 10.9019 58.9463L10.7622 62.9657C10.7581 63.0808 10.7297 63.1936 10.6788 63.2966C10.6279 63.3995 10.5557 63.4901 10.4672 63.5622C10.3786 63.6342 10.2758 63.6861 10.1657 63.7143C10.0556 63.7424 9.94088 63.7462 9.82924 63.7252V63.7252Z" fill="#3F3D56"/>
<path d="M86.2397 52.6557H19.3515C18.7754 52.655 18.209 52.8066 17.7082 53.0955C17.5882 53.1646 17.4727 53.2413 17.3624 53.3253C16.9446 53.6395 16.6051 54.0486 16.3713 54.5199C16.1374 54.9912 16.0157 55.5115 16.0159 56.0391V91.298C16.0167 92.1951 16.3683 93.0553 16.9937 93.6896C17.6191 94.324 18.4671 94.6807 19.3515 94.6815H86.2397C87.1241 94.6807 87.9721 94.3239 88.5974 93.6896C89.2228 93.0553 89.5745 92.1951 89.5753 91.298V56.0391C89.5745 55.142 89.2228 54.2819 88.5974 53.6476C87.9721 53.0132 87.1241 52.6565 86.2397 52.6557V52.6557Z" fill="white"/>
<path d="M86.2397 52.6557H19.3515C18.7754 52.655 18.209 52.8066 17.7082 53.0955C17.5882 53.1646 17.4727 53.2413 17.3624 53.3253C16.9446 53.6395 16.6051 54.0486 16.3713 54.5199C16.1374 54.9912 16.0157 55.5115 16.0159 56.0391V91.298C16.0167 92.1951 16.3683 93.0553 16.9937 93.6896C17.6191 94.324 18.4671 94.6807 19.3515 94.6815H86.2397C87.1241 94.6807 87.9721 94.3239 88.5974 93.6896C89.2228 93.0553 89.5745 92.1951 89.5753 91.298V56.0391C89.5745 55.142 89.2228 54.2819 88.5974 53.6476C87.9721 53.0132 87.1241 52.6565 86.2397 52.6557V52.6557ZM89.2242 91.298C89.2231 92.1006 88.9083 92.8699 88.3488 93.4374C87.7893 94.0049 87.0309 94.3242 86.2397 94.3253H19.3515C18.5603 94.3242 17.8018 94.0049 17.2424 93.4374C16.6829 92.8699 16.3681 92.1006 16.367 91.298V56.0391C16.3695 55.3994 16.5706 54.7767 16.9419 54.2594C17.3131 53.7422 17.8356 53.3568 18.435 53.1579C18.4596 53.1507 18.4824 53.1418 18.507 53.1347C18.7813 53.053 19.0657 53.0116 19.3515 53.0119H86.2397C87.0309 53.013 87.7893 53.3323 88.3488 53.8998C88.9083 54.4673 89.2231 55.2366 89.2242 56.0391V91.298Z" fill="#3F3D56"/>
<path d="M52.7224 73.6536C52.456 73.6535 52.1939 73.585 51.9606 73.4544L17.0167 53.9458C16.976 53.923 16.9458 53.8847 16.9328 53.8393C16.9198 53.794 16.9251 53.7453 16.9476 53.7039C16.97 53.6625 17.0078 53.6319 17.0525 53.6187C17.0972 53.6056 17.1453 53.611 17.186 53.6338L52.1299 73.1424C52.3082 73.2422 52.5081 73.2955 52.7116 73.2973C52.9152 73.2991 53.116 73.2495 53.2959 73.1529L88.815 54.147C88.8354 54.136 88.8577 54.1292 88.8807 54.127C88.9037 54.1248 88.9269 54.1272 88.9489 54.1341C88.971 54.141 88.9915 54.1522 89.0093 54.1672C89.027 54.1821 89.0417 54.2005 89.0525 54.2212C89.0632 54.2419 89.0699 54.2645 89.072 54.2879C89.0742 54.3112 89.0717 54.3347 89.0649 54.357C89.058 54.3794 89.0469 54.4002 89.0322 54.4182C89.0174 54.4362 88.9993 54.451 88.9788 54.4619L53.4597 73.4678C53.2325 73.5897 52.9794 73.6535 52.7224 73.6536V73.6536Z" fill="#3F3D56"/>
<path d="M27.1756 85.7776H22.2599C21.8874 85.7776 21.5302 85.6275 21.2668 85.3604C21.0034 85.0932 20.8554 84.7309 20.8554 84.353C20.8554 83.9752 21.0034 83.6129 21.2668 83.3457C21.5302 83.0786 21.8874 82.9285 22.2599 82.9285H27.1756C27.548 82.9285 27.9053 83.0786 28.1687 83.3457C28.4321 83.6129 28.58 83.9752 28.58 84.353C28.58 84.7309 28.4321 85.0932 28.1687 85.3604C27.9053 85.6275 27.548 85.7776 27.1756 85.7776Z" fill="#06727D"/>
<path d="M32.969 90.5857H22.2599C21.8874 90.5857 21.5302 90.4356 21.2668 90.1685C21.0034 89.9013 20.8554 89.5389 20.8554 89.1611C20.8554 88.7833 21.0034 88.4209 21.2668 88.1538C21.5302 87.8866 21.8874 87.7365 22.2599 87.7365H32.969C33.3415 87.7365 33.6988 87.8866 33.9622 88.1538C34.2256 88.4209 34.3735 88.7833 34.3735 89.1611C34.3735 89.5389 34.2256 89.9013 33.9622 90.1685C33.6988 90.4356 33.3415 90.5857 32.969 90.5857Z" fill="#06727D"/>
<path d="M52.7085 79.367C55.8112 79.367 58.3265 76.8157 58.3265 73.6686C58.3265 70.5214 55.8112 67.9702 52.7085 67.9702C49.6059 67.9702 47.0906 70.5214 47.0906 73.6686C47.0906 76.8157 49.6059 79.367 52.7085 79.367Z" fill="#06727D"/>
<path d="M27.2421 56.0081L52.0002 66.4857C52.0855 66.5218 52.1814 66.5223 52.2671 66.4872L77.7921 56.0096C77.8676 55.9786 77.9302 55.9219 77.969 55.8492C78.0079 55.7766 78.0206 55.6925 78.005 55.6114C77.9895 55.5302 77.9466 55.4571 77.8837 55.4046C77.8208 55.352 77.7419 55.3233 77.6604 55.3233H27.3773C27.2961 55.3233 27.2175 55.3518 27.1547 55.404C27.092 55.4562 27.049 55.5288 27.033 55.6095C27.0171 55.6902 27.0292 55.774 27.0673 55.8467C27.1054 55.9194 27.1672 55.9764 27.2421 56.0081Z" fill="#F0F0F0"/>
<path d="M23.4732 53.3702C23.4516 53.4663 23.4376 53.564 23.4312 53.6623L15.8896 58.0754L14.0565 57.005L12.1023 59.5999L15.1659 61.8148C15.4134 61.9937 15.7114 62.0863 16.0152 62.0788C16.3191 62.0713 16.6123 61.9641 16.8509 61.7731L24.6276 55.5501C24.9786 55.6819 25.3608 55.7022 25.7234 55.6082C26.0859 55.5143 26.4118 55.3106 26.6575 55.0243C26.9031 54.738 27.0571 54.3826 27.0988 54.0053C27.1404 53.6281 27.0679 53.2469 26.8908 52.9125C26.7137 52.5781 26.4404 52.3063 26.1074 52.1333C25.7743 51.9603 25.3971 51.8942 25.0261 51.9439C24.6551 51.9936 24.3078 52.1567 24.0304 52.4115C23.753 52.6663 23.5586 53.0007 23.4732 53.3702V53.3702Z" fill="#FFB8B8"/>
<path d="M1.04297 77.9134C0.91245 77.8627 0.797527 77.7778 0.709935 77.6674C0.622344 77.5569 0.565222 77.4249 0.544405 77.2847L0.427951 61.737C-0.0876679 58.2753 -0.697543 54.8832 2.28637 53.1292L2.54928 52.3291C2.57794 52.2426 2.63199 52.1671 2.70418 52.1127C2.77637 52.0583 2.86323 52.0276 2.95312 52.0247L8.61363 51.8608C8.70172 51.8577 8.78865 51.8818 8.86292 51.9299C8.93718 51.9781 8.99529 52.0479 9.02956 52.1303L9.45059 53.1269L9.60009 53.2134C11.0222 54.0356 12.1737 55.265 12.9106 56.7476C13.6475 58.2302 13.937 59.9003 13.743 61.549L13.4194 64.3207L13.1895 77.2736C13.1865 77.4158 13.1466 77.5546 13.0737 77.6761C13.0009 77.7977 12.8978 77.8975 12.7748 77.9657C11.1304 78.879 9.30859 79.1914 7.58475 79.1914C4.68836 79.1914 2.06976 78.309 1.04297 77.9134Z" fill="#00703C"/>
<path d="M15.6375 58.2844L13.2001 61.4887C13.1307 61.5799 13.0428 61.6548 12.9424 61.7084C12.8419 61.762 12.7312 61.793 12.6178 61.7993C12.5045 61.8056 12.3911 61.787 12.2855 61.7449C12.1798 61.7027 12.0844 61.638 12.0056 61.555L9.24627 58.6486C8.78848 58.2861 8.49111 57.7541 8.41935 57.1695C8.34758 56.5849 8.50728 55.9953 8.86343 55.5299C9.21958 55.0645 9.74313 54.7614 10.3193 54.6869C10.8954 54.6124 11.4772 54.7728 11.937 55.1327L15.3978 57.0956C15.4969 57.1518 15.5828 57.229 15.6498 57.322C15.7168 57.415 15.7633 57.5215 15.786 57.6343C15.8088 57.7471 15.8073 57.8636 15.7817 57.9758C15.756 58.088 15.7069 58.1932 15.6375 58.2844H15.6375Z" fill="#F2F2F2"/>
<path d="M5.65604 50.6336C8.03745 50.6336 9.96796 48.6754 9.96796 46.2599C9.96796 43.8443 8.03745 41.8861 5.65604 41.8861C3.27463 41.8861 1.34412 43.8443 1.34412 46.2599C1.34412 48.6754 3.27463 50.6336 5.65604 50.6336Z" fill="#FFB8B8"/>
<path d="M9.72624 108.884H11.8786L12.9025 100.463L9.72589 100.463L9.72624 108.884Z" fill="#FFB8B8"/>
<path d="M9.17731 108.171L13.416 108.171H13.4162C13.7709 108.171 14.1221 108.242 14.4499 108.379C14.7776 108.517 15.0754 108.719 15.3262 108.973C15.5771 109.228 15.776 109.53 15.9118 109.862C16.0475 110.195 16.1174 110.551 16.1174 110.911V111L9.17744 111L9.17731 108.171Z" fill="#2F2E41"/>
<path d="M2.35283 108.884H4.50519L5.52906 100.463L2.35248 100.463L2.35283 108.884Z" fill="#FFB8B8"/>
<path d="M1.80383 108.171L6.04251 108.171H6.04268C6.39742 108.171 6.74868 108.242 7.07641 108.379C7.40414 108.517 7.70192 108.719 7.95276 108.973C8.20359 109.228 8.40256 109.53 8.53831 109.862C8.67406 110.195 8.74393 110.551 8.74393 110.911V111L1.80397 111L1.80383 108.171Z" fill="#2F2E41"/>
<path d="M9.08052 105.688L6.88508 88.4584C6.88394 88.4355 6.87399 88.414 6.85738 88.3984C6.84077 88.3829 6.81882 88.3746 6.79623 88.3753C6.78493 88.3748 6.77367 88.3768 6.76312 88.3809C6.75258 88.385 6.74297 88.3913 6.73488 88.3993C6.7268 88.4073 6.72041 88.4169 6.71609 88.4275C6.71177 88.4381 6.70963 88.4495 6.70978 88.461L6.07886 105.44C6.07179 105.648 5.98543 105.844 5.83808 105.988C5.69073 106.132 5.49394 106.212 5.28936 106.212H2.68236C2.47578 106.213 2.27706 106.131 2.12923 105.985C1.98141 105.839 1.89639 105.639 1.8926 105.43L1.21582 77.1396L12.8828 77.2579L13.1741 105.639C13.1715 105.752 13.1455 105.863 13.0977 105.964C13.05 106.066 12.9816 106.157 12.897 106.23C12.8142 106.302 12.7174 106.356 12.6127 106.388C12.5081 106.42 12.398 106.429 12.2897 106.415L9.7615 106.422C9.58228 106.397 9.41691 106.311 9.29299 106.177C9.16906 106.044 9.09407 105.871 9.08052 105.688Z" fill="#00170D"/>
<path d="M5.51571 50.7956C4.86675 50.8098 4.22216 50.6846 3.62432 50.4281C3.02648 50.1716 2.48891 49.7897 2.04694 49.3075C1.60497 48.8253 1.2686 48.2537 1.05995 47.6302C0.851299 47.0067 0.775081 46.3455 0.836307 45.6901C0.897533 45.0346 1.09481 44.3997 1.41519 43.827C1.73557 43.2544 2.17178 42.757 2.69517 42.3676C3.21856 41.9781 3.81727 41.7055 4.45196 41.5674C5.08665 41.4294 5.74296 41.4292 6.37774 41.5668C7.32597 40.9828 8.42843 40.5898 9.53338 40.6898C10.6383 40.7897 11.7311 41.4551 12.1443 42.4994C12.5575 43.5436 12.1136 44.9202 11.0862 45.3445C10.4275 45.6166 9.68369 45.4847 8.98077 45.375C8.27785 45.2652 7.51104 45.1936 6.89928 45.5615C6.28752 45.9294 6.01251 46.9159 6.5604 47.3758C6.85083 47.6293 7.05823 47.9665 7.15496 48.3426C7.2517 48.7186 7.23317 49.1156 7.10186 49.4807C6.82649 50.203 6.07494 50.7833 5.51571 50.7956Z" fill="#2F2E41"/>
</svg>
