<svg xmlns="http://www.w3.org/2000/svg" xmlns:xlink="http://www.w3.org/1999/xlink" viewBox="0 0 128 111" fill="none"><style><![CDATA[.B{fill:#ffb8b8}.C{fill:#2f2e41}.D{fill:#3f3d56}.E{fill:#06727d}.F{fill:#f2f2f2}]]></style><path d="M101.125 38.384H49.89c-.815-.001-1.595-.329-2.171-.914s-.9-1.376-.901-2.203V4.611a2.35 2.35 0 0 1 .674-1.647c.431-.437 1.015-.683 1.624-.683h52.747a2.32 2.32 0 0 1 1.65.694 2.39 2.39 0 0 1 .685 1.674v30.619c-.001.826-.325 1.618-.901 2.203s-1.357.913-2.172.914h0z" fill="#fff"/><path d="M101.125 38.384H49.89c-.815-.001-1.595-.329-2.171-.914s-.9-1.376-.901-2.203V4.611a2.35 2.35 0 0 1 .674-1.647c.431-.437 1.015-.683 1.624-.683h52.747a2.32 2.32 0 0 1 1.65.694 2.39 2.39 0 0 1 .685 1.674v30.619c-.001.826-.325 1.618-.901 2.203s-1.357.913-2.172.914h0zM49.116 2.637c-.516.001-1.011.209-1.376.579a1.99 1.99 0 0 0-.571 1.396v30.656c.001.732.288 1.433.798 1.951s1.202.809 1.923.809h51.235c.722-.001 1.414-.292 1.924-.809s.797-1.219.798-1.951V4.648a2.03 2.03 0 0 0-.582-1.422 1.97 1.97 0 0 0-1.402-.59H49.116z" class="D"/><path d="M52.7 35.268h45.617a2.79 2.79 0 0 0 1.986-.834 2.87 2.87 0 0 0 .823-2.015V10.061a2.87 2.87 0 0 0-.823-2.015 2.79 2.79 0 0 0-1.986-.835H52.7a2.79 2.79 0 0 0-1.986.835 2.87 2.87 0 0 0-.823 2.015v22.357a2.87 2.87 0 0 0 .823 2.015 2.79 2.79 0 0 0 1.986.834z" fill="#f0f0f0"/><path d="M104.275 4.443H46.691V2.947a2.99 2.99 0 0 1 .869-2.09c.551-.552 1.296-.861 2.07-.857h51.705c.775-.004 1.52.305 2.071.857a2.99 2.99 0 0 1 .869 2.09v1.496z" class="E"/><g fill="#fff"><use xlink:href="#B"/><use xlink:href="#B" x="2.854"/><use xlink:href="#B" x="5.709"/></g><g class="E"><path d="M60.819 27.116a5.74 5.74 0 0 1-3.219-.99 5.86 5.86 0 0 1-2.134-2.637c-.438-1.074-.553-2.255-.33-3.395a5.9 5.9 0 0 1 1.585-3.009 5.77 5.77 0 0 1 2.966-1.608 5.72 5.72 0 0 1 3.347.334c1.059.445 1.963 1.198 2.6 2.164a5.93 5.93 0 0 1 .976 3.265c-.002 1.558-.613 3.052-1.699 4.153a5.76 5.76 0 0 1-4.095 1.723h0zm33.767-1.068H72.164c-.362.005-.713-.129-.982-.375a1.47 1.47 0 0 1-.469-.952c-.013-.195.014-.39.078-.574a1.43 1.43 0 0 1 .297-.495c.131-.143.29-.256.467-.334a1.39 1.39 0 0 1 .559-.118H94.53a1.43 1.43 0 0 1 .987.376 1.47 1.47 0 0 1 .471.957c.012.194-.015.389-.08.572a1.43 1.43 0 0 1-.297.493 1.41 1.41 0 0 1-.466.333 1.39 1.39 0 0 1-.558.118z"/><path d="M82.824 19.993H72.164c-.362.005-.713-.129-.982-.375s-.436-.586-.469-.952c-.013-.195.014-.39.078-.574a1.43 1.43 0 0 1 .297-.495c.131-.143.29-.257.467-.335a1.39 1.39 0 0 1 .559-.118h10.653a1.43 1.43 0 0 1 .987.376 1.47 1.47 0 0 1 .471.957c.012.194-.015.389-.08.572a1.43 1.43 0 0 1-.297.493c-.131.142-.29.255-.466.333a1.39 1.39 0 0 1-.558.118z"/></g><path d="M127.455 80.562a1.83 1.83 0 0 0 .094-.77c-.025-.261-.106-.513-.237-.738s-.309-.419-.522-.567a1.75 1.75 0 0 0-.71-.29l-1.058-6.272-2.38 2.26 1.37 5.61a1.82 1.82 0 0 0 .33 1.234c.256.357.631.606 1.055.701s.869.028 1.248-.187.667-.564.81-.98h0z" class="B"/><path d="M125.874 77.561l-2.337.622c-.111.029-.229.013-.329-.045s-.173-.153-.204-.265l-4.199-15.088-1.268-3.849c-.123-.371-.15-.767-.081-1.152s.234-.745.477-1.048a2.29 2.29 0 0 1 .917-.685c.357-.146.745-.198 1.128-.152a2.27 2.27 0 0 1 1.202.531c.341.292.59.679.716 1.113l3.355 11.502.947 8.032c.01.089-.006.18-.047.259s-.105.145-.184.187a.42.42 0 0 1-.093.037h0z" class="F"/><path d="M117.335 53.354c2.382 0 4.312-1.958 4.312-4.374s-1.93-4.374-4.312-4.374-4.312 1.958-4.312 4.374 1.931 4.374 4.312 4.374zm-12.696 55.459l-2.063-.623 1.386-8.367 3.045.919-2.368 8.071z" class="B"/><path d="M104.571 111l-6.652-2.008.025-.085c.101-.345.268-.666.492-.945a2.7 2.7 0 0 1 .811-.683c.312-.171.654-.279 1.007-.316s.709-.003 1.049.099h0l4.063 1.226-.795 2.712z" class="C"/><path d="M127.241 108.706h-2.153l-1.023-8.421h2.123l1.053 8.421z" class="B"/><path d="M127.79 110.822h-6.94v-.089c0-.36.069-.716.205-1.049s.335-.634.586-.889a2.71 2.71 0 0 1 .876-.594 2.68 2.68 0 0 1 1.034-.208h0 4.239v2.829z" class="C"/><path d="M105.433 106.337h-2.161a.78.78 0 0 1-.335-.076c-.105-.05-.198-.122-.272-.212s-.128-.196-.157-.31a.8.8 0 0 1-.013-.348c-1.378-.622 6.042-36.717 7.795-36.017l.058-.084 8.828.731c3.954 8.028 6.458 21.311 8.8 35.177a.82.82 0 0 1 .009.352c-.023.116-.07.226-.14.322s-.159.174-.262.23a.79.79 0 0 1-.335.094l-2.428.119a.78.78 0 0 1-.466-.125c-.138-.09-.245-.222-.306-.378l-9.302-23.589a.26.26 0 0 0-.098-.126.25.25 0 0 0-.153-.042c-.054 0-.106.018-.15.05s-.076.077-.093.129l-8.073 23.564a.81.81 0 0 1-.288.39c-.134.096-.294.148-.458.148h0z" fill="#00170d"/><path d="M119.361 70.727l-.067-.005-9.4-.72 1.649-10.636c.181-1.187.735-2.283 1.581-3.125s1.936-1.383 3.11-1.544l.218-.03c.922-.123 1.86-.004 2.724.347s1.623.92 2.207 1.655a5.61 5.61 0 0 1 1.163 2.561 5.65 5.65 0 0 1-.223 2.811l-2.962 8.685z" fill="#00703c"/><g class="C"><path d="M125.708 53.983c-2.965 1.376-6.988 1.13-11.587 0 .637-1.768 1.133-3.476.57-4.73a3.86 3.86 0 0 1-.376-1.515 3.84 3.84 0 0 1 .253-1.541c.441-1.07 1.183-1.983 2.135-2.626s2.069-.985 3.212-.985h0a5.75 5.75 0 0 1 4.096 1.721c1.087 1.102 1.697 2.597 1.697 4.155v5.52z"/><path d="M115.701 42.986h3.687v4.599h-7.725v-.503c0-1.086.426-2.128 1.183-2.896a4.01 4.01 0 0 1 2.855-1.2h0z"/></g><path d="M109.691 81.551c.19-.177.34-.394.438-.636a1.8 1.8 0 0 0 .132-.764c-.011-.261-.079-.517-.199-.749a1.78 1.78 0 0 0-.493-.593l1.963-6.044-3.146.865-1.382 5.607c-.24.367-.339.811-.279 1.248a1.81 1.81 0 0 0 .609 1.12 1.76 1.76 0 0 0 2.357-.053h0z" class="B"/><path d="M109.68 78.148l-2.351-.561c-.111-.027-.208-.097-.27-.196s-.082-.217-.058-.331l3.262-15.325.658-4.003a2.33 2.33 0 0 1 .461-1.056 2.29 2.29 0 0 1 .905-.699 2.26 2.26 0 0 1 2.193.233h0a2.31 2.31 0 0 1 .817 1.04c.166.42.207.88.118 1.324l-2.35 11.756-2.875 7.546c-.032.084-.088.156-.161.207s-.16.078-.249.078c-.033 0-.067-.004-.1-.012h0z" class="F"/><path d="M17.719 68.549a1.84 1.84 0 0 0-.275.096l-7.316-4.787.101-2.143-3.169-.577-.542 3.776a1.44 1.44 0 0 0 .157.887 1.41 1.41 0 0 0 .65.614l9.011 4.172a1.88 1.88 0 0 0 .45 1.015 1.84 1.84 0 0 0 .939.576 1.82 1.82 0 0 0 1.095-.068c.35-.135.651-.374.863-.687a1.89 1.89 0 0 0-.003-2.125c-.213-.312-.515-.551-.865-.685a1.82 1.82 0 0 0-1.095-.065h0z" class="B"/><path d="M9.829 63.725l-3.924-.735c-.112-.021-.218-.066-.31-.132a.8.8 0 0 1-.228-.251.81.81 0 0 1-.066-.664l1.288-3.818a2.23 2.23 0 0 1 .919-1.422 2.17 2.17 0 0 1 1.641-.349c.571.109 1.076.443 1.405.928a2.25 2.25 0 0 1 .348 1.664l-.14 4.019a.81.81 0 0 1-.083.331.8.8 0 0 1-.212.266.79.79 0 0 1-.302.152.78.78 0 0 1-.336.011h0z" class="D"/><path d="M86.24 52.656H19.352a3.28 3.28 0 0 0-1.643.44c-.12.069-.236.146-.346.23-.418.314-.757.723-.991 1.195s-.356.992-.355 1.519v35.259a3.41 3.41 0 0 0 .978 2.392c.625.634 1.473.991 2.358.992H86.24c.884-.001 1.732-.358 2.358-.992a3.41 3.41 0 0 0 .978-2.392V56.039a3.41 3.41 0 0 0-.978-2.392c-.625-.634-1.473-.991-2.358-.992h0z" fill="#fff"/><g class="D"><path d="M86.24 52.656H19.352a3.28 3.28 0 0 0-1.643.44c-.12.069-.236.146-.346.23-.418.314-.757.723-.991 1.195s-.356.992-.355 1.519v35.259a3.41 3.41 0 0 0 .978 2.392c.625.634 1.473.991 2.358.992H86.24c.884-.001 1.732-.358 2.358-.992a3.41 3.41 0 0 0 .978-2.392V56.039a3.41 3.41 0 0 0-.978-2.392c-.625-.634-1.473-.991-2.358-.992h0zm2.984 38.642c-.001.803-.316 1.572-.875 2.139s-1.318.887-2.109.888H19.352c-.791-.001-1.55-.32-2.109-.888s-.874-1.337-.875-2.139V56.039c.002-.64.204-1.262.575-1.78s.894-.903 1.493-1.102l.072-.023c.274-.082.559-.123.845-.123H86.24c.791.001 1.55.32 2.109.888s.874 1.337.875 2.139v35.259z"/><path d="M52.722 73.654a1.56 1.56 0 0 1-.762-.199L17.017 53.946c-.041-.023-.071-.061-.084-.106a.18.18 0 0 1 .015-.135c.022-.041.06-.072.105-.085s.093-.008.134.015L52.13 73.142c.178.1.378.153.582.155a1.21 1.21 0 0 0 .584-.144l35.519-19.006c.02-.011.043-.018.066-.02s.046 0 .068.007.043.018.06.033.032.033.043.054a.18.18 0 0 1 .012.136c-.007.022-.018.043-.033.061s-.033.033-.053.044L53.46 73.468a1.56 1.56 0 0 1-.737.186h0z"/></g><path d="M27.176 85.778H22.26c-.372 0-.73-.15-.993-.417s-.411-.629-.411-1.007.148-.74.411-1.007.621-.417.993-.417h4.916c.372 0 .73.15.993.417s.411.63.411 1.007-.148.74-.411 1.007-.621.417-.993.417zm5.793 4.808H22.26c-.372 0-.73-.15-.993-.417s-.411-.63-.411-1.007.148-.74.411-1.007.621-.417.993-.417h10.709c.373 0 .73.15.993.417s.411.629.411 1.007-.148.74-.411 1.007-.621.417-.993.417zm19.74-11.219c3.103 0 5.618-2.551 5.618-5.698s-2.515-5.698-5.618-5.698-5.618 2.551-5.618 5.698 2.515 5.698 5.618 5.698z" class="E"/><path d="M27.242 56.008L52 66.486c.085.036.181.037.267.002L77.792 56.01c.075-.031.138-.088.177-.16a.36.36 0 0 0 .036-.238c-.015-.081-.058-.154-.121-.207s-.142-.081-.223-.081H27.377c-.081 0-.16.028-.223.081s-.106.125-.122.205a.36.36 0 0 0 .034.237c.038.073.1.13.175.161z" fill="#f0f0f0"/><path d="M23.473 53.37c-.022.096-.036.194-.042.292l-7.542 4.413-1.833-1.07-1.954 2.595 3.064 2.215a1.39 1.39 0 0 0 1.685-.042l7.777-6.223a1.82 1.82 0 0 0 1.096.058 1.84 1.84 0 0 0 .934-.584c.246-.286.4-.642.441-1.019s-.031-.758-.208-1.093-.45-.606-.783-.779a1.82 1.82 0 0 0-1.081-.189 1.83 1.83 0 0 0-.996.468c-.277.255-.472.589-.557.959h0z" class="B"/><path d="M1.043 77.913a.79.79 0 0 1-.333-.246c-.088-.111-.145-.243-.166-.383L.428 61.737c-.516-3.462-1.125-6.854 1.858-8.608l.263-.8c.029-.086.083-.162.155-.216s.159-.085.249-.088l5.661-.164a.43.43 0 0 1 .249.069.44.44 0 0 1 .167.2l.421.997.149.087c1.422.822 2.574 2.052 3.311 3.534a8.55 8.55 0 0 1 .832 4.801l-.324 2.772-.23 12.953c-.003.142-.043.281-.116.403a.8.8 0 0 1-.299.29c-1.644.913-3.466 1.226-5.19 1.226-2.896 0-5.515-.882-6.542-1.278z" fill="#00703c"/><path d="M15.638 58.284L13.2 61.489c-.069.091-.157.166-.258.22a.78.78 0 0 1-.657.037.79.79 0 0 1-.28-.19l-2.759-2.906c-.458-.363-.755-.895-.827-1.479a2.25 2.25 0 0 1 .444-1.64c.356-.465.88-.768 1.456-.843a2.17 2.17 0 0 1 1.618.446l3.461 1.963c.099.056.185.133.252.226s.113.2.136.312a.81.81 0 0 1-.004.341c-.026.112-.075.217-.144.309h0z" class="F"/><path d="M5.656 50.634c2.381 0 4.312-1.958 4.312-4.374s-1.931-4.374-4.312-4.374-4.312 1.958-4.312 4.374 1.931 4.374 4.312 4.374zm4.07 58.25h2.152l1.024-8.421H9.726v8.421z" class="B"/><use xlink:href="#C" class="C"/><path d="M2.353 108.884h2.152l1.024-8.421H2.352v8.421z" class="B"/><use xlink:href="#C" x="-7.373" class="C"/><path d="M9.081 105.688l-2.195-17.23c-.001-.023-.011-.044-.028-.06s-.039-.024-.061-.023c-.011-.001-.023.002-.033.006s-.02.01-.028.018-.014.018-.019.028-.006.022-.006.034l-.631 16.979c-.007.208-.093.404-.241.548s-.344.224-.549.224H2.682c-.207.001-.405-.081-.553-.227a.8.8 0 0 1-.237-.555l-.677-28.29 11.667.118.291 28.381c-.003.113-.029.224-.076.325a.8.8 0 0 1-.201.266.78.78 0 0 1-.284.158c-.105.032-.215.041-.323.027l-2.528.007c-.179-.025-.345-.111-.469-.245s-.199-.306-.212-.489z" fill="#00170d"/><path d="M5.516 50.796c-.649.014-1.294-.111-1.891-.367a4.6 4.6 0 0 1-1.577-1.121 4.68 4.68 0 0 1-.987-1.677 4.73 4.73 0 0 1-.224-1.94c.061-.656.259-1.29.579-1.863s.757-1.07 1.28-1.459a4.57 4.57 0 0 1 1.757-.8c.635-.138 1.291-.138 1.926-.001.948-.584 2.051-.977 3.156-.877s2.198.765 2.611 1.81-.031 2.421-1.058 2.845c-.659.272-1.403.14-2.105.031s-1.47-.181-2.081.187-.887 1.354-.339 1.814c.29.254.498.591.595.967a1.94 1.94 0 0 1-.053 1.138c-.275.722-1.027 1.303-1.586 1.315z" class="C"/><defs ><path id="B" d="M52.237 2.989c.415 0 .752-.341.752-.763s-.337-.763-.752-.763-.752.341-.752.763.337.763.752.763z"/><path id="C" d="M9.177 108.171h4.239 0a2.68 2.68 0 0 1 1.034.208 2.71 2.71 0 0 1 .876.594c.251.255.45.557.586.889a2.78 2.78 0 0 1 .206 1.049V111h-6.94v-2.829z"/></defs></svg>